G04 #@! TF.GenerationSoftware,KiCad,Pcbnew,(5.1.9)-1*
G04 #@! TF.CreationDate,2021-08-18T12:55:09-04:00*
G04 #@! TF.ProjectId,si-mips-usb-a-if,73692d6d-6970-4732-9d75-73622d612d69,rev?*
G04 #@! TF.SameCoordinates,Original*
G04 #@! TF.FileFunction,Soldermask,Top*
G04 #@! TF.FilePolarity,Negative*
%FSLAX46Y46*%
G04 Gerber Fmt 4.6, Leading zero omitted, Abs format (unit mm)*
G04 Created by KiCad (PCBNEW (5.1.9)-1) date 2021-08-18 12:55:09*
%MOMM*%
%LPD*%
G01*
G04 APERTURE LIST*
%ADD10R,1.000000X0.700000*%
%ADD11R,0.600000X0.700000*%
%ADD12C,1.600000*%
%ADD13R,1.500000X1.600000*%
%ADD14C,3.000000*%
%ADD15C,5.000000*%
G04 APERTURE END LIST*
G04 #@! TO.C,J2*
G36*
G01*
X114150000Y-71500000D02*
X111150000Y-71500000D01*
G75*
G02*
X110900000Y-71250000I0J250000D01*
G01*
X110900000Y-70750000D01*
G75*
G02*
X111150000Y-70500000I250000J0D01*
G01*
X114150000Y-70500000D01*
G75*
G02*
X114400000Y-70750000I0J-250000D01*
G01*
X114400000Y-71250000D01*
G75*
G02*
X114150000Y-71500000I-250000J0D01*
G01*
G37*
G36*
G01*
X114150000Y-69500000D02*
X111150000Y-69500000D01*
G75*
G02*
X110900000Y-69250000I0J250000D01*
G01*
X110900000Y-68750000D01*
G75*
G02*
X111150000Y-68500000I250000J0D01*
G01*
X114150000Y-68500000D01*
G75*
G02*
X114400000Y-68750000I0J-250000D01*
G01*
X114400000Y-69250000D01*
G75*
G02*
X114150000Y-69500000I-250000J0D01*
G01*
G37*
G36*
G01*
X114150000Y-67500000D02*
X111150000Y-67500000D01*
G75*
G02*
X110900000Y-67250000I0J250000D01*
G01*
X110900000Y-66750000D01*
G75*
G02*
X111150000Y-66500000I250000J0D01*
G01*
X114150000Y-66500000D01*
G75*
G02*
X114400000Y-66750000I0J-250000D01*
G01*
X114400000Y-67250000D01*
G75*
G02*
X114150000Y-67500000I-250000J0D01*
G01*
G37*
G36*
G01*
X114150000Y-65500000D02*
X111150000Y-65500000D01*
G75*
G02*
X110900000Y-65250000I0J250000D01*
G01*
X110900000Y-64750000D01*
G75*
G02*
X111150000Y-64500000I250000J0D01*
G01*
X114150000Y-64500000D01*
G75*
G02*
X114400000Y-64750000I0J-250000D01*
G01*
X114400000Y-65250000D01*
G75*
G02*
X114150000Y-65500000I-250000J0D01*
G01*
G37*
G36*
G01*
X114150000Y-63500000D02*
X111150000Y-63500000D01*
G75*
G02*
X110900000Y-63250000I0J250000D01*
G01*
X110900000Y-62750000D01*
G75*
G02*
X111150000Y-62500000I250000J0D01*
G01*
X114150000Y-62500000D01*
G75*
G02*
X114400000Y-62750000I0J-250000D01*
G01*
X114400000Y-63250000D01*
G75*
G02*
X114150000Y-63500000I-250000J0D01*
G01*
G37*
G36*
G01*
X119850000Y-74100000D02*
X116950000Y-74100000D01*
G75*
G02*
X116700000Y-73850000I0J250000D01*
G01*
X116700000Y-72850000D01*
G75*
G02*
X116950000Y-72600000I250000J0D01*
G01*
X119850000Y-72600000D01*
G75*
G02*
X120100000Y-72850000I0J-250000D01*
G01*
X120100000Y-73850000D01*
G75*
G02*
X119850000Y-74100000I-250000J0D01*
G01*
G37*
G36*
G01*
X119850000Y-61400000D02*
X116950000Y-61400000D01*
G75*
G02*
X116700000Y-61150000I0J250000D01*
G01*
X116700000Y-60150000D01*
G75*
G02*
X116950000Y-59900000I250000J0D01*
G01*
X119850000Y-59900000D01*
G75*
G02*
X120100000Y-60150000I0J-250000D01*
G01*
X120100000Y-61150000D01*
G75*
G02*
X119850000Y-61400000I-250000J0D01*
G01*
G37*
G04 #@! TD*
D10*
G04 #@! TO.C,U1*
X101590000Y-76500000D03*
D11*
X103310000Y-76500000D03*
X103310000Y-74300000D03*
X101410000Y-74300000D03*
G04 #@! TD*
D12*
G04 #@! TO.C,J1*
X97800000Y-80000000D03*
X97800000Y-77500000D03*
X97800000Y-75500000D03*
D13*
X97800000Y-73000000D03*
D14*
X95090000Y-83070000D03*
X95090000Y-69930000D03*
G04 #@! TD*
D15*
G04 #@! TO.C,H1*
X94870000Y-64000000D03*
G04 #@! TD*
G04 #@! TO.C,H2*
X94870000Y-89000000D03*
G04 #@! TD*
M02*
