M48
INCH,TZ
T1C0.0157
T2C0.0197
T3C0.0374
T4C0.0906
T5C0.1358
%
G90
G05
T1
X40059Y-27461
X40059Y-27953
X40059Y-28445
X40059Y-31496
X40256Y-26969
X40650Y-26575
X40748Y-31299
X41043Y-26181
X41142Y-30906
X41437Y-25787
X41585Y-30463
X41831Y-25394
X41929Y-30118
X42004Y-28567
X42004Y-29157
X42004Y-29650
X42142Y-27969
X42535Y-27575
X42945Y-27165
X43406Y-27165
X44350Y-28563
X45547Y-23886
X45551Y-28878
X46614Y-24543
X46614Y-28177
T2
X39240Y-30106
T3
X38504Y-28740
X38504Y-29724
X38504Y-30512
X38504Y-31496
T4
X37437Y-27531
X37437Y-32705
T5
X37350Y-25197
X37350Y-35039
T0
M30
