G04 #@! TF.GenerationSoftware,KiCad,Pcbnew,(5.1.9)-1*
G04 #@! TF.CreationDate,2021-08-18T12:55:09-04:00*
G04 #@! TF.ProjectId,si-mips-usb-a-if,73692d6d-6970-4732-9d75-73622d612d69,rev?*
G04 #@! TF.SameCoordinates,Original*
G04 #@! TF.FileFunction,Legend,Top*
G04 #@! TF.FilePolarity,Positive*
%FSLAX46Y46*%
G04 Gerber Fmt 4.6, Leading zero omitted, Abs format (unit mm)*
G04 Created by KiCad (PCBNEW (5.1.9)-1) date 2021-08-18 12:55:09*
%MOMM*%
%LPD*%
G01*
G04 APERTURE LIST*
%ADD10C,0.120000*%
%ADD11C,0.150000*%
G04 APERTURE END LIST*
D10*
G04 #@! TO.C,J2*
X120010000Y-72340000D02*
X120010000Y-61660000D01*
X113790000Y-60960000D02*
X113790000Y-62240000D01*
X112190000Y-60960000D02*
X113790000Y-60960000D01*
X112190000Y-59940000D02*
X112190000Y-60960000D01*
X116440000Y-59940000D02*
X112190000Y-59940000D01*
X113790000Y-71760000D02*
X110900000Y-71760000D01*
X113790000Y-73040000D02*
X113790000Y-71760000D01*
X112190000Y-73040000D02*
X113790000Y-73040000D01*
X112190000Y-74060000D02*
X112190000Y-73040000D01*
X116440000Y-74060000D02*
X112190000Y-74060000D01*
G04 #@! TO.C,U1*
X103910000Y-76600000D02*
X103910000Y-74200000D01*
X100810000Y-74200000D02*
X100810000Y-77150000D01*
G04 #@! TO.C,J1*
X85220000Y-69840000D02*
X93330000Y-69840000D01*
X85220000Y-69840000D02*
X85220000Y-69190000D01*
X100180000Y-69840000D02*
X100180000Y-83160000D01*
X100180000Y-69840000D02*
X96850000Y-69840000D01*
X100180000Y-83160000D02*
X96850000Y-83160000D01*
X84700000Y-83810000D02*
X85220000Y-83810000D01*
X84700000Y-69190000D02*
X84700000Y-83810000D01*
X93330000Y-83160000D02*
X85220000Y-83160000D01*
X85220000Y-69190000D02*
X84700000Y-69190000D01*
X85220000Y-83810000D02*
X85220000Y-83160000D01*
X100400000Y-72100000D02*
X100400000Y-73900000D01*
D11*
G04 #@! TO.C,H1*
X88290000Y-67300000D02*
X99790000Y-67250000D01*
X99790000Y-67250000D02*
X99740000Y-60700000D01*
X99740000Y-60700000D02*
X88290000Y-60700000D01*
X88290000Y-60700000D02*
X88290000Y-67300000D01*
G04 #@! TO.C,H2*
X88290000Y-92300000D02*
X99790000Y-92250000D01*
X99790000Y-92250000D02*
X99740000Y-85700000D01*
X99740000Y-85700000D02*
X88290000Y-85700000D01*
X88290000Y-85700000D02*
X88290000Y-92300000D01*
G04 #@! TO.C,J2*
X108776666Y-59882380D02*
X108776666Y-60596666D01*
X108729047Y-60739523D01*
X108633809Y-60834761D01*
X108490952Y-60882380D01*
X108395714Y-60882380D01*
X109205238Y-59977619D02*
X109252857Y-59930000D01*
X109348095Y-59882380D01*
X109586190Y-59882380D01*
X109681428Y-59930000D01*
X109729047Y-59977619D01*
X109776666Y-60072857D01*
X109776666Y-60168095D01*
X109729047Y-60310952D01*
X109157619Y-60882380D01*
X109776666Y-60882380D01*
G04 #@! TO.C,U1*
X101578095Y-77672380D02*
X101578095Y-78481904D01*
X101625714Y-78577142D01*
X101673333Y-78624761D01*
X101768571Y-78672380D01*
X101959047Y-78672380D01*
X102054285Y-78624761D01*
X102101904Y-78577142D01*
X102149523Y-78481904D01*
X102149523Y-77672380D01*
X103149523Y-78672380D02*
X102578095Y-78672380D01*
X102863809Y-78672380D02*
X102863809Y-77672380D01*
X102768571Y-77815238D01*
X102673333Y-77910476D01*
X102578095Y-77958095D01*
G04 #@! TO.C,J1*
X101226666Y-82522380D02*
X101226666Y-83236666D01*
X101179047Y-83379523D01*
X101083809Y-83474761D01*
X100940952Y-83522380D01*
X100845714Y-83522380D01*
X102226666Y-83522380D02*
X101655238Y-83522380D01*
X101940952Y-83522380D02*
X101940952Y-82522380D01*
X101845714Y-82665238D01*
X101750476Y-82760476D01*
X101655238Y-82808095D01*
G04 #@! TD*
M02*
