G04 #@! TF.GenerationSoftware,KiCad,Pcbnew,(5.1.9)-1*
G04 #@! TF.CreationDate,2021-08-18T12:55:09-04:00*
G04 #@! TF.ProjectId,si-mips-usb-a-if,73692d6d-6970-4732-9d75-73622d612d69,rev?*
G04 #@! TF.SameCoordinates,Original*
G04 #@! TF.FileFunction,Copper,L1,Top*
G04 #@! TF.FilePolarity,Positive*
%FSLAX46Y46*%
G04 Gerber Fmt 4.6, Leading zero omitted, Abs format (unit mm)*
G04 Created by KiCad (PCBNEW (5.1.9)-1) date 2021-08-18 12:55:09*
%MOMM*%
%LPD*%
G01*
G04 APERTURE LIST*
G04 #@! TA.AperFunction,SMDPad,CuDef*
%ADD10R,1.000000X0.700000*%
G04 #@! TD*
G04 #@! TA.AperFunction,SMDPad,CuDef*
%ADD11R,0.600000X0.700000*%
G04 #@! TD*
G04 #@! TA.AperFunction,ComponentPad*
%ADD12C,1.600000*%
G04 #@! TD*
G04 #@! TA.AperFunction,ComponentPad*
%ADD13R,1.500000X1.600000*%
G04 #@! TD*
G04 #@! TA.AperFunction,ComponentPad*
%ADD14C,3.000000*%
G04 #@! TD*
G04 #@! TA.AperFunction,ComponentPad*
%ADD15C,5.000000*%
G04 #@! TD*
G04 #@! TA.AperFunction,ViaPad*
%ADD16C,0.800000*%
G04 #@! TD*
G04 #@! TA.AperFunction,ViaPad*
%ADD17C,1.000000*%
G04 #@! TD*
G04 #@! TA.AperFunction,Conductor*
%ADD18C,1.000000*%
G04 #@! TD*
G04 #@! TA.AperFunction,Conductor*
%ADD19C,0.750000*%
G04 #@! TD*
G04 #@! TA.AperFunction,Conductor*
%ADD20C,1.050000*%
G04 #@! TD*
G04 #@! TA.AperFunction,Conductor*
%ADD21C,0.254000*%
G04 #@! TD*
G04 #@! TA.AperFunction,Conductor*
%ADD22C,0.100000*%
G04 #@! TD*
G04 APERTURE END LIST*
G04 #@! TO.P,J2,1*
G04 #@! TO.N,Earth*
G04 #@! TA.AperFunction,SMDPad,CuDef*
G36*
G01*
X114150000Y-71500000D02*
X111150000Y-71500000D01*
G75*
G02*
X110900000Y-71250000I0J250000D01*
G01*
X110900000Y-70750000D01*
G75*
G02*
X111150000Y-70500000I250000J0D01*
G01*
X114150000Y-70500000D01*
G75*
G02*
X114400000Y-70750000I0J-250000D01*
G01*
X114400000Y-71250000D01*
G75*
G02*
X114150000Y-71500000I-250000J0D01*
G01*
G37*
G04 #@! TD.AperFunction*
G04 #@! TO.P,J2,2*
G04 #@! TO.N,GND*
G04 #@! TA.AperFunction,SMDPad,CuDef*
G36*
G01*
X114150000Y-69500000D02*
X111150000Y-69500000D01*
G75*
G02*
X110900000Y-69250000I0J250000D01*
G01*
X110900000Y-68750000D01*
G75*
G02*
X111150000Y-68500000I250000J0D01*
G01*
X114150000Y-68500000D01*
G75*
G02*
X114400000Y-68750000I0J-250000D01*
G01*
X114400000Y-69250000D01*
G75*
G02*
X114150000Y-69500000I-250000J0D01*
G01*
G37*
G04 #@! TD.AperFunction*
G04 #@! TO.P,J2,3*
G04 #@! TO.N,/D+*
G04 #@! TA.AperFunction,SMDPad,CuDef*
G36*
G01*
X114150000Y-67500000D02*
X111150000Y-67500000D01*
G75*
G02*
X110900000Y-67250000I0J250000D01*
G01*
X110900000Y-66750000D01*
G75*
G02*
X111150000Y-66500000I250000J0D01*
G01*
X114150000Y-66500000D01*
G75*
G02*
X114400000Y-66750000I0J-250000D01*
G01*
X114400000Y-67250000D01*
G75*
G02*
X114150000Y-67500000I-250000J0D01*
G01*
G37*
G04 #@! TD.AperFunction*
G04 #@! TO.P,J2,4*
G04 #@! TO.N,/D-*
G04 #@! TA.AperFunction,SMDPad,CuDef*
G36*
G01*
X114150000Y-65500000D02*
X111150000Y-65500000D01*
G75*
G02*
X110900000Y-65250000I0J250000D01*
G01*
X110900000Y-64750000D01*
G75*
G02*
X111150000Y-64500000I250000J0D01*
G01*
X114150000Y-64500000D01*
G75*
G02*
X114400000Y-64750000I0J-250000D01*
G01*
X114400000Y-65250000D01*
G75*
G02*
X114150000Y-65500000I-250000J0D01*
G01*
G37*
G04 #@! TD.AperFunction*
G04 #@! TO.P,J2,5*
G04 #@! TO.N,VBUS*
G04 #@! TA.AperFunction,SMDPad,CuDef*
G36*
G01*
X114150000Y-63500000D02*
X111150000Y-63500000D01*
G75*
G02*
X110900000Y-63250000I0J250000D01*
G01*
X110900000Y-62750000D01*
G75*
G02*
X111150000Y-62500000I250000J0D01*
G01*
X114150000Y-62500000D01*
G75*
G02*
X114400000Y-62750000I0J-250000D01*
G01*
X114400000Y-63250000D01*
G75*
G02*
X114150000Y-63500000I-250000J0D01*
G01*
G37*
G04 #@! TD.AperFunction*
G04 #@! TO.P,J2,MP*
G04 #@! TO.N,Earth*
G04 #@! TA.AperFunction,SMDPad,CuDef*
G36*
G01*
X119850000Y-74100000D02*
X116950000Y-74100000D01*
G75*
G02*
X116700000Y-73850000I0J250000D01*
G01*
X116700000Y-72850000D01*
G75*
G02*
X116950000Y-72600000I250000J0D01*
G01*
X119850000Y-72600000D01*
G75*
G02*
X120100000Y-72850000I0J-250000D01*
G01*
X120100000Y-73850000D01*
G75*
G02*
X119850000Y-74100000I-250000J0D01*
G01*
G37*
G04 #@! TD.AperFunction*
G04 #@! TA.AperFunction,SMDPad,CuDef*
G36*
G01*
X119850000Y-61400000D02*
X116950000Y-61400000D01*
G75*
G02*
X116700000Y-61150000I0J250000D01*
G01*
X116700000Y-60150000D01*
G75*
G02*
X116950000Y-59900000I250000J0D01*
G01*
X119850000Y-59900000D01*
G75*
G02*
X120100000Y-60150000I0J-250000D01*
G01*
X120100000Y-61150000D01*
G75*
G02*
X119850000Y-61400000I-250000J0D01*
G01*
G37*
G04 #@! TD.AperFunction*
G04 #@! TD*
D10*
G04 #@! TO.P,U1,1*
G04 #@! TO.N,Earth*
X101590000Y-76500000D03*
D11*
G04 #@! TO.P,U1,2*
G04 #@! TO.N,/D+*
X103310000Y-76500000D03*
G04 #@! TO.P,U1,3*
G04 #@! TO.N,/D-*
X103310000Y-74300000D03*
G04 #@! TO.P,U1,4*
G04 #@! TO.N,VBUS*
X101410000Y-74300000D03*
G04 #@! TD*
D12*
G04 #@! TO.P,J1,4*
G04 #@! TO.N,GND*
X97800000Y-80000000D03*
G04 #@! TO.P,J1,3*
G04 #@! TO.N,/D+*
X97800000Y-77500000D03*
G04 #@! TO.P,J1,2*
G04 #@! TO.N,/D-*
X97800000Y-75500000D03*
D13*
G04 #@! TO.P,J1,1*
G04 #@! TO.N,VBUS*
X97800000Y-73000000D03*
D14*
G04 #@! TO.P,J1,5*
G04 #@! TO.N,Earth*
X95090000Y-83070000D03*
X95090000Y-69930000D03*
G04 #@! TD*
D15*
G04 #@! TO.P,H1,1*
G04 #@! TO.N,Earth*
X94870000Y-64000000D03*
G04 #@! TD*
G04 #@! TO.P,H2,1*
G04 #@! TO.N,Earth*
X94870000Y-89000000D03*
G04 #@! TD*
D16*
G04 #@! TO.N,GND*
X106250000Y-64500000D03*
X105250000Y-65500000D03*
X104250000Y-66500000D03*
X103250000Y-67500000D03*
X102250000Y-68500000D03*
X101750000Y-69750000D03*
X101750000Y-71000000D03*
X101750000Y-72250000D03*
X109080000Y-69000000D03*
X110250000Y-69000000D03*
X108040000Y-70040000D03*
X107040000Y-71040000D03*
X106690000Y-72560000D03*
X106690000Y-74060000D03*
X106690000Y-75310000D03*
X106500000Y-76500000D03*
X105625000Y-77375000D03*
X104500000Y-78500000D03*
X103500000Y-79500000D03*
X101750000Y-80000000D03*
G04 #@! TO.N,Earth*
X118400000Y-71570000D03*
X115700000Y-73350000D03*
X112650000Y-72550000D03*
X118400000Y-62340000D03*
X115690000Y-60670000D03*
D17*
X99670000Y-76470000D03*
G04 #@! TD*
D18*
G04 #@! TO.N,GND*
X106690000Y-76310000D02*
X106500000Y-76500000D01*
X103000000Y-80000000D02*
X101750000Y-80000000D01*
X106690000Y-71390000D02*
X106690000Y-72560000D01*
X109080000Y-69000000D02*
X108040000Y-70040000D01*
X112650000Y-69000000D02*
X110250000Y-69000000D01*
X109080000Y-69000000D02*
X109080000Y-69000000D01*
X110250000Y-69000000D02*
X109080000Y-69000000D01*
X108040000Y-70040000D02*
X107040000Y-71040000D01*
X107040000Y-71040000D02*
X106690000Y-71390000D01*
X106690000Y-72560000D02*
X106690000Y-74060000D01*
X106690000Y-74060000D02*
X106690000Y-75310000D01*
X106690000Y-75310000D02*
X106690000Y-76310000D01*
X106500000Y-76500000D02*
X105625000Y-77375000D01*
X105625000Y-77375000D02*
X104500000Y-78500000D01*
X104500000Y-78500000D02*
X103500000Y-79500000D01*
X103500000Y-79500000D02*
X103000000Y-80000000D01*
X101750000Y-80000000D02*
X99750000Y-80000000D01*
X99750000Y-80000000D02*
X97800000Y-80000000D01*
D19*
G04 #@! TO.N,Earth*
X101590000Y-76500000D02*
X99700000Y-76500000D01*
X99700000Y-76500000D02*
X99670000Y-76470000D01*
D20*
G04 #@! TO.N,/D+*
X104700000Y-70125000D02*
X107825000Y-67000000D01*
X104700000Y-74850000D02*
X104700000Y-70125000D01*
X107825000Y-67000000D02*
X112650000Y-67000000D01*
X103310000Y-76240000D02*
X104700000Y-74850000D01*
X102300000Y-77890000D02*
X103310000Y-76880000D01*
X98190000Y-77890000D02*
X102300000Y-77890000D01*
X103310000Y-76880000D02*
X103310000Y-76240000D01*
X97800000Y-77500000D02*
X98190000Y-77890000D01*
G04 #@! TO.N,/D-*
X103310000Y-74300000D02*
X103310000Y-74310000D01*
X103280000Y-74300000D02*
X103310000Y-74300000D01*
X102204999Y-75375001D02*
X103280000Y-74300000D01*
X100365001Y-75375001D02*
X102204999Y-75375001D01*
X100010000Y-75020000D02*
X100365001Y-75375001D01*
X98280000Y-75020000D02*
X100010000Y-75020000D01*
X97800000Y-75500000D02*
X98280000Y-75020000D01*
X112650000Y-65000000D02*
X107790000Y-65000000D01*
X107790000Y-65000000D02*
X103310000Y-69480000D01*
X103310000Y-69480000D02*
X103310000Y-74270000D01*
X103310000Y-74270000D02*
X103310000Y-74300000D01*
G04 #@! TO.N,VBUS*
X100295009Y-73010000D02*
X101410000Y-74124991D01*
X97810000Y-73010000D02*
X100295009Y-73010000D01*
X97800000Y-73000000D02*
X97810000Y-73010000D01*
D18*
X99500000Y-73000000D02*
X97800000Y-73000000D01*
X99500000Y-69100000D02*
X99500000Y-73000000D01*
X105600000Y-63000000D02*
X99500000Y-69100000D01*
X112650000Y-63000000D02*
X105600000Y-63000000D01*
G04 #@! TD*
D21*
G04 #@! TO.N,Earth*
X116065000Y-60364250D02*
X116223750Y-60523000D01*
X118273000Y-60523000D01*
X118273000Y-60503000D01*
X118527000Y-60503000D01*
X118527000Y-60523000D01*
X118547000Y-60523000D01*
X118547000Y-60777000D01*
X118527000Y-60777000D01*
X118527000Y-61876250D01*
X118685750Y-62035000D01*
X119840000Y-62037507D01*
X119840001Y-71962493D01*
X118685750Y-71965000D01*
X118527000Y-72123750D01*
X118527000Y-73223000D01*
X118547000Y-73223000D01*
X118547000Y-73477000D01*
X118527000Y-73477000D01*
X118527000Y-73497000D01*
X118273000Y-73497000D01*
X118273000Y-73477000D01*
X116223750Y-73477000D01*
X116065000Y-73635750D01*
X116063648Y-73840000D01*
X112967581Y-73840000D01*
X112938627Y-73842852D01*
X112926219Y-73842765D01*
X112917047Y-73843665D01*
X112528855Y-73884466D01*
X112470299Y-73896486D01*
X112411498Y-73907702D01*
X112402677Y-73910366D01*
X112029802Y-74025790D01*
X111974647Y-74048975D01*
X111919194Y-74071379D01*
X111911062Y-74075704D01*
X111911057Y-74075706D01*
X111911053Y-74075709D01*
X111567702Y-74261357D01*
X111518101Y-74294813D01*
X111468054Y-74327563D01*
X111460913Y-74333387D01*
X111160158Y-74582194D01*
X111118019Y-74624629D01*
X111075269Y-74666492D01*
X111069396Y-74673593D01*
X110822695Y-74976077D01*
X110789598Y-75025893D01*
X110755795Y-75075259D01*
X110751413Y-75083365D01*
X110568163Y-75428007D01*
X110545368Y-75483313D01*
X110521802Y-75538296D01*
X110519077Y-75547099D01*
X110406259Y-75920770D01*
X110394639Y-75979458D01*
X110382203Y-76037961D01*
X110381240Y-76047126D01*
X110343150Y-76435595D01*
X110340000Y-76467582D01*
X110340001Y-90467711D01*
X110311375Y-90759660D01*
X110235965Y-91009429D01*
X110113477Y-91239794D01*
X109948579Y-91441979D01*
X109747546Y-91608288D01*
X109518046Y-91732378D01*
X109268805Y-91809531D01*
X108978911Y-91840000D01*
X89160000Y-91840000D01*
X89160000Y-84561653D01*
X93777952Y-84561653D01*
X93933962Y-84877214D01*
X94308745Y-85068020D01*
X94713551Y-85182044D01*
X95132824Y-85214902D01*
X95550451Y-85165334D01*
X95950383Y-85035243D01*
X96246038Y-84877214D01*
X96402048Y-84561653D01*
X95090000Y-83249605D01*
X93777952Y-84561653D01*
X89160000Y-84561653D01*
X89160000Y-83112824D01*
X92945098Y-83112824D01*
X92994666Y-83530451D01*
X93124757Y-83930383D01*
X93282786Y-84226038D01*
X93598347Y-84382048D01*
X94910395Y-83070000D01*
X95269605Y-83070000D01*
X96581653Y-84382048D01*
X96897214Y-84226038D01*
X97088020Y-83851255D01*
X97202044Y-83446449D01*
X97234902Y-83027176D01*
X97185334Y-82609549D01*
X97055243Y-82209617D01*
X96897214Y-81913962D01*
X96581653Y-81757952D01*
X95269605Y-83070000D01*
X94910395Y-83070000D01*
X93598347Y-81757952D01*
X93282786Y-81913962D01*
X93091980Y-82288745D01*
X92977956Y-82693551D01*
X92945098Y-83112824D01*
X89160000Y-83112824D01*
X89160000Y-81578347D01*
X93777952Y-81578347D01*
X95090000Y-82890395D01*
X96402048Y-81578347D01*
X96246038Y-81262786D01*
X95871255Y-81071980D01*
X95466449Y-80957956D01*
X95047176Y-80925098D01*
X94629549Y-80974666D01*
X94229617Y-81104757D01*
X93933962Y-81262786D01*
X93777952Y-81578347D01*
X89160000Y-81578347D01*
X89160000Y-75358665D01*
X96365000Y-75358665D01*
X96365000Y-75641335D01*
X96420147Y-75918574D01*
X96528320Y-76179727D01*
X96685363Y-76414759D01*
X96770604Y-76500000D01*
X96685363Y-76585241D01*
X96528320Y-76820273D01*
X96420147Y-77081426D01*
X96365000Y-77358665D01*
X96365000Y-77641335D01*
X96420147Y-77918574D01*
X96528320Y-78179727D01*
X96685363Y-78414759D01*
X96885241Y-78614637D01*
X97087827Y-78750000D01*
X96885241Y-78885363D01*
X96685363Y-79085241D01*
X96528320Y-79320273D01*
X96420147Y-79581426D01*
X96365000Y-79858665D01*
X96365000Y-80141335D01*
X96420147Y-80418574D01*
X96528320Y-80679727D01*
X96685363Y-80914759D01*
X96885241Y-81114637D01*
X97120273Y-81271680D01*
X97381426Y-81379853D01*
X97658665Y-81435000D01*
X97941335Y-81435000D01*
X98218574Y-81379853D01*
X98479727Y-81271680D01*
X98684284Y-81135000D01*
X100130574Y-81135000D01*
X100163336Y-81243004D01*
X100222017Y-81352787D01*
X100300987Y-81449013D01*
X100397213Y-81527983D01*
X100506996Y-81586664D01*
X100626118Y-81622799D01*
X100750000Y-81635000D01*
X103000000Y-81635000D01*
X103123882Y-81622799D01*
X103243004Y-81586664D01*
X103352787Y-81527983D01*
X103449013Y-81449013D01*
X107949013Y-76949013D01*
X108027983Y-76852787D01*
X108086664Y-76743004D01*
X108122799Y-76623882D01*
X108135000Y-76500000D01*
X108135000Y-72600000D01*
X116061928Y-72600000D01*
X116065000Y-73064250D01*
X116223750Y-73223000D01*
X118273000Y-73223000D01*
X118273000Y-72123750D01*
X118114250Y-71965000D01*
X116700000Y-71961928D01*
X116575518Y-71974188D01*
X116455820Y-72010498D01*
X116345506Y-72069463D01*
X116248815Y-72148815D01*
X116169463Y-72245506D01*
X116110498Y-72355820D01*
X116074188Y-72475518D01*
X116061928Y-72600000D01*
X108135000Y-72600000D01*
X108135000Y-72263026D01*
X108898026Y-71500000D01*
X110261928Y-71500000D01*
X110274188Y-71624482D01*
X110310498Y-71744180D01*
X110369463Y-71854494D01*
X110448815Y-71951185D01*
X110545506Y-72030537D01*
X110655820Y-72089502D01*
X110775518Y-72125812D01*
X110900000Y-72138072D01*
X112364250Y-72135000D01*
X112523000Y-71976250D01*
X112523000Y-71127000D01*
X112777000Y-71127000D01*
X112777000Y-71976250D01*
X112935750Y-72135000D01*
X114400000Y-72138072D01*
X114524482Y-72125812D01*
X114644180Y-72089502D01*
X114754494Y-72030537D01*
X114851185Y-71951185D01*
X114930537Y-71854494D01*
X114989502Y-71744180D01*
X115025812Y-71624482D01*
X115038072Y-71500000D01*
X115035000Y-71285750D01*
X114876250Y-71127000D01*
X112777000Y-71127000D01*
X112523000Y-71127000D01*
X110423750Y-71127000D01*
X110265000Y-71285750D01*
X110261928Y-71500000D01*
X108898026Y-71500000D01*
X109763026Y-70635000D01*
X110263864Y-70635000D01*
X110265000Y-70714250D01*
X110423750Y-70873000D01*
X112523000Y-70873000D01*
X112523000Y-70853000D01*
X112777000Y-70853000D01*
X112777000Y-70873000D01*
X114876250Y-70873000D01*
X115035000Y-70714250D01*
X115038072Y-70500000D01*
X115025812Y-70375518D01*
X114989502Y-70255820D01*
X114930537Y-70145506D01*
X114877084Y-70080373D01*
X114885000Y-70000000D01*
X114885000Y-69747535D01*
X114888405Y-69743386D01*
X114970472Y-69589850D01*
X115021008Y-69423254D01*
X115038072Y-69250000D01*
X115038072Y-68750000D01*
X115021008Y-68576746D01*
X114970472Y-68410150D01*
X114888405Y-68256614D01*
X114885000Y-68252465D01*
X114885000Y-67747535D01*
X114888405Y-67743386D01*
X114970472Y-67589850D01*
X115021008Y-67423254D01*
X115038072Y-67250000D01*
X115038072Y-66750000D01*
X115021008Y-66576746D01*
X114970472Y-66410150D01*
X114888405Y-66256614D01*
X114885000Y-66252465D01*
X114885000Y-65747535D01*
X114888405Y-65743386D01*
X114970472Y-65589850D01*
X115021008Y-65423254D01*
X115038072Y-65250000D01*
X115038072Y-64750000D01*
X115021008Y-64576746D01*
X114970472Y-64410150D01*
X114888405Y-64256614D01*
X114885000Y-64252465D01*
X114885000Y-63747535D01*
X114888405Y-63743386D01*
X114970472Y-63589850D01*
X115021008Y-63423254D01*
X115038072Y-63250000D01*
X115038072Y-62750000D01*
X115021008Y-62576746D01*
X114970472Y-62410150D01*
X114888405Y-62256614D01*
X114885000Y-62252465D01*
X114885000Y-62200000D01*
X114872081Y-62072561D01*
X114835265Y-61953648D01*
X114775959Y-61844202D01*
X114696440Y-61748429D01*
X114599764Y-61670010D01*
X114489648Y-61611958D01*
X114370322Y-61576504D01*
X114246371Y-61565010D01*
X105496371Y-61615010D01*
X105360194Y-61630581D01*
X105242038Y-61669758D01*
X105133795Y-61731233D01*
X105039625Y-61812644D01*
X102330248Y-64664620D01*
X98736865Y-68258004D01*
X98693551Y-68293551D01*
X98551716Y-68466377D01*
X98450475Y-68655788D01*
X98446324Y-68663554D01*
X98381423Y-68877502D01*
X98359509Y-69100000D01*
X98365000Y-69155752D01*
X98365001Y-71561928D01*
X97050000Y-71561928D01*
X96925518Y-71574188D01*
X96805820Y-71610498D01*
X96695506Y-71669463D01*
X96598815Y-71748815D01*
X96519463Y-71845506D01*
X96460498Y-71955820D01*
X96424188Y-72075518D01*
X96411928Y-72200000D01*
X96411928Y-73800000D01*
X96424188Y-73924482D01*
X96460498Y-74044180D01*
X96519463Y-74154494D01*
X96598815Y-74251185D01*
X96695506Y-74330537D01*
X96805820Y-74389502D01*
X96863581Y-74407023D01*
X96685363Y-74585241D01*
X96528320Y-74820273D01*
X96420147Y-75081426D01*
X96365000Y-75358665D01*
X89160000Y-75358665D01*
X89160000Y-71421653D01*
X93777952Y-71421653D01*
X93933962Y-71737214D01*
X94308745Y-71928020D01*
X94713551Y-72042044D01*
X95132824Y-72074902D01*
X95550451Y-72025334D01*
X95950383Y-71895243D01*
X96246038Y-71737214D01*
X96402048Y-71421653D01*
X95090000Y-70109605D01*
X93777952Y-71421653D01*
X89160000Y-71421653D01*
X89160000Y-69972824D01*
X92945098Y-69972824D01*
X92994666Y-70390451D01*
X93124757Y-70790383D01*
X93282786Y-71086038D01*
X93598347Y-71242048D01*
X94910395Y-69930000D01*
X95269605Y-69930000D01*
X96581653Y-71242048D01*
X96897214Y-71086038D01*
X97088020Y-70711255D01*
X97202044Y-70306449D01*
X97234902Y-69887176D01*
X97185334Y-69469549D01*
X97055243Y-69069617D01*
X96897214Y-68773962D01*
X96581653Y-68617952D01*
X95269605Y-69930000D01*
X94910395Y-69930000D01*
X93598347Y-68617952D01*
X93282786Y-68773962D01*
X93091980Y-69148745D01*
X92977956Y-69553551D01*
X92945098Y-69972824D01*
X89160000Y-69972824D01*
X89160000Y-68438347D01*
X93777952Y-68438347D01*
X95090000Y-69750395D01*
X96402048Y-68438347D01*
X96246038Y-68122786D01*
X95871255Y-67931980D01*
X95466449Y-67817956D01*
X95047176Y-67785098D01*
X94629549Y-67834666D01*
X94229617Y-67964757D01*
X93933962Y-68122786D01*
X93777952Y-68438347D01*
X89160000Y-68438347D01*
X89160000Y-61400000D01*
X116061928Y-61400000D01*
X116074188Y-61524482D01*
X116110498Y-61644180D01*
X116169463Y-61754494D01*
X116248815Y-61851185D01*
X116345506Y-61930537D01*
X116455820Y-61989502D01*
X116575518Y-62025812D01*
X116700000Y-62038072D01*
X118114250Y-62035000D01*
X118273000Y-61876250D01*
X118273000Y-60777000D01*
X116223750Y-60777000D01*
X116065000Y-60935750D01*
X116061928Y-61400000D01*
X89160000Y-61400000D01*
X89160000Y-60160000D01*
X116063648Y-60160000D01*
X116065000Y-60364250D01*
G04 #@! TA.AperFunction,Conductor*
D22*
G36*
X116065000Y-60364250D02*
G01*
X116223750Y-60523000D01*
X118273000Y-60523000D01*
X118273000Y-60503000D01*
X118527000Y-60503000D01*
X118527000Y-60523000D01*
X118547000Y-60523000D01*
X118547000Y-60777000D01*
X118527000Y-60777000D01*
X118527000Y-61876250D01*
X118685750Y-62035000D01*
X119840000Y-62037507D01*
X119840001Y-71962493D01*
X118685750Y-71965000D01*
X118527000Y-72123750D01*
X118527000Y-73223000D01*
X118547000Y-73223000D01*
X118547000Y-73477000D01*
X118527000Y-73477000D01*
X118527000Y-73497000D01*
X118273000Y-73497000D01*
X118273000Y-73477000D01*
X116223750Y-73477000D01*
X116065000Y-73635750D01*
X116063648Y-73840000D01*
X112967581Y-73840000D01*
X112938627Y-73842852D01*
X112926219Y-73842765D01*
X112917047Y-73843665D01*
X112528855Y-73884466D01*
X112470299Y-73896486D01*
X112411498Y-73907702D01*
X112402677Y-73910366D01*
X112029802Y-74025790D01*
X111974647Y-74048975D01*
X111919194Y-74071379D01*
X111911062Y-74075704D01*
X111911057Y-74075706D01*
X111911053Y-74075709D01*
X111567702Y-74261357D01*
X111518101Y-74294813D01*
X111468054Y-74327563D01*
X111460913Y-74333387D01*
X111160158Y-74582194D01*
X111118019Y-74624629D01*
X111075269Y-74666492D01*
X111069396Y-74673593D01*
X110822695Y-74976077D01*
X110789598Y-75025893D01*
X110755795Y-75075259D01*
X110751413Y-75083365D01*
X110568163Y-75428007D01*
X110545368Y-75483313D01*
X110521802Y-75538296D01*
X110519077Y-75547099D01*
X110406259Y-75920770D01*
X110394639Y-75979458D01*
X110382203Y-76037961D01*
X110381240Y-76047126D01*
X110343150Y-76435595D01*
X110340000Y-76467582D01*
X110340001Y-90467711D01*
X110311375Y-90759660D01*
X110235965Y-91009429D01*
X110113477Y-91239794D01*
X109948579Y-91441979D01*
X109747546Y-91608288D01*
X109518046Y-91732378D01*
X109268805Y-91809531D01*
X108978911Y-91840000D01*
X89160000Y-91840000D01*
X89160000Y-84561653D01*
X93777952Y-84561653D01*
X93933962Y-84877214D01*
X94308745Y-85068020D01*
X94713551Y-85182044D01*
X95132824Y-85214902D01*
X95550451Y-85165334D01*
X95950383Y-85035243D01*
X96246038Y-84877214D01*
X96402048Y-84561653D01*
X95090000Y-83249605D01*
X93777952Y-84561653D01*
X89160000Y-84561653D01*
X89160000Y-83112824D01*
X92945098Y-83112824D01*
X92994666Y-83530451D01*
X93124757Y-83930383D01*
X93282786Y-84226038D01*
X93598347Y-84382048D01*
X94910395Y-83070000D01*
X95269605Y-83070000D01*
X96581653Y-84382048D01*
X96897214Y-84226038D01*
X97088020Y-83851255D01*
X97202044Y-83446449D01*
X97234902Y-83027176D01*
X97185334Y-82609549D01*
X97055243Y-82209617D01*
X96897214Y-81913962D01*
X96581653Y-81757952D01*
X95269605Y-83070000D01*
X94910395Y-83070000D01*
X93598347Y-81757952D01*
X93282786Y-81913962D01*
X93091980Y-82288745D01*
X92977956Y-82693551D01*
X92945098Y-83112824D01*
X89160000Y-83112824D01*
X89160000Y-81578347D01*
X93777952Y-81578347D01*
X95090000Y-82890395D01*
X96402048Y-81578347D01*
X96246038Y-81262786D01*
X95871255Y-81071980D01*
X95466449Y-80957956D01*
X95047176Y-80925098D01*
X94629549Y-80974666D01*
X94229617Y-81104757D01*
X93933962Y-81262786D01*
X93777952Y-81578347D01*
X89160000Y-81578347D01*
X89160000Y-75358665D01*
X96365000Y-75358665D01*
X96365000Y-75641335D01*
X96420147Y-75918574D01*
X96528320Y-76179727D01*
X96685363Y-76414759D01*
X96770604Y-76500000D01*
X96685363Y-76585241D01*
X96528320Y-76820273D01*
X96420147Y-77081426D01*
X96365000Y-77358665D01*
X96365000Y-77641335D01*
X96420147Y-77918574D01*
X96528320Y-78179727D01*
X96685363Y-78414759D01*
X96885241Y-78614637D01*
X97087827Y-78750000D01*
X96885241Y-78885363D01*
X96685363Y-79085241D01*
X96528320Y-79320273D01*
X96420147Y-79581426D01*
X96365000Y-79858665D01*
X96365000Y-80141335D01*
X96420147Y-80418574D01*
X96528320Y-80679727D01*
X96685363Y-80914759D01*
X96885241Y-81114637D01*
X97120273Y-81271680D01*
X97381426Y-81379853D01*
X97658665Y-81435000D01*
X97941335Y-81435000D01*
X98218574Y-81379853D01*
X98479727Y-81271680D01*
X98684284Y-81135000D01*
X100130574Y-81135000D01*
X100163336Y-81243004D01*
X100222017Y-81352787D01*
X100300987Y-81449013D01*
X100397213Y-81527983D01*
X100506996Y-81586664D01*
X100626118Y-81622799D01*
X100750000Y-81635000D01*
X103000000Y-81635000D01*
X103123882Y-81622799D01*
X103243004Y-81586664D01*
X103352787Y-81527983D01*
X103449013Y-81449013D01*
X107949013Y-76949013D01*
X108027983Y-76852787D01*
X108086664Y-76743004D01*
X108122799Y-76623882D01*
X108135000Y-76500000D01*
X108135000Y-72600000D01*
X116061928Y-72600000D01*
X116065000Y-73064250D01*
X116223750Y-73223000D01*
X118273000Y-73223000D01*
X118273000Y-72123750D01*
X118114250Y-71965000D01*
X116700000Y-71961928D01*
X116575518Y-71974188D01*
X116455820Y-72010498D01*
X116345506Y-72069463D01*
X116248815Y-72148815D01*
X116169463Y-72245506D01*
X116110498Y-72355820D01*
X116074188Y-72475518D01*
X116061928Y-72600000D01*
X108135000Y-72600000D01*
X108135000Y-72263026D01*
X108898026Y-71500000D01*
X110261928Y-71500000D01*
X110274188Y-71624482D01*
X110310498Y-71744180D01*
X110369463Y-71854494D01*
X110448815Y-71951185D01*
X110545506Y-72030537D01*
X110655820Y-72089502D01*
X110775518Y-72125812D01*
X110900000Y-72138072D01*
X112364250Y-72135000D01*
X112523000Y-71976250D01*
X112523000Y-71127000D01*
X112777000Y-71127000D01*
X112777000Y-71976250D01*
X112935750Y-72135000D01*
X114400000Y-72138072D01*
X114524482Y-72125812D01*
X114644180Y-72089502D01*
X114754494Y-72030537D01*
X114851185Y-71951185D01*
X114930537Y-71854494D01*
X114989502Y-71744180D01*
X115025812Y-71624482D01*
X115038072Y-71500000D01*
X115035000Y-71285750D01*
X114876250Y-71127000D01*
X112777000Y-71127000D01*
X112523000Y-71127000D01*
X110423750Y-71127000D01*
X110265000Y-71285750D01*
X110261928Y-71500000D01*
X108898026Y-71500000D01*
X109763026Y-70635000D01*
X110263864Y-70635000D01*
X110265000Y-70714250D01*
X110423750Y-70873000D01*
X112523000Y-70873000D01*
X112523000Y-70853000D01*
X112777000Y-70853000D01*
X112777000Y-70873000D01*
X114876250Y-70873000D01*
X115035000Y-70714250D01*
X115038072Y-70500000D01*
X115025812Y-70375518D01*
X114989502Y-70255820D01*
X114930537Y-70145506D01*
X114877084Y-70080373D01*
X114885000Y-70000000D01*
X114885000Y-69747535D01*
X114888405Y-69743386D01*
X114970472Y-69589850D01*
X115021008Y-69423254D01*
X115038072Y-69250000D01*
X115038072Y-68750000D01*
X115021008Y-68576746D01*
X114970472Y-68410150D01*
X114888405Y-68256614D01*
X114885000Y-68252465D01*
X114885000Y-67747535D01*
X114888405Y-67743386D01*
X114970472Y-67589850D01*
X115021008Y-67423254D01*
X115038072Y-67250000D01*
X115038072Y-66750000D01*
X115021008Y-66576746D01*
X114970472Y-66410150D01*
X114888405Y-66256614D01*
X114885000Y-66252465D01*
X114885000Y-65747535D01*
X114888405Y-65743386D01*
X114970472Y-65589850D01*
X115021008Y-65423254D01*
X115038072Y-65250000D01*
X115038072Y-64750000D01*
X115021008Y-64576746D01*
X114970472Y-64410150D01*
X114888405Y-64256614D01*
X114885000Y-64252465D01*
X114885000Y-63747535D01*
X114888405Y-63743386D01*
X114970472Y-63589850D01*
X115021008Y-63423254D01*
X115038072Y-63250000D01*
X115038072Y-62750000D01*
X115021008Y-62576746D01*
X114970472Y-62410150D01*
X114888405Y-62256614D01*
X114885000Y-62252465D01*
X114885000Y-62200000D01*
X114872081Y-62072561D01*
X114835265Y-61953648D01*
X114775959Y-61844202D01*
X114696440Y-61748429D01*
X114599764Y-61670010D01*
X114489648Y-61611958D01*
X114370322Y-61576504D01*
X114246371Y-61565010D01*
X105496371Y-61615010D01*
X105360194Y-61630581D01*
X105242038Y-61669758D01*
X105133795Y-61731233D01*
X105039625Y-61812644D01*
X102330248Y-64664620D01*
X98736865Y-68258004D01*
X98693551Y-68293551D01*
X98551716Y-68466377D01*
X98450475Y-68655788D01*
X98446324Y-68663554D01*
X98381423Y-68877502D01*
X98359509Y-69100000D01*
X98365000Y-69155752D01*
X98365001Y-71561928D01*
X97050000Y-71561928D01*
X96925518Y-71574188D01*
X96805820Y-71610498D01*
X96695506Y-71669463D01*
X96598815Y-71748815D01*
X96519463Y-71845506D01*
X96460498Y-71955820D01*
X96424188Y-72075518D01*
X96411928Y-72200000D01*
X96411928Y-73800000D01*
X96424188Y-73924482D01*
X96460498Y-74044180D01*
X96519463Y-74154494D01*
X96598815Y-74251185D01*
X96695506Y-74330537D01*
X96805820Y-74389502D01*
X96863581Y-74407023D01*
X96685363Y-74585241D01*
X96528320Y-74820273D01*
X96420147Y-75081426D01*
X96365000Y-75358665D01*
X89160000Y-75358665D01*
X89160000Y-71421653D01*
X93777952Y-71421653D01*
X93933962Y-71737214D01*
X94308745Y-71928020D01*
X94713551Y-72042044D01*
X95132824Y-72074902D01*
X95550451Y-72025334D01*
X95950383Y-71895243D01*
X96246038Y-71737214D01*
X96402048Y-71421653D01*
X95090000Y-70109605D01*
X93777952Y-71421653D01*
X89160000Y-71421653D01*
X89160000Y-69972824D01*
X92945098Y-69972824D01*
X92994666Y-70390451D01*
X93124757Y-70790383D01*
X93282786Y-71086038D01*
X93598347Y-71242048D01*
X94910395Y-69930000D01*
X95269605Y-69930000D01*
X96581653Y-71242048D01*
X96897214Y-71086038D01*
X97088020Y-70711255D01*
X97202044Y-70306449D01*
X97234902Y-69887176D01*
X97185334Y-69469549D01*
X97055243Y-69069617D01*
X96897214Y-68773962D01*
X96581653Y-68617952D01*
X95269605Y-69930000D01*
X94910395Y-69930000D01*
X93598347Y-68617952D01*
X93282786Y-68773962D01*
X93091980Y-69148745D01*
X92977956Y-69553551D01*
X92945098Y-69972824D01*
X89160000Y-69972824D01*
X89160000Y-68438347D01*
X93777952Y-68438347D01*
X95090000Y-69750395D01*
X96402048Y-68438347D01*
X96246038Y-68122786D01*
X95871255Y-67931980D01*
X95466449Y-67817956D01*
X95047176Y-67785098D01*
X94629549Y-67834666D01*
X94229617Y-67964757D01*
X93933962Y-68122786D01*
X93777952Y-68438347D01*
X89160000Y-68438347D01*
X89160000Y-61400000D01*
X116061928Y-61400000D01*
X116074188Y-61524482D01*
X116110498Y-61644180D01*
X116169463Y-61754494D01*
X116248815Y-61851185D01*
X116345506Y-61930537D01*
X116455820Y-61989502D01*
X116575518Y-62025812D01*
X116700000Y-62038072D01*
X118114250Y-62035000D01*
X118273000Y-61876250D01*
X118273000Y-60777000D01*
X116223750Y-60777000D01*
X116065000Y-60935750D01*
X116061928Y-61400000D01*
X89160000Y-61400000D01*
X89160000Y-60160000D01*
X116063648Y-60160000D01*
X116065000Y-60364250D01*
G37*
G04 #@! TD.AperFunction*
D21*
X99540789Y-76199213D02*
X99717422Y-76344172D01*
X99918941Y-76451886D01*
X100115000Y-76511360D01*
X100115000Y-76730000D01*
X99011362Y-76730000D01*
X98914637Y-76585241D01*
X98829396Y-76500000D01*
X98914637Y-76414759D01*
X99071498Y-76180000D01*
X99525021Y-76180000D01*
X99540789Y-76199213D01*
G04 #@! TA.AperFunction,Conductor*
D22*
G36*
X99540789Y-76199213D02*
G01*
X99717422Y-76344172D01*
X99918941Y-76451886D01*
X100115000Y-76511360D01*
X100115000Y-76730000D01*
X99011362Y-76730000D01*
X98914637Y-76585241D01*
X98829396Y-76500000D01*
X98914637Y-76414759D01*
X99071498Y-76180000D01*
X99525021Y-76180000D01*
X99540789Y-76199213D01*
G37*
G04 #@! TD.AperFunction*
G04 #@! TD*
D21*
G04 #@! TO.N,GND*
X110310498Y-68255820D02*
X110274188Y-68375518D01*
X110261928Y-68500000D01*
X110265000Y-68714250D01*
X110423750Y-68873000D01*
X112523000Y-68873000D01*
X112523000Y-68853000D01*
X112777000Y-68853000D01*
X112777000Y-68873000D01*
X112797000Y-68873000D01*
X112797000Y-69127000D01*
X112777000Y-69127000D01*
X112777000Y-69147000D01*
X112523000Y-69147000D01*
X112523000Y-69127000D01*
X110423750Y-69127000D01*
X110265000Y-69285750D01*
X110261928Y-69500000D01*
X110274188Y-69624482D01*
X110310498Y-69744180D01*
X110369463Y-69854494D01*
X110384650Y-69873000D01*
X109500000Y-69873000D01*
X109475224Y-69875440D01*
X109451399Y-69882667D01*
X109429443Y-69894403D01*
X109410197Y-69910197D01*
X107410197Y-71910197D01*
X107394403Y-71929443D01*
X107382667Y-71951399D01*
X107375440Y-71975224D01*
X107373000Y-72000000D01*
X107373000Y-76447394D01*
X102947394Y-80873000D01*
X100877000Y-80873000D01*
X100877000Y-79050000D01*
X102243031Y-79050000D01*
X102300000Y-79055611D01*
X102356969Y-79050000D01*
X102356979Y-79050000D01*
X102527400Y-79033215D01*
X102746060Y-78966885D01*
X102947579Y-78859171D01*
X103124212Y-78714212D01*
X103160536Y-78669951D01*
X104089957Y-77740531D01*
X104134212Y-77704212D01*
X104279171Y-77527579D01*
X104386885Y-77326060D01*
X104453215Y-77107400D01*
X104470000Y-76936979D01*
X104470000Y-76936978D01*
X104475612Y-76880000D01*
X104470000Y-76823021D01*
X104470000Y-76720487D01*
X105479957Y-75710531D01*
X105524212Y-75674212D01*
X105569144Y-75619463D01*
X105669171Y-75497579D01*
X105673222Y-75490000D01*
X105776885Y-75296060D01*
X105843215Y-75077400D01*
X105860000Y-74906979D01*
X105860000Y-74906969D01*
X105865611Y-74850000D01*
X105860000Y-74793031D01*
X105860000Y-70605487D01*
X108305487Y-68160000D01*
X110361716Y-68160000D01*
X110310498Y-68255820D01*
G04 #@! TA.AperFunction,Conductor*
D22*
G36*
X110310498Y-68255820D02*
G01*
X110274188Y-68375518D01*
X110261928Y-68500000D01*
X110265000Y-68714250D01*
X110423750Y-68873000D01*
X112523000Y-68873000D01*
X112523000Y-68853000D01*
X112777000Y-68853000D01*
X112777000Y-68873000D01*
X112797000Y-68873000D01*
X112797000Y-69127000D01*
X112777000Y-69127000D01*
X112777000Y-69147000D01*
X112523000Y-69147000D01*
X112523000Y-69127000D01*
X110423750Y-69127000D01*
X110265000Y-69285750D01*
X110261928Y-69500000D01*
X110274188Y-69624482D01*
X110310498Y-69744180D01*
X110369463Y-69854494D01*
X110384650Y-69873000D01*
X109500000Y-69873000D01*
X109475224Y-69875440D01*
X109451399Y-69882667D01*
X109429443Y-69894403D01*
X109410197Y-69910197D01*
X107410197Y-71910197D01*
X107394403Y-71929443D01*
X107382667Y-71951399D01*
X107375440Y-71975224D01*
X107373000Y-72000000D01*
X107373000Y-76447394D01*
X102947394Y-80873000D01*
X100877000Y-80873000D01*
X100877000Y-79050000D01*
X102243031Y-79050000D01*
X102300000Y-79055611D01*
X102356969Y-79050000D01*
X102356979Y-79050000D01*
X102527400Y-79033215D01*
X102746060Y-78966885D01*
X102947579Y-78859171D01*
X103124212Y-78714212D01*
X103160536Y-78669951D01*
X104089957Y-77740531D01*
X104134212Y-77704212D01*
X104279171Y-77527579D01*
X104386885Y-77326060D01*
X104453215Y-77107400D01*
X104470000Y-76936979D01*
X104470000Y-76936978D01*
X104475612Y-76880000D01*
X104470000Y-76823021D01*
X104470000Y-76720487D01*
X105479957Y-75710531D01*
X105524212Y-75674212D01*
X105569144Y-75619463D01*
X105669171Y-75497579D01*
X105673222Y-75490000D01*
X105776885Y-75296060D01*
X105843215Y-75077400D01*
X105860000Y-74906979D01*
X105860000Y-74906969D01*
X105865611Y-74850000D01*
X105860000Y-74793031D01*
X105860000Y-70605487D01*
X108305487Y-68160000D01*
X110361716Y-68160000D01*
X110310498Y-68255820D01*
G37*
G04 #@! TD.AperFunction*
D21*
X106965788Y-64175788D02*
X106929468Y-64220044D01*
X102530049Y-68619464D01*
X102485788Y-68655788D01*
X102340829Y-68832422D01*
X102233115Y-69033941D01*
X102166785Y-69252601D01*
X102150000Y-69423022D01*
X102150000Y-69423031D01*
X102144389Y-69480000D01*
X102150000Y-69536969D01*
X102150001Y-73224505D01*
X101155545Y-72230049D01*
X101119221Y-72185788D01*
X100942588Y-72040829D01*
X100877000Y-72005772D01*
X100877000Y-69328131D01*
X106070133Y-64135000D01*
X107015488Y-64135000D01*
X106965788Y-64175788D01*
G04 #@! TA.AperFunction,Conductor*
D22*
G36*
X106965788Y-64175788D02*
G01*
X106929468Y-64220044D01*
X102530049Y-68619464D01*
X102485788Y-68655788D01*
X102340829Y-68832422D01*
X102233115Y-69033941D01*
X102166785Y-69252601D01*
X102150000Y-69423022D01*
X102150000Y-69423031D01*
X102144389Y-69480000D01*
X102150000Y-69536969D01*
X102150001Y-73224505D01*
X101155545Y-72230049D01*
X101119221Y-72185788D01*
X100942588Y-72040829D01*
X100877000Y-72005772D01*
X100877000Y-69328131D01*
X106070133Y-64135000D01*
X107015488Y-64135000D01*
X106965788Y-64175788D01*
G37*
G04 #@! TD.AperFunction*
G04 #@! TD*
M02*
