M48
INCH,TZ
T1C0.0118
T2C0.0157
T3C0.0197
T4C0.0394
T5C0.0787
T6C0.1378
%
G90
G05
T1
X80024Y-35807
X80614Y-35217
X80614Y-35807
X80614Y-36398
X81205Y-35807
T2
X22480Y-34961
X22480Y-36417
X22480Y-39961
X22480Y-41417
X23583Y-35709
X23583Y-40669
X23622Y-36614
X24173Y-35984
X24724Y-35984
X25012Y-34114
X25020Y-32894
X25276Y-35984
X25559Y-32350
X25563Y-33500
X25579Y-34657
X26496Y-39764
X26717Y-34102
X26720Y-32906
X27126Y-39764
X28150Y-37480
X29331Y-38189
X29528Y-36102
X30512Y-37047
X30906Y-34724
X31890Y-35669
X32283Y-33346
X33268Y-34291
X33661Y-31969
X34646Y-32913
X35039Y-30591
X36024Y-31535
X36417Y-29213
X37402Y-30157
X37795Y-28051
X38110Y-29488
X39764Y-28051
X39764Y-29528
X41654Y-35630
X41654Y-38071
X41732Y-28051
X41732Y-29528
X42008Y-39094
X42244Y-34882
X43701Y-28051
X43701Y-29528
X43730Y-33622
X44409Y-38071
X45669Y-28051
X45669Y-29528
X46220Y-35866
X46220Y-38307
X46614Y-39252
X46811Y-35118
X47638Y-28051
X47638Y-29528
X48278Y-33780
X49606Y-28051
X49606Y-29528
X51575Y-28051
X51575Y-29528
X52795Y-34882
X53130Y-30925
X53543Y-28051
X53543Y-29528
X54242Y-30453
X54350Y-34882
X55138Y-31486
X55433Y-30236
X55512Y-28051
X55512Y-29528
X55728Y-35157
X55787Y-30876
X55862Y-35787
X55866Y-39614
X55866Y-41181
X55870Y-36413
X56181Y-38396
X56189Y-36094
X56496Y-33890
X56673Y-32677
X56811Y-35276
X56850Y-37244
X57126Y-34990
X57480Y-28051
X57480Y-29528
X57953Y-40354
X58071Y-35030
X58386Y-32323
X58386Y-33858
X58701Y-35106
X58701Y-38425
X58858Y-36417
X59016Y-39567
X59016Y-41142
X59094Y-37992
X59134Y-37047
X59449Y-28051
X59449Y-29528
X59626Y-33835
X60281Y-38155
X60354Y-39547
X61417Y-28051
X61417Y-29528
X61732Y-36535
X61811Y-38307
X61969Y-32890
X62366Y-34976
X62441Y-36850
X62480Y-38189
X62902Y-34691
X63386Y-28051
X63386Y-29528
X63461Y-35295
X63543Y-36614
X63583Y-38701
X63819Y-31890
X64370Y-40000
X64409Y-28543
X64409Y-30472
X64646Y-36811
X64764Y-38228
X64835Y-34142
X64872Y-40453
X65000Y-39793
X65051Y-33370
X65161Y-33768
X65201Y-35020
X65433Y-29567
X65551Y-31693
X65591Y-40197
X65614Y-33652
X66142Y-36811
X66142Y-38228
X66575Y-30669
X66614Y-32677
X67512Y-31087
X67598Y-36811
X67638Y-31654
X67717Y-33780
X67913Y-38465
X68346Y-29587
X68740Y-30402
X68740Y-32835
X68898Y-34961
X68909Y-28799
X68976Y-37441
X69291Y-39843
X69882Y-33976
X70039Y-31677
X70079Y-36181
X70354Y-38819
X70669Y-41220
X71071Y-32697
X71299Y-39764
X71496Y-35157
X71496Y-36634
X72059Y-34520
X72638Y-39764
X72638Y-41220
X73409Y-34528
X73465Y-35157
X73465Y-36634
X74567Y-32785
X74567Y-34242
X74606Y-39764
X74606Y-41220
X74917Y-38024
X75433Y-35157
X75433Y-36634
X75465Y-38579
X75606Y-31209
X75610Y-34419
X75984Y-32785
X76177Y-38535
X76348Y-34419
X76575Y-39764
X76575Y-41220
X76764Y-31787
X76780Y-32752
X76811Y-30669
X77185Y-32957
X77189Y-37358
X77244Y-31654
X77280Y-39016
X77362Y-30669
X77689Y-31154
X77689Y-32390
X77886Y-33465
X77886Y-35089
X78161Y-38535
X78307Y-31201
X78461Y-31854
X78543Y-39764
X78543Y-41220
X78638Y-33539
X78799Y-38280
X78811Y-35024
X78882Y-36677
X78998Y-32000
X79252Y-39134
X79679Y-31858
X79681Y-33252
X79961Y-40394
X80325Y-30469
X80669Y-39134
X80825Y-30183
X80904Y-33658
X80906Y-32205
X81327Y-29866
X81398Y-33839
X81821Y-31594
X82047Y-37480
X82047Y-38976
X82126Y-32224
X82126Y-33760
X82333Y-31604
X82470Y-37047
X82480Y-35906
X82486Y-36520
X82825Y-30423
X83264Y-30000
X83829Y-31014
X84016Y-37480
X84016Y-38976
X84031Y-35909
X84035Y-36531
X84051Y-33449
X84055Y-33976
X84921Y-33465
X84921Y-35079
X85492Y-31024
X85984Y-37480
X85984Y-38976
X86024Y-32441
X86102Y-33425
X86102Y-35197
X86807Y-29252
X87126Y-33898
X87559Y-32992
X87953Y-37480
X87953Y-38976
X87963Y-30470
X88012Y-35098
X88463Y-30173
X88512Y-32626
X88661Y-35354
X88661Y-36063
X88661Y-36850
X88963Y-29888
X89469Y-30433
X89606Y-35315
X89606Y-36850
X89606Y-37480
X89606Y-38976
X90551Y-35354
X90551Y-36063
X90551Y-36850
X91457Y-31024
X91496Y-35315
X91496Y-36850
X91535Y-38504
X92441Y-35354
X92441Y-36063
X92963Y-31014
X94764Y-40354
X95276Y-40354
X95787Y-40354
X96287Y-34457
X96417Y-39764
X96496Y-35669
X96496Y-40709
X96831Y-33339
X97433Y-33311
X97559Y-35000
X97559Y-36378
X97559Y-40000
X97559Y-41378
X97976Y-34469
T3
X26339Y-37406
X27508Y-37559
X27776Y-39665
X28346Y-39665
X28937Y-39665
X32047Y-37874
X32047Y-40197
X33425Y-37874
X33425Y-40197
X59006Y-25000
X59309Y-24269
X59309Y-25731
X60039Y-23967
X60039Y-26033
X60770Y-24269
X60770Y-25731
X61073Y-25000
X92768Y-38780
X94173Y-38976
T4
X65846Y-27165
X66846Y-27165
X67846Y-27165
X68846Y-27165
X69846Y-27165
X70846Y-27165
X71846Y-27165
X72846Y-27165
X78445Y-27165
X79445Y-27165
X80445Y-27165
X81445Y-27165
X82445Y-27165
X83445Y-27165
X84445Y-27165
X85445Y-27165
X86445Y-27165
X87445Y-27165
X88445Y-27165
X89445Y-27165
X90445Y-27165
X91445Y-27165
X92445Y-27165
X93445Y-27165
X94445Y-27165
X95445Y-27165
X96445Y-27165
X97445Y-27165
T5
X23031Y-33465
T6
X60039Y-25000
T0
M30
