G04 #@! TF.GenerationSoftware,KiCad,Pcbnew,(5.1.9)-1*
G04 #@! TF.CreationDate,2021-08-18T12:48:30-04:00*
G04 #@! TF.ProjectId,si-mips-main-board,73692d6d-6970-4732-9d6d-61696e2d626f,rev?*
G04 #@! TF.SameCoordinates,Original*
G04 #@! TF.FileFunction,Copper,L2,Inr*
G04 #@! TF.FilePolarity,Positive*
%FSLAX46Y46*%
G04 Gerber Fmt 4.6, Leading zero omitted, Abs format (unit mm)*
G04 Created by KiCad (PCBNEW (5.1.9)-1) date 2021-08-18 12:48:30*
%MOMM*%
%LPD*%
G01*
G04 APERTURE LIST*
G04 #@! TA.AperFunction,ComponentPad*
%ADD10C,0.600000*%
G04 #@! TD*
G04 #@! TA.AperFunction,ComponentPad*
%ADD11C,4.000000*%
G04 #@! TD*
G04 #@! TA.AperFunction,ComponentPad*
%ADD12C,0.800000*%
G04 #@! TD*
G04 #@! TA.AperFunction,ComponentPad*
%ADD13C,7.000000*%
G04 #@! TD*
G04 #@! TA.AperFunction,ComponentPad*
%ADD14O,1.700000X1.700000*%
G04 #@! TD*
G04 #@! TA.AperFunction,ComponentPad*
%ADD15R,1.700000X1.700000*%
G04 #@! TD*
G04 #@! TA.AperFunction,ViaPad*
%ADD16C,0.800000*%
G04 #@! TD*
G04 #@! TA.AperFunction,ViaPad*
%ADD17C,1.000000*%
G04 #@! TD*
G04 #@! TA.AperFunction,Conductor*
%ADD18C,0.254000*%
G04 #@! TD*
G04 #@! TA.AperFunction,Conductor*
%ADD19C,0.100000*%
G04 #@! TD*
G04 APERTURE END LIST*
D10*
G04 #@! TO.N,GND*
G04 #@! TO.C,U6*
X204760000Y-92450000D03*
X204760000Y-89450000D03*
X204760000Y-90950000D03*
X206260000Y-90950000D03*
X203260000Y-90950000D03*
G04 #@! TD*
D11*
G04 #@! TO.N,/USB Hub/Shield*
G04 #@! TO.C,J5*
X58500000Y-85000000D03*
G04 #@! TD*
D12*
G04 #@! TO.N,GND*
G04 #@! TO.C,H1*
X154356155Y-61643845D03*
X152500000Y-60875000D03*
X150643845Y-61643845D03*
X149875000Y-63500000D03*
X150643845Y-65356155D03*
X152500000Y-66125000D03*
X154356155Y-65356155D03*
X155125000Y-63500000D03*
D13*
X152500000Y-63500000D03*
G04 #@! TD*
D14*
G04 #@! TO.N,/Row0*
G04 #@! TO.C,J2*
X185030000Y-69000000D03*
G04 #@! TO.N,/Row1*
X182490000Y-69000000D03*
G04 #@! TO.N,/MOSI*
X179950000Y-69000000D03*
G04 #@! TO.N,/MISO*
X177410000Y-69000000D03*
G04 #@! TO.N,/Row4*
X174870000Y-69000000D03*
G04 #@! TO.N,/Row5*
X172330000Y-69000000D03*
G04 #@! TO.N,/Row6*
X169790000Y-69000000D03*
D15*
G04 #@! TO.N,/Row7*
X167250000Y-69000000D03*
G04 #@! TD*
D14*
G04 #@! TO.N,+5V*
G04 #@! TO.C,J1*
X247510000Y-69000000D03*
G04 #@! TO.N,/DS_1*
X244970000Y-69000000D03*
G04 #@! TO.N,/DS_2*
X242430000Y-69000000D03*
G04 #@! TO.N,/DS_3*
X239890000Y-69000000D03*
G04 #@! TO.N,Net-(J1-Pad16)*
X237350000Y-69000000D03*
G04 #@! TO.N,Net-(J1-Pad15)*
X234810000Y-69000000D03*
G04 #@! TO.N,Net-(J1-Pad14)*
X232270000Y-69000000D03*
G04 #@! TO.N,Net-(J1-Pad13)*
X229730000Y-69000000D03*
G04 #@! TO.N,Net-(J1-Pad12)*
X227190000Y-69000000D03*
G04 #@! TO.N,Net-(J1-Pad11)*
X224650000Y-69000000D03*
G04 #@! TO.N,Net-(J1-Pad10)*
X222110000Y-69000000D03*
G04 #@! TO.N,Net-(J1-Pad9)*
X219570000Y-69000000D03*
G04 #@! TO.N,Net-(J1-Pad8)*
X217030000Y-69000000D03*
G04 #@! TO.N,Net-(J1-Pad7)*
X214490000Y-69000000D03*
G04 #@! TO.N,Net-(J1-Pad6)*
X211950000Y-69000000D03*
G04 #@! TO.N,Net-(J1-Pad5)*
X209410000Y-69000000D03*
G04 #@! TO.N,Net-(J1-Pad4)*
X206870000Y-69000000D03*
G04 #@! TO.N,Net-(J1-Pad3)*
X204330000Y-69000000D03*
G04 #@! TO.N,Net-(J1-Pad2)*
X201790000Y-69000000D03*
D15*
G04 #@! TO.N,Net-(J1-Pad1)*
X199250000Y-69000000D03*
G04 #@! TD*
D16*
G04 #@! TO.N,Net-(J1-Pad8)*
X211490000Y-76200000D03*
X210375000Y-77275000D03*
G04 #@! TO.N,GND*
X218700000Y-89400000D03*
X215700000Y-89100000D03*
X223550000Y-89150000D03*
X230000000Y-91600000D03*
X225200000Y-91600000D03*
X225200000Y-89800000D03*
X227600000Y-89700000D03*
X227600000Y-93600000D03*
X225200000Y-93600000D03*
X227250000Y-77300000D03*
X197830000Y-85000000D03*
X192050000Y-87425000D03*
X189400000Y-86975000D03*
X150200000Y-94100000D03*
X157000000Y-97300000D03*
X149100000Y-97600000D03*
X148300000Y-82100000D03*
X156800000Y-92800000D03*
X141550000Y-89300000D03*
X134100000Y-88600000D03*
X142700000Y-97525000D03*
X236125000Y-78775000D03*
X207825000Y-80250000D03*
X105800000Y-90500000D03*
X107300000Y-88600000D03*
X105800000Y-96700000D03*
X106700000Y-99300000D03*
X117400000Y-97300000D03*
X117400000Y-91100000D03*
X118900000Y-89200000D03*
X118400000Y-99700000D03*
X141700000Y-78425000D03*
X143950000Y-83000000D03*
X140050000Y-79975000D03*
X217150000Y-78800000D03*
X181600000Y-89300000D03*
X191600000Y-93050000D03*
X186600000Y-89300000D03*
X191600000Y-89300000D03*
X186600000Y-93050000D03*
X181600000Y-93050000D03*
X177500000Y-86300000D03*
X175000000Y-88800000D03*
X178000000Y-91900000D03*
X174600000Y-83400000D03*
X172000000Y-85800000D03*
X171800000Y-80400000D03*
X169200000Y-83000000D03*
X169100000Y-77900000D03*
X166500000Y-80500000D03*
X166200000Y-75100000D03*
X163600000Y-77400000D03*
X161000000Y-75000000D03*
X163600000Y-72500000D03*
X161000000Y-71250000D03*
X156000000Y-75000000D03*
X156000000Y-71250000D03*
X151000000Y-75000000D03*
X151000000Y-71250000D03*
X146000000Y-75000000D03*
X146000000Y-71250000D03*
X141000000Y-71250000D03*
X141000000Y-75000000D03*
X136000000Y-75000000D03*
X136000000Y-71250000D03*
X131000000Y-71250000D03*
X131000000Y-75000000D03*
X126000000Y-75000000D03*
X126000000Y-71250000D03*
X116000000Y-71250000D03*
X116000000Y-75000000D03*
X121000000Y-71250000D03*
X111000000Y-75000000D03*
X111000000Y-71250000D03*
X121000000Y-75000000D03*
X106000000Y-71250000D03*
X106000000Y-75000000D03*
X101000000Y-75000000D03*
X101000000Y-71250000D03*
X96000000Y-71250000D03*
X96800000Y-74900000D03*
X95000000Y-76600000D03*
X92500000Y-74200000D03*
X89000000Y-77700000D03*
X91500000Y-80100000D03*
X85500000Y-81200000D03*
X88000000Y-83600000D03*
X82000000Y-84700000D03*
X84500000Y-87100000D03*
X78500000Y-88200000D03*
X81000000Y-90600000D03*
X75000000Y-91700000D03*
X77500000Y-94100000D03*
X223400000Y-99000000D03*
X223400000Y-95200000D03*
X213400000Y-99000000D03*
X208400000Y-99000000D03*
X204900000Y-99400000D03*
X201300000Y-99400000D03*
X203100000Y-102600000D03*
X199500000Y-101000000D03*
X199500000Y-104700000D03*
X194500000Y-101000000D03*
X194500000Y-104700000D03*
X189500000Y-101000000D03*
X189500000Y-104700000D03*
X184500000Y-101000000D03*
X184500000Y-104700000D03*
X179500000Y-104700000D03*
X181100000Y-101000000D03*
X176000000Y-101200000D03*
X178700000Y-98600000D03*
X172500000Y-97700000D03*
X175200000Y-95100000D03*
X171700000Y-93500000D03*
X164200000Y-93500000D03*
X168000000Y-93500000D03*
X168000000Y-97100000D03*
X164500000Y-97100000D03*
X158600000Y-93600000D03*
X158700000Y-97000000D03*
X161500000Y-98300000D03*
X161400000Y-93000000D03*
X218400000Y-99000000D03*
X218400000Y-95200000D03*
X227600000Y-99000000D03*
X227600000Y-95200000D03*
D17*
X239200000Y-99000000D03*
X235630000Y-98500000D03*
X66900000Y-95010000D03*
X69870000Y-95400000D03*
D16*
X74500000Y-97000000D03*
X71500000Y-95200000D03*
X232500000Y-97800000D03*
X200150000Y-97230000D03*
X198530000Y-97880000D03*
X193490000Y-97880000D03*
X191680000Y-97990000D03*
X190290000Y-96580000D03*
X196290000Y-99100000D03*
X196060000Y-94890000D03*
X199740000Y-85190000D03*
X213438000Y-91210000D03*
X213448000Y-92790000D03*
X213400000Y-95200000D03*
X222400000Y-83800000D03*
X208400000Y-95200000D03*
X245950000Y-84680000D03*
X247480000Y-84610000D03*
X67860000Y-86620000D03*
X67870000Y-83580000D03*
X147500000Y-88975000D03*
X151450000Y-85940000D03*
X180520000Y-83050000D03*
X177900000Y-80460000D03*
X174600000Y-77220000D03*
X220490000Y-74300000D03*
D17*
X81400000Y-96200000D03*
D16*
X141900000Y-104600000D03*
X149900000Y-104500010D03*
X196500000Y-77900000D03*
X200654160Y-81279480D03*
X165610000Y-88950000D03*
X157400000Y-83540000D03*
X230000000Y-89800000D03*
X234800000Y-89800000D03*
X232400000Y-89700000D03*
X230000000Y-93600000D03*
X232400000Y-93600000D03*
X234800000Y-91600000D03*
G04 #@! TO.N,/~AVR_RST*
X112800000Y-96700000D03*
X144400000Y-94600000D03*
X158410000Y-88840000D03*
X149100000Y-89170000D03*
G04 #@! TO.N,+5V*
X232300000Y-78800000D03*
X212925000Y-78775000D03*
X193000000Y-83275000D03*
X189400000Y-83275000D03*
X150100000Y-96500000D03*
X149900000Y-100500000D03*
X138050000Y-88600000D03*
X153112500Y-96912500D03*
X111075000Y-85400000D03*
X122625000Y-85800000D03*
X148300000Y-86000000D03*
D17*
X84900000Y-96200000D03*
D16*
X141899985Y-100618981D03*
X195100000Y-77900000D03*
X165510000Y-85770000D03*
X153300000Y-100450000D03*
G04 #@! TO.N,VBUS*
X199290008Y-80910000D03*
X213490000Y-84960000D03*
X215700000Y-85000000D03*
X218700000Y-84900000D03*
X213500000Y-86300000D03*
X221300000Y-86100000D03*
X67300000Y-101000000D03*
X68900000Y-101000000D03*
D17*
X70550000Y-100750000D03*
X84900000Y-102100000D03*
X81400000Y-102100000D03*
D16*
X147200000Y-102500000D03*
X149500000Y-92500000D03*
D17*
X72000000Y-100750000D03*
X73500000Y-100750000D03*
D16*
G04 #@! TO.N,+3V3*
X197830000Y-89125000D03*
X193925000Y-87425000D03*
X200360000Y-93160000D03*
X200180000Y-88960000D03*
X209500000Y-91200000D03*
X209475000Y-94100000D03*
X202385000Y-80920000D03*
X196050000Y-83710000D03*
X205500000Y-81800000D03*
X208600000Y-81850000D03*
X206750000Y-85950000D03*
G04 #@! TO.N,Net-(C20-Pad1)*
X209515000Y-92760000D03*
G04 #@! TO.N,/DS_1*
X141910000Y-92490000D03*
G04 #@! TO.N,/DS_2*
X142720000Y-91680000D03*
G04 #@! TO.N,/DS_3*
X141890000Y-90900000D03*
G04 #@! TO.N,/Row7*
X162100000Y-81000000D03*
G04 #@! TO.N,/Row6*
X140800000Y-76800000D03*
G04 #@! TO.N,/Row5*
X137775160Y-77350160D03*
G04 #@! TO.N,/Row4*
X134950000Y-78550002D03*
G04 #@! TO.N,/Row1*
X164680000Y-86720000D03*
X159769998Y-88114990D03*
G04 #@! TO.N,/Row0*
X161190000Y-89650000D03*
G04 #@! TO.N,Earth*
X57100000Y-92500000D03*
X247800000Y-101600000D03*
X247800000Y-105100000D03*
X245100000Y-103400000D03*
X244900000Y-101000000D03*
X242000000Y-102500000D03*
X247800000Y-88900000D03*
X247800000Y-92400000D03*
X245100000Y-90600000D03*
X59900000Y-103300000D03*
X57100000Y-101500000D03*
X57100000Y-105200000D03*
X59900000Y-90700000D03*
X57100000Y-88800000D03*
X60000000Y-93000000D03*
X62800000Y-91400000D03*
X64200000Y-91400000D03*
X61400000Y-91400000D03*
X240700000Y-102500000D03*
X243300000Y-102500000D03*
X248860000Y-87550000D03*
X244570000Y-87520000D03*
X64920000Y-82170000D03*
X64930000Y-85090000D03*
X64970000Y-88030000D03*
X63530000Y-86650000D03*
X63550000Y-83550000D03*
G04 #@! TO.N,/COL_DATA*
X209125000Y-80275000D03*
X166600000Y-102100000D03*
G04 #@! TO.N,/COL_LAT*
X163500000Y-101600000D03*
X206570000Y-75860000D03*
X225965000Y-75914996D03*
G04 #@! TO.N,/COL_CLK*
X165100000Y-101075000D03*
X205295007Y-76665111D03*
X224695000Y-76640006D03*
G04 #@! TO.N,/COL_RST*
X164775000Y-102750000D03*
X204025000Y-77390121D03*
X223425000Y-77394998D03*
G04 #@! TO.N,/USB Hub/PRT2_FLT*
X224820000Y-82870000D03*
X218500000Y-82400000D03*
G04 #@! TO.N,/~HUB_RST*
X143500000Y-86080000D03*
X175030000Y-73150000D03*
X202390000Y-84460000D03*
X192040000Y-79270000D03*
X196200000Y-80400000D03*
X198900000Y-79250000D03*
G04 #@! TO.N,/SDA*
X144300000Y-89600000D03*
X183030000Y-87680000D03*
X171480000Y-78960000D03*
X194980000Y-80740000D03*
G04 #@! TO.N,/SCL*
X195020000Y-83190000D03*
X186460000Y-87700000D03*
X173600000Y-75150000D03*
X145100000Y-88874990D03*
G04 #@! TO.N,/USB Hub/CFG_CLK*
X197330000Y-82270000D03*
X205496179Y-85491720D03*
G04 #@! TO.N,/USB Hub/CFG_DATA*
X197330000Y-79130000D03*
X208600000Y-85750000D03*
G04 #@! TO.N,/MOSI*
X166658454Y-85474990D03*
G04 #@! TO.N,/MISO*
X165230000Y-84760000D03*
G04 #@! TD*
D18*
G04 #@! TO.N,GND*
X149585843Y-60765451D02*
X149065450Y-61161634D01*
X148675252Y-61876612D01*
X148432036Y-62653976D01*
X148345149Y-63463853D01*
X148417931Y-64275118D01*
X148647585Y-65056597D01*
X149025285Y-65778256D01*
X149065450Y-65838366D01*
X149585845Y-66234550D01*
X152320395Y-63500000D01*
X152306253Y-63485858D01*
X152485858Y-63306253D01*
X152500000Y-63320395D01*
X152514143Y-63306253D01*
X152693748Y-63485858D01*
X152679605Y-63500000D01*
X155414155Y-66234550D01*
X155934550Y-65838366D01*
X156324748Y-65123388D01*
X156567964Y-64346024D01*
X156654851Y-63536147D01*
X156582069Y-62724882D01*
X156352415Y-61943403D01*
X155974715Y-61221744D01*
X155934550Y-61161634D01*
X155414157Y-60765451D01*
X155519608Y-60660000D01*
X249340000Y-60660000D01*
X249340000Y-84865000D01*
X239000000Y-84865000D01*
X238876118Y-84877201D01*
X238756996Y-84913336D01*
X238647213Y-84972017D01*
X238550987Y-85050987D01*
X238472017Y-85147213D01*
X238413336Y-85256996D01*
X238377201Y-85376118D01*
X238365000Y-85500000D01*
X238365000Y-100365000D01*
X207250000Y-100365000D01*
X207126118Y-100377201D01*
X207006996Y-100413336D01*
X206897213Y-100472017D01*
X206800987Y-100550987D01*
X201486974Y-105865000D01*
X177263026Y-105865000D01*
X171699013Y-100300987D01*
X171601538Y-100221184D01*
X171491616Y-100162764D01*
X171372410Y-100126910D01*
X171248499Y-100115002D01*
X165519642Y-100128545D01*
X165401898Y-100079774D01*
X165201939Y-100040000D01*
X164998061Y-100040000D01*
X164798102Y-100079774D01*
X164675541Y-100130541D01*
X154296613Y-100155077D01*
X154295226Y-100148102D01*
X154217205Y-99959744D01*
X154103937Y-99790226D01*
X153959774Y-99646063D01*
X153790256Y-99532795D01*
X153601898Y-99454774D01*
X153401939Y-99415000D01*
X153198061Y-99415000D01*
X152998102Y-99454774D01*
X152809744Y-99532795D01*
X152640226Y-99646063D01*
X152496063Y-99790226D01*
X152382795Y-99959744D01*
X152304774Y-100148102D01*
X152302449Y-100159792D01*
X150880749Y-100163153D01*
X150817205Y-100009744D01*
X150703937Y-99840226D01*
X150559774Y-99696063D01*
X150390256Y-99582795D01*
X150201898Y-99504774D01*
X150001939Y-99465000D01*
X149798061Y-99465000D01*
X149598102Y-99504774D01*
X149409744Y-99582795D01*
X149240226Y-99696063D01*
X149096063Y-99840226D01*
X148982795Y-100009744D01*
X148917328Y-100167794D01*
X142839325Y-100182163D01*
X142817190Y-100128725D01*
X142703922Y-99959207D01*
X142559759Y-99815044D01*
X142390241Y-99701776D01*
X142201883Y-99623755D01*
X142001924Y-99583981D01*
X141798046Y-99583981D01*
X141598087Y-99623755D01*
X141409729Y-99701776D01*
X141240211Y-99815044D01*
X141096048Y-99959207D01*
X140982780Y-100128725D01*
X140958804Y-100186609D01*
X74560170Y-100343579D01*
X74505824Y-100212376D01*
X74381612Y-100026480D01*
X74223520Y-99868388D01*
X74037624Y-99744176D01*
X73831067Y-99658617D01*
X73611788Y-99615000D01*
X73388212Y-99615000D01*
X73168933Y-99658617D01*
X72962376Y-99744176D01*
X72776480Y-99868388D01*
X72750000Y-99894868D01*
X72723520Y-99868388D01*
X72537624Y-99744176D01*
X72331067Y-99658617D01*
X72111788Y-99615000D01*
X71888212Y-99615000D01*
X71668933Y-99658617D01*
X71462376Y-99744176D01*
X71276480Y-99868388D01*
X71275000Y-99869868D01*
X71273520Y-99868388D01*
X71087624Y-99744176D01*
X70881067Y-99658617D01*
X70661788Y-99615000D01*
X70438212Y-99615000D01*
X70218933Y-99658617D01*
X70012376Y-99744176D01*
X69826480Y-99868388D01*
X69668388Y-100026480D01*
X69556526Y-100193893D01*
X69390256Y-100082795D01*
X69201898Y-100004774D01*
X69001939Y-99965000D01*
X68798061Y-99965000D01*
X68598102Y-100004774D01*
X68409744Y-100082795D01*
X68240226Y-100196063D01*
X68100000Y-100336289D01*
X67959774Y-100196063D01*
X67790256Y-100082795D01*
X67601898Y-100004774D01*
X67401939Y-99965000D01*
X67198061Y-99965000D01*
X66998102Y-100004774D01*
X66809744Y-100082795D01*
X66640226Y-100196063D01*
X66496063Y-100340226D01*
X66481060Y-100362679D01*
X66135000Y-100363497D01*
X66135000Y-96088212D01*
X83765000Y-96088212D01*
X83765000Y-96311788D01*
X83808617Y-96531067D01*
X83894176Y-96737624D01*
X84018388Y-96923520D01*
X84176480Y-97081612D01*
X84362376Y-97205824D01*
X84568933Y-97291383D01*
X84788212Y-97335000D01*
X85011788Y-97335000D01*
X85231067Y-97291383D01*
X85437624Y-97205824D01*
X85623520Y-97081612D01*
X85781612Y-96923520D01*
X85905824Y-96737624D01*
X85963633Y-96598061D01*
X111765000Y-96598061D01*
X111765000Y-96801939D01*
X111804774Y-97001898D01*
X111882795Y-97190256D01*
X111996063Y-97359774D01*
X112140226Y-97503937D01*
X112309744Y-97617205D01*
X112498102Y-97695226D01*
X112698061Y-97735000D01*
X112901939Y-97735000D01*
X113101898Y-97695226D01*
X113290256Y-97617205D01*
X113459774Y-97503937D01*
X113603937Y-97359774D01*
X113717205Y-97190256D01*
X113795226Y-97001898D01*
X113835000Y-96801939D01*
X113835000Y-96598061D01*
X113795226Y-96398102D01*
X113795210Y-96398061D01*
X149065000Y-96398061D01*
X149065000Y-96601939D01*
X149104774Y-96801898D01*
X149182795Y-96990256D01*
X149296063Y-97159774D01*
X149440226Y-97303937D01*
X149609744Y-97417205D01*
X149798102Y-97495226D01*
X149998061Y-97535000D01*
X150201939Y-97535000D01*
X150401898Y-97495226D01*
X150590256Y-97417205D01*
X150759774Y-97303937D01*
X150903937Y-97159774D01*
X151017205Y-96990256D01*
X151091637Y-96810561D01*
X152077500Y-96810561D01*
X152077500Y-97014439D01*
X152117274Y-97214398D01*
X152195295Y-97402756D01*
X152308563Y-97572274D01*
X152452726Y-97716437D01*
X152622244Y-97829705D01*
X152810602Y-97907726D01*
X153010561Y-97947500D01*
X153214439Y-97947500D01*
X153414398Y-97907726D01*
X153602756Y-97829705D01*
X153772274Y-97716437D01*
X153916437Y-97572274D01*
X154029705Y-97402756D01*
X154107726Y-97214398D01*
X154147500Y-97014439D01*
X154147500Y-96810561D01*
X154107726Y-96610602D01*
X154029705Y-96422244D01*
X153916437Y-96252726D01*
X153772274Y-96108563D01*
X153602756Y-95995295D01*
X153414398Y-95917274D01*
X153214439Y-95877500D01*
X153010561Y-95877500D01*
X152810602Y-95917274D01*
X152622244Y-95995295D01*
X152452726Y-96108563D01*
X152308563Y-96252726D01*
X152195295Y-96422244D01*
X152117274Y-96610602D01*
X152077500Y-96810561D01*
X151091637Y-96810561D01*
X151095226Y-96801898D01*
X151135000Y-96601939D01*
X151135000Y-96398061D01*
X151095226Y-96198102D01*
X151017205Y-96009744D01*
X150903937Y-95840226D01*
X150759774Y-95696063D01*
X150590256Y-95582795D01*
X150401898Y-95504774D01*
X150201939Y-95465000D01*
X149998061Y-95465000D01*
X149798102Y-95504774D01*
X149609744Y-95582795D01*
X149440226Y-95696063D01*
X149296063Y-95840226D01*
X149182795Y-96009744D01*
X149104774Y-96198102D01*
X149065000Y-96398061D01*
X113795210Y-96398061D01*
X113717205Y-96209744D01*
X113603937Y-96040226D01*
X113459774Y-95896063D01*
X113290256Y-95782795D01*
X113101898Y-95704774D01*
X112901939Y-95665000D01*
X112698061Y-95665000D01*
X112498102Y-95704774D01*
X112309744Y-95782795D01*
X112140226Y-95896063D01*
X111996063Y-96040226D01*
X111882795Y-96209744D01*
X111804774Y-96398102D01*
X111765000Y-96598061D01*
X85963633Y-96598061D01*
X85991383Y-96531067D01*
X86035000Y-96311788D01*
X86035000Y-96088212D01*
X85991383Y-95868933D01*
X85905824Y-95662376D01*
X85781612Y-95476480D01*
X85623520Y-95318388D01*
X85437624Y-95194176D01*
X85231067Y-95108617D01*
X85011788Y-95065000D01*
X84788212Y-95065000D01*
X84568933Y-95108617D01*
X84362376Y-95194176D01*
X84176480Y-95318388D01*
X84018388Y-95476480D01*
X83894176Y-95662376D01*
X83808617Y-95868933D01*
X83765000Y-96088212D01*
X66135000Y-96088212D01*
X66135000Y-94498061D01*
X143365000Y-94498061D01*
X143365000Y-94701939D01*
X143404774Y-94901898D01*
X143482795Y-95090256D01*
X143596063Y-95259774D01*
X143740226Y-95403937D01*
X143909744Y-95517205D01*
X144098102Y-95595226D01*
X144298061Y-95635000D01*
X144501939Y-95635000D01*
X144701898Y-95595226D01*
X144890256Y-95517205D01*
X145059774Y-95403937D01*
X145203937Y-95259774D01*
X145317205Y-95090256D01*
X145395226Y-94901898D01*
X145435000Y-94701939D01*
X145435000Y-94498061D01*
X145395226Y-94298102D01*
X145317205Y-94109744D01*
X145203937Y-93940226D01*
X145059774Y-93796063D01*
X144890256Y-93682795D01*
X144701898Y-93604774D01*
X144501939Y-93565000D01*
X144298061Y-93565000D01*
X144098102Y-93604774D01*
X143909744Y-93682795D01*
X143740226Y-93796063D01*
X143596063Y-93940226D01*
X143482795Y-94109744D01*
X143404774Y-94298102D01*
X143365000Y-94498061D01*
X66135000Y-94498061D01*
X66135000Y-90798061D01*
X140855000Y-90798061D01*
X140855000Y-91001939D01*
X140894774Y-91201898D01*
X140972795Y-91390256D01*
X141086063Y-91559774D01*
X141230226Y-91703937D01*
X141231500Y-91704789D01*
X141106063Y-91830226D01*
X140992795Y-91999744D01*
X140914774Y-92188102D01*
X140875000Y-92388061D01*
X140875000Y-92591939D01*
X140914774Y-92791898D01*
X140992795Y-92980256D01*
X141106063Y-93149774D01*
X141250226Y-93293937D01*
X141419744Y-93407205D01*
X141608102Y-93485226D01*
X141808061Y-93525000D01*
X142011939Y-93525000D01*
X142211898Y-93485226D01*
X142400256Y-93407205D01*
X142569774Y-93293937D01*
X142713937Y-93149774D01*
X142827205Y-92980256D01*
X142905226Y-92791898D01*
X142924583Y-92694583D01*
X143021898Y-92675226D01*
X143210256Y-92597205D01*
X143379774Y-92483937D01*
X143465650Y-92398061D01*
X148465000Y-92398061D01*
X148465000Y-92601939D01*
X148504774Y-92801898D01*
X148582795Y-92990256D01*
X148696063Y-93159774D01*
X148840226Y-93303937D01*
X149009744Y-93417205D01*
X149198102Y-93495226D01*
X149398061Y-93535000D01*
X149601939Y-93535000D01*
X149801898Y-93495226D01*
X149990256Y-93417205D01*
X150159774Y-93303937D01*
X150303937Y-93159774D01*
X150371899Y-93058061D01*
X199325000Y-93058061D01*
X199325000Y-93261939D01*
X199364774Y-93461898D01*
X199442795Y-93650256D01*
X199556063Y-93819774D01*
X199700226Y-93963937D01*
X199869744Y-94077205D01*
X200058102Y-94155226D01*
X200258061Y-94195000D01*
X200461939Y-94195000D01*
X200661898Y-94155226D01*
X200850256Y-94077205D01*
X200968703Y-93998061D01*
X208440000Y-93998061D01*
X208440000Y-94201939D01*
X208479774Y-94401898D01*
X208557795Y-94590256D01*
X208671063Y-94759774D01*
X208815226Y-94903937D01*
X208984744Y-95017205D01*
X209173102Y-95095226D01*
X209373061Y-95135000D01*
X209576939Y-95135000D01*
X209776898Y-95095226D01*
X209965256Y-95017205D01*
X210134774Y-94903937D01*
X210278937Y-94759774D01*
X210392205Y-94590256D01*
X210470226Y-94401898D01*
X210510000Y-94201939D01*
X210510000Y-93998061D01*
X210470226Y-93798102D01*
X210392205Y-93609744D01*
X210286767Y-93451944D01*
X210318937Y-93419774D01*
X210432205Y-93250256D01*
X210510226Y-93061898D01*
X210550000Y-92861939D01*
X210550000Y-92658061D01*
X210510226Y-92458102D01*
X210432205Y-92269744D01*
X210318937Y-92100226D01*
X210191211Y-91972500D01*
X210303937Y-91859774D01*
X210417205Y-91690256D01*
X210495226Y-91501898D01*
X210535000Y-91301939D01*
X210535000Y-91098061D01*
X210495226Y-90898102D01*
X210417205Y-90709744D01*
X210303937Y-90540226D01*
X210159774Y-90396063D01*
X209990256Y-90282795D01*
X209801898Y-90204774D01*
X209601939Y-90165000D01*
X209398061Y-90165000D01*
X209198102Y-90204774D01*
X209009744Y-90282795D01*
X208840226Y-90396063D01*
X208696063Y-90540226D01*
X208582795Y-90709744D01*
X208504774Y-90898102D01*
X208465000Y-91098061D01*
X208465000Y-91301939D01*
X208504774Y-91501898D01*
X208582795Y-91690256D01*
X208696063Y-91859774D01*
X208823789Y-91987500D01*
X208711063Y-92100226D01*
X208597795Y-92269744D01*
X208519774Y-92458102D01*
X208480000Y-92658061D01*
X208480000Y-92861939D01*
X208519774Y-93061898D01*
X208597795Y-93250256D01*
X208703233Y-93408056D01*
X208671063Y-93440226D01*
X208557795Y-93609744D01*
X208479774Y-93798102D01*
X208440000Y-93998061D01*
X200968703Y-93998061D01*
X201019774Y-93963937D01*
X201163937Y-93819774D01*
X201277205Y-93650256D01*
X201355226Y-93461898D01*
X201395000Y-93261939D01*
X201395000Y-93084541D01*
X204305064Y-93084541D01*
X204315575Y-93277763D01*
X204485603Y-93348562D01*
X204666176Y-93384828D01*
X204850355Y-93385171D01*
X205031061Y-93349574D01*
X205201351Y-93279408D01*
X205204425Y-93277763D01*
X205214936Y-93084541D01*
X204760000Y-92629605D01*
X204305064Y-93084541D01*
X201395000Y-93084541D01*
X201395000Y-93058061D01*
X201355226Y-92858102D01*
X201277205Y-92669744D01*
X201190751Y-92540355D01*
X203824829Y-92540355D01*
X203860426Y-92721061D01*
X203930592Y-92891351D01*
X203932237Y-92894425D01*
X204125459Y-92904936D01*
X204580395Y-92450000D01*
X204939605Y-92450000D01*
X205394541Y-92904936D01*
X205587763Y-92894425D01*
X205658562Y-92724397D01*
X205694828Y-92543824D01*
X205695171Y-92359645D01*
X205659574Y-92178939D01*
X205589408Y-92008649D01*
X205587763Y-92005575D01*
X205394541Y-91995064D01*
X204939605Y-92450000D01*
X204580395Y-92450000D01*
X204125459Y-91995064D01*
X203932237Y-92005575D01*
X203861438Y-92175603D01*
X203825172Y-92356176D01*
X203824829Y-92540355D01*
X201190751Y-92540355D01*
X201163937Y-92500226D01*
X201019774Y-92356063D01*
X200850256Y-92242795D01*
X200661898Y-92164774D01*
X200461939Y-92125000D01*
X200258061Y-92125000D01*
X200058102Y-92164774D01*
X199869744Y-92242795D01*
X199700226Y-92356063D01*
X199556063Y-92500226D01*
X199442795Y-92669744D01*
X199364774Y-92858102D01*
X199325000Y-93058061D01*
X150371899Y-93058061D01*
X150417205Y-92990256D01*
X150495226Y-92801898D01*
X150535000Y-92601939D01*
X150535000Y-92398061D01*
X150495226Y-92198102D01*
X150417205Y-92009744D01*
X150303937Y-91840226D01*
X150159774Y-91696063D01*
X149992870Y-91584541D01*
X202805064Y-91584541D01*
X202815575Y-91777763D01*
X202985603Y-91848562D01*
X203166176Y-91884828D01*
X203350355Y-91885171D01*
X203531061Y-91849574D01*
X203701351Y-91779408D01*
X203704425Y-91777763D01*
X203714936Y-91584541D01*
X204305064Y-91584541D01*
X204311345Y-91700000D01*
X204305064Y-91815459D01*
X204760000Y-92270395D01*
X205214936Y-91815459D01*
X205208655Y-91700000D01*
X205214936Y-91584541D01*
X205805064Y-91584541D01*
X205815575Y-91777763D01*
X205985603Y-91848562D01*
X206166176Y-91884828D01*
X206350355Y-91885171D01*
X206531061Y-91849574D01*
X206701351Y-91779408D01*
X206704425Y-91777763D01*
X206714936Y-91584541D01*
X206260000Y-91129605D01*
X205805064Y-91584541D01*
X205214936Y-91584541D01*
X204760000Y-91129605D01*
X204305064Y-91584541D01*
X203714936Y-91584541D01*
X203260000Y-91129605D01*
X202805064Y-91584541D01*
X149992870Y-91584541D01*
X149990256Y-91582795D01*
X149801898Y-91504774D01*
X149601939Y-91465000D01*
X149398061Y-91465000D01*
X149198102Y-91504774D01*
X149009744Y-91582795D01*
X148840226Y-91696063D01*
X148696063Y-91840226D01*
X148582795Y-92009744D01*
X148504774Y-92198102D01*
X148465000Y-92398061D01*
X143465650Y-92398061D01*
X143523937Y-92339774D01*
X143637205Y-92170256D01*
X143715226Y-91981898D01*
X143755000Y-91781939D01*
X143755000Y-91578061D01*
X143715226Y-91378102D01*
X143637205Y-91189744D01*
X143537387Y-91040355D01*
X202324829Y-91040355D01*
X202360426Y-91221061D01*
X202430592Y-91391351D01*
X202432237Y-91394425D01*
X202625459Y-91404936D01*
X203080395Y-90950000D01*
X203439605Y-90950000D01*
X203894541Y-91404936D01*
X204010000Y-91398655D01*
X204125459Y-91404936D01*
X204580395Y-90950000D01*
X204939605Y-90950000D01*
X205394541Y-91404936D01*
X205510000Y-91398655D01*
X205625459Y-91404936D01*
X206080395Y-90950000D01*
X206439605Y-90950000D01*
X206894541Y-91404936D01*
X207087763Y-91394425D01*
X207158562Y-91224397D01*
X207194828Y-91043824D01*
X207195171Y-90859645D01*
X207159574Y-90678939D01*
X207089408Y-90508649D01*
X207087763Y-90505575D01*
X206894541Y-90495064D01*
X206439605Y-90950000D01*
X206080395Y-90950000D01*
X205625459Y-90495064D01*
X205510000Y-90501345D01*
X205394541Y-90495064D01*
X204939605Y-90950000D01*
X204580395Y-90950000D01*
X204125459Y-90495064D01*
X204010000Y-90501345D01*
X203894541Y-90495064D01*
X203439605Y-90950000D01*
X203080395Y-90950000D01*
X202625459Y-90495064D01*
X202432237Y-90505575D01*
X202361438Y-90675603D01*
X202325172Y-90856176D01*
X202324829Y-91040355D01*
X143537387Y-91040355D01*
X143523937Y-91020226D01*
X143379774Y-90876063D01*
X143210256Y-90762795D01*
X143021898Y-90684774D01*
X142897546Y-90660039D01*
X142885226Y-90598102D01*
X142807205Y-90409744D01*
X142693937Y-90240226D01*
X142549774Y-90096063D01*
X142380256Y-89982795D01*
X142191898Y-89904774D01*
X141991939Y-89865000D01*
X141788061Y-89865000D01*
X141588102Y-89904774D01*
X141399744Y-89982795D01*
X141230226Y-90096063D01*
X141086063Y-90240226D01*
X140972795Y-90409744D01*
X140894774Y-90598102D01*
X140855000Y-90798061D01*
X66135000Y-90798061D01*
X66135000Y-88498061D01*
X137015000Y-88498061D01*
X137015000Y-88701939D01*
X137054774Y-88901898D01*
X137132795Y-89090256D01*
X137246063Y-89259774D01*
X137390226Y-89403937D01*
X137559744Y-89517205D01*
X137748102Y-89595226D01*
X137948061Y-89635000D01*
X138151939Y-89635000D01*
X138351898Y-89595226D01*
X138540256Y-89517205D01*
X138568907Y-89498061D01*
X143265000Y-89498061D01*
X143265000Y-89701939D01*
X143304774Y-89901898D01*
X143382795Y-90090256D01*
X143496063Y-90259774D01*
X143640226Y-90403937D01*
X143809744Y-90517205D01*
X143998102Y-90595226D01*
X144198061Y-90635000D01*
X144401939Y-90635000D01*
X144601898Y-90595226D01*
X144790256Y-90517205D01*
X144959774Y-90403937D01*
X145103937Y-90259774D01*
X145217205Y-90090256D01*
X145295226Y-89901898D01*
X145297393Y-89891003D01*
X145401898Y-89870216D01*
X145590256Y-89792195D01*
X145759774Y-89678927D01*
X145903937Y-89534764D01*
X146017205Y-89365246D01*
X146095226Y-89176888D01*
X146116872Y-89068061D01*
X148065000Y-89068061D01*
X148065000Y-89271939D01*
X148104774Y-89471898D01*
X148182795Y-89660256D01*
X148296063Y-89829774D01*
X148440226Y-89973937D01*
X148609744Y-90087205D01*
X148798102Y-90165226D01*
X148998061Y-90205000D01*
X149201939Y-90205000D01*
X149401898Y-90165226D01*
X149590256Y-90087205D01*
X149759774Y-89973937D01*
X149903937Y-89829774D01*
X150017205Y-89660256D01*
X150095226Y-89471898D01*
X150135000Y-89271939D01*
X150135000Y-89068061D01*
X150095226Y-88868102D01*
X150041361Y-88738061D01*
X157375000Y-88738061D01*
X157375000Y-88941939D01*
X157414774Y-89141898D01*
X157492795Y-89330256D01*
X157606063Y-89499774D01*
X157750226Y-89643937D01*
X157919744Y-89757205D01*
X158108102Y-89835226D01*
X158308061Y-89875000D01*
X158511939Y-89875000D01*
X158711898Y-89835226D01*
X158900256Y-89757205D01*
X159069774Y-89643937D01*
X159165650Y-89548061D01*
X160155000Y-89548061D01*
X160155000Y-89751939D01*
X160194774Y-89951898D01*
X160272795Y-90140256D01*
X160386063Y-90309774D01*
X160530226Y-90453937D01*
X160699744Y-90567205D01*
X160888102Y-90645226D01*
X161088061Y-90685000D01*
X161291939Y-90685000D01*
X161491898Y-90645226D01*
X161680256Y-90567205D01*
X161849774Y-90453937D01*
X161988252Y-90315459D01*
X202805064Y-90315459D01*
X203260000Y-90770395D01*
X203714936Y-90315459D01*
X203704425Y-90122237D01*
X203613896Y-90084541D01*
X204305064Y-90084541D01*
X204311345Y-90200000D01*
X204305064Y-90315459D01*
X204760000Y-90770395D01*
X205214936Y-90315459D01*
X205805064Y-90315459D01*
X206260000Y-90770395D01*
X206714936Y-90315459D01*
X206704425Y-90122237D01*
X206534397Y-90051438D01*
X206353824Y-90015172D01*
X206169645Y-90014829D01*
X205988939Y-90050426D01*
X205818649Y-90120592D01*
X205815575Y-90122237D01*
X205805064Y-90315459D01*
X205214936Y-90315459D01*
X205208655Y-90200000D01*
X205214936Y-90084541D01*
X204760000Y-89629605D01*
X204305064Y-90084541D01*
X203613896Y-90084541D01*
X203534397Y-90051438D01*
X203353824Y-90015172D01*
X203169645Y-90014829D01*
X202988939Y-90050426D01*
X202818649Y-90120592D01*
X202815575Y-90122237D01*
X202805064Y-90315459D01*
X161988252Y-90315459D01*
X161993937Y-90309774D01*
X162107205Y-90140256D01*
X162185226Y-89951898D01*
X162225000Y-89751939D01*
X162225000Y-89548061D01*
X162185226Y-89348102D01*
X162107205Y-89159744D01*
X162015877Y-89023061D01*
X196795000Y-89023061D01*
X196795000Y-89226939D01*
X196834774Y-89426898D01*
X196912795Y-89615256D01*
X197026063Y-89784774D01*
X197170226Y-89928937D01*
X197339744Y-90042205D01*
X197528102Y-90120226D01*
X197728061Y-90160000D01*
X197931939Y-90160000D01*
X198131898Y-90120226D01*
X198320256Y-90042205D01*
X198489774Y-89928937D01*
X198633937Y-89784774D01*
X198747205Y-89615256D01*
X198825226Y-89426898D01*
X198865000Y-89226939D01*
X198865000Y-89023061D01*
X198832180Y-88858061D01*
X199145000Y-88858061D01*
X199145000Y-89061939D01*
X199184774Y-89261898D01*
X199262795Y-89450256D01*
X199376063Y-89619774D01*
X199520226Y-89763937D01*
X199689744Y-89877205D01*
X199878102Y-89955226D01*
X200078061Y-89995000D01*
X200281939Y-89995000D01*
X200481898Y-89955226D01*
X200670256Y-89877205D01*
X200839774Y-89763937D01*
X200983937Y-89619774D01*
X201037002Y-89540355D01*
X203824829Y-89540355D01*
X203860426Y-89721061D01*
X203930592Y-89891351D01*
X203932237Y-89894425D01*
X204125459Y-89904936D01*
X204580395Y-89450000D01*
X204939605Y-89450000D01*
X205394541Y-89904936D01*
X205587763Y-89894425D01*
X205658562Y-89724397D01*
X205694828Y-89543824D01*
X205695171Y-89359645D01*
X205659574Y-89178939D01*
X205589408Y-89008649D01*
X205587763Y-89005575D01*
X205394541Y-88995064D01*
X204939605Y-89450000D01*
X204580395Y-89450000D01*
X204125459Y-88995064D01*
X203932237Y-89005575D01*
X203861438Y-89175603D01*
X203825172Y-89356176D01*
X203824829Y-89540355D01*
X201037002Y-89540355D01*
X201097205Y-89450256D01*
X201175226Y-89261898D01*
X201215000Y-89061939D01*
X201215000Y-88858061D01*
X201206527Y-88815459D01*
X204305064Y-88815459D01*
X204760000Y-89270395D01*
X205214936Y-88815459D01*
X205204425Y-88622237D01*
X205034397Y-88551438D01*
X204853824Y-88515172D01*
X204669645Y-88514829D01*
X204488939Y-88550426D01*
X204318649Y-88620592D01*
X204315575Y-88622237D01*
X204305064Y-88815459D01*
X201206527Y-88815459D01*
X201175226Y-88658102D01*
X201097205Y-88469744D01*
X200983937Y-88300226D01*
X200839774Y-88156063D01*
X200670256Y-88042795D01*
X200481898Y-87964774D01*
X200281939Y-87925000D01*
X200078061Y-87925000D01*
X199878102Y-87964774D01*
X199689744Y-88042795D01*
X199520226Y-88156063D01*
X199376063Y-88300226D01*
X199262795Y-88469744D01*
X199184774Y-88658102D01*
X199145000Y-88858061D01*
X198832180Y-88858061D01*
X198825226Y-88823102D01*
X198747205Y-88634744D01*
X198633937Y-88465226D01*
X198489774Y-88321063D01*
X198320256Y-88207795D01*
X198131898Y-88129774D01*
X197931939Y-88090000D01*
X197728061Y-88090000D01*
X197528102Y-88129774D01*
X197339744Y-88207795D01*
X197170226Y-88321063D01*
X197026063Y-88465226D01*
X196912795Y-88634744D01*
X196834774Y-88823102D01*
X196795000Y-89023061D01*
X162015877Y-89023061D01*
X161993937Y-88990226D01*
X161849774Y-88846063D01*
X161680256Y-88732795D01*
X161491898Y-88654774D01*
X161291939Y-88615000D01*
X161088061Y-88615000D01*
X160888102Y-88654774D01*
X160699744Y-88732795D01*
X160530226Y-88846063D01*
X160386063Y-88990226D01*
X160272795Y-89159744D01*
X160194774Y-89348102D01*
X160155000Y-89548061D01*
X159165650Y-89548061D01*
X159213937Y-89499774D01*
X159327205Y-89330256D01*
X159405226Y-89141898D01*
X159415834Y-89088567D01*
X159468100Y-89110216D01*
X159668059Y-89149990D01*
X159871937Y-89149990D01*
X160071896Y-89110216D01*
X160260254Y-89032195D01*
X160429772Y-88918927D01*
X160573935Y-88774764D01*
X160687203Y-88605246D01*
X160765224Y-88416888D01*
X160804998Y-88216929D01*
X160804998Y-88013051D01*
X160765224Y-87813092D01*
X160687203Y-87624734D01*
X160573935Y-87455216D01*
X160429772Y-87311053D01*
X160260254Y-87197785D01*
X160071896Y-87119764D01*
X159871937Y-87079990D01*
X159668059Y-87079990D01*
X159468100Y-87119764D01*
X159279742Y-87197785D01*
X159110224Y-87311053D01*
X158966061Y-87455216D01*
X158852793Y-87624734D01*
X158774772Y-87813092D01*
X158764164Y-87866423D01*
X158711898Y-87844774D01*
X158511939Y-87805000D01*
X158308061Y-87805000D01*
X158108102Y-87844774D01*
X157919744Y-87922795D01*
X157750226Y-88036063D01*
X157606063Y-88180226D01*
X157492795Y-88349744D01*
X157414774Y-88538102D01*
X157375000Y-88738061D01*
X150041361Y-88738061D01*
X150017205Y-88679744D01*
X149903937Y-88510226D01*
X149759774Y-88366063D01*
X149590256Y-88252795D01*
X149401898Y-88174774D01*
X149201939Y-88135000D01*
X148998061Y-88135000D01*
X148798102Y-88174774D01*
X148609744Y-88252795D01*
X148440226Y-88366063D01*
X148296063Y-88510226D01*
X148182795Y-88679744D01*
X148104774Y-88868102D01*
X148065000Y-89068061D01*
X146116872Y-89068061D01*
X146135000Y-88976929D01*
X146135000Y-88773051D01*
X146095226Y-88573092D01*
X146017205Y-88384734D01*
X145903937Y-88215216D01*
X145759774Y-88071053D01*
X145590256Y-87957785D01*
X145401898Y-87879764D01*
X145201939Y-87839990D01*
X144998061Y-87839990D01*
X144798102Y-87879764D01*
X144609744Y-87957785D01*
X144440226Y-88071053D01*
X144296063Y-88215216D01*
X144182795Y-88384734D01*
X144104774Y-88573092D01*
X144102607Y-88583987D01*
X143998102Y-88604774D01*
X143809744Y-88682795D01*
X143640226Y-88796063D01*
X143496063Y-88940226D01*
X143382795Y-89109744D01*
X143304774Y-89298102D01*
X143265000Y-89498061D01*
X138568907Y-89498061D01*
X138709774Y-89403937D01*
X138853937Y-89259774D01*
X138967205Y-89090256D01*
X139045226Y-88901898D01*
X139085000Y-88701939D01*
X139085000Y-88498061D01*
X139045226Y-88298102D01*
X138967205Y-88109744D01*
X138853937Y-87940226D01*
X138709774Y-87796063D01*
X138540256Y-87682795D01*
X138351898Y-87604774D01*
X138151939Y-87565000D01*
X137948061Y-87565000D01*
X137748102Y-87604774D01*
X137559744Y-87682795D01*
X137390226Y-87796063D01*
X137246063Y-87940226D01*
X137132795Y-88109744D01*
X137054774Y-88298102D01*
X137015000Y-88498061D01*
X66135000Y-88498061D01*
X66135000Y-85298061D01*
X110040000Y-85298061D01*
X110040000Y-85501939D01*
X110079774Y-85701898D01*
X110157795Y-85890256D01*
X110271063Y-86059774D01*
X110415226Y-86203937D01*
X110584744Y-86317205D01*
X110773102Y-86395226D01*
X110973061Y-86435000D01*
X111176939Y-86435000D01*
X111376898Y-86395226D01*
X111565256Y-86317205D01*
X111734774Y-86203937D01*
X111878937Y-86059774D01*
X111992205Y-85890256D01*
X112070226Y-85701898D01*
X112070989Y-85698061D01*
X121590000Y-85698061D01*
X121590000Y-85901939D01*
X121629774Y-86101898D01*
X121707795Y-86290256D01*
X121821063Y-86459774D01*
X121965226Y-86603937D01*
X122134744Y-86717205D01*
X122323102Y-86795226D01*
X122523061Y-86835000D01*
X122726939Y-86835000D01*
X122926898Y-86795226D01*
X123115256Y-86717205D01*
X123284774Y-86603937D01*
X123428937Y-86459774D01*
X123542205Y-86290256D01*
X123620226Y-86101898D01*
X123644858Y-85978061D01*
X142465000Y-85978061D01*
X142465000Y-86181939D01*
X142504774Y-86381898D01*
X142582795Y-86570256D01*
X142696063Y-86739774D01*
X142840226Y-86883937D01*
X143009744Y-86997205D01*
X143198102Y-87075226D01*
X143398061Y-87115000D01*
X143601939Y-87115000D01*
X143801898Y-87075226D01*
X143990256Y-86997205D01*
X144159774Y-86883937D01*
X144303937Y-86739774D01*
X144417205Y-86570256D01*
X144495226Y-86381898D01*
X144535000Y-86181939D01*
X144535000Y-85978061D01*
X144519088Y-85898061D01*
X147265000Y-85898061D01*
X147265000Y-86101939D01*
X147304774Y-86301898D01*
X147382795Y-86490256D01*
X147496063Y-86659774D01*
X147640226Y-86803937D01*
X147809744Y-86917205D01*
X147998102Y-86995226D01*
X148198061Y-87035000D01*
X148401939Y-87035000D01*
X148601898Y-86995226D01*
X148790256Y-86917205D01*
X148959774Y-86803937D01*
X149103937Y-86659774D01*
X149131808Y-86618061D01*
X163645000Y-86618061D01*
X163645000Y-86821939D01*
X163684774Y-87021898D01*
X163762795Y-87210256D01*
X163876063Y-87379774D01*
X164020226Y-87523937D01*
X164189744Y-87637205D01*
X164378102Y-87715226D01*
X164578061Y-87755000D01*
X164781939Y-87755000D01*
X164981898Y-87715226D01*
X165170256Y-87637205D01*
X165258771Y-87578061D01*
X181995000Y-87578061D01*
X181995000Y-87781939D01*
X182034774Y-87981898D01*
X182112795Y-88170256D01*
X182226063Y-88339774D01*
X182370226Y-88483937D01*
X182539744Y-88597205D01*
X182728102Y-88675226D01*
X182928061Y-88715000D01*
X183131939Y-88715000D01*
X183331898Y-88675226D01*
X183520256Y-88597205D01*
X183689774Y-88483937D01*
X183833937Y-88339774D01*
X183947205Y-88170256D01*
X184025226Y-87981898D01*
X184065000Y-87781939D01*
X184065000Y-87598061D01*
X185425000Y-87598061D01*
X185425000Y-87801939D01*
X185464774Y-88001898D01*
X185542795Y-88190256D01*
X185656063Y-88359774D01*
X185800226Y-88503937D01*
X185969744Y-88617205D01*
X186158102Y-88695226D01*
X186358061Y-88735000D01*
X186561939Y-88735000D01*
X186761898Y-88695226D01*
X186950256Y-88617205D01*
X187119774Y-88503937D01*
X187263937Y-88359774D01*
X187377205Y-88190256D01*
X187455226Y-88001898D01*
X187495000Y-87801939D01*
X187495000Y-87598061D01*
X187455226Y-87398102D01*
X187424143Y-87323061D01*
X192890000Y-87323061D01*
X192890000Y-87526939D01*
X192929774Y-87726898D01*
X193007795Y-87915256D01*
X193121063Y-88084774D01*
X193265226Y-88228937D01*
X193434744Y-88342205D01*
X193623102Y-88420226D01*
X193823061Y-88460000D01*
X194026939Y-88460000D01*
X194226898Y-88420226D01*
X194415256Y-88342205D01*
X194584774Y-88228937D01*
X194728937Y-88084774D01*
X194842205Y-87915256D01*
X194920226Y-87726898D01*
X194960000Y-87526939D01*
X194960000Y-87323061D01*
X194920226Y-87123102D01*
X194842205Y-86934744D01*
X194728937Y-86765226D01*
X194584774Y-86621063D01*
X194415256Y-86507795D01*
X194226898Y-86429774D01*
X194026939Y-86390000D01*
X193823061Y-86390000D01*
X193623102Y-86429774D01*
X193434744Y-86507795D01*
X193265226Y-86621063D01*
X193121063Y-86765226D01*
X193007795Y-86934744D01*
X192929774Y-87123102D01*
X192890000Y-87323061D01*
X187424143Y-87323061D01*
X187377205Y-87209744D01*
X187263937Y-87040226D01*
X187119774Y-86896063D01*
X186950256Y-86782795D01*
X186761898Y-86704774D01*
X186561939Y-86665000D01*
X186358061Y-86665000D01*
X186158102Y-86704774D01*
X185969744Y-86782795D01*
X185800226Y-86896063D01*
X185656063Y-87040226D01*
X185542795Y-87209744D01*
X185464774Y-87398102D01*
X185425000Y-87598061D01*
X184065000Y-87598061D01*
X184065000Y-87578061D01*
X184025226Y-87378102D01*
X183947205Y-87189744D01*
X183833937Y-87020226D01*
X183689774Y-86876063D01*
X183520256Y-86762795D01*
X183331898Y-86684774D01*
X183131939Y-86645000D01*
X182928061Y-86645000D01*
X182728102Y-86684774D01*
X182539744Y-86762795D01*
X182370226Y-86876063D01*
X182226063Y-87020226D01*
X182112795Y-87189744D01*
X182034774Y-87378102D01*
X181995000Y-87578061D01*
X165258771Y-87578061D01*
X165339774Y-87523937D01*
X165483937Y-87379774D01*
X165597205Y-87210256D01*
X165675226Y-87021898D01*
X165715000Y-86821939D01*
X165715000Y-86784500D01*
X165811898Y-86765226D01*
X166000256Y-86687205D01*
X166169774Y-86573937D01*
X166297823Y-86445888D01*
X166356556Y-86470216D01*
X166556515Y-86509990D01*
X166760393Y-86509990D01*
X166960352Y-86470216D01*
X167148710Y-86392195D01*
X167318228Y-86278927D01*
X167462391Y-86134764D01*
X167575659Y-85965246D01*
X167653680Y-85776888D01*
X167693454Y-85576929D01*
X167693454Y-85373051D01*
X167653680Y-85173092D01*
X167575659Y-84984734D01*
X167462391Y-84815216D01*
X167318228Y-84671053D01*
X167148710Y-84557785D01*
X166960352Y-84479764D01*
X166760393Y-84439990D01*
X166556515Y-84439990D01*
X166356556Y-84479764D01*
X166239204Y-84528373D01*
X166225226Y-84458102D01*
X166147205Y-84269744D01*
X166033937Y-84100226D01*
X165889774Y-83956063D01*
X165720256Y-83842795D01*
X165531898Y-83764774D01*
X165331939Y-83725000D01*
X165128061Y-83725000D01*
X164928102Y-83764774D01*
X164739744Y-83842795D01*
X164570226Y-83956063D01*
X164426063Y-84100226D01*
X164312795Y-84269744D01*
X164234774Y-84458102D01*
X164195000Y-84658061D01*
X164195000Y-84861939D01*
X164234774Y-85061898D01*
X164312795Y-85250256D01*
X164426063Y-85419774D01*
X164508074Y-85501785D01*
X164475000Y-85668061D01*
X164475000Y-85705500D01*
X164378102Y-85724774D01*
X164189744Y-85802795D01*
X164020226Y-85916063D01*
X163876063Y-86060226D01*
X163762795Y-86229744D01*
X163684774Y-86418102D01*
X163645000Y-86618061D01*
X149131808Y-86618061D01*
X149217205Y-86490256D01*
X149295226Y-86301898D01*
X149335000Y-86101939D01*
X149335000Y-85898061D01*
X149295226Y-85698102D01*
X149217205Y-85509744D01*
X149103937Y-85340226D01*
X148959774Y-85196063D01*
X148790256Y-85082795D01*
X148601898Y-85004774D01*
X148401939Y-84965000D01*
X148198061Y-84965000D01*
X147998102Y-85004774D01*
X147809744Y-85082795D01*
X147640226Y-85196063D01*
X147496063Y-85340226D01*
X147382795Y-85509744D01*
X147304774Y-85698102D01*
X147265000Y-85898061D01*
X144519088Y-85898061D01*
X144495226Y-85778102D01*
X144417205Y-85589744D01*
X144303937Y-85420226D01*
X144159774Y-85276063D01*
X143990256Y-85162795D01*
X143801898Y-85084774D01*
X143601939Y-85045000D01*
X143398061Y-85045000D01*
X143198102Y-85084774D01*
X143009744Y-85162795D01*
X142840226Y-85276063D01*
X142696063Y-85420226D01*
X142582795Y-85589744D01*
X142504774Y-85778102D01*
X142465000Y-85978061D01*
X123644858Y-85978061D01*
X123660000Y-85901939D01*
X123660000Y-85698061D01*
X123620226Y-85498102D01*
X123542205Y-85309744D01*
X123428937Y-85140226D01*
X123284774Y-84996063D01*
X123115256Y-84882795D01*
X122926898Y-84804774D01*
X122726939Y-84765000D01*
X122523061Y-84765000D01*
X122323102Y-84804774D01*
X122134744Y-84882795D01*
X121965226Y-84996063D01*
X121821063Y-85140226D01*
X121707795Y-85309744D01*
X121629774Y-85498102D01*
X121590000Y-85698061D01*
X112070989Y-85698061D01*
X112110000Y-85501939D01*
X112110000Y-85298061D01*
X112070226Y-85098102D01*
X111992205Y-84909744D01*
X111878937Y-84740226D01*
X111734774Y-84596063D01*
X111565256Y-84482795D01*
X111376898Y-84404774D01*
X111176939Y-84365000D01*
X110973061Y-84365000D01*
X110773102Y-84404774D01*
X110584744Y-84482795D01*
X110415226Y-84596063D01*
X110271063Y-84740226D01*
X110157795Y-84909744D01*
X110079774Y-85098102D01*
X110040000Y-85298061D01*
X66135000Y-85298061D01*
X66135000Y-83173061D01*
X188365000Y-83173061D01*
X188365000Y-83376939D01*
X188404774Y-83576898D01*
X188482795Y-83765256D01*
X188596063Y-83934774D01*
X188740226Y-84078937D01*
X188909744Y-84192205D01*
X189098102Y-84270226D01*
X189298061Y-84310000D01*
X189501939Y-84310000D01*
X189701898Y-84270226D01*
X189890256Y-84192205D01*
X190059774Y-84078937D01*
X190203937Y-83934774D01*
X190317205Y-83765256D01*
X190395226Y-83576898D01*
X190435000Y-83376939D01*
X190435000Y-83173061D01*
X191965000Y-83173061D01*
X191965000Y-83376939D01*
X192004774Y-83576898D01*
X192082795Y-83765256D01*
X192196063Y-83934774D01*
X192340226Y-84078937D01*
X192509744Y-84192205D01*
X192698102Y-84270226D01*
X192898061Y-84310000D01*
X193101939Y-84310000D01*
X193301898Y-84270226D01*
X193490256Y-84192205D01*
X193659774Y-84078937D01*
X193803937Y-83934774D01*
X193917205Y-83765256D01*
X193995226Y-83576898D01*
X194018454Y-83460123D01*
X194024774Y-83491898D01*
X194102795Y-83680256D01*
X194216063Y-83849774D01*
X194360226Y-83993937D01*
X194529744Y-84107205D01*
X194718102Y-84185226D01*
X194918061Y-84225000D01*
X195121939Y-84225000D01*
X195146115Y-84220191D01*
X195246063Y-84369774D01*
X195390226Y-84513937D01*
X195559744Y-84627205D01*
X195748102Y-84705226D01*
X195948061Y-84745000D01*
X196151939Y-84745000D01*
X196351898Y-84705226D01*
X196540256Y-84627205D01*
X196709774Y-84513937D01*
X196853937Y-84369774D01*
X196861763Y-84358061D01*
X201355000Y-84358061D01*
X201355000Y-84561939D01*
X201394774Y-84761898D01*
X201472795Y-84950256D01*
X201586063Y-85119774D01*
X201730226Y-85263937D01*
X201899744Y-85377205D01*
X202088102Y-85455226D01*
X202288061Y-85495000D01*
X202491939Y-85495000D01*
X202691898Y-85455226D01*
X202849895Y-85389781D01*
X204461179Y-85389781D01*
X204461179Y-85593659D01*
X204500953Y-85793618D01*
X204578974Y-85981976D01*
X204692242Y-86151494D01*
X204836405Y-86295657D01*
X205005923Y-86408925D01*
X205194281Y-86486946D01*
X205394240Y-86526720D01*
X205598118Y-86526720D01*
X205798077Y-86486946D01*
X205849704Y-86465561D01*
X205946063Y-86609774D01*
X206090226Y-86753937D01*
X206259744Y-86867205D01*
X206448102Y-86945226D01*
X206648061Y-86985000D01*
X206851939Y-86985000D01*
X207051898Y-86945226D01*
X207240256Y-86867205D01*
X207409774Y-86753937D01*
X207553937Y-86609774D01*
X207667205Y-86440256D01*
X207724311Y-86302390D01*
X207796063Y-86409774D01*
X207940226Y-86553937D01*
X208109744Y-86667205D01*
X208298102Y-86745226D01*
X208498061Y-86785000D01*
X208701939Y-86785000D01*
X208901898Y-86745226D01*
X209090256Y-86667205D01*
X209259774Y-86553937D01*
X209403937Y-86409774D01*
X209517205Y-86240256D01*
X209595226Y-86051898D01*
X209635000Y-85851939D01*
X209635000Y-85648061D01*
X209595226Y-85448102D01*
X209517205Y-85259744D01*
X209403937Y-85090226D01*
X209259774Y-84946063D01*
X209128070Y-84858061D01*
X212455000Y-84858061D01*
X212455000Y-85061939D01*
X212494774Y-85261898D01*
X212572795Y-85450256D01*
X212686063Y-85619774D01*
X212701289Y-85635000D01*
X212696063Y-85640226D01*
X212582795Y-85809744D01*
X212504774Y-85998102D01*
X212465000Y-86198061D01*
X212465000Y-86401939D01*
X212504774Y-86601898D01*
X212582795Y-86790256D01*
X212696063Y-86959774D01*
X212840226Y-87103937D01*
X213009744Y-87217205D01*
X213198102Y-87295226D01*
X213398061Y-87335000D01*
X213601939Y-87335000D01*
X213801898Y-87295226D01*
X213990256Y-87217205D01*
X214159774Y-87103937D01*
X214303937Y-86959774D01*
X214417205Y-86790256D01*
X214495226Y-86601898D01*
X214535000Y-86401939D01*
X214535000Y-86198061D01*
X214495226Y-85998102D01*
X214417205Y-85809744D01*
X214303937Y-85640226D01*
X214288711Y-85625000D01*
X214293937Y-85619774D01*
X214407205Y-85450256D01*
X214485226Y-85261898D01*
X214525000Y-85061939D01*
X214525000Y-84898061D01*
X214665000Y-84898061D01*
X214665000Y-85101939D01*
X214704774Y-85301898D01*
X214782795Y-85490256D01*
X214896063Y-85659774D01*
X215040226Y-85803937D01*
X215209744Y-85917205D01*
X215398102Y-85995226D01*
X215598061Y-86035000D01*
X215801939Y-86035000D01*
X215987645Y-85998061D01*
X220265000Y-85998061D01*
X220265000Y-86201939D01*
X220304774Y-86401898D01*
X220382795Y-86590256D01*
X220496063Y-86759774D01*
X220640226Y-86903937D01*
X220809744Y-87017205D01*
X220998102Y-87095226D01*
X221198061Y-87135000D01*
X221401939Y-87135000D01*
X221601898Y-87095226D01*
X221790256Y-87017205D01*
X221959774Y-86903937D01*
X222103937Y-86759774D01*
X222217205Y-86590256D01*
X222295226Y-86401898D01*
X222335000Y-86201939D01*
X222335000Y-85998061D01*
X222295226Y-85798102D01*
X222217205Y-85609744D01*
X222103937Y-85440226D01*
X221959774Y-85296063D01*
X221790256Y-85182795D01*
X221601898Y-85104774D01*
X221401939Y-85065000D01*
X221198061Y-85065000D01*
X220998102Y-85104774D01*
X220809744Y-85182795D01*
X220640226Y-85296063D01*
X220496063Y-85440226D01*
X220382795Y-85609744D01*
X220304774Y-85798102D01*
X220265000Y-85998061D01*
X215987645Y-85998061D01*
X216001898Y-85995226D01*
X216190256Y-85917205D01*
X216359774Y-85803937D01*
X216503937Y-85659774D01*
X216617205Y-85490256D01*
X216695226Y-85301898D01*
X216735000Y-85101939D01*
X216735000Y-84898061D01*
X216715109Y-84798061D01*
X217665000Y-84798061D01*
X217665000Y-85001939D01*
X217704774Y-85201898D01*
X217782795Y-85390256D01*
X217896063Y-85559774D01*
X218040226Y-85703937D01*
X218209744Y-85817205D01*
X218398102Y-85895226D01*
X218598061Y-85935000D01*
X218801939Y-85935000D01*
X219001898Y-85895226D01*
X219190256Y-85817205D01*
X219359774Y-85703937D01*
X219503937Y-85559774D01*
X219617205Y-85390256D01*
X219695226Y-85201898D01*
X219735000Y-85001939D01*
X219735000Y-84798061D01*
X219695226Y-84598102D01*
X219617205Y-84409744D01*
X219503937Y-84240226D01*
X219359774Y-84096063D01*
X219190256Y-83982795D01*
X219001898Y-83904774D01*
X218801939Y-83865000D01*
X218598061Y-83865000D01*
X218398102Y-83904774D01*
X218209744Y-83982795D01*
X218040226Y-84096063D01*
X217896063Y-84240226D01*
X217782795Y-84409744D01*
X217704774Y-84598102D01*
X217665000Y-84798061D01*
X216715109Y-84798061D01*
X216695226Y-84698102D01*
X216617205Y-84509744D01*
X216503937Y-84340226D01*
X216359774Y-84196063D01*
X216190256Y-84082795D01*
X216001898Y-84004774D01*
X215801939Y-83965000D01*
X215598061Y-83965000D01*
X215398102Y-84004774D01*
X215209744Y-84082795D01*
X215040226Y-84196063D01*
X214896063Y-84340226D01*
X214782795Y-84509744D01*
X214704774Y-84698102D01*
X214665000Y-84898061D01*
X214525000Y-84898061D01*
X214525000Y-84858061D01*
X214485226Y-84658102D01*
X214407205Y-84469744D01*
X214293937Y-84300226D01*
X214149774Y-84156063D01*
X213980256Y-84042795D01*
X213791898Y-83964774D01*
X213591939Y-83925000D01*
X213388061Y-83925000D01*
X213188102Y-83964774D01*
X212999744Y-84042795D01*
X212830226Y-84156063D01*
X212686063Y-84300226D01*
X212572795Y-84469744D01*
X212494774Y-84658102D01*
X212455000Y-84858061D01*
X209128070Y-84858061D01*
X209090256Y-84832795D01*
X208901898Y-84754774D01*
X208701939Y-84715000D01*
X208498061Y-84715000D01*
X208298102Y-84754774D01*
X208109744Y-84832795D01*
X207940226Y-84946063D01*
X207796063Y-85090226D01*
X207682795Y-85259744D01*
X207625689Y-85397610D01*
X207553937Y-85290226D01*
X207409774Y-85146063D01*
X207240256Y-85032795D01*
X207051898Y-84954774D01*
X206851939Y-84915000D01*
X206648061Y-84915000D01*
X206448102Y-84954774D01*
X206396475Y-84976159D01*
X206300116Y-84831946D01*
X206155953Y-84687783D01*
X205986435Y-84574515D01*
X205798077Y-84496494D01*
X205598118Y-84456720D01*
X205394240Y-84456720D01*
X205194281Y-84496494D01*
X205005923Y-84574515D01*
X204836405Y-84687783D01*
X204692242Y-84831946D01*
X204578974Y-85001464D01*
X204500953Y-85189822D01*
X204461179Y-85389781D01*
X202849895Y-85389781D01*
X202880256Y-85377205D01*
X203049774Y-85263937D01*
X203193937Y-85119774D01*
X203307205Y-84950256D01*
X203385226Y-84761898D01*
X203425000Y-84561939D01*
X203425000Y-84358061D01*
X203385226Y-84158102D01*
X203307205Y-83969744D01*
X203193937Y-83800226D01*
X203049774Y-83656063D01*
X202880256Y-83542795D01*
X202691898Y-83464774D01*
X202491939Y-83425000D01*
X202288061Y-83425000D01*
X202088102Y-83464774D01*
X201899744Y-83542795D01*
X201730226Y-83656063D01*
X201586063Y-83800226D01*
X201472795Y-83969744D01*
X201394774Y-84158102D01*
X201355000Y-84358061D01*
X196861763Y-84358061D01*
X196967205Y-84200256D01*
X197045226Y-84011898D01*
X197085000Y-83811939D01*
X197085000Y-83608061D01*
X197045226Y-83408102D01*
X196977334Y-83244197D01*
X197028102Y-83265226D01*
X197228061Y-83305000D01*
X197431939Y-83305000D01*
X197631898Y-83265226D01*
X197820256Y-83187205D01*
X197989774Y-83073937D01*
X198133937Y-82929774D01*
X198247205Y-82760256D01*
X198325226Y-82571898D01*
X198365000Y-82371939D01*
X198365000Y-82168061D01*
X198325226Y-81968102D01*
X198247205Y-81779744D01*
X198133937Y-81610226D01*
X197989774Y-81466063D01*
X197820256Y-81352795D01*
X197631898Y-81274774D01*
X197431939Y-81235000D01*
X197228061Y-81235000D01*
X197028102Y-81274774D01*
X196839744Y-81352795D01*
X196670226Y-81466063D01*
X196526063Y-81610226D01*
X196412795Y-81779744D01*
X196334774Y-81968102D01*
X196295000Y-82168061D01*
X196295000Y-82371939D01*
X196334774Y-82571898D01*
X196402666Y-82735803D01*
X196351898Y-82714774D01*
X196151939Y-82675000D01*
X195948061Y-82675000D01*
X195923885Y-82679809D01*
X195823937Y-82530226D01*
X195679774Y-82386063D01*
X195510256Y-82272795D01*
X195321898Y-82194774D01*
X195121939Y-82155000D01*
X194918061Y-82155000D01*
X194718102Y-82194774D01*
X194529744Y-82272795D01*
X194360226Y-82386063D01*
X194216063Y-82530226D01*
X194102795Y-82699744D01*
X194024774Y-82888102D01*
X194001546Y-83004877D01*
X193995226Y-82973102D01*
X193917205Y-82784744D01*
X193803937Y-82615226D01*
X193659774Y-82471063D01*
X193490256Y-82357795D01*
X193301898Y-82279774D01*
X193101939Y-82240000D01*
X192898061Y-82240000D01*
X192698102Y-82279774D01*
X192509744Y-82357795D01*
X192340226Y-82471063D01*
X192196063Y-82615226D01*
X192082795Y-82784744D01*
X192004774Y-82973102D01*
X191965000Y-83173061D01*
X190435000Y-83173061D01*
X190395226Y-82973102D01*
X190317205Y-82784744D01*
X190203937Y-82615226D01*
X190059774Y-82471063D01*
X189890256Y-82357795D01*
X189701898Y-82279774D01*
X189501939Y-82240000D01*
X189298061Y-82240000D01*
X189098102Y-82279774D01*
X188909744Y-82357795D01*
X188740226Y-82471063D01*
X188596063Y-82615226D01*
X188482795Y-82784744D01*
X188404774Y-82973102D01*
X188365000Y-83173061D01*
X66135000Y-83173061D01*
X66135000Y-81500000D01*
X66122799Y-81376118D01*
X66086664Y-81256996D01*
X66027983Y-81147213D01*
X65949013Y-81050987D01*
X65852787Y-80972017D01*
X65743004Y-80913336D01*
X65692649Y-80898061D01*
X161065000Y-80898061D01*
X161065000Y-81101939D01*
X161104774Y-81301898D01*
X161182795Y-81490256D01*
X161296063Y-81659774D01*
X161440226Y-81803937D01*
X161609744Y-81917205D01*
X161798102Y-81995226D01*
X161998061Y-82035000D01*
X162201939Y-82035000D01*
X162401898Y-81995226D01*
X162590256Y-81917205D01*
X162759774Y-81803937D01*
X162903937Y-81659774D01*
X163017205Y-81490256D01*
X163095226Y-81301898D01*
X163135000Y-81101939D01*
X163135000Y-80898061D01*
X163095226Y-80698102D01*
X163070357Y-80638061D01*
X193945000Y-80638061D01*
X193945000Y-80841939D01*
X193984774Y-81041898D01*
X194062795Y-81230256D01*
X194176063Y-81399774D01*
X194320226Y-81543937D01*
X194489744Y-81657205D01*
X194678102Y-81735226D01*
X194878061Y-81775000D01*
X195081939Y-81775000D01*
X195281898Y-81735226D01*
X195470256Y-81657205D01*
X195639774Y-81543937D01*
X195783937Y-81399774D01*
X195811065Y-81359174D01*
X195898102Y-81395226D01*
X196098061Y-81435000D01*
X196301939Y-81435000D01*
X196501898Y-81395226D01*
X196690256Y-81317205D01*
X196859774Y-81203937D01*
X197003937Y-81059774D01*
X197117205Y-80890256D01*
X197195226Y-80701898D01*
X197235000Y-80501939D01*
X197235000Y-80298061D01*
X197207728Y-80160956D01*
X197228061Y-80165000D01*
X197431939Y-80165000D01*
X197631898Y-80125226D01*
X197820256Y-80047205D01*
X197989774Y-79933937D01*
X198063168Y-79860543D01*
X198096063Y-79909774D01*
X198240226Y-80053937D01*
X198409744Y-80167205D01*
X198522420Y-80213877D01*
X198486071Y-80250226D01*
X198372803Y-80419744D01*
X198294782Y-80608102D01*
X198255008Y-80808061D01*
X198255008Y-81011939D01*
X198294782Y-81211898D01*
X198372803Y-81400256D01*
X198486071Y-81569774D01*
X198630234Y-81713937D01*
X198799752Y-81827205D01*
X198988110Y-81905226D01*
X199188069Y-81945000D01*
X199391947Y-81945000D01*
X199591906Y-81905226D01*
X199780264Y-81827205D01*
X199949782Y-81713937D01*
X200093945Y-81569774D01*
X200207213Y-81400256D01*
X200285234Y-81211898D01*
X200325008Y-81011939D01*
X200325008Y-80818061D01*
X201350000Y-80818061D01*
X201350000Y-81021939D01*
X201389774Y-81221898D01*
X201467795Y-81410256D01*
X201581063Y-81579774D01*
X201725226Y-81723937D01*
X201894744Y-81837205D01*
X202083102Y-81915226D01*
X202283061Y-81955000D01*
X202486939Y-81955000D01*
X202686898Y-81915226D01*
X202875256Y-81837205D01*
X203044774Y-81723937D01*
X203070650Y-81698061D01*
X204465000Y-81698061D01*
X204465000Y-81901939D01*
X204504774Y-82101898D01*
X204582795Y-82290256D01*
X204696063Y-82459774D01*
X204840226Y-82603937D01*
X205009744Y-82717205D01*
X205198102Y-82795226D01*
X205398061Y-82835000D01*
X205601939Y-82835000D01*
X205801898Y-82795226D01*
X205990256Y-82717205D01*
X206159774Y-82603937D01*
X206303937Y-82459774D01*
X206417205Y-82290256D01*
X206495226Y-82101898D01*
X206535000Y-81901939D01*
X206535000Y-81748061D01*
X207565000Y-81748061D01*
X207565000Y-81951939D01*
X207604774Y-82151898D01*
X207682795Y-82340256D01*
X207796063Y-82509774D01*
X207940226Y-82653937D01*
X208109744Y-82767205D01*
X208298102Y-82845226D01*
X208498061Y-82885000D01*
X208701939Y-82885000D01*
X208901898Y-82845226D01*
X209090256Y-82767205D01*
X209259774Y-82653937D01*
X209403937Y-82509774D01*
X209517205Y-82340256D01*
X209534682Y-82298061D01*
X217465000Y-82298061D01*
X217465000Y-82501939D01*
X217504774Y-82701898D01*
X217582795Y-82890256D01*
X217696063Y-83059774D01*
X217840226Y-83203937D01*
X218009744Y-83317205D01*
X218198102Y-83395226D01*
X218398061Y-83435000D01*
X218601939Y-83435000D01*
X218801898Y-83395226D01*
X218990256Y-83317205D01*
X219159774Y-83203937D01*
X219303937Y-83059774D01*
X219417205Y-82890256D01*
X219467820Y-82768061D01*
X223785000Y-82768061D01*
X223785000Y-82971939D01*
X223824774Y-83171898D01*
X223902795Y-83360256D01*
X224016063Y-83529774D01*
X224160226Y-83673937D01*
X224329744Y-83787205D01*
X224518102Y-83865226D01*
X224718061Y-83905000D01*
X224921939Y-83905000D01*
X225121898Y-83865226D01*
X225310256Y-83787205D01*
X225479774Y-83673937D01*
X225623937Y-83529774D01*
X225737205Y-83360256D01*
X225815226Y-83171898D01*
X225855000Y-82971939D01*
X225855000Y-82768061D01*
X225815226Y-82568102D01*
X225737205Y-82379744D01*
X225623937Y-82210226D01*
X225479774Y-82066063D01*
X225310256Y-81952795D01*
X225121898Y-81874774D01*
X224921939Y-81835000D01*
X224718061Y-81835000D01*
X224518102Y-81874774D01*
X224329744Y-81952795D01*
X224160226Y-82066063D01*
X224016063Y-82210226D01*
X223902795Y-82379744D01*
X223824774Y-82568102D01*
X223785000Y-82768061D01*
X219467820Y-82768061D01*
X219495226Y-82701898D01*
X219535000Y-82501939D01*
X219535000Y-82298061D01*
X219495226Y-82098102D01*
X219417205Y-81909744D01*
X219303937Y-81740226D01*
X219159774Y-81596063D01*
X218990256Y-81482795D01*
X218801898Y-81404774D01*
X218601939Y-81365000D01*
X218398061Y-81365000D01*
X218198102Y-81404774D01*
X218009744Y-81482795D01*
X217840226Y-81596063D01*
X217696063Y-81740226D01*
X217582795Y-81909744D01*
X217504774Y-82098102D01*
X217465000Y-82298061D01*
X209534682Y-82298061D01*
X209595226Y-82151898D01*
X209635000Y-81951939D01*
X209635000Y-81748061D01*
X209595226Y-81548102D01*
X209517205Y-81359744D01*
X209450781Y-81260333D01*
X209615256Y-81192205D01*
X209784774Y-81078937D01*
X209928937Y-80934774D01*
X210042205Y-80765256D01*
X210120226Y-80576898D01*
X210160000Y-80376939D01*
X210160000Y-80173061D01*
X210120226Y-79973102D01*
X210042205Y-79784744D01*
X209928937Y-79615226D01*
X209784774Y-79471063D01*
X209615256Y-79357795D01*
X209426898Y-79279774D01*
X209226939Y-79240000D01*
X209023061Y-79240000D01*
X208823102Y-79279774D01*
X208634744Y-79357795D01*
X208465226Y-79471063D01*
X208321063Y-79615226D01*
X208207795Y-79784744D01*
X208129774Y-79973102D01*
X208090000Y-80173061D01*
X208090000Y-80376939D01*
X208129774Y-80576898D01*
X208207795Y-80765256D01*
X208274219Y-80864667D01*
X208109744Y-80932795D01*
X207940226Y-81046063D01*
X207796063Y-81190226D01*
X207682795Y-81359744D01*
X207604774Y-81548102D01*
X207565000Y-81748061D01*
X206535000Y-81748061D01*
X206535000Y-81698061D01*
X206495226Y-81498102D01*
X206417205Y-81309744D01*
X206303937Y-81140226D01*
X206159774Y-80996063D01*
X205990256Y-80882795D01*
X205801898Y-80804774D01*
X205601939Y-80765000D01*
X205398061Y-80765000D01*
X205198102Y-80804774D01*
X205009744Y-80882795D01*
X204840226Y-80996063D01*
X204696063Y-81140226D01*
X204582795Y-81309744D01*
X204504774Y-81498102D01*
X204465000Y-81698061D01*
X203070650Y-81698061D01*
X203188937Y-81579774D01*
X203302205Y-81410256D01*
X203380226Y-81221898D01*
X203420000Y-81021939D01*
X203420000Y-80818061D01*
X203380226Y-80618102D01*
X203302205Y-80429744D01*
X203188937Y-80260226D01*
X203044774Y-80116063D01*
X202875256Y-80002795D01*
X202686898Y-79924774D01*
X202486939Y-79885000D01*
X202283061Y-79885000D01*
X202083102Y-79924774D01*
X201894744Y-80002795D01*
X201725226Y-80116063D01*
X201581063Y-80260226D01*
X201467795Y-80429744D01*
X201389774Y-80618102D01*
X201350000Y-80818061D01*
X200325008Y-80818061D01*
X200325008Y-80808061D01*
X200285234Y-80608102D01*
X200207213Y-80419744D01*
X200093945Y-80250226D01*
X199949782Y-80106063D01*
X199780264Y-79992795D01*
X199667588Y-79946123D01*
X199703937Y-79909774D01*
X199817205Y-79740256D01*
X199895226Y-79551898D01*
X199935000Y-79351939D01*
X199935000Y-79148061D01*
X199895226Y-78948102D01*
X199817205Y-78759744D01*
X199759286Y-78673061D01*
X211890000Y-78673061D01*
X211890000Y-78876939D01*
X211929774Y-79076898D01*
X212007795Y-79265256D01*
X212121063Y-79434774D01*
X212265226Y-79578937D01*
X212434744Y-79692205D01*
X212623102Y-79770226D01*
X212823061Y-79810000D01*
X213026939Y-79810000D01*
X213226898Y-79770226D01*
X213415256Y-79692205D01*
X213584774Y-79578937D01*
X213728937Y-79434774D01*
X213842205Y-79265256D01*
X213920226Y-79076898D01*
X213960000Y-78876939D01*
X213960000Y-78698061D01*
X231265000Y-78698061D01*
X231265000Y-78901939D01*
X231304774Y-79101898D01*
X231382795Y-79290256D01*
X231496063Y-79459774D01*
X231640226Y-79603937D01*
X231809744Y-79717205D01*
X231998102Y-79795226D01*
X232198061Y-79835000D01*
X232401939Y-79835000D01*
X232601898Y-79795226D01*
X232790256Y-79717205D01*
X232959774Y-79603937D01*
X233103937Y-79459774D01*
X233217205Y-79290256D01*
X233295226Y-79101898D01*
X233335000Y-78901939D01*
X233335000Y-78698061D01*
X233295226Y-78498102D01*
X233217205Y-78309744D01*
X233103937Y-78140226D01*
X232959774Y-77996063D01*
X232790256Y-77882795D01*
X232601898Y-77804774D01*
X232401939Y-77765000D01*
X232198061Y-77765000D01*
X231998102Y-77804774D01*
X231809744Y-77882795D01*
X231640226Y-77996063D01*
X231496063Y-78140226D01*
X231382795Y-78309744D01*
X231304774Y-78498102D01*
X231265000Y-78698061D01*
X213960000Y-78698061D01*
X213960000Y-78673061D01*
X213920226Y-78473102D01*
X213842205Y-78284744D01*
X213728937Y-78115226D01*
X213584774Y-77971063D01*
X213415256Y-77857795D01*
X213226898Y-77779774D01*
X213026939Y-77740000D01*
X212823061Y-77740000D01*
X212623102Y-77779774D01*
X212434744Y-77857795D01*
X212265226Y-77971063D01*
X212121063Y-78115226D01*
X212007795Y-78284744D01*
X211929774Y-78473102D01*
X211890000Y-78673061D01*
X199759286Y-78673061D01*
X199703937Y-78590226D01*
X199559774Y-78446063D01*
X199390256Y-78332795D01*
X199201898Y-78254774D01*
X199001939Y-78215000D01*
X198798061Y-78215000D01*
X198598102Y-78254774D01*
X198409744Y-78332795D01*
X198240226Y-78446063D01*
X198166832Y-78519457D01*
X198133937Y-78470226D01*
X197989774Y-78326063D01*
X197820256Y-78212795D01*
X197631898Y-78134774D01*
X197431939Y-78095000D01*
X197228061Y-78095000D01*
X197028102Y-78134774D01*
X196839744Y-78212795D01*
X196670226Y-78326063D01*
X196526063Y-78470226D01*
X196412795Y-78639744D01*
X196334774Y-78828102D01*
X196295000Y-79028061D01*
X196295000Y-79231939D01*
X196322272Y-79369044D01*
X196301939Y-79365000D01*
X196098061Y-79365000D01*
X195898102Y-79404774D01*
X195709744Y-79482795D01*
X195540226Y-79596063D01*
X195396063Y-79740226D01*
X195368935Y-79780826D01*
X195281898Y-79744774D01*
X195081939Y-79705000D01*
X194878061Y-79705000D01*
X194678102Y-79744774D01*
X194489744Y-79822795D01*
X194320226Y-79936063D01*
X194176063Y-80080226D01*
X194062795Y-80249744D01*
X193984774Y-80438102D01*
X193945000Y-80638061D01*
X163070357Y-80638061D01*
X163017205Y-80509744D01*
X162903937Y-80340226D01*
X162759774Y-80196063D01*
X162590256Y-80082795D01*
X162401898Y-80004774D01*
X162201939Y-79965000D01*
X161998061Y-79965000D01*
X161798102Y-80004774D01*
X161609744Y-80082795D01*
X161440226Y-80196063D01*
X161296063Y-80340226D01*
X161182795Y-80509744D01*
X161104774Y-80698102D01*
X161065000Y-80898061D01*
X65692649Y-80898061D01*
X65623882Y-80877201D01*
X65500000Y-80865000D01*
X55660000Y-80865000D01*
X55660000Y-78448063D01*
X133915000Y-78448063D01*
X133915000Y-78651941D01*
X133954774Y-78851900D01*
X134032795Y-79040258D01*
X134146063Y-79209776D01*
X134290226Y-79353939D01*
X134459744Y-79467207D01*
X134648102Y-79545228D01*
X134848061Y-79585002D01*
X135051939Y-79585002D01*
X135251898Y-79545228D01*
X135440256Y-79467207D01*
X135609774Y-79353939D01*
X135753937Y-79209776D01*
X135867205Y-79040258D01*
X135942674Y-78858061D01*
X170445000Y-78858061D01*
X170445000Y-79061939D01*
X170484774Y-79261898D01*
X170562795Y-79450256D01*
X170676063Y-79619774D01*
X170820226Y-79763937D01*
X170989744Y-79877205D01*
X171178102Y-79955226D01*
X171378061Y-79995000D01*
X171581939Y-79995000D01*
X171781898Y-79955226D01*
X171970256Y-79877205D01*
X172139774Y-79763937D01*
X172283937Y-79619774D01*
X172397205Y-79450256D01*
X172475226Y-79261898D01*
X172493891Y-79168061D01*
X191005000Y-79168061D01*
X191005000Y-79371939D01*
X191044774Y-79571898D01*
X191122795Y-79760256D01*
X191236063Y-79929774D01*
X191380226Y-80073937D01*
X191549744Y-80187205D01*
X191738102Y-80265226D01*
X191938061Y-80305000D01*
X192141939Y-80305000D01*
X192341898Y-80265226D01*
X192530256Y-80187205D01*
X192699774Y-80073937D01*
X192843937Y-79929774D01*
X192957205Y-79760256D01*
X193035226Y-79571898D01*
X193075000Y-79371939D01*
X193075000Y-79168061D01*
X193035226Y-78968102D01*
X192957205Y-78779744D01*
X192843937Y-78610226D01*
X192699774Y-78466063D01*
X192530256Y-78352795D01*
X192341898Y-78274774D01*
X192141939Y-78235000D01*
X191938061Y-78235000D01*
X191738102Y-78274774D01*
X191549744Y-78352795D01*
X191380226Y-78466063D01*
X191236063Y-78610226D01*
X191122795Y-78779744D01*
X191044774Y-78968102D01*
X191005000Y-79168061D01*
X172493891Y-79168061D01*
X172515000Y-79061939D01*
X172515000Y-78858061D01*
X172475226Y-78658102D01*
X172397205Y-78469744D01*
X172283937Y-78300226D01*
X172139774Y-78156063D01*
X171970256Y-78042795D01*
X171781898Y-77964774D01*
X171581939Y-77925000D01*
X171378061Y-77925000D01*
X171178102Y-77964774D01*
X170989744Y-78042795D01*
X170820226Y-78156063D01*
X170676063Y-78300226D01*
X170562795Y-78469744D01*
X170484774Y-78658102D01*
X170445000Y-78858061D01*
X135942674Y-78858061D01*
X135945226Y-78851900D01*
X135985000Y-78651941D01*
X135985000Y-78448063D01*
X135945226Y-78248104D01*
X135867205Y-78059746D01*
X135753937Y-77890228D01*
X135609774Y-77746065D01*
X135440256Y-77632797D01*
X135251898Y-77554776D01*
X135051939Y-77515002D01*
X134848061Y-77515002D01*
X134648102Y-77554776D01*
X134459744Y-77632797D01*
X134290226Y-77746065D01*
X134146063Y-77890228D01*
X134032795Y-78059746D01*
X133954774Y-78248104D01*
X133915000Y-78448063D01*
X55660000Y-78448063D01*
X55660000Y-77248221D01*
X136740160Y-77248221D01*
X136740160Y-77452099D01*
X136779934Y-77652058D01*
X136857955Y-77840416D01*
X136971223Y-78009934D01*
X137115386Y-78154097D01*
X137284904Y-78267365D01*
X137473262Y-78345386D01*
X137673221Y-78385160D01*
X137877099Y-78385160D01*
X138077058Y-78345386D01*
X138265416Y-78267365D01*
X138434934Y-78154097D01*
X138579097Y-78009934D01*
X138692365Y-77840416D01*
X138770386Y-77652058D01*
X138810160Y-77452099D01*
X138810160Y-77248221D01*
X138770386Y-77048262D01*
X138692365Y-76859904D01*
X138584226Y-76698061D01*
X139765000Y-76698061D01*
X139765000Y-76901939D01*
X139804774Y-77101898D01*
X139882795Y-77290256D01*
X139996063Y-77459774D01*
X140140226Y-77603937D01*
X140309744Y-77717205D01*
X140498102Y-77795226D01*
X140698061Y-77835000D01*
X140901939Y-77835000D01*
X141087645Y-77798061D01*
X194065000Y-77798061D01*
X194065000Y-78001939D01*
X194104774Y-78201898D01*
X194182795Y-78390256D01*
X194296063Y-78559774D01*
X194440226Y-78703937D01*
X194609744Y-78817205D01*
X194798102Y-78895226D01*
X194998061Y-78935000D01*
X195201939Y-78935000D01*
X195401898Y-78895226D01*
X195590256Y-78817205D01*
X195759774Y-78703937D01*
X195903937Y-78559774D01*
X196017205Y-78390256D01*
X196095226Y-78201898D01*
X196135000Y-78001939D01*
X196135000Y-77798061D01*
X196095226Y-77598102D01*
X196017205Y-77409744D01*
X195935981Y-77288182D01*
X202990000Y-77288182D01*
X202990000Y-77492060D01*
X203029774Y-77692019D01*
X203107795Y-77880377D01*
X203221063Y-78049895D01*
X203365226Y-78194058D01*
X203534744Y-78307326D01*
X203723102Y-78385347D01*
X203923061Y-78425121D01*
X204126939Y-78425121D01*
X204326898Y-78385347D01*
X204515256Y-78307326D01*
X204684774Y-78194058D01*
X204828937Y-78049895D01*
X204942205Y-77880377D01*
X205020226Y-77692019D01*
X205025256Y-77666731D01*
X205193068Y-77700111D01*
X205396946Y-77700111D01*
X205596905Y-77660337D01*
X205785263Y-77582316D01*
X205954781Y-77469048D01*
X206098944Y-77324885D01*
X206200389Y-77173061D01*
X209340000Y-77173061D01*
X209340000Y-77376939D01*
X209379774Y-77576898D01*
X209457795Y-77765256D01*
X209571063Y-77934774D01*
X209715226Y-78078937D01*
X209884744Y-78192205D01*
X210073102Y-78270226D01*
X210273061Y-78310000D01*
X210476939Y-78310000D01*
X210676898Y-78270226D01*
X210865256Y-78192205D01*
X211034774Y-78078937D01*
X211178937Y-77934774D01*
X211292205Y-77765256D01*
X211370226Y-77576898D01*
X211410000Y-77376939D01*
X211410000Y-77293059D01*
X222390000Y-77293059D01*
X222390000Y-77496937D01*
X222429774Y-77696896D01*
X222507795Y-77885254D01*
X222621063Y-78054772D01*
X222765226Y-78198935D01*
X222934744Y-78312203D01*
X223123102Y-78390224D01*
X223323061Y-78429998D01*
X223526939Y-78429998D01*
X223726898Y-78390224D01*
X223915256Y-78312203D01*
X224084774Y-78198935D01*
X224228937Y-78054772D01*
X224342205Y-77885254D01*
X224420226Y-77696896D01*
X224430992Y-77642769D01*
X224593061Y-77675006D01*
X224796939Y-77675006D01*
X224996898Y-77635232D01*
X225185256Y-77557211D01*
X225354774Y-77443943D01*
X225498937Y-77299780D01*
X225612205Y-77130262D01*
X225690226Y-76941904D01*
X225695256Y-76916618D01*
X225863061Y-76949996D01*
X226066939Y-76949996D01*
X226266898Y-76910222D01*
X226455256Y-76832201D01*
X226624774Y-76718933D01*
X226768937Y-76574770D01*
X226882205Y-76405252D01*
X226960226Y-76216894D01*
X227000000Y-76016935D01*
X227000000Y-75813057D01*
X226960226Y-75613098D01*
X226882205Y-75424740D01*
X226768937Y-75255222D01*
X226624774Y-75111059D01*
X226455256Y-74997791D01*
X226266898Y-74919770D01*
X226066939Y-74879996D01*
X225863061Y-74879996D01*
X225663102Y-74919770D01*
X225474744Y-74997791D01*
X225305226Y-75111059D01*
X225161063Y-75255222D01*
X225047795Y-75424740D01*
X224969774Y-75613098D01*
X224964744Y-75638384D01*
X224796939Y-75605006D01*
X224593061Y-75605006D01*
X224393102Y-75644780D01*
X224204744Y-75722801D01*
X224035226Y-75836069D01*
X223891063Y-75980232D01*
X223777795Y-76149750D01*
X223699774Y-76338108D01*
X223689008Y-76392235D01*
X223526939Y-76359998D01*
X223323061Y-76359998D01*
X223123102Y-76399772D01*
X222934744Y-76477793D01*
X222765226Y-76591061D01*
X222621063Y-76735224D01*
X222507795Y-76904742D01*
X222429774Y-77093100D01*
X222390000Y-77293059D01*
X211410000Y-77293059D01*
X211410000Y-77235000D01*
X211591939Y-77235000D01*
X211791898Y-77195226D01*
X211980256Y-77117205D01*
X212149774Y-77003937D01*
X212293937Y-76859774D01*
X212407205Y-76690256D01*
X212485226Y-76501898D01*
X212525000Y-76301939D01*
X212525000Y-76098061D01*
X212485226Y-75898102D01*
X212407205Y-75709744D01*
X212293937Y-75540226D01*
X212149774Y-75396063D01*
X211980256Y-75282795D01*
X211791898Y-75204774D01*
X211591939Y-75165000D01*
X211388061Y-75165000D01*
X211188102Y-75204774D01*
X210999744Y-75282795D01*
X210830226Y-75396063D01*
X210686063Y-75540226D01*
X210572795Y-75709744D01*
X210494774Y-75898102D01*
X210455000Y-76098061D01*
X210455000Y-76240000D01*
X210273061Y-76240000D01*
X210073102Y-76279774D01*
X209884744Y-76357795D01*
X209715226Y-76471063D01*
X209571063Y-76615226D01*
X209457795Y-76784744D01*
X209379774Y-76973102D01*
X209340000Y-77173061D01*
X206200389Y-77173061D01*
X206212212Y-77155367D01*
X206290233Y-76967009D01*
X206310779Y-76863715D01*
X206468061Y-76895000D01*
X206671939Y-76895000D01*
X206871898Y-76855226D01*
X207060256Y-76777205D01*
X207229774Y-76663937D01*
X207373937Y-76519774D01*
X207487205Y-76350256D01*
X207565226Y-76161898D01*
X207605000Y-75961939D01*
X207605000Y-75758061D01*
X207565226Y-75558102D01*
X207487205Y-75369744D01*
X207373937Y-75200226D01*
X207229774Y-75056063D01*
X207060256Y-74942795D01*
X206871898Y-74864774D01*
X206671939Y-74825000D01*
X206468061Y-74825000D01*
X206268102Y-74864774D01*
X206079744Y-74942795D01*
X205910226Y-75056063D01*
X205766063Y-75200226D01*
X205652795Y-75369744D01*
X205574774Y-75558102D01*
X205554228Y-75661396D01*
X205396946Y-75630111D01*
X205193068Y-75630111D01*
X204993109Y-75669885D01*
X204804751Y-75747906D01*
X204635233Y-75861174D01*
X204491070Y-76005337D01*
X204377802Y-76174855D01*
X204299781Y-76363213D01*
X204294751Y-76388501D01*
X204126939Y-76355121D01*
X203923061Y-76355121D01*
X203723102Y-76394895D01*
X203534744Y-76472916D01*
X203365226Y-76586184D01*
X203221063Y-76730347D01*
X203107795Y-76899865D01*
X203029774Y-77088223D01*
X202990000Y-77288182D01*
X195935981Y-77288182D01*
X195903937Y-77240226D01*
X195759774Y-77096063D01*
X195590256Y-76982795D01*
X195401898Y-76904774D01*
X195201939Y-76865000D01*
X194998061Y-76865000D01*
X194798102Y-76904774D01*
X194609744Y-76982795D01*
X194440226Y-77096063D01*
X194296063Y-77240226D01*
X194182795Y-77409744D01*
X194104774Y-77598102D01*
X194065000Y-77798061D01*
X141087645Y-77798061D01*
X141101898Y-77795226D01*
X141290256Y-77717205D01*
X141459774Y-77603937D01*
X141603937Y-77459774D01*
X141717205Y-77290256D01*
X141795226Y-77101898D01*
X141835000Y-76901939D01*
X141835000Y-76698061D01*
X141795226Y-76498102D01*
X141717205Y-76309744D01*
X141603937Y-76140226D01*
X141459774Y-75996063D01*
X141290256Y-75882795D01*
X141101898Y-75804774D01*
X140901939Y-75765000D01*
X140698061Y-75765000D01*
X140498102Y-75804774D01*
X140309744Y-75882795D01*
X140140226Y-75996063D01*
X139996063Y-76140226D01*
X139882795Y-76309744D01*
X139804774Y-76498102D01*
X139765000Y-76698061D01*
X138584226Y-76698061D01*
X138579097Y-76690386D01*
X138434934Y-76546223D01*
X138265416Y-76432955D01*
X138077058Y-76354934D01*
X137877099Y-76315160D01*
X137673221Y-76315160D01*
X137473262Y-76354934D01*
X137284904Y-76432955D01*
X137115386Y-76546223D01*
X136971223Y-76690386D01*
X136857955Y-76859904D01*
X136779934Y-77048262D01*
X136740160Y-77248221D01*
X55660000Y-77248221D01*
X55660000Y-75048061D01*
X172565000Y-75048061D01*
X172565000Y-75251939D01*
X172604774Y-75451898D01*
X172682795Y-75640256D01*
X172796063Y-75809774D01*
X172940226Y-75953937D01*
X173109744Y-76067205D01*
X173298102Y-76145226D01*
X173498061Y-76185000D01*
X173701939Y-76185000D01*
X173901898Y-76145226D01*
X174090256Y-76067205D01*
X174259774Y-75953937D01*
X174403937Y-75809774D01*
X174517205Y-75640256D01*
X174595226Y-75451898D01*
X174635000Y-75251939D01*
X174635000Y-75048061D01*
X174595226Y-74848102D01*
X174517205Y-74659744D01*
X174403937Y-74490226D01*
X174259774Y-74346063D01*
X174090256Y-74232795D01*
X173901898Y-74154774D01*
X173701939Y-74115000D01*
X173498061Y-74115000D01*
X173298102Y-74154774D01*
X173109744Y-74232795D01*
X172940226Y-74346063D01*
X172796063Y-74490226D01*
X172682795Y-74659744D01*
X172604774Y-74848102D01*
X172565000Y-75048061D01*
X55660000Y-75048061D01*
X55660000Y-73048061D01*
X173995000Y-73048061D01*
X173995000Y-73251939D01*
X174034774Y-73451898D01*
X174112795Y-73640256D01*
X174226063Y-73809774D01*
X174370226Y-73953937D01*
X174539744Y-74067205D01*
X174728102Y-74145226D01*
X174928061Y-74185000D01*
X175131939Y-74185000D01*
X175331898Y-74145226D01*
X175520256Y-74067205D01*
X175689774Y-73953937D01*
X175833937Y-73809774D01*
X175947205Y-73640256D01*
X176025226Y-73451898D01*
X176065000Y-73251939D01*
X176065000Y-73048061D01*
X176025226Y-72848102D01*
X175947205Y-72659744D01*
X175833937Y-72490226D01*
X175689774Y-72346063D01*
X175520256Y-72232795D01*
X175331898Y-72154774D01*
X175131939Y-72115000D01*
X174928061Y-72115000D01*
X174728102Y-72154774D01*
X174539744Y-72232795D01*
X174370226Y-72346063D01*
X174226063Y-72490226D01*
X174112795Y-72659744D01*
X174034774Y-72848102D01*
X173995000Y-73048061D01*
X55660000Y-73048061D01*
X55660000Y-68150000D01*
X165761928Y-68150000D01*
X165761928Y-69850000D01*
X165774188Y-69974482D01*
X165810498Y-70094180D01*
X165869463Y-70204494D01*
X165948815Y-70301185D01*
X166045506Y-70380537D01*
X166155820Y-70439502D01*
X166275518Y-70475812D01*
X166400000Y-70488072D01*
X168100000Y-70488072D01*
X168224482Y-70475812D01*
X168344180Y-70439502D01*
X168454494Y-70380537D01*
X168551185Y-70301185D01*
X168630537Y-70204494D01*
X168689502Y-70094180D01*
X168711513Y-70021620D01*
X168843368Y-70153475D01*
X169086589Y-70315990D01*
X169356842Y-70427932D01*
X169643740Y-70485000D01*
X169936260Y-70485000D01*
X170223158Y-70427932D01*
X170493411Y-70315990D01*
X170736632Y-70153475D01*
X170943475Y-69946632D01*
X171060000Y-69772240D01*
X171176525Y-69946632D01*
X171383368Y-70153475D01*
X171626589Y-70315990D01*
X171896842Y-70427932D01*
X172183740Y-70485000D01*
X172476260Y-70485000D01*
X172763158Y-70427932D01*
X173033411Y-70315990D01*
X173276632Y-70153475D01*
X173483475Y-69946632D01*
X173600000Y-69772240D01*
X173716525Y-69946632D01*
X173923368Y-70153475D01*
X174166589Y-70315990D01*
X174436842Y-70427932D01*
X174723740Y-70485000D01*
X175016260Y-70485000D01*
X175303158Y-70427932D01*
X175573411Y-70315990D01*
X175816632Y-70153475D01*
X176023475Y-69946632D01*
X176140000Y-69772240D01*
X176256525Y-69946632D01*
X176463368Y-70153475D01*
X176706589Y-70315990D01*
X176976842Y-70427932D01*
X177263740Y-70485000D01*
X177556260Y-70485000D01*
X177843158Y-70427932D01*
X178113411Y-70315990D01*
X178356632Y-70153475D01*
X178563475Y-69946632D01*
X178680000Y-69772240D01*
X178796525Y-69946632D01*
X179003368Y-70153475D01*
X179246589Y-70315990D01*
X179516842Y-70427932D01*
X179803740Y-70485000D01*
X180096260Y-70485000D01*
X180383158Y-70427932D01*
X180653411Y-70315990D01*
X180896632Y-70153475D01*
X181103475Y-69946632D01*
X181220000Y-69772240D01*
X181336525Y-69946632D01*
X181543368Y-70153475D01*
X181786589Y-70315990D01*
X182056842Y-70427932D01*
X182343740Y-70485000D01*
X182636260Y-70485000D01*
X182923158Y-70427932D01*
X183193411Y-70315990D01*
X183436632Y-70153475D01*
X183643475Y-69946632D01*
X183760000Y-69772240D01*
X183876525Y-69946632D01*
X184083368Y-70153475D01*
X184326589Y-70315990D01*
X184596842Y-70427932D01*
X184883740Y-70485000D01*
X185176260Y-70485000D01*
X185463158Y-70427932D01*
X185733411Y-70315990D01*
X185976632Y-70153475D01*
X186183475Y-69946632D01*
X186345990Y-69703411D01*
X186457932Y-69433158D01*
X186515000Y-69146260D01*
X186515000Y-68853740D01*
X186457932Y-68566842D01*
X186345990Y-68296589D01*
X186248043Y-68150000D01*
X197761928Y-68150000D01*
X197761928Y-69850000D01*
X197774188Y-69974482D01*
X197810498Y-70094180D01*
X197869463Y-70204494D01*
X197948815Y-70301185D01*
X198045506Y-70380537D01*
X198155820Y-70439502D01*
X198275518Y-70475812D01*
X198400000Y-70488072D01*
X200100000Y-70488072D01*
X200224482Y-70475812D01*
X200344180Y-70439502D01*
X200454494Y-70380537D01*
X200551185Y-70301185D01*
X200630537Y-70204494D01*
X200689502Y-70094180D01*
X200711513Y-70021620D01*
X200843368Y-70153475D01*
X201086589Y-70315990D01*
X201356842Y-70427932D01*
X201643740Y-70485000D01*
X201936260Y-70485000D01*
X202223158Y-70427932D01*
X202493411Y-70315990D01*
X202736632Y-70153475D01*
X202943475Y-69946632D01*
X203060000Y-69772240D01*
X203176525Y-69946632D01*
X203383368Y-70153475D01*
X203626589Y-70315990D01*
X203896842Y-70427932D01*
X204183740Y-70485000D01*
X204476260Y-70485000D01*
X204763158Y-70427932D01*
X205033411Y-70315990D01*
X205276632Y-70153475D01*
X205483475Y-69946632D01*
X205600000Y-69772240D01*
X205716525Y-69946632D01*
X205923368Y-70153475D01*
X206166589Y-70315990D01*
X206436842Y-70427932D01*
X206723740Y-70485000D01*
X207016260Y-70485000D01*
X207303158Y-70427932D01*
X207573411Y-70315990D01*
X207816632Y-70153475D01*
X208023475Y-69946632D01*
X208140000Y-69772240D01*
X208256525Y-69946632D01*
X208463368Y-70153475D01*
X208706589Y-70315990D01*
X208976842Y-70427932D01*
X209263740Y-70485000D01*
X209556260Y-70485000D01*
X209843158Y-70427932D01*
X210113411Y-70315990D01*
X210356632Y-70153475D01*
X210563475Y-69946632D01*
X210680000Y-69772240D01*
X210796525Y-69946632D01*
X211003368Y-70153475D01*
X211246589Y-70315990D01*
X211516842Y-70427932D01*
X211803740Y-70485000D01*
X212096260Y-70485000D01*
X212383158Y-70427932D01*
X212653411Y-70315990D01*
X212896632Y-70153475D01*
X213103475Y-69946632D01*
X213220000Y-69772240D01*
X213336525Y-69946632D01*
X213543368Y-70153475D01*
X213786589Y-70315990D01*
X214056842Y-70427932D01*
X214343740Y-70485000D01*
X214636260Y-70485000D01*
X214923158Y-70427932D01*
X215193411Y-70315990D01*
X215436632Y-70153475D01*
X215643475Y-69946632D01*
X215760000Y-69772240D01*
X215876525Y-69946632D01*
X216083368Y-70153475D01*
X216326589Y-70315990D01*
X216596842Y-70427932D01*
X216883740Y-70485000D01*
X217176260Y-70485000D01*
X217463158Y-70427932D01*
X217733411Y-70315990D01*
X217976632Y-70153475D01*
X218183475Y-69946632D01*
X218300000Y-69772240D01*
X218416525Y-69946632D01*
X218623368Y-70153475D01*
X218866589Y-70315990D01*
X219136842Y-70427932D01*
X219423740Y-70485000D01*
X219716260Y-70485000D01*
X220003158Y-70427932D01*
X220273411Y-70315990D01*
X220516632Y-70153475D01*
X220723475Y-69946632D01*
X220840000Y-69772240D01*
X220956525Y-69946632D01*
X221163368Y-70153475D01*
X221406589Y-70315990D01*
X221676842Y-70427932D01*
X221963740Y-70485000D01*
X222256260Y-70485000D01*
X222543158Y-70427932D01*
X222813411Y-70315990D01*
X223056632Y-70153475D01*
X223263475Y-69946632D01*
X223380000Y-69772240D01*
X223496525Y-69946632D01*
X223703368Y-70153475D01*
X223946589Y-70315990D01*
X224216842Y-70427932D01*
X224503740Y-70485000D01*
X224796260Y-70485000D01*
X225083158Y-70427932D01*
X225353411Y-70315990D01*
X225596632Y-70153475D01*
X225803475Y-69946632D01*
X225920000Y-69772240D01*
X226036525Y-69946632D01*
X226243368Y-70153475D01*
X226486589Y-70315990D01*
X226756842Y-70427932D01*
X227043740Y-70485000D01*
X227336260Y-70485000D01*
X227623158Y-70427932D01*
X227893411Y-70315990D01*
X228136632Y-70153475D01*
X228343475Y-69946632D01*
X228460000Y-69772240D01*
X228576525Y-69946632D01*
X228783368Y-70153475D01*
X229026589Y-70315990D01*
X229296842Y-70427932D01*
X229583740Y-70485000D01*
X229876260Y-70485000D01*
X230163158Y-70427932D01*
X230433411Y-70315990D01*
X230676632Y-70153475D01*
X230883475Y-69946632D01*
X231000000Y-69772240D01*
X231116525Y-69946632D01*
X231323368Y-70153475D01*
X231566589Y-70315990D01*
X231836842Y-70427932D01*
X232123740Y-70485000D01*
X232416260Y-70485000D01*
X232703158Y-70427932D01*
X232973411Y-70315990D01*
X233216632Y-70153475D01*
X233423475Y-69946632D01*
X233540000Y-69772240D01*
X233656525Y-69946632D01*
X233863368Y-70153475D01*
X234106589Y-70315990D01*
X234376842Y-70427932D01*
X234663740Y-70485000D01*
X234956260Y-70485000D01*
X235243158Y-70427932D01*
X235513411Y-70315990D01*
X235756632Y-70153475D01*
X235963475Y-69946632D01*
X236080000Y-69772240D01*
X236196525Y-69946632D01*
X236403368Y-70153475D01*
X236646589Y-70315990D01*
X236916842Y-70427932D01*
X237203740Y-70485000D01*
X237496260Y-70485000D01*
X237783158Y-70427932D01*
X238053411Y-70315990D01*
X238296632Y-70153475D01*
X238503475Y-69946632D01*
X238620000Y-69772240D01*
X238736525Y-69946632D01*
X238943368Y-70153475D01*
X239186589Y-70315990D01*
X239456842Y-70427932D01*
X239743740Y-70485000D01*
X240036260Y-70485000D01*
X240323158Y-70427932D01*
X240593411Y-70315990D01*
X240836632Y-70153475D01*
X241043475Y-69946632D01*
X241160000Y-69772240D01*
X241276525Y-69946632D01*
X241483368Y-70153475D01*
X241726589Y-70315990D01*
X241996842Y-70427932D01*
X242283740Y-70485000D01*
X242576260Y-70485000D01*
X242863158Y-70427932D01*
X243133411Y-70315990D01*
X243376632Y-70153475D01*
X243583475Y-69946632D01*
X243700000Y-69772240D01*
X243816525Y-69946632D01*
X244023368Y-70153475D01*
X244266589Y-70315990D01*
X244536842Y-70427932D01*
X244823740Y-70485000D01*
X245116260Y-70485000D01*
X245403158Y-70427932D01*
X245673411Y-70315990D01*
X245916632Y-70153475D01*
X246123475Y-69946632D01*
X246240000Y-69772240D01*
X246356525Y-69946632D01*
X246563368Y-70153475D01*
X246806589Y-70315990D01*
X247076842Y-70427932D01*
X247363740Y-70485000D01*
X247656260Y-70485000D01*
X247943158Y-70427932D01*
X248213411Y-70315990D01*
X248456632Y-70153475D01*
X248663475Y-69946632D01*
X248825990Y-69703411D01*
X248937932Y-69433158D01*
X248995000Y-69146260D01*
X248995000Y-68853740D01*
X248937932Y-68566842D01*
X248825990Y-68296589D01*
X248663475Y-68053368D01*
X248456632Y-67846525D01*
X248213411Y-67684010D01*
X247943158Y-67572068D01*
X247656260Y-67515000D01*
X247363740Y-67515000D01*
X247076842Y-67572068D01*
X246806589Y-67684010D01*
X246563368Y-67846525D01*
X246356525Y-68053368D01*
X246240000Y-68227760D01*
X246123475Y-68053368D01*
X245916632Y-67846525D01*
X245673411Y-67684010D01*
X245403158Y-67572068D01*
X245116260Y-67515000D01*
X244823740Y-67515000D01*
X244536842Y-67572068D01*
X244266589Y-67684010D01*
X244023368Y-67846525D01*
X243816525Y-68053368D01*
X243700000Y-68227760D01*
X243583475Y-68053368D01*
X243376632Y-67846525D01*
X243133411Y-67684010D01*
X242863158Y-67572068D01*
X242576260Y-67515000D01*
X242283740Y-67515000D01*
X241996842Y-67572068D01*
X241726589Y-67684010D01*
X241483368Y-67846525D01*
X241276525Y-68053368D01*
X241160000Y-68227760D01*
X241043475Y-68053368D01*
X240836632Y-67846525D01*
X240593411Y-67684010D01*
X240323158Y-67572068D01*
X240036260Y-67515000D01*
X239743740Y-67515000D01*
X239456842Y-67572068D01*
X239186589Y-67684010D01*
X238943368Y-67846525D01*
X238736525Y-68053368D01*
X238620000Y-68227760D01*
X238503475Y-68053368D01*
X238296632Y-67846525D01*
X238053411Y-67684010D01*
X237783158Y-67572068D01*
X237496260Y-67515000D01*
X237203740Y-67515000D01*
X236916842Y-67572068D01*
X236646589Y-67684010D01*
X236403368Y-67846525D01*
X236196525Y-68053368D01*
X236080000Y-68227760D01*
X235963475Y-68053368D01*
X235756632Y-67846525D01*
X235513411Y-67684010D01*
X235243158Y-67572068D01*
X234956260Y-67515000D01*
X234663740Y-67515000D01*
X234376842Y-67572068D01*
X234106589Y-67684010D01*
X233863368Y-67846525D01*
X233656525Y-68053368D01*
X233540000Y-68227760D01*
X233423475Y-68053368D01*
X233216632Y-67846525D01*
X232973411Y-67684010D01*
X232703158Y-67572068D01*
X232416260Y-67515000D01*
X232123740Y-67515000D01*
X231836842Y-67572068D01*
X231566589Y-67684010D01*
X231323368Y-67846525D01*
X231116525Y-68053368D01*
X231000000Y-68227760D01*
X230883475Y-68053368D01*
X230676632Y-67846525D01*
X230433411Y-67684010D01*
X230163158Y-67572068D01*
X229876260Y-67515000D01*
X229583740Y-67515000D01*
X229296842Y-67572068D01*
X229026589Y-67684010D01*
X228783368Y-67846525D01*
X228576525Y-68053368D01*
X228460000Y-68227760D01*
X228343475Y-68053368D01*
X228136632Y-67846525D01*
X227893411Y-67684010D01*
X227623158Y-67572068D01*
X227336260Y-67515000D01*
X227043740Y-67515000D01*
X226756842Y-67572068D01*
X226486589Y-67684010D01*
X226243368Y-67846525D01*
X226036525Y-68053368D01*
X225920000Y-68227760D01*
X225803475Y-68053368D01*
X225596632Y-67846525D01*
X225353411Y-67684010D01*
X225083158Y-67572068D01*
X224796260Y-67515000D01*
X224503740Y-67515000D01*
X224216842Y-67572068D01*
X223946589Y-67684010D01*
X223703368Y-67846525D01*
X223496525Y-68053368D01*
X223380000Y-68227760D01*
X223263475Y-68053368D01*
X223056632Y-67846525D01*
X222813411Y-67684010D01*
X222543158Y-67572068D01*
X222256260Y-67515000D01*
X221963740Y-67515000D01*
X221676842Y-67572068D01*
X221406589Y-67684010D01*
X221163368Y-67846525D01*
X220956525Y-68053368D01*
X220840000Y-68227760D01*
X220723475Y-68053368D01*
X220516632Y-67846525D01*
X220273411Y-67684010D01*
X220003158Y-67572068D01*
X219716260Y-67515000D01*
X219423740Y-67515000D01*
X219136842Y-67572068D01*
X218866589Y-67684010D01*
X218623368Y-67846525D01*
X218416525Y-68053368D01*
X218300000Y-68227760D01*
X218183475Y-68053368D01*
X217976632Y-67846525D01*
X217733411Y-67684010D01*
X217463158Y-67572068D01*
X217176260Y-67515000D01*
X216883740Y-67515000D01*
X216596842Y-67572068D01*
X216326589Y-67684010D01*
X216083368Y-67846525D01*
X215876525Y-68053368D01*
X215760000Y-68227760D01*
X215643475Y-68053368D01*
X215436632Y-67846525D01*
X215193411Y-67684010D01*
X214923158Y-67572068D01*
X214636260Y-67515000D01*
X214343740Y-67515000D01*
X214056842Y-67572068D01*
X213786589Y-67684010D01*
X213543368Y-67846525D01*
X213336525Y-68053368D01*
X213220000Y-68227760D01*
X213103475Y-68053368D01*
X212896632Y-67846525D01*
X212653411Y-67684010D01*
X212383158Y-67572068D01*
X212096260Y-67515000D01*
X211803740Y-67515000D01*
X211516842Y-67572068D01*
X211246589Y-67684010D01*
X211003368Y-67846525D01*
X210796525Y-68053368D01*
X210680000Y-68227760D01*
X210563475Y-68053368D01*
X210356632Y-67846525D01*
X210113411Y-67684010D01*
X209843158Y-67572068D01*
X209556260Y-67515000D01*
X209263740Y-67515000D01*
X208976842Y-67572068D01*
X208706589Y-67684010D01*
X208463368Y-67846525D01*
X208256525Y-68053368D01*
X208140000Y-68227760D01*
X208023475Y-68053368D01*
X207816632Y-67846525D01*
X207573411Y-67684010D01*
X207303158Y-67572068D01*
X207016260Y-67515000D01*
X206723740Y-67515000D01*
X206436842Y-67572068D01*
X206166589Y-67684010D01*
X205923368Y-67846525D01*
X205716525Y-68053368D01*
X205600000Y-68227760D01*
X205483475Y-68053368D01*
X205276632Y-67846525D01*
X205033411Y-67684010D01*
X204763158Y-67572068D01*
X204476260Y-67515000D01*
X204183740Y-67515000D01*
X203896842Y-67572068D01*
X203626589Y-67684010D01*
X203383368Y-67846525D01*
X203176525Y-68053368D01*
X203060000Y-68227760D01*
X202943475Y-68053368D01*
X202736632Y-67846525D01*
X202493411Y-67684010D01*
X202223158Y-67572068D01*
X201936260Y-67515000D01*
X201643740Y-67515000D01*
X201356842Y-67572068D01*
X201086589Y-67684010D01*
X200843368Y-67846525D01*
X200711513Y-67978380D01*
X200689502Y-67905820D01*
X200630537Y-67795506D01*
X200551185Y-67698815D01*
X200454494Y-67619463D01*
X200344180Y-67560498D01*
X200224482Y-67524188D01*
X200100000Y-67511928D01*
X198400000Y-67511928D01*
X198275518Y-67524188D01*
X198155820Y-67560498D01*
X198045506Y-67619463D01*
X197948815Y-67698815D01*
X197869463Y-67795506D01*
X197810498Y-67905820D01*
X197774188Y-68025518D01*
X197761928Y-68150000D01*
X186248043Y-68150000D01*
X186183475Y-68053368D01*
X185976632Y-67846525D01*
X185733411Y-67684010D01*
X185463158Y-67572068D01*
X185176260Y-67515000D01*
X184883740Y-67515000D01*
X184596842Y-67572068D01*
X184326589Y-67684010D01*
X184083368Y-67846525D01*
X183876525Y-68053368D01*
X183760000Y-68227760D01*
X183643475Y-68053368D01*
X183436632Y-67846525D01*
X183193411Y-67684010D01*
X182923158Y-67572068D01*
X182636260Y-67515000D01*
X182343740Y-67515000D01*
X182056842Y-67572068D01*
X181786589Y-67684010D01*
X181543368Y-67846525D01*
X181336525Y-68053368D01*
X181220000Y-68227760D01*
X181103475Y-68053368D01*
X180896632Y-67846525D01*
X180653411Y-67684010D01*
X180383158Y-67572068D01*
X180096260Y-67515000D01*
X179803740Y-67515000D01*
X179516842Y-67572068D01*
X179246589Y-67684010D01*
X179003368Y-67846525D01*
X178796525Y-68053368D01*
X178680000Y-68227760D01*
X178563475Y-68053368D01*
X178356632Y-67846525D01*
X178113411Y-67684010D01*
X177843158Y-67572068D01*
X177556260Y-67515000D01*
X177263740Y-67515000D01*
X176976842Y-67572068D01*
X176706589Y-67684010D01*
X176463368Y-67846525D01*
X176256525Y-68053368D01*
X176140000Y-68227760D01*
X176023475Y-68053368D01*
X175816632Y-67846525D01*
X175573411Y-67684010D01*
X175303158Y-67572068D01*
X175016260Y-67515000D01*
X174723740Y-67515000D01*
X174436842Y-67572068D01*
X174166589Y-67684010D01*
X173923368Y-67846525D01*
X173716525Y-68053368D01*
X173600000Y-68227760D01*
X173483475Y-68053368D01*
X173276632Y-67846525D01*
X173033411Y-67684010D01*
X172763158Y-67572068D01*
X172476260Y-67515000D01*
X172183740Y-67515000D01*
X171896842Y-67572068D01*
X171626589Y-67684010D01*
X171383368Y-67846525D01*
X171176525Y-68053368D01*
X171060000Y-68227760D01*
X170943475Y-68053368D01*
X170736632Y-67846525D01*
X170493411Y-67684010D01*
X170223158Y-67572068D01*
X169936260Y-67515000D01*
X169643740Y-67515000D01*
X169356842Y-67572068D01*
X169086589Y-67684010D01*
X168843368Y-67846525D01*
X168711513Y-67978380D01*
X168689502Y-67905820D01*
X168630537Y-67795506D01*
X168551185Y-67698815D01*
X168454494Y-67619463D01*
X168344180Y-67560498D01*
X168224482Y-67524188D01*
X168100000Y-67511928D01*
X166400000Y-67511928D01*
X166275518Y-67524188D01*
X166155820Y-67560498D01*
X166045506Y-67619463D01*
X165948815Y-67698815D01*
X165869463Y-67795506D01*
X165810498Y-67905820D01*
X165774188Y-68025518D01*
X165761928Y-68150000D01*
X55660000Y-68150000D01*
X55660000Y-66414155D01*
X149765450Y-66414155D01*
X150161634Y-66934550D01*
X150876612Y-67324748D01*
X151653976Y-67567964D01*
X152463853Y-67654851D01*
X153275118Y-67582069D01*
X154056597Y-67352415D01*
X154778256Y-66974715D01*
X154838366Y-66934550D01*
X155234550Y-66414155D01*
X152500000Y-63679605D01*
X149765450Y-66414155D01*
X55660000Y-66414155D01*
X55660000Y-60660000D01*
X149480392Y-60660000D01*
X149585843Y-60765451D01*
G04 #@! TA.AperFunction,Conductor*
D19*
G36*
X149585843Y-60765451D02*
G01*
X149065450Y-61161634D01*
X148675252Y-61876612D01*
X148432036Y-62653976D01*
X148345149Y-63463853D01*
X148417931Y-64275118D01*
X148647585Y-65056597D01*
X149025285Y-65778256D01*
X149065450Y-65838366D01*
X149585845Y-66234550D01*
X152320395Y-63500000D01*
X152306253Y-63485858D01*
X152485858Y-63306253D01*
X152500000Y-63320395D01*
X152514143Y-63306253D01*
X152693748Y-63485858D01*
X152679605Y-63500000D01*
X155414155Y-66234550D01*
X155934550Y-65838366D01*
X156324748Y-65123388D01*
X156567964Y-64346024D01*
X156654851Y-63536147D01*
X156582069Y-62724882D01*
X156352415Y-61943403D01*
X155974715Y-61221744D01*
X155934550Y-61161634D01*
X155414157Y-60765451D01*
X155519608Y-60660000D01*
X249340000Y-60660000D01*
X249340000Y-84865000D01*
X239000000Y-84865000D01*
X238876118Y-84877201D01*
X238756996Y-84913336D01*
X238647213Y-84972017D01*
X238550987Y-85050987D01*
X238472017Y-85147213D01*
X238413336Y-85256996D01*
X238377201Y-85376118D01*
X238365000Y-85500000D01*
X238365000Y-100365000D01*
X207250000Y-100365000D01*
X207126118Y-100377201D01*
X207006996Y-100413336D01*
X206897213Y-100472017D01*
X206800987Y-100550987D01*
X201486974Y-105865000D01*
X177263026Y-105865000D01*
X171699013Y-100300987D01*
X171601538Y-100221184D01*
X171491616Y-100162764D01*
X171372410Y-100126910D01*
X171248499Y-100115002D01*
X165519642Y-100128545D01*
X165401898Y-100079774D01*
X165201939Y-100040000D01*
X164998061Y-100040000D01*
X164798102Y-100079774D01*
X164675541Y-100130541D01*
X154296613Y-100155077D01*
X154295226Y-100148102D01*
X154217205Y-99959744D01*
X154103937Y-99790226D01*
X153959774Y-99646063D01*
X153790256Y-99532795D01*
X153601898Y-99454774D01*
X153401939Y-99415000D01*
X153198061Y-99415000D01*
X152998102Y-99454774D01*
X152809744Y-99532795D01*
X152640226Y-99646063D01*
X152496063Y-99790226D01*
X152382795Y-99959744D01*
X152304774Y-100148102D01*
X152302449Y-100159792D01*
X150880749Y-100163153D01*
X150817205Y-100009744D01*
X150703937Y-99840226D01*
X150559774Y-99696063D01*
X150390256Y-99582795D01*
X150201898Y-99504774D01*
X150001939Y-99465000D01*
X149798061Y-99465000D01*
X149598102Y-99504774D01*
X149409744Y-99582795D01*
X149240226Y-99696063D01*
X149096063Y-99840226D01*
X148982795Y-100009744D01*
X148917328Y-100167794D01*
X142839325Y-100182163D01*
X142817190Y-100128725D01*
X142703922Y-99959207D01*
X142559759Y-99815044D01*
X142390241Y-99701776D01*
X142201883Y-99623755D01*
X142001924Y-99583981D01*
X141798046Y-99583981D01*
X141598087Y-99623755D01*
X141409729Y-99701776D01*
X141240211Y-99815044D01*
X141096048Y-99959207D01*
X140982780Y-100128725D01*
X140958804Y-100186609D01*
X74560170Y-100343579D01*
X74505824Y-100212376D01*
X74381612Y-100026480D01*
X74223520Y-99868388D01*
X74037624Y-99744176D01*
X73831067Y-99658617D01*
X73611788Y-99615000D01*
X73388212Y-99615000D01*
X73168933Y-99658617D01*
X72962376Y-99744176D01*
X72776480Y-99868388D01*
X72750000Y-99894868D01*
X72723520Y-99868388D01*
X72537624Y-99744176D01*
X72331067Y-99658617D01*
X72111788Y-99615000D01*
X71888212Y-99615000D01*
X71668933Y-99658617D01*
X71462376Y-99744176D01*
X71276480Y-99868388D01*
X71275000Y-99869868D01*
X71273520Y-99868388D01*
X71087624Y-99744176D01*
X70881067Y-99658617D01*
X70661788Y-99615000D01*
X70438212Y-99615000D01*
X70218933Y-99658617D01*
X70012376Y-99744176D01*
X69826480Y-99868388D01*
X69668388Y-100026480D01*
X69556526Y-100193893D01*
X69390256Y-100082795D01*
X69201898Y-100004774D01*
X69001939Y-99965000D01*
X68798061Y-99965000D01*
X68598102Y-100004774D01*
X68409744Y-100082795D01*
X68240226Y-100196063D01*
X68100000Y-100336289D01*
X67959774Y-100196063D01*
X67790256Y-100082795D01*
X67601898Y-100004774D01*
X67401939Y-99965000D01*
X67198061Y-99965000D01*
X66998102Y-100004774D01*
X66809744Y-100082795D01*
X66640226Y-100196063D01*
X66496063Y-100340226D01*
X66481060Y-100362679D01*
X66135000Y-100363497D01*
X66135000Y-96088212D01*
X83765000Y-96088212D01*
X83765000Y-96311788D01*
X83808617Y-96531067D01*
X83894176Y-96737624D01*
X84018388Y-96923520D01*
X84176480Y-97081612D01*
X84362376Y-97205824D01*
X84568933Y-97291383D01*
X84788212Y-97335000D01*
X85011788Y-97335000D01*
X85231067Y-97291383D01*
X85437624Y-97205824D01*
X85623520Y-97081612D01*
X85781612Y-96923520D01*
X85905824Y-96737624D01*
X85963633Y-96598061D01*
X111765000Y-96598061D01*
X111765000Y-96801939D01*
X111804774Y-97001898D01*
X111882795Y-97190256D01*
X111996063Y-97359774D01*
X112140226Y-97503937D01*
X112309744Y-97617205D01*
X112498102Y-97695226D01*
X112698061Y-97735000D01*
X112901939Y-97735000D01*
X113101898Y-97695226D01*
X113290256Y-97617205D01*
X113459774Y-97503937D01*
X113603937Y-97359774D01*
X113717205Y-97190256D01*
X113795226Y-97001898D01*
X113835000Y-96801939D01*
X113835000Y-96598061D01*
X113795226Y-96398102D01*
X113795210Y-96398061D01*
X149065000Y-96398061D01*
X149065000Y-96601939D01*
X149104774Y-96801898D01*
X149182795Y-96990256D01*
X149296063Y-97159774D01*
X149440226Y-97303937D01*
X149609744Y-97417205D01*
X149798102Y-97495226D01*
X149998061Y-97535000D01*
X150201939Y-97535000D01*
X150401898Y-97495226D01*
X150590256Y-97417205D01*
X150759774Y-97303937D01*
X150903937Y-97159774D01*
X151017205Y-96990256D01*
X151091637Y-96810561D01*
X152077500Y-96810561D01*
X152077500Y-97014439D01*
X152117274Y-97214398D01*
X152195295Y-97402756D01*
X152308563Y-97572274D01*
X152452726Y-97716437D01*
X152622244Y-97829705D01*
X152810602Y-97907726D01*
X153010561Y-97947500D01*
X153214439Y-97947500D01*
X153414398Y-97907726D01*
X153602756Y-97829705D01*
X153772274Y-97716437D01*
X153916437Y-97572274D01*
X154029705Y-97402756D01*
X154107726Y-97214398D01*
X154147500Y-97014439D01*
X154147500Y-96810561D01*
X154107726Y-96610602D01*
X154029705Y-96422244D01*
X153916437Y-96252726D01*
X153772274Y-96108563D01*
X153602756Y-95995295D01*
X153414398Y-95917274D01*
X153214439Y-95877500D01*
X153010561Y-95877500D01*
X152810602Y-95917274D01*
X152622244Y-95995295D01*
X152452726Y-96108563D01*
X152308563Y-96252726D01*
X152195295Y-96422244D01*
X152117274Y-96610602D01*
X152077500Y-96810561D01*
X151091637Y-96810561D01*
X151095226Y-96801898D01*
X151135000Y-96601939D01*
X151135000Y-96398061D01*
X151095226Y-96198102D01*
X151017205Y-96009744D01*
X150903937Y-95840226D01*
X150759774Y-95696063D01*
X150590256Y-95582795D01*
X150401898Y-95504774D01*
X150201939Y-95465000D01*
X149998061Y-95465000D01*
X149798102Y-95504774D01*
X149609744Y-95582795D01*
X149440226Y-95696063D01*
X149296063Y-95840226D01*
X149182795Y-96009744D01*
X149104774Y-96198102D01*
X149065000Y-96398061D01*
X113795210Y-96398061D01*
X113717205Y-96209744D01*
X113603937Y-96040226D01*
X113459774Y-95896063D01*
X113290256Y-95782795D01*
X113101898Y-95704774D01*
X112901939Y-95665000D01*
X112698061Y-95665000D01*
X112498102Y-95704774D01*
X112309744Y-95782795D01*
X112140226Y-95896063D01*
X111996063Y-96040226D01*
X111882795Y-96209744D01*
X111804774Y-96398102D01*
X111765000Y-96598061D01*
X85963633Y-96598061D01*
X85991383Y-96531067D01*
X86035000Y-96311788D01*
X86035000Y-96088212D01*
X85991383Y-95868933D01*
X85905824Y-95662376D01*
X85781612Y-95476480D01*
X85623520Y-95318388D01*
X85437624Y-95194176D01*
X85231067Y-95108617D01*
X85011788Y-95065000D01*
X84788212Y-95065000D01*
X84568933Y-95108617D01*
X84362376Y-95194176D01*
X84176480Y-95318388D01*
X84018388Y-95476480D01*
X83894176Y-95662376D01*
X83808617Y-95868933D01*
X83765000Y-96088212D01*
X66135000Y-96088212D01*
X66135000Y-94498061D01*
X143365000Y-94498061D01*
X143365000Y-94701939D01*
X143404774Y-94901898D01*
X143482795Y-95090256D01*
X143596063Y-95259774D01*
X143740226Y-95403937D01*
X143909744Y-95517205D01*
X144098102Y-95595226D01*
X144298061Y-95635000D01*
X144501939Y-95635000D01*
X144701898Y-95595226D01*
X144890256Y-95517205D01*
X145059774Y-95403937D01*
X145203937Y-95259774D01*
X145317205Y-95090256D01*
X145395226Y-94901898D01*
X145435000Y-94701939D01*
X145435000Y-94498061D01*
X145395226Y-94298102D01*
X145317205Y-94109744D01*
X145203937Y-93940226D01*
X145059774Y-93796063D01*
X144890256Y-93682795D01*
X144701898Y-93604774D01*
X144501939Y-93565000D01*
X144298061Y-93565000D01*
X144098102Y-93604774D01*
X143909744Y-93682795D01*
X143740226Y-93796063D01*
X143596063Y-93940226D01*
X143482795Y-94109744D01*
X143404774Y-94298102D01*
X143365000Y-94498061D01*
X66135000Y-94498061D01*
X66135000Y-90798061D01*
X140855000Y-90798061D01*
X140855000Y-91001939D01*
X140894774Y-91201898D01*
X140972795Y-91390256D01*
X141086063Y-91559774D01*
X141230226Y-91703937D01*
X141231500Y-91704789D01*
X141106063Y-91830226D01*
X140992795Y-91999744D01*
X140914774Y-92188102D01*
X140875000Y-92388061D01*
X140875000Y-92591939D01*
X140914774Y-92791898D01*
X140992795Y-92980256D01*
X141106063Y-93149774D01*
X141250226Y-93293937D01*
X141419744Y-93407205D01*
X141608102Y-93485226D01*
X141808061Y-93525000D01*
X142011939Y-93525000D01*
X142211898Y-93485226D01*
X142400256Y-93407205D01*
X142569774Y-93293937D01*
X142713937Y-93149774D01*
X142827205Y-92980256D01*
X142905226Y-92791898D01*
X142924583Y-92694583D01*
X143021898Y-92675226D01*
X143210256Y-92597205D01*
X143379774Y-92483937D01*
X143465650Y-92398061D01*
X148465000Y-92398061D01*
X148465000Y-92601939D01*
X148504774Y-92801898D01*
X148582795Y-92990256D01*
X148696063Y-93159774D01*
X148840226Y-93303937D01*
X149009744Y-93417205D01*
X149198102Y-93495226D01*
X149398061Y-93535000D01*
X149601939Y-93535000D01*
X149801898Y-93495226D01*
X149990256Y-93417205D01*
X150159774Y-93303937D01*
X150303937Y-93159774D01*
X150371899Y-93058061D01*
X199325000Y-93058061D01*
X199325000Y-93261939D01*
X199364774Y-93461898D01*
X199442795Y-93650256D01*
X199556063Y-93819774D01*
X199700226Y-93963937D01*
X199869744Y-94077205D01*
X200058102Y-94155226D01*
X200258061Y-94195000D01*
X200461939Y-94195000D01*
X200661898Y-94155226D01*
X200850256Y-94077205D01*
X200968703Y-93998061D01*
X208440000Y-93998061D01*
X208440000Y-94201939D01*
X208479774Y-94401898D01*
X208557795Y-94590256D01*
X208671063Y-94759774D01*
X208815226Y-94903937D01*
X208984744Y-95017205D01*
X209173102Y-95095226D01*
X209373061Y-95135000D01*
X209576939Y-95135000D01*
X209776898Y-95095226D01*
X209965256Y-95017205D01*
X210134774Y-94903937D01*
X210278937Y-94759774D01*
X210392205Y-94590256D01*
X210470226Y-94401898D01*
X210510000Y-94201939D01*
X210510000Y-93998061D01*
X210470226Y-93798102D01*
X210392205Y-93609744D01*
X210286767Y-93451944D01*
X210318937Y-93419774D01*
X210432205Y-93250256D01*
X210510226Y-93061898D01*
X210550000Y-92861939D01*
X210550000Y-92658061D01*
X210510226Y-92458102D01*
X210432205Y-92269744D01*
X210318937Y-92100226D01*
X210191211Y-91972500D01*
X210303937Y-91859774D01*
X210417205Y-91690256D01*
X210495226Y-91501898D01*
X210535000Y-91301939D01*
X210535000Y-91098061D01*
X210495226Y-90898102D01*
X210417205Y-90709744D01*
X210303937Y-90540226D01*
X210159774Y-90396063D01*
X209990256Y-90282795D01*
X209801898Y-90204774D01*
X209601939Y-90165000D01*
X209398061Y-90165000D01*
X209198102Y-90204774D01*
X209009744Y-90282795D01*
X208840226Y-90396063D01*
X208696063Y-90540226D01*
X208582795Y-90709744D01*
X208504774Y-90898102D01*
X208465000Y-91098061D01*
X208465000Y-91301939D01*
X208504774Y-91501898D01*
X208582795Y-91690256D01*
X208696063Y-91859774D01*
X208823789Y-91987500D01*
X208711063Y-92100226D01*
X208597795Y-92269744D01*
X208519774Y-92458102D01*
X208480000Y-92658061D01*
X208480000Y-92861939D01*
X208519774Y-93061898D01*
X208597795Y-93250256D01*
X208703233Y-93408056D01*
X208671063Y-93440226D01*
X208557795Y-93609744D01*
X208479774Y-93798102D01*
X208440000Y-93998061D01*
X200968703Y-93998061D01*
X201019774Y-93963937D01*
X201163937Y-93819774D01*
X201277205Y-93650256D01*
X201355226Y-93461898D01*
X201395000Y-93261939D01*
X201395000Y-93084541D01*
X204305064Y-93084541D01*
X204315575Y-93277763D01*
X204485603Y-93348562D01*
X204666176Y-93384828D01*
X204850355Y-93385171D01*
X205031061Y-93349574D01*
X205201351Y-93279408D01*
X205204425Y-93277763D01*
X205214936Y-93084541D01*
X204760000Y-92629605D01*
X204305064Y-93084541D01*
X201395000Y-93084541D01*
X201395000Y-93058061D01*
X201355226Y-92858102D01*
X201277205Y-92669744D01*
X201190751Y-92540355D01*
X203824829Y-92540355D01*
X203860426Y-92721061D01*
X203930592Y-92891351D01*
X203932237Y-92894425D01*
X204125459Y-92904936D01*
X204580395Y-92450000D01*
X204939605Y-92450000D01*
X205394541Y-92904936D01*
X205587763Y-92894425D01*
X205658562Y-92724397D01*
X205694828Y-92543824D01*
X205695171Y-92359645D01*
X205659574Y-92178939D01*
X205589408Y-92008649D01*
X205587763Y-92005575D01*
X205394541Y-91995064D01*
X204939605Y-92450000D01*
X204580395Y-92450000D01*
X204125459Y-91995064D01*
X203932237Y-92005575D01*
X203861438Y-92175603D01*
X203825172Y-92356176D01*
X203824829Y-92540355D01*
X201190751Y-92540355D01*
X201163937Y-92500226D01*
X201019774Y-92356063D01*
X200850256Y-92242795D01*
X200661898Y-92164774D01*
X200461939Y-92125000D01*
X200258061Y-92125000D01*
X200058102Y-92164774D01*
X199869744Y-92242795D01*
X199700226Y-92356063D01*
X199556063Y-92500226D01*
X199442795Y-92669744D01*
X199364774Y-92858102D01*
X199325000Y-93058061D01*
X150371899Y-93058061D01*
X150417205Y-92990256D01*
X150495226Y-92801898D01*
X150535000Y-92601939D01*
X150535000Y-92398061D01*
X150495226Y-92198102D01*
X150417205Y-92009744D01*
X150303937Y-91840226D01*
X150159774Y-91696063D01*
X149992870Y-91584541D01*
X202805064Y-91584541D01*
X202815575Y-91777763D01*
X202985603Y-91848562D01*
X203166176Y-91884828D01*
X203350355Y-91885171D01*
X203531061Y-91849574D01*
X203701351Y-91779408D01*
X203704425Y-91777763D01*
X203714936Y-91584541D01*
X204305064Y-91584541D01*
X204311345Y-91700000D01*
X204305064Y-91815459D01*
X204760000Y-92270395D01*
X205214936Y-91815459D01*
X205208655Y-91700000D01*
X205214936Y-91584541D01*
X205805064Y-91584541D01*
X205815575Y-91777763D01*
X205985603Y-91848562D01*
X206166176Y-91884828D01*
X206350355Y-91885171D01*
X206531061Y-91849574D01*
X206701351Y-91779408D01*
X206704425Y-91777763D01*
X206714936Y-91584541D01*
X206260000Y-91129605D01*
X205805064Y-91584541D01*
X205214936Y-91584541D01*
X204760000Y-91129605D01*
X204305064Y-91584541D01*
X203714936Y-91584541D01*
X203260000Y-91129605D01*
X202805064Y-91584541D01*
X149992870Y-91584541D01*
X149990256Y-91582795D01*
X149801898Y-91504774D01*
X149601939Y-91465000D01*
X149398061Y-91465000D01*
X149198102Y-91504774D01*
X149009744Y-91582795D01*
X148840226Y-91696063D01*
X148696063Y-91840226D01*
X148582795Y-92009744D01*
X148504774Y-92198102D01*
X148465000Y-92398061D01*
X143465650Y-92398061D01*
X143523937Y-92339774D01*
X143637205Y-92170256D01*
X143715226Y-91981898D01*
X143755000Y-91781939D01*
X143755000Y-91578061D01*
X143715226Y-91378102D01*
X143637205Y-91189744D01*
X143537387Y-91040355D01*
X202324829Y-91040355D01*
X202360426Y-91221061D01*
X202430592Y-91391351D01*
X202432237Y-91394425D01*
X202625459Y-91404936D01*
X203080395Y-90950000D01*
X203439605Y-90950000D01*
X203894541Y-91404936D01*
X204010000Y-91398655D01*
X204125459Y-91404936D01*
X204580395Y-90950000D01*
X204939605Y-90950000D01*
X205394541Y-91404936D01*
X205510000Y-91398655D01*
X205625459Y-91404936D01*
X206080395Y-90950000D01*
X206439605Y-90950000D01*
X206894541Y-91404936D01*
X207087763Y-91394425D01*
X207158562Y-91224397D01*
X207194828Y-91043824D01*
X207195171Y-90859645D01*
X207159574Y-90678939D01*
X207089408Y-90508649D01*
X207087763Y-90505575D01*
X206894541Y-90495064D01*
X206439605Y-90950000D01*
X206080395Y-90950000D01*
X205625459Y-90495064D01*
X205510000Y-90501345D01*
X205394541Y-90495064D01*
X204939605Y-90950000D01*
X204580395Y-90950000D01*
X204125459Y-90495064D01*
X204010000Y-90501345D01*
X203894541Y-90495064D01*
X203439605Y-90950000D01*
X203080395Y-90950000D01*
X202625459Y-90495064D01*
X202432237Y-90505575D01*
X202361438Y-90675603D01*
X202325172Y-90856176D01*
X202324829Y-91040355D01*
X143537387Y-91040355D01*
X143523937Y-91020226D01*
X143379774Y-90876063D01*
X143210256Y-90762795D01*
X143021898Y-90684774D01*
X142897546Y-90660039D01*
X142885226Y-90598102D01*
X142807205Y-90409744D01*
X142693937Y-90240226D01*
X142549774Y-90096063D01*
X142380256Y-89982795D01*
X142191898Y-89904774D01*
X141991939Y-89865000D01*
X141788061Y-89865000D01*
X141588102Y-89904774D01*
X141399744Y-89982795D01*
X141230226Y-90096063D01*
X141086063Y-90240226D01*
X140972795Y-90409744D01*
X140894774Y-90598102D01*
X140855000Y-90798061D01*
X66135000Y-90798061D01*
X66135000Y-88498061D01*
X137015000Y-88498061D01*
X137015000Y-88701939D01*
X137054774Y-88901898D01*
X137132795Y-89090256D01*
X137246063Y-89259774D01*
X137390226Y-89403937D01*
X137559744Y-89517205D01*
X137748102Y-89595226D01*
X137948061Y-89635000D01*
X138151939Y-89635000D01*
X138351898Y-89595226D01*
X138540256Y-89517205D01*
X138568907Y-89498061D01*
X143265000Y-89498061D01*
X143265000Y-89701939D01*
X143304774Y-89901898D01*
X143382795Y-90090256D01*
X143496063Y-90259774D01*
X143640226Y-90403937D01*
X143809744Y-90517205D01*
X143998102Y-90595226D01*
X144198061Y-90635000D01*
X144401939Y-90635000D01*
X144601898Y-90595226D01*
X144790256Y-90517205D01*
X144959774Y-90403937D01*
X145103937Y-90259774D01*
X145217205Y-90090256D01*
X145295226Y-89901898D01*
X145297393Y-89891003D01*
X145401898Y-89870216D01*
X145590256Y-89792195D01*
X145759774Y-89678927D01*
X145903937Y-89534764D01*
X146017205Y-89365246D01*
X146095226Y-89176888D01*
X146116872Y-89068061D01*
X148065000Y-89068061D01*
X148065000Y-89271939D01*
X148104774Y-89471898D01*
X148182795Y-89660256D01*
X148296063Y-89829774D01*
X148440226Y-89973937D01*
X148609744Y-90087205D01*
X148798102Y-90165226D01*
X148998061Y-90205000D01*
X149201939Y-90205000D01*
X149401898Y-90165226D01*
X149590256Y-90087205D01*
X149759774Y-89973937D01*
X149903937Y-89829774D01*
X150017205Y-89660256D01*
X150095226Y-89471898D01*
X150135000Y-89271939D01*
X150135000Y-89068061D01*
X150095226Y-88868102D01*
X150041361Y-88738061D01*
X157375000Y-88738061D01*
X157375000Y-88941939D01*
X157414774Y-89141898D01*
X157492795Y-89330256D01*
X157606063Y-89499774D01*
X157750226Y-89643937D01*
X157919744Y-89757205D01*
X158108102Y-89835226D01*
X158308061Y-89875000D01*
X158511939Y-89875000D01*
X158711898Y-89835226D01*
X158900256Y-89757205D01*
X159069774Y-89643937D01*
X159165650Y-89548061D01*
X160155000Y-89548061D01*
X160155000Y-89751939D01*
X160194774Y-89951898D01*
X160272795Y-90140256D01*
X160386063Y-90309774D01*
X160530226Y-90453937D01*
X160699744Y-90567205D01*
X160888102Y-90645226D01*
X161088061Y-90685000D01*
X161291939Y-90685000D01*
X161491898Y-90645226D01*
X161680256Y-90567205D01*
X161849774Y-90453937D01*
X161988252Y-90315459D01*
X202805064Y-90315459D01*
X203260000Y-90770395D01*
X203714936Y-90315459D01*
X203704425Y-90122237D01*
X203613896Y-90084541D01*
X204305064Y-90084541D01*
X204311345Y-90200000D01*
X204305064Y-90315459D01*
X204760000Y-90770395D01*
X205214936Y-90315459D01*
X205805064Y-90315459D01*
X206260000Y-90770395D01*
X206714936Y-90315459D01*
X206704425Y-90122237D01*
X206534397Y-90051438D01*
X206353824Y-90015172D01*
X206169645Y-90014829D01*
X205988939Y-90050426D01*
X205818649Y-90120592D01*
X205815575Y-90122237D01*
X205805064Y-90315459D01*
X205214936Y-90315459D01*
X205208655Y-90200000D01*
X205214936Y-90084541D01*
X204760000Y-89629605D01*
X204305064Y-90084541D01*
X203613896Y-90084541D01*
X203534397Y-90051438D01*
X203353824Y-90015172D01*
X203169645Y-90014829D01*
X202988939Y-90050426D01*
X202818649Y-90120592D01*
X202815575Y-90122237D01*
X202805064Y-90315459D01*
X161988252Y-90315459D01*
X161993937Y-90309774D01*
X162107205Y-90140256D01*
X162185226Y-89951898D01*
X162225000Y-89751939D01*
X162225000Y-89548061D01*
X162185226Y-89348102D01*
X162107205Y-89159744D01*
X162015877Y-89023061D01*
X196795000Y-89023061D01*
X196795000Y-89226939D01*
X196834774Y-89426898D01*
X196912795Y-89615256D01*
X197026063Y-89784774D01*
X197170226Y-89928937D01*
X197339744Y-90042205D01*
X197528102Y-90120226D01*
X197728061Y-90160000D01*
X197931939Y-90160000D01*
X198131898Y-90120226D01*
X198320256Y-90042205D01*
X198489774Y-89928937D01*
X198633937Y-89784774D01*
X198747205Y-89615256D01*
X198825226Y-89426898D01*
X198865000Y-89226939D01*
X198865000Y-89023061D01*
X198832180Y-88858061D01*
X199145000Y-88858061D01*
X199145000Y-89061939D01*
X199184774Y-89261898D01*
X199262795Y-89450256D01*
X199376063Y-89619774D01*
X199520226Y-89763937D01*
X199689744Y-89877205D01*
X199878102Y-89955226D01*
X200078061Y-89995000D01*
X200281939Y-89995000D01*
X200481898Y-89955226D01*
X200670256Y-89877205D01*
X200839774Y-89763937D01*
X200983937Y-89619774D01*
X201037002Y-89540355D01*
X203824829Y-89540355D01*
X203860426Y-89721061D01*
X203930592Y-89891351D01*
X203932237Y-89894425D01*
X204125459Y-89904936D01*
X204580395Y-89450000D01*
X204939605Y-89450000D01*
X205394541Y-89904936D01*
X205587763Y-89894425D01*
X205658562Y-89724397D01*
X205694828Y-89543824D01*
X205695171Y-89359645D01*
X205659574Y-89178939D01*
X205589408Y-89008649D01*
X205587763Y-89005575D01*
X205394541Y-88995064D01*
X204939605Y-89450000D01*
X204580395Y-89450000D01*
X204125459Y-88995064D01*
X203932237Y-89005575D01*
X203861438Y-89175603D01*
X203825172Y-89356176D01*
X203824829Y-89540355D01*
X201037002Y-89540355D01*
X201097205Y-89450256D01*
X201175226Y-89261898D01*
X201215000Y-89061939D01*
X201215000Y-88858061D01*
X201206527Y-88815459D01*
X204305064Y-88815459D01*
X204760000Y-89270395D01*
X205214936Y-88815459D01*
X205204425Y-88622237D01*
X205034397Y-88551438D01*
X204853824Y-88515172D01*
X204669645Y-88514829D01*
X204488939Y-88550426D01*
X204318649Y-88620592D01*
X204315575Y-88622237D01*
X204305064Y-88815459D01*
X201206527Y-88815459D01*
X201175226Y-88658102D01*
X201097205Y-88469744D01*
X200983937Y-88300226D01*
X200839774Y-88156063D01*
X200670256Y-88042795D01*
X200481898Y-87964774D01*
X200281939Y-87925000D01*
X200078061Y-87925000D01*
X199878102Y-87964774D01*
X199689744Y-88042795D01*
X199520226Y-88156063D01*
X199376063Y-88300226D01*
X199262795Y-88469744D01*
X199184774Y-88658102D01*
X199145000Y-88858061D01*
X198832180Y-88858061D01*
X198825226Y-88823102D01*
X198747205Y-88634744D01*
X198633937Y-88465226D01*
X198489774Y-88321063D01*
X198320256Y-88207795D01*
X198131898Y-88129774D01*
X197931939Y-88090000D01*
X197728061Y-88090000D01*
X197528102Y-88129774D01*
X197339744Y-88207795D01*
X197170226Y-88321063D01*
X197026063Y-88465226D01*
X196912795Y-88634744D01*
X196834774Y-88823102D01*
X196795000Y-89023061D01*
X162015877Y-89023061D01*
X161993937Y-88990226D01*
X161849774Y-88846063D01*
X161680256Y-88732795D01*
X161491898Y-88654774D01*
X161291939Y-88615000D01*
X161088061Y-88615000D01*
X160888102Y-88654774D01*
X160699744Y-88732795D01*
X160530226Y-88846063D01*
X160386063Y-88990226D01*
X160272795Y-89159744D01*
X160194774Y-89348102D01*
X160155000Y-89548061D01*
X159165650Y-89548061D01*
X159213937Y-89499774D01*
X159327205Y-89330256D01*
X159405226Y-89141898D01*
X159415834Y-89088567D01*
X159468100Y-89110216D01*
X159668059Y-89149990D01*
X159871937Y-89149990D01*
X160071896Y-89110216D01*
X160260254Y-89032195D01*
X160429772Y-88918927D01*
X160573935Y-88774764D01*
X160687203Y-88605246D01*
X160765224Y-88416888D01*
X160804998Y-88216929D01*
X160804998Y-88013051D01*
X160765224Y-87813092D01*
X160687203Y-87624734D01*
X160573935Y-87455216D01*
X160429772Y-87311053D01*
X160260254Y-87197785D01*
X160071896Y-87119764D01*
X159871937Y-87079990D01*
X159668059Y-87079990D01*
X159468100Y-87119764D01*
X159279742Y-87197785D01*
X159110224Y-87311053D01*
X158966061Y-87455216D01*
X158852793Y-87624734D01*
X158774772Y-87813092D01*
X158764164Y-87866423D01*
X158711898Y-87844774D01*
X158511939Y-87805000D01*
X158308061Y-87805000D01*
X158108102Y-87844774D01*
X157919744Y-87922795D01*
X157750226Y-88036063D01*
X157606063Y-88180226D01*
X157492795Y-88349744D01*
X157414774Y-88538102D01*
X157375000Y-88738061D01*
X150041361Y-88738061D01*
X150017205Y-88679744D01*
X149903937Y-88510226D01*
X149759774Y-88366063D01*
X149590256Y-88252795D01*
X149401898Y-88174774D01*
X149201939Y-88135000D01*
X148998061Y-88135000D01*
X148798102Y-88174774D01*
X148609744Y-88252795D01*
X148440226Y-88366063D01*
X148296063Y-88510226D01*
X148182795Y-88679744D01*
X148104774Y-88868102D01*
X148065000Y-89068061D01*
X146116872Y-89068061D01*
X146135000Y-88976929D01*
X146135000Y-88773051D01*
X146095226Y-88573092D01*
X146017205Y-88384734D01*
X145903937Y-88215216D01*
X145759774Y-88071053D01*
X145590256Y-87957785D01*
X145401898Y-87879764D01*
X145201939Y-87839990D01*
X144998061Y-87839990D01*
X144798102Y-87879764D01*
X144609744Y-87957785D01*
X144440226Y-88071053D01*
X144296063Y-88215216D01*
X144182795Y-88384734D01*
X144104774Y-88573092D01*
X144102607Y-88583987D01*
X143998102Y-88604774D01*
X143809744Y-88682795D01*
X143640226Y-88796063D01*
X143496063Y-88940226D01*
X143382795Y-89109744D01*
X143304774Y-89298102D01*
X143265000Y-89498061D01*
X138568907Y-89498061D01*
X138709774Y-89403937D01*
X138853937Y-89259774D01*
X138967205Y-89090256D01*
X139045226Y-88901898D01*
X139085000Y-88701939D01*
X139085000Y-88498061D01*
X139045226Y-88298102D01*
X138967205Y-88109744D01*
X138853937Y-87940226D01*
X138709774Y-87796063D01*
X138540256Y-87682795D01*
X138351898Y-87604774D01*
X138151939Y-87565000D01*
X137948061Y-87565000D01*
X137748102Y-87604774D01*
X137559744Y-87682795D01*
X137390226Y-87796063D01*
X137246063Y-87940226D01*
X137132795Y-88109744D01*
X137054774Y-88298102D01*
X137015000Y-88498061D01*
X66135000Y-88498061D01*
X66135000Y-85298061D01*
X110040000Y-85298061D01*
X110040000Y-85501939D01*
X110079774Y-85701898D01*
X110157795Y-85890256D01*
X110271063Y-86059774D01*
X110415226Y-86203937D01*
X110584744Y-86317205D01*
X110773102Y-86395226D01*
X110973061Y-86435000D01*
X111176939Y-86435000D01*
X111376898Y-86395226D01*
X111565256Y-86317205D01*
X111734774Y-86203937D01*
X111878937Y-86059774D01*
X111992205Y-85890256D01*
X112070226Y-85701898D01*
X112070989Y-85698061D01*
X121590000Y-85698061D01*
X121590000Y-85901939D01*
X121629774Y-86101898D01*
X121707795Y-86290256D01*
X121821063Y-86459774D01*
X121965226Y-86603937D01*
X122134744Y-86717205D01*
X122323102Y-86795226D01*
X122523061Y-86835000D01*
X122726939Y-86835000D01*
X122926898Y-86795226D01*
X123115256Y-86717205D01*
X123284774Y-86603937D01*
X123428937Y-86459774D01*
X123542205Y-86290256D01*
X123620226Y-86101898D01*
X123644858Y-85978061D01*
X142465000Y-85978061D01*
X142465000Y-86181939D01*
X142504774Y-86381898D01*
X142582795Y-86570256D01*
X142696063Y-86739774D01*
X142840226Y-86883937D01*
X143009744Y-86997205D01*
X143198102Y-87075226D01*
X143398061Y-87115000D01*
X143601939Y-87115000D01*
X143801898Y-87075226D01*
X143990256Y-86997205D01*
X144159774Y-86883937D01*
X144303937Y-86739774D01*
X144417205Y-86570256D01*
X144495226Y-86381898D01*
X144535000Y-86181939D01*
X144535000Y-85978061D01*
X144519088Y-85898061D01*
X147265000Y-85898061D01*
X147265000Y-86101939D01*
X147304774Y-86301898D01*
X147382795Y-86490256D01*
X147496063Y-86659774D01*
X147640226Y-86803937D01*
X147809744Y-86917205D01*
X147998102Y-86995226D01*
X148198061Y-87035000D01*
X148401939Y-87035000D01*
X148601898Y-86995226D01*
X148790256Y-86917205D01*
X148959774Y-86803937D01*
X149103937Y-86659774D01*
X149131808Y-86618061D01*
X163645000Y-86618061D01*
X163645000Y-86821939D01*
X163684774Y-87021898D01*
X163762795Y-87210256D01*
X163876063Y-87379774D01*
X164020226Y-87523937D01*
X164189744Y-87637205D01*
X164378102Y-87715226D01*
X164578061Y-87755000D01*
X164781939Y-87755000D01*
X164981898Y-87715226D01*
X165170256Y-87637205D01*
X165258771Y-87578061D01*
X181995000Y-87578061D01*
X181995000Y-87781939D01*
X182034774Y-87981898D01*
X182112795Y-88170256D01*
X182226063Y-88339774D01*
X182370226Y-88483937D01*
X182539744Y-88597205D01*
X182728102Y-88675226D01*
X182928061Y-88715000D01*
X183131939Y-88715000D01*
X183331898Y-88675226D01*
X183520256Y-88597205D01*
X183689774Y-88483937D01*
X183833937Y-88339774D01*
X183947205Y-88170256D01*
X184025226Y-87981898D01*
X184065000Y-87781939D01*
X184065000Y-87598061D01*
X185425000Y-87598061D01*
X185425000Y-87801939D01*
X185464774Y-88001898D01*
X185542795Y-88190256D01*
X185656063Y-88359774D01*
X185800226Y-88503937D01*
X185969744Y-88617205D01*
X186158102Y-88695226D01*
X186358061Y-88735000D01*
X186561939Y-88735000D01*
X186761898Y-88695226D01*
X186950256Y-88617205D01*
X187119774Y-88503937D01*
X187263937Y-88359774D01*
X187377205Y-88190256D01*
X187455226Y-88001898D01*
X187495000Y-87801939D01*
X187495000Y-87598061D01*
X187455226Y-87398102D01*
X187424143Y-87323061D01*
X192890000Y-87323061D01*
X192890000Y-87526939D01*
X192929774Y-87726898D01*
X193007795Y-87915256D01*
X193121063Y-88084774D01*
X193265226Y-88228937D01*
X193434744Y-88342205D01*
X193623102Y-88420226D01*
X193823061Y-88460000D01*
X194026939Y-88460000D01*
X194226898Y-88420226D01*
X194415256Y-88342205D01*
X194584774Y-88228937D01*
X194728937Y-88084774D01*
X194842205Y-87915256D01*
X194920226Y-87726898D01*
X194960000Y-87526939D01*
X194960000Y-87323061D01*
X194920226Y-87123102D01*
X194842205Y-86934744D01*
X194728937Y-86765226D01*
X194584774Y-86621063D01*
X194415256Y-86507795D01*
X194226898Y-86429774D01*
X194026939Y-86390000D01*
X193823061Y-86390000D01*
X193623102Y-86429774D01*
X193434744Y-86507795D01*
X193265226Y-86621063D01*
X193121063Y-86765226D01*
X193007795Y-86934744D01*
X192929774Y-87123102D01*
X192890000Y-87323061D01*
X187424143Y-87323061D01*
X187377205Y-87209744D01*
X187263937Y-87040226D01*
X187119774Y-86896063D01*
X186950256Y-86782795D01*
X186761898Y-86704774D01*
X186561939Y-86665000D01*
X186358061Y-86665000D01*
X186158102Y-86704774D01*
X185969744Y-86782795D01*
X185800226Y-86896063D01*
X185656063Y-87040226D01*
X185542795Y-87209744D01*
X185464774Y-87398102D01*
X185425000Y-87598061D01*
X184065000Y-87598061D01*
X184065000Y-87578061D01*
X184025226Y-87378102D01*
X183947205Y-87189744D01*
X183833937Y-87020226D01*
X183689774Y-86876063D01*
X183520256Y-86762795D01*
X183331898Y-86684774D01*
X183131939Y-86645000D01*
X182928061Y-86645000D01*
X182728102Y-86684774D01*
X182539744Y-86762795D01*
X182370226Y-86876063D01*
X182226063Y-87020226D01*
X182112795Y-87189744D01*
X182034774Y-87378102D01*
X181995000Y-87578061D01*
X165258771Y-87578061D01*
X165339774Y-87523937D01*
X165483937Y-87379774D01*
X165597205Y-87210256D01*
X165675226Y-87021898D01*
X165715000Y-86821939D01*
X165715000Y-86784500D01*
X165811898Y-86765226D01*
X166000256Y-86687205D01*
X166169774Y-86573937D01*
X166297823Y-86445888D01*
X166356556Y-86470216D01*
X166556515Y-86509990D01*
X166760393Y-86509990D01*
X166960352Y-86470216D01*
X167148710Y-86392195D01*
X167318228Y-86278927D01*
X167462391Y-86134764D01*
X167575659Y-85965246D01*
X167653680Y-85776888D01*
X167693454Y-85576929D01*
X167693454Y-85373051D01*
X167653680Y-85173092D01*
X167575659Y-84984734D01*
X167462391Y-84815216D01*
X167318228Y-84671053D01*
X167148710Y-84557785D01*
X166960352Y-84479764D01*
X166760393Y-84439990D01*
X166556515Y-84439990D01*
X166356556Y-84479764D01*
X166239204Y-84528373D01*
X166225226Y-84458102D01*
X166147205Y-84269744D01*
X166033937Y-84100226D01*
X165889774Y-83956063D01*
X165720256Y-83842795D01*
X165531898Y-83764774D01*
X165331939Y-83725000D01*
X165128061Y-83725000D01*
X164928102Y-83764774D01*
X164739744Y-83842795D01*
X164570226Y-83956063D01*
X164426063Y-84100226D01*
X164312795Y-84269744D01*
X164234774Y-84458102D01*
X164195000Y-84658061D01*
X164195000Y-84861939D01*
X164234774Y-85061898D01*
X164312795Y-85250256D01*
X164426063Y-85419774D01*
X164508074Y-85501785D01*
X164475000Y-85668061D01*
X164475000Y-85705500D01*
X164378102Y-85724774D01*
X164189744Y-85802795D01*
X164020226Y-85916063D01*
X163876063Y-86060226D01*
X163762795Y-86229744D01*
X163684774Y-86418102D01*
X163645000Y-86618061D01*
X149131808Y-86618061D01*
X149217205Y-86490256D01*
X149295226Y-86301898D01*
X149335000Y-86101939D01*
X149335000Y-85898061D01*
X149295226Y-85698102D01*
X149217205Y-85509744D01*
X149103937Y-85340226D01*
X148959774Y-85196063D01*
X148790256Y-85082795D01*
X148601898Y-85004774D01*
X148401939Y-84965000D01*
X148198061Y-84965000D01*
X147998102Y-85004774D01*
X147809744Y-85082795D01*
X147640226Y-85196063D01*
X147496063Y-85340226D01*
X147382795Y-85509744D01*
X147304774Y-85698102D01*
X147265000Y-85898061D01*
X144519088Y-85898061D01*
X144495226Y-85778102D01*
X144417205Y-85589744D01*
X144303937Y-85420226D01*
X144159774Y-85276063D01*
X143990256Y-85162795D01*
X143801898Y-85084774D01*
X143601939Y-85045000D01*
X143398061Y-85045000D01*
X143198102Y-85084774D01*
X143009744Y-85162795D01*
X142840226Y-85276063D01*
X142696063Y-85420226D01*
X142582795Y-85589744D01*
X142504774Y-85778102D01*
X142465000Y-85978061D01*
X123644858Y-85978061D01*
X123660000Y-85901939D01*
X123660000Y-85698061D01*
X123620226Y-85498102D01*
X123542205Y-85309744D01*
X123428937Y-85140226D01*
X123284774Y-84996063D01*
X123115256Y-84882795D01*
X122926898Y-84804774D01*
X122726939Y-84765000D01*
X122523061Y-84765000D01*
X122323102Y-84804774D01*
X122134744Y-84882795D01*
X121965226Y-84996063D01*
X121821063Y-85140226D01*
X121707795Y-85309744D01*
X121629774Y-85498102D01*
X121590000Y-85698061D01*
X112070989Y-85698061D01*
X112110000Y-85501939D01*
X112110000Y-85298061D01*
X112070226Y-85098102D01*
X111992205Y-84909744D01*
X111878937Y-84740226D01*
X111734774Y-84596063D01*
X111565256Y-84482795D01*
X111376898Y-84404774D01*
X111176939Y-84365000D01*
X110973061Y-84365000D01*
X110773102Y-84404774D01*
X110584744Y-84482795D01*
X110415226Y-84596063D01*
X110271063Y-84740226D01*
X110157795Y-84909744D01*
X110079774Y-85098102D01*
X110040000Y-85298061D01*
X66135000Y-85298061D01*
X66135000Y-83173061D01*
X188365000Y-83173061D01*
X188365000Y-83376939D01*
X188404774Y-83576898D01*
X188482795Y-83765256D01*
X188596063Y-83934774D01*
X188740226Y-84078937D01*
X188909744Y-84192205D01*
X189098102Y-84270226D01*
X189298061Y-84310000D01*
X189501939Y-84310000D01*
X189701898Y-84270226D01*
X189890256Y-84192205D01*
X190059774Y-84078937D01*
X190203937Y-83934774D01*
X190317205Y-83765256D01*
X190395226Y-83576898D01*
X190435000Y-83376939D01*
X190435000Y-83173061D01*
X191965000Y-83173061D01*
X191965000Y-83376939D01*
X192004774Y-83576898D01*
X192082795Y-83765256D01*
X192196063Y-83934774D01*
X192340226Y-84078937D01*
X192509744Y-84192205D01*
X192698102Y-84270226D01*
X192898061Y-84310000D01*
X193101939Y-84310000D01*
X193301898Y-84270226D01*
X193490256Y-84192205D01*
X193659774Y-84078937D01*
X193803937Y-83934774D01*
X193917205Y-83765256D01*
X193995226Y-83576898D01*
X194018454Y-83460123D01*
X194024774Y-83491898D01*
X194102795Y-83680256D01*
X194216063Y-83849774D01*
X194360226Y-83993937D01*
X194529744Y-84107205D01*
X194718102Y-84185226D01*
X194918061Y-84225000D01*
X195121939Y-84225000D01*
X195146115Y-84220191D01*
X195246063Y-84369774D01*
X195390226Y-84513937D01*
X195559744Y-84627205D01*
X195748102Y-84705226D01*
X195948061Y-84745000D01*
X196151939Y-84745000D01*
X196351898Y-84705226D01*
X196540256Y-84627205D01*
X196709774Y-84513937D01*
X196853937Y-84369774D01*
X196861763Y-84358061D01*
X201355000Y-84358061D01*
X201355000Y-84561939D01*
X201394774Y-84761898D01*
X201472795Y-84950256D01*
X201586063Y-85119774D01*
X201730226Y-85263937D01*
X201899744Y-85377205D01*
X202088102Y-85455226D01*
X202288061Y-85495000D01*
X202491939Y-85495000D01*
X202691898Y-85455226D01*
X202849895Y-85389781D01*
X204461179Y-85389781D01*
X204461179Y-85593659D01*
X204500953Y-85793618D01*
X204578974Y-85981976D01*
X204692242Y-86151494D01*
X204836405Y-86295657D01*
X205005923Y-86408925D01*
X205194281Y-86486946D01*
X205394240Y-86526720D01*
X205598118Y-86526720D01*
X205798077Y-86486946D01*
X205849704Y-86465561D01*
X205946063Y-86609774D01*
X206090226Y-86753937D01*
X206259744Y-86867205D01*
X206448102Y-86945226D01*
X206648061Y-86985000D01*
X206851939Y-86985000D01*
X207051898Y-86945226D01*
X207240256Y-86867205D01*
X207409774Y-86753937D01*
X207553937Y-86609774D01*
X207667205Y-86440256D01*
X207724311Y-86302390D01*
X207796063Y-86409774D01*
X207940226Y-86553937D01*
X208109744Y-86667205D01*
X208298102Y-86745226D01*
X208498061Y-86785000D01*
X208701939Y-86785000D01*
X208901898Y-86745226D01*
X209090256Y-86667205D01*
X209259774Y-86553937D01*
X209403937Y-86409774D01*
X209517205Y-86240256D01*
X209595226Y-86051898D01*
X209635000Y-85851939D01*
X209635000Y-85648061D01*
X209595226Y-85448102D01*
X209517205Y-85259744D01*
X209403937Y-85090226D01*
X209259774Y-84946063D01*
X209128070Y-84858061D01*
X212455000Y-84858061D01*
X212455000Y-85061939D01*
X212494774Y-85261898D01*
X212572795Y-85450256D01*
X212686063Y-85619774D01*
X212701289Y-85635000D01*
X212696063Y-85640226D01*
X212582795Y-85809744D01*
X212504774Y-85998102D01*
X212465000Y-86198061D01*
X212465000Y-86401939D01*
X212504774Y-86601898D01*
X212582795Y-86790256D01*
X212696063Y-86959774D01*
X212840226Y-87103937D01*
X213009744Y-87217205D01*
X213198102Y-87295226D01*
X213398061Y-87335000D01*
X213601939Y-87335000D01*
X213801898Y-87295226D01*
X213990256Y-87217205D01*
X214159774Y-87103937D01*
X214303937Y-86959774D01*
X214417205Y-86790256D01*
X214495226Y-86601898D01*
X214535000Y-86401939D01*
X214535000Y-86198061D01*
X214495226Y-85998102D01*
X214417205Y-85809744D01*
X214303937Y-85640226D01*
X214288711Y-85625000D01*
X214293937Y-85619774D01*
X214407205Y-85450256D01*
X214485226Y-85261898D01*
X214525000Y-85061939D01*
X214525000Y-84898061D01*
X214665000Y-84898061D01*
X214665000Y-85101939D01*
X214704774Y-85301898D01*
X214782795Y-85490256D01*
X214896063Y-85659774D01*
X215040226Y-85803937D01*
X215209744Y-85917205D01*
X215398102Y-85995226D01*
X215598061Y-86035000D01*
X215801939Y-86035000D01*
X215987645Y-85998061D01*
X220265000Y-85998061D01*
X220265000Y-86201939D01*
X220304774Y-86401898D01*
X220382795Y-86590256D01*
X220496063Y-86759774D01*
X220640226Y-86903937D01*
X220809744Y-87017205D01*
X220998102Y-87095226D01*
X221198061Y-87135000D01*
X221401939Y-87135000D01*
X221601898Y-87095226D01*
X221790256Y-87017205D01*
X221959774Y-86903937D01*
X222103937Y-86759774D01*
X222217205Y-86590256D01*
X222295226Y-86401898D01*
X222335000Y-86201939D01*
X222335000Y-85998061D01*
X222295226Y-85798102D01*
X222217205Y-85609744D01*
X222103937Y-85440226D01*
X221959774Y-85296063D01*
X221790256Y-85182795D01*
X221601898Y-85104774D01*
X221401939Y-85065000D01*
X221198061Y-85065000D01*
X220998102Y-85104774D01*
X220809744Y-85182795D01*
X220640226Y-85296063D01*
X220496063Y-85440226D01*
X220382795Y-85609744D01*
X220304774Y-85798102D01*
X220265000Y-85998061D01*
X215987645Y-85998061D01*
X216001898Y-85995226D01*
X216190256Y-85917205D01*
X216359774Y-85803937D01*
X216503937Y-85659774D01*
X216617205Y-85490256D01*
X216695226Y-85301898D01*
X216735000Y-85101939D01*
X216735000Y-84898061D01*
X216715109Y-84798061D01*
X217665000Y-84798061D01*
X217665000Y-85001939D01*
X217704774Y-85201898D01*
X217782795Y-85390256D01*
X217896063Y-85559774D01*
X218040226Y-85703937D01*
X218209744Y-85817205D01*
X218398102Y-85895226D01*
X218598061Y-85935000D01*
X218801939Y-85935000D01*
X219001898Y-85895226D01*
X219190256Y-85817205D01*
X219359774Y-85703937D01*
X219503937Y-85559774D01*
X219617205Y-85390256D01*
X219695226Y-85201898D01*
X219735000Y-85001939D01*
X219735000Y-84798061D01*
X219695226Y-84598102D01*
X219617205Y-84409744D01*
X219503937Y-84240226D01*
X219359774Y-84096063D01*
X219190256Y-83982795D01*
X219001898Y-83904774D01*
X218801939Y-83865000D01*
X218598061Y-83865000D01*
X218398102Y-83904774D01*
X218209744Y-83982795D01*
X218040226Y-84096063D01*
X217896063Y-84240226D01*
X217782795Y-84409744D01*
X217704774Y-84598102D01*
X217665000Y-84798061D01*
X216715109Y-84798061D01*
X216695226Y-84698102D01*
X216617205Y-84509744D01*
X216503937Y-84340226D01*
X216359774Y-84196063D01*
X216190256Y-84082795D01*
X216001898Y-84004774D01*
X215801939Y-83965000D01*
X215598061Y-83965000D01*
X215398102Y-84004774D01*
X215209744Y-84082795D01*
X215040226Y-84196063D01*
X214896063Y-84340226D01*
X214782795Y-84509744D01*
X214704774Y-84698102D01*
X214665000Y-84898061D01*
X214525000Y-84898061D01*
X214525000Y-84858061D01*
X214485226Y-84658102D01*
X214407205Y-84469744D01*
X214293937Y-84300226D01*
X214149774Y-84156063D01*
X213980256Y-84042795D01*
X213791898Y-83964774D01*
X213591939Y-83925000D01*
X213388061Y-83925000D01*
X213188102Y-83964774D01*
X212999744Y-84042795D01*
X212830226Y-84156063D01*
X212686063Y-84300226D01*
X212572795Y-84469744D01*
X212494774Y-84658102D01*
X212455000Y-84858061D01*
X209128070Y-84858061D01*
X209090256Y-84832795D01*
X208901898Y-84754774D01*
X208701939Y-84715000D01*
X208498061Y-84715000D01*
X208298102Y-84754774D01*
X208109744Y-84832795D01*
X207940226Y-84946063D01*
X207796063Y-85090226D01*
X207682795Y-85259744D01*
X207625689Y-85397610D01*
X207553937Y-85290226D01*
X207409774Y-85146063D01*
X207240256Y-85032795D01*
X207051898Y-84954774D01*
X206851939Y-84915000D01*
X206648061Y-84915000D01*
X206448102Y-84954774D01*
X206396475Y-84976159D01*
X206300116Y-84831946D01*
X206155953Y-84687783D01*
X205986435Y-84574515D01*
X205798077Y-84496494D01*
X205598118Y-84456720D01*
X205394240Y-84456720D01*
X205194281Y-84496494D01*
X205005923Y-84574515D01*
X204836405Y-84687783D01*
X204692242Y-84831946D01*
X204578974Y-85001464D01*
X204500953Y-85189822D01*
X204461179Y-85389781D01*
X202849895Y-85389781D01*
X202880256Y-85377205D01*
X203049774Y-85263937D01*
X203193937Y-85119774D01*
X203307205Y-84950256D01*
X203385226Y-84761898D01*
X203425000Y-84561939D01*
X203425000Y-84358061D01*
X203385226Y-84158102D01*
X203307205Y-83969744D01*
X203193937Y-83800226D01*
X203049774Y-83656063D01*
X202880256Y-83542795D01*
X202691898Y-83464774D01*
X202491939Y-83425000D01*
X202288061Y-83425000D01*
X202088102Y-83464774D01*
X201899744Y-83542795D01*
X201730226Y-83656063D01*
X201586063Y-83800226D01*
X201472795Y-83969744D01*
X201394774Y-84158102D01*
X201355000Y-84358061D01*
X196861763Y-84358061D01*
X196967205Y-84200256D01*
X197045226Y-84011898D01*
X197085000Y-83811939D01*
X197085000Y-83608061D01*
X197045226Y-83408102D01*
X196977334Y-83244197D01*
X197028102Y-83265226D01*
X197228061Y-83305000D01*
X197431939Y-83305000D01*
X197631898Y-83265226D01*
X197820256Y-83187205D01*
X197989774Y-83073937D01*
X198133937Y-82929774D01*
X198247205Y-82760256D01*
X198325226Y-82571898D01*
X198365000Y-82371939D01*
X198365000Y-82168061D01*
X198325226Y-81968102D01*
X198247205Y-81779744D01*
X198133937Y-81610226D01*
X197989774Y-81466063D01*
X197820256Y-81352795D01*
X197631898Y-81274774D01*
X197431939Y-81235000D01*
X197228061Y-81235000D01*
X197028102Y-81274774D01*
X196839744Y-81352795D01*
X196670226Y-81466063D01*
X196526063Y-81610226D01*
X196412795Y-81779744D01*
X196334774Y-81968102D01*
X196295000Y-82168061D01*
X196295000Y-82371939D01*
X196334774Y-82571898D01*
X196402666Y-82735803D01*
X196351898Y-82714774D01*
X196151939Y-82675000D01*
X195948061Y-82675000D01*
X195923885Y-82679809D01*
X195823937Y-82530226D01*
X195679774Y-82386063D01*
X195510256Y-82272795D01*
X195321898Y-82194774D01*
X195121939Y-82155000D01*
X194918061Y-82155000D01*
X194718102Y-82194774D01*
X194529744Y-82272795D01*
X194360226Y-82386063D01*
X194216063Y-82530226D01*
X194102795Y-82699744D01*
X194024774Y-82888102D01*
X194001546Y-83004877D01*
X193995226Y-82973102D01*
X193917205Y-82784744D01*
X193803937Y-82615226D01*
X193659774Y-82471063D01*
X193490256Y-82357795D01*
X193301898Y-82279774D01*
X193101939Y-82240000D01*
X192898061Y-82240000D01*
X192698102Y-82279774D01*
X192509744Y-82357795D01*
X192340226Y-82471063D01*
X192196063Y-82615226D01*
X192082795Y-82784744D01*
X192004774Y-82973102D01*
X191965000Y-83173061D01*
X190435000Y-83173061D01*
X190395226Y-82973102D01*
X190317205Y-82784744D01*
X190203937Y-82615226D01*
X190059774Y-82471063D01*
X189890256Y-82357795D01*
X189701898Y-82279774D01*
X189501939Y-82240000D01*
X189298061Y-82240000D01*
X189098102Y-82279774D01*
X188909744Y-82357795D01*
X188740226Y-82471063D01*
X188596063Y-82615226D01*
X188482795Y-82784744D01*
X188404774Y-82973102D01*
X188365000Y-83173061D01*
X66135000Y-83173061D01*
X66135000Y-81500000D01*
X66122799Y-81376118D01*
X66086664Y-81256996D01*
X66027983Y-81147213D01*
X65949013Y-81050987D01*
X65852787Y-80972017D01*
X65743004Y-80913336D01*
X65692649Y-80898061D01*
X161065000Y-80898061D01*
X161065000Y-81101939D01*
X161104774Y-81301898D01*
X161182795Y-81490256D01*
X161296063Y-81659774D01*
X161440226Y-81803937D01*
X161609744Y-81917205D01*
X161798102Y-81995226D01*
X161998061Y-82035000D01*
X162201939Y-82035000D01*
X162401898Y-81995226D01*
X162590256Y-81917205D01*
X162759774Y-81803937D01*
X162903937Y-81659774D01*
X163017205Y-81490256D01*
X163095226Y-81301898D01*
X163135000Y-81101939D01*
X163135000Y-80898061D01*
X163095226Y-80698102D01*
X163070357Y-80638061D01*
X193945000Y-80638061D01*
X193945000Y-80841939D01*
X193984774Y-81041898D01*
X194062795Y-81230256D01*
X194176063Y-81399774D01*
X194320226Y-81543937D01*
X194489744Y-81657205D01*
X194678102Y-81735226D01*
X194878061Y-81775000D01*
X195081939Y-81775000D01*
X195281898Y-81735226D01*
X195470256Y-81657205D01*
X195639774Y-81543937D01*
X195783937Y-81399774D01*
X195811065Y-81359174D01*
X195898102Y-81395226D01*
X196098061Y-81435000D01*
X196301939Y-81435000D01*
X196501898Y-81395226D01*
X196690256Y-81317205D01*
X196859774Y-81203937D01*
X197003937Y-81059774D01*
X197117205Y-80890256D01*
X197195226Y-80701898D01*
X197235000Y-80501939D01*
X197235000Y-80298061D01*
X197207728Y-80160956D01*
X197228061Y-80165000D01*
X197431939Y-80165000D01*
X197631898Y-80125226D01*
X197820256Y-80047205D01*
X197989774Y-79933937D01*
X198063168Y-79860543D01*
X198096063Y-79909774D01*
X198240226Y-80053937D01*
X198409744Y-80167205D01*
X198522420Y-80213877D01*
X198486071Y-80250226D01*
X198372803Y-80419744D01*
X198294782Y-80608102D01*
X198255008Y-80808061D01*
X198255008Y-81011939D01*
X198294782Y-81211898D01*
X198372803Y-81400256D01*
X198486071Y-81569774D01*
X198630234Y-81713937D01*
X198799752Y-81827205D01*
X198988110Y-81905226D01*
X199188069Y-81945000D01*
X199391947Y-81945000D01*
X199591906Y-81905226D01*
X199780264Y-81827205D01*
X199949782Y-81713937D01*
X200093945Y-81569774D01*
X200207213Y-81400256D01*
X200285234Y-81211898D01*
X200325008Y-81011939D01*
X200325008Y-80818061D01*
X201350000Y-80818061D01*
X201350000Y-81021939D01*
X201389774Y-81221898D01*
X201467795Y-81410256D01*
X201581063Y-81579774D01*
X201725226Y-81723937D01*
X201894744Y-81837205D01*
X202083102Y-81915226D01*
X202283061Y-81955000D01*
X202486939Y-81955000D01*
X202686898Y-81915226D01*
X202875256Y-81837205D01*
X203044774Y-81723937D01*
X203070650Y-81698061D01*
X204465000Y-81698061D01*
X204465000Y-81901939D01*
X204504774Y-82101898D01*
X204582795Y-82290256D01*
X204696063Y-82459774D01*
X204840226Y-82603937D01*
X205009744Y-82717205D01*
X205198102Y-82795226D01*
X205398061Y-82835000D01*
X205601939Y-82835000D01*
X205801898Y-82795226D01*
X205990256Y-82717205D01*
X206159774Y-82603937D01*
X206303937Y-82459774D01*
X206417205Y-82290256D01*
X206495226Y-82101898D01*
X206535000Y-81901939D01*
X206535000Y-81748061D01*
X207565000Y-81748061D01*
X207565000Y-81951939D01*
X207604774Y-82151898D01*
X207682795Y-82340256D01*
X207796063Y-82509774D01*
X207940226Y-82653937D01*
X208109744Y-82767205D01*
X208298102Y-82845226D01*
X208498061Y-82885000D01*
X208701939Y-82885000D01*
X208901898Y-82845226D01*
X209090256Y-82767205D01*
X209259774Y-82653937D01*
X209403937Y-82509774D01*
X209517205Y-82340256D01*
X209534682Y-82298061D01*
X217465000Y-82298061D01*
X217465000Y-82501939D01*
X217504774Y-82701898D01*
X217582795Y-82890256D01*
X217696063Y-83059774D01*
X217840226Y-83203937D01*
X218009744Y-83317205D01*
X218198102Y-83395226D01*
X218398061Y-83435000D01*
X218601939Y-83435000D01*
X218801898Y-83395226D01*
X218990256Y-83317205D01*
X219159774Y-83203937D01*
X219303937Y-83059774D01*
X219417205Y-82890256D01*
X219467820Y-82768061D01*
X223785000Y-82768061D01*
X223785000Y-82971939D01*
X223824774Y-83171898D01*
X223902795Y-83360256D01*
X224016063Y-83529774D01*
X224160226Y-83673937D01*
X224329744Y-83787205D01*
X224518102Y-83865226D01*
X224718061Y-83905000D01*
X224921939Y-83905000D01*
X225121898Y-83865226D01*
X225310256Y-83787205D01*
X225479774Y-83673937D01*
X225623937Y-83529774D01*
X225737205Y-83360256D01*
X225815226Y-83171898D01*
X225855000Y-82971939D01*
X225855000Y-82768061D01*
X225815226Y-82568102D01*
X225737205Y-82379744D01*
X225623937Y-82210226D01*
X225479774Y-82066063D01*
X225310256Y-81952795D01*
X225121898Y-81874774D01*
X224921939Y-81835000D01*
X224718061Y-81835000D01*
X224518102Y-81874774D01*
X224329744Y-81952795D01*
X224160226Y-82066063D01*
X224016063Y-82210226D01*
X223902795Y-82379744D01*
X223824774Y-82568102D01*
X223785000Y-82768061D01*
X219467820Y-82768061D01*
X219495226Y-82701898D01*
X219535000Y-82501939D01*
X219535000Y-82298061D01*
X219495226Y-82098102D01*
X219417205Y-81909744D01*
X219303937Y-81740226D01*
X219159774Y-81596063D01*
X218990256Y-81482795D01*
X218801898Y-81404774D01*
X218601939Y-81365000D01*
X218398061Y-81365000D01*
X218198102Y-81404774D01*
X218009744Y-81482795D01*
X217840226Y-81596063D01*
X217696063Y-81740226D01*
X217582795Y-81909744D01*
X217504774Y-82098102D01*
X217465000Y-82298061D01*
X209534682Y-82298061D01*
X209595226Y-82151898D01*
X209635000Y-81951939D01*
X209635000Y-81748061D01*
X209595226Y-81548102D01*
X209517205Y-81359744D01*
X209450781Y-81260333D01*
X209615256Y-81192205D01*
X209784774Y-81078937D01*
X209928937Y-80934774D01*
X210042205Y-80765256D01*
X210120226Y-80576898D01*
X210160000Y-80376939D01*
X210160000Y-80173061D01*
X210120226Y-79973102D01*
X210042205Y-79784744D01*
X209928937Y-79615226D01*
X209784774Y-79471063D01*
X209615256Y-79357795D01*
X209426898Y-79279774D01*
X209226939Y-79240000D01*
X209023061Y-79240000D01*
X208823102Y-79279774D01*
X208634744Y-79357795D01*
X208465226Y-79471063D01*
X208321063Y-79615226D01*
X208207795Y-79784744D01*
X208129774Y-79973102D01*
X208090000Y-80173061D01*
X208090000Y-80376939D01*
X208129774Y-80576898D01*
X208207795Y-80765256D01*
X208274219Y-80864667D01*
X208109744Y-80932795D01*
X207940226Y-81046063D01*
X207796063Y-81190226D01*
X207682795Y-81359744D01*
X207604774Y-81548102D01*
X207565000Y-81748061D01*
X206535000Y-81748061D01*
X206535000Y-81698061D01*
X206495226Y-81498102D01*
X206417205Y-81309744D01*
X206303937Y-81140226D01*
X206159774Y-80996063D01*
X205990256Y-80882795D01*
X205801898Y-80804774D01*
X205601939Y-80765000D01*
X205398061Y-80765000D01*
X205198102Y-80804774D01*
X205009744Y-80882795D01*
X204840226Y-80996063D01*
X204696063Y-81140226D01*
X204582795Y-81309744D01*
X204504774Y-81498102D01*
X204465000Y-81698061D01*
X203070650Y-81698061D01*
X203188937Y-81579774D01*
X203302205Y-81410256D01*
X203380226Y-81221898D01*
X203420000Y-81021939D01*
X203420000Y-80818061D01*
X203380226Y-80618102D01*
X203302205Y-80429744D01*
X203188937Y-80260226D01*
X203044774Y-80116063D01*
X202875256Y-80002795D01*
X202686898Y-79924774D01*
X202486939Y-79885000D01*
X202283061Y-79885000D01*
X202083102Y-79924774D01*
X201894744Y-80002795D01*
X201725226Y-80116063D01*
X201581063Y-80260226D01*
X201467795Y-80429744D01*
X201389774Y-80618102D01*
X201350000Y-80818061D01*
X200325008Y-80818061D01*
X200325008Y-80808061D01*
X200285234Y-80608102D01*
X200207213Y-80419744D01*
X200093945Y-80250226D01*
X199949782Y-80106063D01*
X199780264Y-79992795D01*
X199667588Y-79946123D01*
X199703937Y-79909774D01*
X199817205Y-79740256D01*
X199895226Y-79551898D01*
X199935000Y-79351939D01*
X199935000Y-79148061D01*
X199895226Y-78948102D01*
X199817205Y-78759744D01*
X199759286Y-78673061D01*
X211890000Y-78673061D01*
X211890000Y-78876939D01*
X211929774Y-79076898D01*
X212007795Y-79265256D01*
X212121063Y-79434774D01*
X212265226Y-79578937D01*
X212434744Y-79692205D01*
X212623102Y-79770226D01*
X212823061Y-79810000D01*
X213026939Y-79810000D01*
X213226898Y-79770226D01*
X213415256Y-79692205D01*
X213584774Y-79578937D01*
X213728937Y-79434774D01*
X213842205Y-79265256D01*
X213920226Y-79076898D01*
X213960000Y-78876939D01*
X213960000Y-78698061D01*
X231265000Y-78698061D01*
X231265000Y-78901939D01*
X231304774Y-79101898D01*
X231382795Y-79290256D01*
X231496063Y-79459774D01*
X231640226Y-79603937D01*
X231809744Y-79717205D01*
X231998102Y-79795226D01*
X232198061Y-79835000D01*
X232401939Y-79835000D01*
X232601898Y-79795226D01*
X232790256Y-79717205D01*
X232959774Y-79603937D01*
X233103937Y-79459774D01*
X233217205Y-79290256D01*
X233295226Y-79101898D01*
X233335000Y-78901939D01*
X233335000Y-78698061D01*
X233295226Y-78498102D01*
X233217205Y-78309744D01*
X233103937Y-78140226D01*
X232959774Y-77996063D01*
X232790256Y-77882795D01*
X232601898Y-77804774D01*
X232401939Y-77765000D01*
X232198061Y-77765000D01*
X231998102Y-77804774D01*
X231809744Y-77882795D01*
X231640226Y-77996063D01*
X231496063Y-78140226D01*
X231382795Y-78309744D01*
X231304774Y-78498102D01*
X231265000Y-78698061D01*
X213960000Y-78698061D01*
X213960000Y-78673061D01*
X213920226Y-78473102D01*
X213842205Y-78284744D01*
X213728937Y-78115226D01*
X213584774Y-77971063D01*
X213415256Y-77857795D01*
X213226898Y-77779774D01*
X213026939Y-77740000D01*
X212823061Y-77740000D01*
X212623102Y-77779774D01*
X212434744Y-77857795D01*
X212265226Y-77971063D01*
X212121063Y-78115226D01*
X212007795Y-78284744D01*
X211929774Y-78473102D01*
X211890000Y-78673061D01*
X199759286Y-78673061D01*
X199703937Y-78590226D01*
X199559774Y-78446063D01*
X199390256Y-78332795D01*
X199201898Y-78254774D01*
X199001939Y-78215000D01*
X198798061Y-78215000D01*
X198598102Y-78254774D01*
X198409744Y-78332795D01*
X198240226Y-78446063D01*
X198166832Y-78519457D01*
X198133937Y-78470226D01*
X197989774Y-78326063D01*
X197820256Y-78212795D01*
X197631898Y-78134774D01*
X197431939Y-78095000D01*
X197228061Y-78095000D01*
X197028102Y-78134774D01*
X196839744Y-78212795D01*
X196670226Y-78326063D01*
X196526063Y-78470226D01*
X196412795Y-78639744D01*
X196334774Y-78828102D01*
X196295000Y-79028061D01*
X196295000Y-79231939D01*
X196322272Y-79369044D01*
X196301939Y-79365000D01*
X196098061Y-79365000D01*
X195898102Y-79404774D01*
X195709744Y-79482795D01*
X195540226Y-79596063D01*
X195396063Y-79740226D01*
X195368935Y-79780826D01*
X195281898Y-79744774D01*
X195081939Y-79705000D01*
X194878061Y-79705000D01*
X194678102Y-79744774D01*
X194489744Y-79822795D01*
X194320226Y-79936063D01*
X194176063Y-80080226D01*
X194062795Y-80249744D01*
X193984774Y-80438102D01*
X193945000Y-80638061D01*
X163070357Y-80638061D01*
X163017205Y-80509744D01*
X162903937Y-80340226D01*
X162759774Y-80196063D01*
X162590256Y-80082795D01*
X162401898Y-80004774D01*
X162201939Y-79965000D01*
X161998061Y-79965000D01*
X161798102Y-80004774D01*
X161609744Y-80082795D01*
X161440226Y-80196063D01*
X161296063Y-80340226D01*
X161182795Y-80509744D01*
X161104774Y-80698102D01*
X161065000Y-80898061D01*
X65692649Y-80898061D01*
X65623882Y-80877201D01*
X65500000Y-80865000D01*
X55660000Y-80865000D01*
X55660000Y-78448063D01*
X133915000Y-78448063D01*
X133915000Y-78651941D01*
X133954774Y-78851900D01*
X134032795Y-79040258D01*
X134146063Y-79209776D01*
X134290226Y-79353939D01*
X134459744Y-79467207D01*
X134648102Y-79545228D01*
X134848061Y-79585002D01*
X135051939Y-79585002D01*
X135251898Y-79545228D01*
X135440256Y-79467207D01*
X135609774Y-79353939D01*
X135753937Y-79209776D01*
X135867205Y-79040258D01*
X135942674Y-78858061D01*
X170445000Y-78858061D01*
X170445000Y-79061939D01*
X170484774Y-79261898D01*
X170562795Y-79450256D01*
X170676063Y-79619774D01*
X170820226Y-79763937D01*
X170989744Y-79877205D01*
X171178102Y-79955226D01*
X171378061Y-79995000D01*
X171581939Y-79995000D01*
X171781898Y-79955226D01*
X171970256Y-79877205D01*
X172139774Y-79763937D01*
X172283937Y-79619774D01*
X172397205Y-79450256D01*
X172475226Y-79261898D01*
X172493891Y-79168061D01*
X191005000Y-79168061D01*
X191005000Y-79371939D01*
X191044774Y-79571898D01*
X191122795Y-79760256D01*
X191236063Y-79929774D01*
X191380226Y-80073937D01*
X191549744Y-80187205D01*
X191738102Y-80265226D01*
X191938061Y-80305000D01*
X192141939Y-80305000D01*
X192341898Y-80265226D01*
X192530256Y-80187205D01*
X192699774Y-80073937D01*
X192843937Y-79929774D01*
X192957205Y-79760256D01*
X193035226Y-79571898D01*
X193075000Y-79371939D01*
X193075000Y-79168061D01*
X193035226Y-78968102D01*
X192957205Y-78779744D01*
X192843937Y-78610226D01*
X192699774Y-78466063D01*
X192530256Y-78352795D01*
X192341898Y-78274774D01*
X192141939Y-78235000D01*
X191938061Y-78235000D01*
X191738102Y-78274774D01*
X191549744Y-78352795D01*
X191380226Y-78466063D01*
X191236063Y-78610226D01*
X191122795Y-78779744D01*
X191044774Y-78968102D01*
X191005000Y-79168061D01*
X172493891Y-79168061D01*
X172515000Y-79061939D01*
X172515000Y-78858061D01*
X172475226Y-78658102D01*
X172397205Y-78469744D01*
X172283937Y-78300226D01*
X172139774Y-78156063D01*
X171970256Y-78042795D01*
X171781898Y-77964774D01*
X171581939Y-77925000D01*
X171378061Y-77925000D01*
X171178102Y-77964774D01*
X170989744Y-78042795D01*
X170820226Y-78156063D01*
X170676063Y-78300226D01*
X170562795Y-78469744D01*
X170484774Y-78658102D01*
X170445000Y-78858061D01*
X135942674Y-78858061D01*
X135945226Y-78851900D01*
X135985000Y-78651941D01*
X135985000Y-78448063D01*
X135945226Y-78248104D01*
X135867205Y-78059746D01*
X135753937Y-77890228D01*
X135609774Y-77746065D01*
X135440256Y-77632797D01*
X135251898Y-77554776D01*
X135051939Y-77515002D01*
X134848061Y-77515002D01*
X134648102Y-77554776D01*
X134459744Y-77632797D01*
X134290226Y-77746065D01*
X134146063Y-77890228D01*
X134032795Y-78059746D01*
X133954774Y-78248104D01*
X133915000Y-78448063D01*
X55660000Y-78448063D01*
X55660000Y-77248221D01*
X136740160Y-77248221D01*
X136740160Y-77452099D01*
X136779934Y-77652058D01*
X136857955Y-77840416D01*
X136971223Y-78009934D01*
X137115386Y-78154097D01*
X137284904Y-78267365D01*
X137473262Y-78345386D01*
X137673221Y-78385160D01*
X137877099Y-78385160D01*
X138077058Y-78345386D01*
X138265416Y-78267365D01*
X138434934Y-78154097D01*
X138579097Y-78009934D01*
X138692365Y-77840416D01*
X138770386Y-77652058D01*
X138810160Y-77452099D01*
X138810160Y-77248221D01*
X138770386Y-77048262D01*
X138692365Y-76859904D01*
X138584226Y-76698061D01*
X139765000Y-76698061D01*
X139765000Y-76901939D01*
X139804774Y-77101898D01*
X139882795Y-77290256D01*
X139996063Y-77459774D01*
X140140226Y-77603937D01*
X140309744Y-77717205D01*
X140498102Y-77795226D01*
X140698061Y-77835000D01*
X140901939Y-77835000D01*
X141087645Y-77798061D01*
X194065000Y-77798061D01*
X194065000Y-78001939D01*
X194104774Y-78201898D01*
X194182795Y-78390256D01*
X194296063Y-78559774D01*
X194440226Y-78703937D01*
X194609744Y-78817205D01*
X194798102Y-78895226D01*
X194998061Y-78935000D01*
X195201939Y-78935000D01*
X195401898Y-78895226D01*
X195590256Y-78817205D01*
X195759774Y-78703937D01*
X195903937Y-78559774D01*
X196017205Y-78390256D01*
X196095226Y-78201898D01*
X196135000Y-78001939D01*
X196135000Y-77798061D01*
X196095226Y-77598102D01*
X196017205Y-77409744D01*
X195935981Y-77288182D01*
X202990000Y-77288182D01*
X202990000Y-77492060D01*
X203029774Y-77692019D01*
X203107795Y-77880377D01*
X203221063Y-78049895D01*
X203365226Y-78194058D01*
X203534744Y-78307326D01*
X203723102Y-78385347D01*
X203923061Y-78425121D01*
X204126939Y-78425121D01*
X204326898Y-78385347D01*
X204515256Y-78307326D01*
X204684774Y-78194058D01*
X204828937Y-78049895D01*
X204942205Y-77880377D01*
X205020226Y-77692019D01*
X205025256Y-77666731D01*
X205193068Y-77700111D01*
X205396946Y-77700111D01*
X205596905Y-77660337D01*
X205785263Y-77582316D01*
X205954781Y-77469048D01*
X206098944Y-77324885D01*
X206200389Y-77173061D01*
X209340000Y-77173061D01*
X209340000Y-77376939D01*
X209379774Y-77576898D01*
X209457795Y-77765256D01*
X209571063Y-77934774D01*
X209715226Y-78078937D01*
X209884744Y-78192205D01*
X210073102Y-78270226D01*
X210273061Y-78310000D01*
X210476939Y-78310000D01*
X210676898Y-78270226D01*
X210865256Y-78192205D01*
X211034774Y-78078937D01*
X211178937Y-77934774D01*
X211292205Y-77765256D01*
X211370226Y-77576898D01*
X211410000Y-77376939D01*
X211410000Y-77293059D01*
X222390000Y-77293059D01*
X222390000Y-77496937D01*
X222429774Y-77696896D01*
X222507795Y-77885254D01*
X222621063Y-78054772D01*
X222765226Y-78198935D01*
X222934744Y-78312203D01*
X223123102Y-78390224D01*
X223323061Y-78429998D01*
X223526939Y-78429998D01*
X223726898Y-78390224D01*
X223915256Y-78312203D01*
X224084774Y-78198935D01*
X224228937Y-78054772D01*
X224342205Y-77885254D01*
X224420226Y-77696896D01*
X224430992Y-77642769D01*
X224593061Y-77675006D01*
X224796939Y-77675006D01*
X224996898Y-77635232D01*
X225185256Y-77557211D01*
X225354774Y-77443943D01*
X225498937Y-77299780D01*
X225612205Y-77130262D01*
X225690226Y-76941904D01*
X225695256Y-76916618D01*
X225863061Y-76949996D01*
X226066939Y-76949996D01*
X226266898Y-76910222D01*
X226455256Y-76832201D01*
X226624774Y-76718933D01*
X226768937Y-76574770D01*
X226882205Y-76405252D01*
X226960226Y-76216894D01*
X227000000Y-76016935D01*
X227000000Y-75813057D01*
X226960226Y-75613098D01*
X226882205Y-75424740D01*
X226768937Y-75255222D01*
X226624774Y-75111059D01*
X226455256Y-74997791D01*
X226266898Y-74919770D01*
X226066939Y-74879996D01*
X225863061Y-74879996D01*
X225663102Y-74919770D01*
X225474744Y-74997791D01*
X225305226Y-75111059D01*
X225161063Y-75255222D01*
X225047795Y-75424740D01*
X224969774Y-75613098D01*
X224964744Y-75638384D01*
X224796939Y-75605006D01*
X224593061Y-75605006D01*
X224393102Y-75644780D01*
X224204744Y-75722801D01*
X224035226Y-75836069D01*
X223891063Y-75980232D01*
X223777795Y-76149750D01*
X223699774Y-76338108D01*
X223689008Y-76392235D01*
X223526939Y-76359998D01*
X223323061Y-76359998D01*
X223123102Y-76399772D01*
X222934744Y-76477793D01*
X222765226Y-76591061D01*
X222621063Y-76735224D01*
X222507795Y-76904742D01*
X222429774Y-77093100D01*
X222390000Y-77293059D01*
X211410000Y-77293059D01*
X211410000Y-77235000D01*
X211591939Y-77235000D01*
X211791898Y-77195226D01*
X211980256Y-77117205D01*
X212149774Y-77003937D01*
X212293937Y-76859774D01*
X212407205Y-76690256D01*
X212485226Y-76501898D01*
X212525000Y-76301939D01*
X212525000Y-76098061D01*
X212485226Y-75898102D01*
X212407205Y-75709744D01*
X212293937Y-75540226D01*
X212149774Y-75396063D01*
X211980256Y-75282795D01*
X211791898Y-75204774D01*
X211591939Y-75165000D01*
X211388061Y-75165000D01*
X211188102Y-75204774D01*
X210999744Y-75282795D01*
X210830226Y-75396063D01*
X210686063Y-75540226D01*
X210572795Y-75709744D01*
X210494774Y-75898102D01*
X210455000Y-76098061D01*
X210455000Y-76240000D01*
X210273061Y-76240000D01*
X210073102Y-76279774D01*
X209884744Y-76357795D01*
X209715226Y-76471063D01*
X209571063Y-76615226D01*
X209457795Y-76784744D01*
X209379774Y-76973102D01*
X209340000Y-77173061D01*
X206200389Y-77173061D01*
X206212212Y-77155367D01*
X206290233Y-76967009D01*
X206310779Y-76863715D01*
X206468061Y-76895000D01*
X206671939Y-76895000D01*
X206871898Y-76855226D01*
X207060256Y-76777205D01*
X207229774Y-76663937D01*
X207373937Y-76519774D01*
X207487205Y-76350256D01*
X207565226Y-76161898D01*
X207605000Y-75961939D01*
X207605000Y-75758061D01*
X207565226Y-75558102D01*
X207487205Y-75369744D01*
X207373937Y-75200226D01*
X207229774Y-75056063D01*
X207060256Y-74942795D01*
X206871898Y-74864774D01*
X206671939Y-74825000D01*
X206468061Y-74825000D01*
X206268102Y-74864774D01*
X206079744Y-74942795D01*
X205910226Y-75056063D01*
X205766063Y-75200226D01*
X205652795Y-75369744D01*
X205574774Y-75558102D01*
X205554228Y-75661396D01*
X205396946Y-75630111D01*
X205193068Y-75630111D01*
X204993109Y-75669885D01*
X204804751Y-75747906D01*
X204635233Y-75861174D01*
X204491070Y-76005337D01*
X204377802Y-76174855D01*
X204299781Y-76363213D01*
X204294751Y-76388501D01*
X204126939Y-76355121D01*
X203923061Y-76355121D01*
X203723102Y-76394895D01*
X203534744Y-76472916D01*
X203365226Y-76586184D01*
X203221063Y-76730347D01*
X203107795Y-76899865D01*
X203029774Y-77088223D01*
X202990000Y-77288182D01*
X195935981Y-77288182D01*
X195903937Y-77240226D01*
X195759774Y-77096063D01*
X195590256Y-76982795D01*
X195401898Y-76904774D01*
X195201939Y-76865000D01*
X194998061Y-76865000D01*
X194798102Y-76904774D01*
X194609744Y-76982795D01*
X194440226Y-77096063D01*
X194296063Y-77240226D01*
X194182795Y-77409744D01*
X194104774Y-77598102D01*
X194065000Y-77798061D01*
X141087645Y-77798061D01*
X141101898Y-77795226D01*
X141290256Y-77717205D01*
X141459774Y-77603937D01*
X141603937Y-77459774D01*
X141717205Y-77290256D01*
X141795226Y-77101898D01*
X141835000Y-76901939D01*
X141835000Y-76698061D01*
X141795226Y-76498102D01*
X141717205Y-76309744D01*
X141603937Y-76140226D01*
X141459774Y-75996063D01*
X141290256Y-75882795D01*
X141101898Y-75804774D01*
X140901939Y-75765000D01*
X140698061Y-75765000D01*
X140498102Y-75804774D01*
X140309744Y-75882795D01*
X140140226Y-75996063D01*
X139996063Y-76140226D01*
X139882795Y-76309744D01*
X139804774Y-76498102D01*
X139765000Y-76698061D01*
X138584226Y-76698061D01*
X138579097Y-76690386D01*
X138434934Y-76546223D01*
X138265416Y-76432955D01*
X138077058Y-76354934D01*
X137877099Y-76315160D01*
X137673221Y-76315160D01*
X137473262Y-76354934D01*
X137284904Y-76432955D01*
X137115386Y-76546223D01*
X136971223Y-76690386D01*
X136857955Y-76859904D01*
X136779934Y-77048262D01*
X136740160Y-77248221D01*
X55660000Y-77248221D01*
X55660000Y-75048061D01*
X172565000Y-75048061D01*
X172565000Y-75251939D01*
X172604774Y-75451898D01*
X172682795Y-75640256D01*
X172796063Y-75809774D01*
X172940226Y-75953937D01*
X173109744Y-76067205D01*
X173298102Y-76145226D01*
X173498061Y-76185000D01*
X173701939Y-76185000D01*
X173901898Y-76145226D01*
X174090256Y-76067205D01*
X174259774Y-75953937D01*
X174403937Y-75809774D01*
X174517205Y-75640256D01*
X174595226Y-75451898D01*
X174635000Y-75251939D01*
X174635000Y-75048061D01*
X174595226Y-74848102D01*
X174517205Y-74659744D01*
X174403937Y-74490226D01*
X174259774Y-74346063D01*
X174090256Y-74232795D01*
X173901898Y-74154774D01*
X173701939Y-74115000D01*
X173498061Y-74115000D01*
X173298102Y-74154774D01*
X173109744Y-74232795D01*
X172940226Y-74346063D01*
X172796063Y-74490226D01*
X172682795Y-74659744D01*
X172604774Y-74848102D01*
X172565000Y-75048061D01*
X55660000Y-75048061D01*
X55660000Y-73048061D01*
X173995000Y-73048061D01*
X173995000Y-73251939D01*
X174034774Y-73451898D01*
X174112795Y-73640256D01*
X174226063Y-73809774D01*
X174370226Y-73953937D01*
X174539744Y-74067205D01*
X174728102Y-74145226D01*
X174928061Y-74185000D01*
X175131939Y-74185000D01*
X175331898Y-74145226D01*
X175520256Y-74067205D01*
X175689774Y-73953937D01*
X175833937Y-73809774D01*
X175947205Y-73640256D01*
X176025226Y-73451898D01*
X176065000Y-73251939D01*
X176065000Y-73048061D01*
X176025226Y-72848102D01*
X175947205Y-72659744D01*
X175833937Y-72490226D01*
X175689774Y-72346063D01*
X175520256Y-72232795D01*
X175331898Y-72154774D01*
X175131939Y-72115000D01*
X174928061Y-72115000D01*
X174728102Y-72154774D01*
X174539744Y-72232795D01*
X174370226Y-72346063D01*
X174226063Y-72490226D01*
X174112795Y-72659744D01*
X174034774Y-72848102D01*
X173995000Y-73048061D01*
X55660000Y-73048061D01*
X55660000Y-68150000D01*
X165761928Y-68150000D01*
X165761928Y-69850000D01*
X165774188Y-69974482D01*
X165810498Y-70094180D01*
X165869463Y-70204494D01*
X165948815Y-70301185D01*
X166045506Y-70380537D01*
X166155820Y-70439502D01*
X166275518Y-70475812D01*
X166400000Y-70488072D01*
X168100000Y-70488072D01*
X168224482Y-70475812D01*
X168344180Y-70439502D01*
X168454494Y-70380537D01*
X168551185Y-70301185D01*
X168630537Y-70204494D01*
X168689502Y-70094180D01*
X168711513Y-70021620D01*
X168843368Y-70153475D01*
X169086589Y-70315990D01*
X169356842Y-70427932D01*
X169643740Y-70485000D01*
X169936260Y-70485000D01*
X170223158Y-70427932D01*
X170493411Y-70315990D01*
X170736632Y-70153475D01*
X170943475Y-69946632D01*
X171060000Y-69772240D01*
X171176525Y-69946632D01*
X171383368Y-70153475D01*
X171626589Y-70315990D01*
X171896842Y-70427932D01*
X172183740Y-70485000D01*
X172476260Y-70485000D01*
X172763158Y-70427932D01*
X173033411Y-70315990D01*
X173276632Y-70153475D01*
X173483475Y-69946632D01*
X173600000Y-69772240D01*
X173716525Y-69946632D01*
X173923368Y-70153475D01*
X174166589Y-70315990D01*
X174436842Y-70427932D01*
X174723740Y-70485000D01*
X175016260Y-70485000D01*
X175303158Y-70427932D01*
X175573411Y-70315990D01*
X175816632Y-70153475D01*
X176023475Y-69946632D01*
X176140000Y-69772240D01*
X176256525Y-69946632D01*
X176463368Y-70153475D01*
X176706589Y-70315990D01*
X176976842Y-70427932D01*
X177263740Y-70485000D01*
X177556260Y-70485000D01*
X177843158Y-70427932D01*
X178113411Y-70315990D01*
X178356632Y-70153475D01*
X178563475Y-69946632D01*
X178680000Y-69772240D01*
X178796525Y-69946632D01*
X179003368Y-70153475D01*
X179246589Y-70315990D01*
X179516842Y-70427932D01*
X179803740Y-70485000D01*
X180096260Y-70485000D01*
X180383158Y-70427932D01*
X180653411Y-70315990D01*
X180896632Y-70153475D01*
X181103475Y-69946632D01*
X181220000Y-69772240D01*
X181336525Y-69946632D01*
X181543368Y-70153475D01*
X181786589Y-70315990D01*
X182056842Y-70427932D01*
X182343740Y-70485000D01*
X182636260Y-70485000D01*
X182923158Y-70427932D01*
X183193411Y-70315990D01*
X183436632Y-70153475D01*
X183643475Y-69946632D01*
X183760000Y-69772240D01*
X183876525Y-69946632D01*
X184083368Y-70153475D01*
X184326589Y-70315990D01*
X184596842Y-70427932D01*
X184883740Y-70485000D01*
X185176260Y-70485000D01*
X185463158Y-70427932D01*
X185733411Y-70315990D01*
X185976632Y-70153475D01*
X186183475Y-69946632D01*
X186345990Y-69703411D01*
X186457932Y-69433158D01*
X186515000Y-69146260D01*
X186515000Y-68853740D01*
X186457932Y-68566842D01*
X186345990Y-68296589D01*
X186248043Y-68150000D01*
X197761928Y-68150000D01*
X197761928Y-69850000D01*
X197774188Y-69974482D01*
X197810498Y-70094180D01*
X197869463Y-70204494D01*
X197948815Y-70301185D01*
X198045506Y-70380537D01*
X198155820Y-70439502D01*
X198275518Y-70475812D01*
X198400000Y-70488072D01*
X200100000Y-70488072D01*
X200224482Y-70475812D01*
X200344180Y-70439502D01*
X200454494Y-70380537D01*
X200551185Y-70301185D01*
X200630537Y-70204494D01*
X200689502Y-70094180D01*
X200711513Y-70021620D01*
X200843368Y-70153475D01*
X201086589Y-70315990D01*
X201356842Y-70427932D01*
X201643740Y-70485000D01*
X201936260Y-70485000D01*
X202223158Y-70427932D01*
X202493411Y-70315990D01*
X202736632Y-70153475D01*
X202943475Y-69946632D01*
X203060000Y-69772240D01*
X203176525Y-69946632D01*
X203383368Y-70153475D01*
X203626589Y-70315990D01*
X203896842Y-70427932D01*
X204183740Y-70485000D01*
X204476260Y-70485000D01*
X204763158Y-70427932D01*
X205033411Y-70315990D01*
X205276632Y-70153475D01*
X205483475Y-69946632D01*
X205600000Y-69772240D01*
X205716525Y-69946632D01*
X205923368Y-70153475D01*
X206166589Y-70315990D01*
X206436842Y-70427932D01*
X206723740Y-70485000D01*
X207016260Y-70485000D01*
X207303158Y-70427932D01*
X207573411Y-70315990D01*
X207816632Y-70153475D01*
X208023475Y-69946632D01*
X208140000Y-69772240D01*
X208256525Y-69946632D01*
X208463368Y-70153475D01*
X208706589Y-70315990D01*
X208976842Y-70427932D01*
X209263740Y-70485000D01*
X209556260Y-70485000D01*
X209843158Y-70427932D01*
X210113411Y-70315990D01*
X210356632Y-70153475D01*
X210563475Y-69946632D01*
X210680000Y-69772240D01*
X210796525Y-69946632D01*
X211003368Y-70153475D01*
X211246589Y-70315990D01*
X211516842Y-70427932D01*
X211803740Y-70485000D01*
X212096260Y-70485000D01*
X212383158Y-70427932D01*
X212653411Y-70315990D01*
X212896632Y-70153475D01*
X213103475Y-69946632D01*
X213220000Y-69772240D01*
X213336525Y-69946632D01*
X213543368Y-70153475D01*
X213786589Y-70315990D01*
X214056842Y-70427932D01*
X214343740Y-70485000D01*
X214636260Y-70485000D01*
X214923158Y-70427932D01*
X215193411Y-70315990D01*
X215436632Y-70153475D01*
X215643475Y-69946632D01*
X215760000Y-69772240D01*
X215876525Y-69946632D01*
X216083368Y-70153475D01*
X216326589Y-70315990D01*
X216596842Y-70427932D01*
X216883740Y-70485000D01*
X217176260Y-70485000D01*
X217463158Y-70427932D01*
X217733411Y-70315990D01*
X217976632Y-70153475D01*
X218183475Y-69946632D01*
X218300000Y-69772240D01*
X218416525Y-69946632D01*
X218623368Y-70153475D01*
X218866589Y-70315990D01*
X219136842Y-70427932D01*
X219423740Y-70485000D01*
X219716260Y-70485000D01*
X220003158Y-70427932D01*
X220273411Y-70315990D01*
X220516632Y-70153475D01*
X220723475Y-69946632D01*
X220840000Y-69772240D01*
X220956525Y-69946632D01*
X221163368Y-70153475D01*
X221406589Y-70315990D01*
X221676842Y-70427932D01*
X221963740Y-70485000D01*
X222256260Y-70485000D01*
X222543158Y-70427932D01*
X222813411Y-70315990D01*
X223056632Y-70153475D01*
X223263475Y-69946632D01*
X223380000Y-69772240D01*
X223496525Y-69946632D01*
X223703368Y-70153475D01*
X223946589Y-70315990D01*
X224216842Y-70427932D01*
X224503740Y-70485000D01*
X224796260Y-70485000D01*
X225083158Y-70427932D01*
X225353411Y-70315990D01*
X225596632Y-70153475D01*
X225803475Y-69946632D01*
X225920000Y-69772240D01*
X226036525Y-69946632D01*
X226243368Y-70153475D01*
X226486589Y-70315990D01*
X226756842Y-70427932D01*
X227043740Y-70485000D01*
X227336260Y-70485000D01*
X227623158Y-70427932D01*
X227893411Y-70315990D01*
X228136632Y-70153475D01*
X228343475Y-69946632D01*
X228460000Y-69772240D01*
X228576525Y-69946632D01*
X228783368Y-70153475D01*
X229026589Y-70315990D01*
X229296842Y-70427932D01*
X229583740Y-70485000D01*
X229876260Y-70485000D01*
X230163158Y-70427932D01*
X230433411Y-70315990D01*
X230676632Y-70153475D01*
X230883475Y-69946632D01*
X231000000Y-69772240D01*
X231116525Y-69946632D01*
X231323368Y-70153475D01*
X231566589Y-70315990D01*
X231836842Y-70427932D01*
X232123740Y-70485000D01*
X232416260Y-70485000D01*
X232703158Y-70427932D01*
X232973411Y-70315990D01*
X233216632Y-70153475D01*
X233423475Y-69946632D01*
X233540000Y-69772240D01*
X233656525Y-69946632D01*
X233863368Y-70153475D01*
X234106589Y-70315990D01*
X234376842Y-70427932D01*
X234663740Y-70485000D01*
X234956260Y-70485000D01*
X235243158Y-70427932D01*
X235513411Y-70315990D01*
X235756632Y-70153475D01*
X235963475Y-69946632D01*
X236080000Y-69772240D01*
X236196525Y-69946632D01*
X236403368Y-70153475D01*
X236646589Y-70315990D01*
X236916842Y-70427932D01*
X237203740Y-70485000D01*
X237496260Y-70485000D01*
X237783158Y-70427932D01*
X238053411Y-70315990D01*
X238296632Y-70153475D01*
X238503475Y-69946632D01*
X238620000Y-69772240D01*
X238736525Y-69946632D01*
X238943368Y-70153475D01*
X239186589Y-70315990D01*
X239456842Y-70427932D01*
X239743740Y-70485000D01*
X240036260Y-70485000D01*
X240323158Y-70427932D01*
X240593411Y-70315990D01*
X240836632Y-70153475D01*
X241043475Y-69946632D01*
X241160000Y-69772240D01*
X241276525Y-69946632D01*
X241483368Y-70153475D01*
X241726589Y-70315990D01*
X241996842Y-70427932D01*
X242283740Y-70485000D01*
X242576260Y-70485000D01*
X242863158Y-70427932D01*
X243133411Y-70315990D01*
X243376632Y-70153475D01*
X243583475Y-69946632D01*
X243700000Y-69772240D01*
X243816525Y-69946632D01*
X244023368Y-70153475D01*
X244266589Y-70315990D01*
X244536842Y-70427932D01*
X244823740Y-70485000D01*
X245116260Y-70485000D01*
X245403158Y-70427932D01*
X245673411Y-70315990D01*
X245916632Y-70153475D01*
X246123475Y-69946632D01*
X246240000Y-69772240D01*
X246356525Y-69946632D01*
X246563368Y-70153475D01*
X246806589Y-70315990D01*
X247076842Y-70427932D01*
X247363740Y-70485000D01*
X247656260Y-70485000D01*
X247943158Y-70427932D01*
X248213411Y-70315990D01*
X248456632Y-70153475D01*
X248663475Y-69946632D01*
X248825990Y-69703411D01*
X248937932Y-69433158D01*
X248995000Y-69146260D01*
X248995000Y-68853740D01*
X248937932Y-68566842D01*
X248825990Y-68296589D01*
X248663475Y-68053368D01*
X248456632Y-67846525D01*
X248213411Y-67684010D01*
X247943158Y-67572068D01*
X247656260Y-67515000D01*
X247363740Y-67515000D01*
X247076842Y-67572068D01*
X246806589Y-67684010D01*
X246563368Y-67846525D01*
X246356525Y-68053368D01*
X246240000Y-68227760D01*
X246123475Y-68053368D01*
X245916632Y-67846525D01*
X245673411Y-67684010D01*
X245403158Y-67572068D01*
X245116260Y-67515000D01*
X244823740Y-67515000D01*
X244536842Y-67572068D01*
X244266589Y-67684010D01*
X244023368Y-67846525D01*
X243816525Y-68053368D01*
X243700000Y-68227760D01*
X243583475Y-68053368D01*
X243376632Y-67846525D01*
X243133411Y-67684010D01*
X242863158Y-67572068D01*
X242576260Y-67515000D01*
X242283740Y-67515000D01*
X241996842Y-67572068D01*
X241726589Y-67684010D01*
X241483368Y-67846525D01*
X241276525Y-68053368D01*
X241160000Y-68227760D01*
X241043475Y-68053368D01*
X240836632Y-67846525D01*
X240593411Y-67684010D01*
X240323158Y-67572068D01*
X240036260Y-67515000D01*
X239743740Y-67515000D01*
X239456842Y-67572068D01*
X239186589Y-67684010D01*
X238943368Y-67846525D01*
X238736525Y-68053368D01*
X238620000Y-68227760D01*
X238503475Y-68053368D01*
X238296632Y-67846525D01*
X238053411Y-67684010D01*
X237783158Y-67572068D01*
X237496260Y-67515000D01*
X237203740Y-67515000D01*
X236916842Y-67572068D01*
X236646589Y-67684010D01*
X236403368Y-67846525D01*
X236196525Y-68053368D01*
X236080000Y-68227760D01*
X235963475Y-68053368D01*
X235756632Y-67846525D01*
X235513411Y-67684010D01*
X235243158Y-67572068D01*
X234956260Y-67515000D01*
X234663740Y-67515000D01*
X234376842Y-67572068D01*
X234106589Y-67684010D01*
X233863368Y-67846525D01*
X233656525Y-68053368D01*
X233540000Y-68227760D01*
X233423475Y-68053368D01*
X233216632Y-67846525D01*
X232973411Y-67684010D01*
X232703158Y-67572068D01*
X232416260Y-67515000D01*
X232123740Y-67515000D01*
X231836842Y-67572068D01*
X231566589Y-67684010D01*
X231323368Y-67846525D01*
X231116525Y-68053368D01*
X231000000Y-68227760D01*
X230883475Y-68053368D01*
X230676632Y-67846525D01*
X230433411Y-67684010D01*
X230163158Y-67572068D01*
X229876260Y-67515000D01*
X229583740Y-67515000D01*
X229296842Y-67572068D01*
X229026589Y-67684010D01*
X228783368Y-67846525D01*
X228576525Y-68053368D01*
X228460000Y-68227760D01*
X228343475Y-68053368D01*
X228136632Y-67846525D01*
X227893411Y-67684010D01*
X227623158Y-67572068D01*
X227336260Y-67515000D01*
X227043740Y-67515000D01*
X226756842Y-67572068D01*
X226486589Y-67684010D01*
X226243368Y-67846525D01*
X226036525Y-68053368D01*
X225920000Y-68227760D01*
X225803475Y-68053368D01*
X225596632Y-67846525D01*
X225353411Y-67684010D01*
X225083158Y-67572068D01*
X224796260Y-67515000D01*
X224503740Y-67515000D01*
X224216842Y-67572068D01*
X223946589Y-67684010D01*
X223703368Y-67846525D01*
X223496525Y-68053368D01*
X223380000Y-68227760D01*
X223263475Y-68053368D01*
X223056632Y-67846525D01*
X222813411Y-67684010D01*
X222543158Y-67572068D01*
X222256260Y-67515000D01*
X221963740Y-67515000D01*
X221676842Y-67572068D01*
X221406589Y-67684010D01*
X221163368Y-67846525D01*
X220956525Y-68053368D01*
X220840000Y-68227760D01*
X220723475Y-68053368D01*
X220516632Y-67846525D01*
X220273411Y-67684010D01*
X220003158Y-67572068D01*
X219716260Y-67515000D01*
X219423740Y-67515000D01*
X219136842Y-67572068D01*
X218866589Y-67684010D01*
X218623368Y-67846525D01*
X218416525Y-68053368D01*
X218300000Y-68227760D01*
X218183475Y-68053368D01*
X217976632Y-67846525D01*
X217733411Y-67684010D01*
X217463158Y-67572068D01*
X217176260Y-67515000D01*
X216883740Y-67515000D01*
X216596842Y-67572068D01*
X216326589Y-67684010D01*
X216083368Y-67846525D01*
X215876525Y-68053368D01*
X215760000Y-68227760D01*
X215643475Y-68053368D01*
X215436632Y-67846525D01*
X215193411Y-67684010D01*
X214923158Y-67572068D01*
X214636260Y-67515000D01*
X214343740Y-67515000D01*
X214056842Y-67572068D01*
X213786589Y-67684010D01*
X213543368Y-67846525D01*
X213336525Y-68053368D01*
X213220000Y-68227760D01*
X213103475Y-68053368D01*
X212896632Y-67846525D01*
X212653411Y-67684010D01*
X212383158Y-67572068D01*
X212096260Y-67515000D01*
X211803740Y-67515000D01*
X211516842Y-67572068D01*
X211246589Y-67684010D01*
X211003368Y-67846525D01*
X210796525Y-68053368D01*
X210680000Y-68227760D01*
X210563475Y-68053368D01*
X210356632Y-67846525D01*
X210113411Y-67684010D01*
X209843158Y-67572068D01*
X209556260Y-67515000D01*
X209263740Y-67515000D01*
X208976842Y-67572068D01*
X208706589Y-67684010D01*
X208463368Y-67846525D01*
X208256525Y-68053368D01*
X208140000Y-68227760D01*
X208023475Y-68053368D01*
X207816632Y-67846525D01*
X207573411Y-67684010D01*
X207303158Y-67572068D01*
X207016260Y-67515000D01*
X206723740Y-67515000D01*
X206436842Y-67572068D01*
X206166589Y-67684010D01*
X205923368Y-67846525D01*
X205716525Y-68053368D01*
X205600000Y-68227760D01*
X205483475Y-68053368D01*
X205276632Y-67846525D01*
X205033411Y-67684010D01*
X204763158Y-67572068D01*
X204476260Y-67515000D01*
X204183740Y-67515000D01*
X203896842Y-67572068D01*
X203626589Y-67684010D01*
X203383368Y-67846525D01*
X203176525Y-68053368D01*
X203060000Y-68227760D01*
X202943475Y-68053368D01*
X202736632Y-67846525D01*
X202493411Y-67684010D01*
X202223158Y-67572068D01*
X201936260Y-67515000D01*
X201643740Y-67515000D01*
X201356842Y-67572068D01*
X201086589Y-67684010D01*
X200843368Y-67846525D01*
X200711513Y-67978380D01*
X200689502Y-67905820D01*
X200630537Y-67795506D01*
X200551185Y-67698815D01*
X200454494Y-67619463D01*
X200344180Y-67560498D01*
X200224482Y-67524188D01*
X200100000Y-67511928D01*
X198400000Y-67511928D01*
X198275518Y-67524188D01*
X198155820Y-67560498D01*
X198045506Y-67619463D01*
X197948815Y-67698815D01*
X197869463Y-67795506D01*
X197810498Y-67905820D01*
X197774188Y-68025518D01*
X197761928Y-68150000D01*
X186248043Y-68150000D01*
X186183475Y-68053368D01*
X185976632Y-67846525D01*
X185733411Y-67684010D01*
X185463158Y-67572068D01*
X185176260Y-67515000D01*
X184883740Y-67515000D01*
X184596842Y-67572068D01*
X184326589Y-67684010D01*
X184083368Y-67846525D01*
X183876525Y-68053368D01*
X183760000Y-68227760D01*
X183643475Y-68053368D01*
X183436632Y-67846525D01*
X183193411Y-67684010D01*
X182923158Y-67572068D01*
X182636260Y-67515000D01*
X182343740Y-67515000D01*
X182056842Y-67572068D01*
X181786589Y-67684010D01*
X181543368Y-67846525D01*
X181336525Y-68053368D01*
X181220000Y-68227760D01*
X181103475Y-68053368D01*
X180896632Y-67846525D01*
X180653411Y-67684010D01*
X180383158Y-67572068D01*
X180096260Y-67515000D01*
X179803740Y-67515000D01*
X179516842Y-67572068D01*
X179246589Y-67684010D01*
X179003368Y-67846525D01*
X178796525Y-68053368D01*
X178680000Y-68227760D01*
X178563475Y-68053368D01*
X178356632Y-67846525D01*
X178113411Y-67684010D01*
X177843158Y-67572068D01*
X177556260Y-67515000D01*
X177263740Y-67515000D01*
X176976842Y-67572068D01*
X176706589Y-67684010D01*
X176463368Y-67846525D01*
X176256525Y-68053368D01*
X176140000Y-68227760D01*
X176023475Y-68053368D01*
X175816632Y-67846525D01*
X175573411Y-67684010D01*
X175303158Y-67572068D01*
X175016260Y-67515000D01*
X174723740Y-67515000D01*
X174436842Y-67572068D01*
X174166589Y-67684010D01*
X173923368Y-67846525D01*
X173716525Y-68053368D01*
X173600000Y-68227760D01*
X173483475Y-68053368D01*
X173276632Y-67846525D01*
X173033411Y-67684010D01*
X172763158Y-67572068D01*
X172476260Y-67515000D01*
X172183740Y-67515000D01*
X171896842Y-67572068D01*
X171626589Y-67684010D01*
X171383368Y-67846525D01*
X171176525Y-68053368D01*
X171060000Y-68227760D01*
X170943475Y-68053368D01*
X170736632Y-67846525D01*
X170493411Y-67684010D01*
X170223158Y-67572068D01*
X169936260Y-67515000D01*
X169643740Y-67515000D01*
X169356842Y-67572068D01*
X169086589Y-67684010D01*
X168843368Y-67846525D01*
X168711513Y-67978380D01*
X168689502Y-67905820D01*
X168630537Y-67795506D01*
X168551185Y-67698815D01*
X168454494Y-67619463D01*
X168344180Y-67560498D01*
X168224482Y-67524188D01*
X168100000Y-67511928D01*
X166400000Y-67511928D01*
X166275518Y-67524188D01*
X166155820Y-67560498D01*
X166045506Y-67619463D01*
X165948815Y-67698815D01*
X165869463Y-67795506D01*
X165810498Y-67905820D01*
X165774188Y-68025518D01*
X165761928Y-68150000D01*
X55660000Y-68150000D01*
X55660000Y-66414155D01*
X149765450Y-66414155D01*
X150161634Y-66934550D01*
X150876612Y-67324748D01*
X151653976Y-67567964D01*
X152463853Y-67654851D01*
X153275118Y-67582069D01*
X154056597Y-67352415D01*
X154778256Y-66974715D01*
X154838366Y-66934550D01*
X155234550Y-66414155D01*
X152500000Y-63679605D01*
X149765450Y-66414155D01*
X55660000Y-66414155D01*
X55660000Y-60660000D01*
X149480392Y-60660000D01*
X149585843Y-60765451D01*
G37*
G04 #@! TD.AperFunction*
G04 #@! TD*
D18*
G04 #@! TO.N,Earth*
X65373000Y-101000000D02*
X65375440Y-101024776D01*
X65382667Y-101048601D01*
X65394403Y-101070557D01*
X65410197Y-101089803D01*
X65429443Y-101105597D01*
X65451399Y-101117333D01*
X65475224Y-101124560D01*
X65500300Y-101127000D01*
X66269623Y-101125181D01*
X66304774Y-101301898D01*
X66382795Y-101490256D01*
X66496063Y-101659774D01*
X66640226Y-101803937D01*
X66809744Y-101917205D01*
X66998102Y-101995226D01*
X67198061Y-102035000D01*
X67401939Y-102035000D01*
X67601898Y-101995226D01*
X67790256Y-101917205D01*
X67959774Y-101803937D01*
X68100000Y-101663711D01*
X68240226Y-101803937D01*
X68409744Y-101917205D01*
X68598102Y-101995226D01*
X68798061Y-102035000D01*
X69001939Y-102035000D01*
X69201898Y-101995226D01*
X69390256Y-101917205D01*
X69559774Y-101803937D01*
X69703937Y-101659774D01*
X69764301Y-101569433D01*
X69826480Y-101631612D01*
X70012376Y-101755824D01*
X70218933Y-101841383D01*
X70438212Y-101885000D01*
X70661788Y-101885000D01*
X70881067Y-101841383D01*
X71087624Y-101755824D01*
X71273520Y-101631612D01*
X71275000Y-101630132D01*
X71276480Y-101631612D01*
X71462376Y-101755824D01*
X71668933Y-101841383D01*
X71888212Y-101885000D01*
X72111788Y-101885000D01*
X72331067Y-101841383D01*
X72537624Y-101755824D01*
X72723520Y-101631612D01*
X72750000Y-101605132D01*
X72776480Y-101631612D01*
X72962376Y-101755824D01*
X73168933Y-101841383D01*
X73388212Y-101885000D01*
X73611788Y-101885000D01*
X73831067Y-101841383D01*
X74037624Y-101755824D01*
X74223520Y-101631612D01*
X74381612Y-101473520D01*
X74505824Y-101287624D01*
X74581249Y-101105532D01*
X80870857Y-101090663D01*
X80862376Y-101094176D01*
X80676480Y-101218388D01*
X80518388Y-101376480D01*
X80394176Y-101562376D01*
X80308617Y-101768933D01*
X80265000Y-101988212D01*
X80265000Y-102211788D01*
X80308617Y-102431067D01*
X80394176Y-102637624D01*
X80518388Y-102823520D01*
X80676480Y-102981612D01*
X80862376Y-103105824D01*
X81068933Y-103191383D01*
X81288212Y-103235000D01*
X81511788Y-103235000D01*
X81731067Y-103191383D01*
X81937624Y-103105824D01*
X82123520Y-102981612D01*
X82281612Y-102823520D01*
X82405824Y-102637624D01*
X82491383Y-102431067D01*
X82535000Y-102211788D01*
X82535000Y-101988212D01*
X82491383Y-101768933D01*
X82405824Y-101562376D01*
X82281612Y-101376480D01*
X82123520Y-101218388D01*
X81937624Y-101094176D01*
X81923137Y-101088175D01*
X84390947Y-101082341D01*
X84362376Y-101094176D01*
X84176480Y-101218388D01*
X84018388Y-101376480D01*
X83894176Y-101562376D01*
X83808617Y-101768933D01*
X83765000Y-101988212D01*
X83765000Y-102211788D01*
X83808617Y-102431067D01*
X83894176Y-102637624D01*
X84018388Y-102823520D01*
X84176480Y-102981612D01*
X84362376Y-103105824D01*
X84568933Y-103191383D01*
X84788212Y-103235000D01*
X85011788Y-103235000D01*
X85231067Y-103191383D01*
X85437624Y-103105824D01*
X85623520Y-102981612D01*
X85781612Y-102823520D01*
X85905824Y-102637624D01*
X85991383Y-102431067D01*
X85997948Y-102398061D01*
X146165000Y-102398061D01*
X146165000Y-102601939D01*
X146204774Y-102801898D01*
X146282795Y-102990256D01*
X146396063Y-103159774D01*
X146540226Y-103303937D01*
X146709744Y-103417205D01*
X146898102Y-103495226D01*
X147098061Y-103535000D01*
X147301939Y-103535000D01*
X147501898Y-103495226D01*
X147690256Y-103417205D01*
X147859774Y-103303937D01*
X148003937Y-103159774D01*
X148117205Y-102990256D01*
X148195226Y-102801898D01*
X148235000Y-102601939D01*
X148235000Y-102398061D01*
X148195226Y-102198102D01*
X148117205Y-102009744D01*
X148003937Y-101840226D01*
X147859774Y-101696063D01*
X147690256Y-101582795D01*
X147501898Y-101504774D01*
X147301939Y-101465000D01*
X147098061Y-101465000D01*
X146898102Y-101504774D01*
X146709744Y-101582795D01*
X146540226Y-101696063D01*
X146396063Y-101840226D01*
X146282795Y-102009744D01*
X146204774Y-102198102D01*
X146165000Y-102398061D01*
X85997948Y-102398061D01*
X86035000Y-102211788D01*
X86035000Y-101988212D01*
X85991383Y-101768933D01*
X85905824Y-101562376D01*
X85781612Y-101376480D01*
X85623520Y-101218388D01*
X85437624Y-101094176D01*
X85403275Y-101079948D01*
X140916288Y-100948712D01*
X140982780Y-101109237D01*
X141096048Y-101278755D01*
X141240211Y-101422918D01*
X141409729Y-101536186D01*
X141598087Y-101614207D01*
X141798046Y-101653981D01*
X142001924Y-101653981D01*
X142201883Y-101614207D01*
X142390241Y-101536186D01*
X142559759Y-101422918D01*
X142703922Y-101278755D01*
X142817190Y-101109237D01*
X142885611Y-100944056D01*
X148957712Y-100929701D01*
X148982795Y-100990256D01*
X149096063Y-101159774D01*
X149240226Y-101303937D01*
X149409744Y-101417205D01*
X149598102Y-101495226D01*
X149798061Y-101535000D01*
X150001939Y-101535000D01*
X150201898Y-101495226D01*
X150390256Y-101417205D01*
X150559774Y-101303937D01*
X150703937Y-101159774D01*
X150817205Y-100990256D01*
X150844135Y-100925242D01*
X152375077Y-100921622D01*
X152382795Y-100940256D01*
X152496063Y-101109774D01*
X152640226Y-101253937D01*
X152809744Y-101367205D01*
X152998102Y-101445226D01*
X153198061Y-101485000D01*
X153401939Y-101485000D01*
X153601898Y-101445226D01*
X153790256Y-101367205D01*
X153959774Y-101253937D01*
X154103937Y-101109774D01*
X154217205Y-100940256D01*
X154226737Y-100917245D01*
X162739168Y-100897121D01*
X162696063Y-100940226D01*
X162582795Y-101109744D01*
X162504774Y-101298102D01*
X162465000Y-101498061D01*
X162465000Y-101701939D01*
X162504774Y-101901898D01*
X162582795Y-102090256D01*
X162696063Y-102259774D01*
X162840226Y-102403937D01*
X163009744Y-102517205D01*
X163198102Y-102595226D01*
X163398061Y-102635000D01*
X163601939Y-102635000D01*
X163748392Y-102605869D01*
X163740000Y-102648061D01*
X163740000Y-102851939D01*
X163779774Y-103051898D01*
X163857795Y-103240256D01*
X163971063Y-103409774D01*
X164115226Y-103553937D01*
X164284744Y-103667205D01*
X164473102Y-103745226D01*
X164673061Y-103785000D01*
X164876939Y-103785000D01*
X165076898Y-103745226D01*
X165265256Y-103667205D01*
X165434774Y-103553937D01*
X165578937Y-103409774D01*
X165692205Y-103240256D01*
X165770226Y-103051898D01*
X165810000Y-102851939D01*
X165810000Y-102773711D01*
X165940226Y-102903937D01*
X166109744Y-103017205D01*
X166298102Y-103095226D01*
X166498061Y-103135000D01*
X166701939Y-103135000D01*
X166901898Y-103095226D01*
X167090256Y-103017205D01*
X167259774Y-102903937D01*
X167403937Y-102759774D01*
X167517205Y-102590256D01*
X167595226Y-102401898D01*
X167635000Y-102201939D01*
X167635000Y-101998061D01*
X167595226Y-101798102D01*
X167517205Y-101609744D01*
X167403937Y-101440226D01*
X167259774Y-101296063D01*
X167090256Y-101182795D01*
X166901898Y-101104774D01*
X166701939Y-101065000D01*
X166498061Y-101065000D01*
X166298102Y-101104774D01*
X166135000Y-101172334D01*
X166135000Y-100973061D01*
X166118306Y-100889133D01*
X171197519Y-100877125D01*
X176910197Y-106589803D01*
X176929443Y-106605597D01*
X176951399Y-106617333D01*
X176975224Y-106624560D01*
X177000000Y-106627000D01*
X201750000Y-106627000D01*
X201774776Y-106624560D01*
X201798601Y-106617333D01*
X201820557Y-106605597D01*
X201839803Y-106589803D01*
X207302606Y-101127000D01*
X239000000Y-101127000D01*
X239024776Y-101124560D01*
X239048601Y-101117333D01*
X239070557Y-101105597D01*
X239089803Y-101089803D01*
X239105597Y-101070557D01*
X239117333Y-101048601D01*
X239124560Y-101024776D01*
X239127000Y-101000000D01*
X239127000Y-100135000D01*
X239311788Y-100135000D01*
X239531067Y-100091383D01*
X239737624Y-100005824D01*
X239923520Y-99881612D01*
X240081612Y-99723520D01*
X240205824Y-99537624D01*
X240291383Y-99331067D01*
X240335000Y-99111788D01*
X240335000Y-98888212D01*
X240291383Y-98668933D01*
X240205824Y-98462376D01*
X240081612Y-98276480D01*
X239923520Y-98118388D01*
X239737624Y-97994176D01*
X239531067Y-97908617D01*
X239311788Y-97865000D01*
X239127000Y-97865000D01*
X239127000Y-85627000D01*
X245531675Y-85627000D01*
X245648102Y-85675226D01*
X245848061Y-85715000D01*
X246051939Y-85715000D01*
X246251898Y-85675226D01*
X246368325Y-85627000D01*
X247287568Y-85627000D01*
X247378061Y-85645000D01*
X247581939Y-85645000D01*
X247672432Y-85627000D01*
X249340000Y-85627000D01*
X249340001Y-111340000D01*
X55660000Y-111340000D01*
X55660000Y-104498061D01*
X140865000Y-104498061D01*
X140865000Y-104701939D01*
X140904774Y-104901898D01*
X140982795Y-105090256D01*
X141096063Y-105259774D01*
X141240226Y-105403937D01*
X141409744Y-105517205D01*
X141598102Y-105595226D01*
X141798061Y-105635000D01*
X142001939Y-105635000D01*
X142201898Y-105595226D01*
X142390256Y-105517205D01*
X142559774Y-105403937D01*
X142703937Y-105259774D01*
X142817205Y-105090256D01*
X142895226Y-104901898D01*
X142935000Y-104701939D01*
X142935000Y-104498061D01*
X142915111Y-104398071D01*
X148865000Y-104398071D01*
X148865000Y-104601949D01*
X148904774Y-104801908D01*
X148982795Y-104990266D01*
X149096063Y-105159784D01*
X149240226Y-105303947D01*
X149409744Y-105417215D01*
X149598102Y-105495236D01*
X149798061Y-105535010D01*
X150001939Y-105535010D01*
X150201898Y-105495236D01*
X150390256Y-105417215D01*
X150559774Y-105303947D01*
X150703937Y-105159784D01*
X150817205Y-104990266D01*
X150895226Y-104801908D01*
X150935000Y-104601949D01*
X150935000Y-104398071D01*
X150895226Y-104198112D01*
X150817205Y-104009754D01*
X150703937Y-103840236D01*
X150559774Y-103696073D01*
X150390256Y-103582805D01*
X150201898Y-103504784D01*
X150001939Y-103465010D01*
X149798061Y-103465010D01*
X149598102Y-103504784D01*
X149409744Y-103582805D01*
X149240226Y-103696073D01*
X149096063Y-103840236D01*
X148982795Y-104009754D01*
X148904774Y-104198112D01*
X148865000Y-104398071D01*
X142915111Y-104398071D01*
X142895226Y-104298102D01*
X142817205Y-104109744D01*
X142703937Y-103940226D01*
X142559774Y-103796063D01*
X142390256Y-103682795D01*
X142201898Y-103604774D01*
X142001939Y-103565000D01*
X141798061Y-103565000D01*
X141598102Y-103604774D01*
X141409744Y-103682795D01*
X141240226Y-103796063D01*
X141096063Y-103940226D01*
X140982795Y-104109744D01*
X140904774Y-104298102D01*
X140865000Y-104498061D01*
X55660000Y-104498061D01*
X55660000Y-84740475D01*
X55865000Y-84740475D01*
X55865000Y-85259525D01*
X55966261Y-85768601D01*
X56164893Y-86248141D01*
X56453262Y-86679715D01*
X56820285Y-87046738D01*
X57251859Y-87335107D01*
X57731399Y-87533739D01*
X58240475Y-87635000D01*
X58759525Y-87635000D01*
X59268601Y-87533739D01*
X59748141Y-87335107D01*
X60179715Y-87046738D01*
X60546738Y-86679715D01*
X60835107Y-86248141D01*
X61033739Y-85768601D01*
X61135000Y-85259525D01*
X61135000Y-84740475D01*
X61033739Y-84231399D01*
X60835107Y-83751859D01*
X60546738Y-83320285D01*
X60179715Y-82953262D01*
X59748141Y-82664893D01*
X59268601Y-82466261D01*
X58759525Y-82365000D01*
X58240475Y-82365000D01*
X57731399Y-82466261D01*
X57251859Y-82664893D01*
X56820285Y-82953262D01*
X56453262Y-83320285D01*
X56164893Y-83751859D01*
X55966261Y-84231399D01*
X55865000Y-84740475D01*
X55660000Y-84740475D01*
X55660000Y-81627000D01*
X65373000Y-81627000D01*
X65373000Y-101000000D01*
G04 #@! TA.AperFunction,Conductor*
D19*
G36*
X65373000Y-101000000D02*
G01*
X65375440Y-101024776D01*
X65382667Y-101048601D01*
X65394403Y-101070557D01*
X65410197Y-101089803D01*
X65429443Y-101105597D01*
X65451399Y-101117333D01*
X65475224Y-101124560D01*
X65500300Y-101127000D01*
X66269623Y-101125181D01*
X66304774Y-101301898D01*
X66382795Y-101490256D01*
X66496063Y-101659774D01*
X66640226Y-101803937D01*
X66809744Y-101917205D01*
X66998102Y-101995226D01*
X67198061Y-102035000D01*
X67401939Y-102035000D01*
X67601898Y-101995226D01*
X67790256Y-101917205D01*
X67959774Y-101803937D01*
X68100000Y-101663711D01*
X68240226Y-101803937D01*
X68409744Y-101917205D01*
X68598102Y-101995226D01*
X68798061Y-102035000D01*
X69001939Y-102035000D01*
X69201898Y-101995226D01*
X69390256Y-101917205D01*
X69559774Y-101803937D01*
X69703937Y-101659774D01*
X69764301Y-101569433D01*
X69826480Y-101631612D01*
X70012376Y-101755824D01*
X70218933Y-101841383D01*
X70438212Y-101885000D01*
X70661788Y-101885000D01*
X70881067Y-101841383D01*
X71087624Y-101755824D01*
X71273520Y-101631612D01*
X71275000Y-101630132D01*
X71276480Y-101631612D01*
X71462376Y-101755824D01*
X71668933Y-101841383D01*
X71888212Y-101885000D01*
X72111788Y-101885000D01*
X72331067Y-101841383D01*
X72537624Y-101755824D01*
X72723520Y-101631612D01*
X72750000Y-101605132D01*
X72776480Y-101631612D01*
X72962376Y-101755824D01*
X73168933Y-101841383D01*
X73388212Y-101885000D01*
X73611788Y-101885000D01*
X73831067Y-101841383D01*
X74037624Y-101755824D01*
X74223520Y-101631612D01*
X74381612Y-101473520D01*
X74505824Y-101287624D01*
X74581249Y-101105532D01*
X80870857Y-101090663D01*
X80862376Y-101094176D01*
X80676480Y-101218388D01*
X80518388Y-101376480D01*
X80394176Y-101562376D01*
X80308617Y-101768933D01*
X80265000Y-101988212D01*
X80265000Y-102211788D01*
X80308617Y-102431067D01*
X80394176Y-102637624D01*
X80518388Y-102823520D01*
X80676480Y-102981612D01*
X80862376Y-103105824D01*
X81068933Y-103191383D01*
X81288212Y-103235000D01*
X81511788Y-103235000D01*
X81731067Y-103191383D01*
X81937624Y-103105824D01*
X82123520Y-102981612D01*
X82281612Y-102823520D01*
X82405824Y-102637624D01*
X82491383Y-102431067D01*
X82535000Y-102211788D01*
X82535000Y-101988212D01*
X82491383Y-101768933D01*
X82405824Y-101562376D01*
X82281612Y-101376480D01*
X82123520Y-101218388D01*
X81937624Y-101094176D01*
X81923137Y-101088175D01*
X84390947Y-101082341D01*
X84362376Y-101094176D01*
X84176480Y-101218388D01*
X84018388Y-101376480D01*
X83894176Y-101562376D01*
X83808617Y-101768933D01*
X83765000Y-101988212D01*
X83765000Y-102211788D01*
X83808617Y-102431067D01*
X83894176Y-102637624D01*
X84018388Y-102823520D01*
X84176480Y-102981612D01*
X84362376Y-103105824D01*
X84568933Y-103191383D01*
X84788212Y-103235000D01*
X85011788Y-103235000D01*
X85231067Y-103191383D01*
X85437624Y-103105824D01*
X85623520Y-102981612D01*
X85781612Y-102823520D01*
X85905824Y-102637624D01*
X85991383Y-102431067D01*
X85997948Y-102398061D01*
X146165000Y-102398061D01*
X146165000Y-102601939D01*
X146204774Y-102801898D01*
X146282795Y-102990256D01*
X146396063Y-103159774D01*
X146540226Y-103303937D01*
X146709744Y-103417205D01*
X146898102Y-103495226D01*
X147098061Y-103535000D01*
X147301939Y-103535000D01*
X147501898Y-103495226D01*
X147690256Y-103417205D01*
X147859774Y-103303937D01*
X148003937Y-103159774D01*
X148117205Y-102990256D01*
X148195226Y-102801898D01*
X148235000Y-102601939D01*
X148235000Y-102398061D01*
X148195226Y-102198102D01*
X148117205Y-102009744D01*
X148003937Y-101840226D01*
X147859774Y-101696063D01*
X147690256Y-101582795D01*
X147501898Y-101504774D01*
X147301939Y-101465000D01*
X147098061Y-101465000D01*
X146898102Y-101504774D01*
X146709744Y-101582795D01*
X146540226Y-101696063D01*
X146396063Y-101840226D01*
X146282795Y-102009744D01*
X146204774Y-102198102D01*
X146165000Y-102398061D01*
X85997948Y-102398061D01*
X86035000Y-102211788D01*
X86035000Y-101988212D01*
X85991383Y-101768933D01*
X85905824Y-101562376D01*
X85781612Y-101376480D01*
X85623520Y-101218388D01*
X85437624Y-101094176D01*
X85403275Y-101079948D01*
X140916288Y-100948712D01*
X140982780Y-101109237D01*
X141096048Y-101278755D01*
X141240211Y-101422918D01*
X141409729Y-101536186D01*
X141598087Y-101614207D01*
X141798046Y-101653981D01*
X142001924Y-101653981D01*
X142201883Y-101614207D01*
X142390241Y-101536186D01*
X142559759Y-101422918D01*
X142703922Y-101278755D01*
X142817190Y-101109237D01*
X142885611Y-100944056D01*
X148957712Y-100929701D01*
X148982795Y-100990256D01*
X149096063Y-101159774D01*
X149240226Y-101303937D01*
X149409744Y-101417205D01*
X149598102Y-101495226D01*
X149798061Y-101535000D01*
X150001939Y-101535000D01*
X150201898Y-101495226D01*
X150390256Y-101417205D01*
X150559774Y-101303937D01*
X150703937Y-101159774D01*
X150817205Y-100990256D01*
X150844135Y-100925242D01*
X152375077Y-100921622D01*
X152382795Y-100940256D01*
X152496063Y-101109774D01*
X152640226Y-101253937D01*
X152809744Y-101367205D01*
X152998102Y-101445226D01*
X153198061Y-101485000D01*
X153401939Y-101485000D01*
X153601898Y-101445226D01*
X153790256Y-101367205D01*
X153959774Y-101253937D01*
X154103937Y-101109774D01*
X154217205Y-100940256D01*
X154226737Y-100917245D01*
X162739168Y-100897121D01*
X162696063Y-100940226D01*
X162582795Y-101109744D01*
X162504774Y-101298102D01*
X162465000Y-101498061D01*
X162465000Y-101701939D01*
X162504774Y-101901898D01*
X162582795Y-102090256D01*
X162696063Y-102259774D01*
X162840226Y-102403937D01*
X163009744Y-102517205D01*
X163198102Y-102595226D01*
X163398061Y-102635000D01*
X163601939Y-102635000D01*
X163748392Y-102605869D01*
X163740000Y-102648061D01*
X163740000Y-102851939D01*
X163779774Y-103051898D01*
X163857795Y-103240256D01*
X163971063Y-103409774D01*
X164115226Y-103553937D01*
X164284744Y-103667205D01*
X164473102Y-103745226D01*
X164673061Y-103785000D01*
X164876939Y-103785000D01*
X165076898Y-103745226D01*
X165265256Y-103667205D01*
X165434774Y-103553937D01*
X165578937Y-103409774D01*
X165692205Y-103240256D01*
X165770226Y-103051898D01*
X165810000Y-102851939D01*
X165810000Y-102773711D01*
X165940226Y-102903937D01*
X166109744Y-103017205D01*
X166298102Y-103095226D01*
X166498061Y-103135000D01*
X166701939Y-103135000D01*
X166901898Y-103095226D01*
X167090256Y-103017205D01*
X167259774Y-102903937D01*
X167403937Y-102759774D01*
X167517205Y-102590256D01*
X167595226Y-102401898D01*
X167635000Y-102201939D01*
X167635000Y-101998061D01*
X167595226Y-101798102D01*
X167517205Y-101609744D01*
X167403937Y-101440226D01*
X167259774Y-101296063D01*
X167090256Y-101182795D01*
X166901898Y-101104774D01*
X166701939Y-101065000D01*
X166498061Y-101065000D01*
X166298102Y-101104774D01*
X166135000Y-101172334D01*
X166135000Y-100973061D01*
X166118306Y-100889133D01*
X171197519Y-100877125D01*
X176910197Y-106589803D01*
X176929443Y-106605597D01*
X176951399Y-106617333D01*
X176975224Y-106624560D01*
X177000000Y-106627000D01*
X201750000Y-106627000D01*
X201774776Y-106624560D01*
X201798601Y-106617333D01*
X201820557Y-106605597D01*
X201839803Y-106589803D01*
X207302606Y-101127000D01*
X239000000Y-101127000D01*
X239024776Y-101124560D01*
X239048601Y-101117333D01*
X239070557Y-101105597D01*
X239089803Y-101089803D01*
X239105597Y-101070557D01*
X239117333Y-101048601D01*
X239124560Y-101024776D01*
X239127000Y-101000000D01*
X239127000Y-100135000D01*
X239311788Y-100135000D01*
X239531067Y-100091383D01*
X239737624Y-100005824D01*
X239923520Y-99881612D01*
X240081612Y-99723520D01*
X240205824Y-99537624D01*
X240291383Y-99331067D01*
X240335000Y-99111788D01*
X240335000Y-98888212D01*
X240291383Y-98668933D01*
X240205824Y-98462376D01*
X240081612Y-98276480D01*
X239923520Y-98118388D01*
X239737624Y-97994176D01*
X239531067Y-97908617D01*
X239311788Y-97865000D01*
X239127000Y-97865000D01*
X239127000Y-85627000D01*
X245531675Y-85627000D01*
X245648102Y-85675226D01*
X245848061Y-85715000D01*
X246051939Y-85715000D01*
X246251898Y-85675226D01*
X246368325Y-85627000D01*
X247287568Y-85627000D01*
X247378061Y-85645000D01*
X247581939Y-85645000D01*
X247672432Y-85627000D01*
X249340000Y-85627000D01*
X249340001Y-111340000D01*
X55660000Y-111340000D01*
X55660000Y-104498061D01*
X140865000Y-104498061D01*
X140865000Y-104701939D01*
X140904774Y-104901898D01*
X140982795Y-105090256D01*
X141096063Y-105259774D01*
X141240226Y-105403937D01*
X141409744Y-105517205D01*
X141598102Y-105595226D01*
X141798061Y-105635000D01*
X142001939Y-105635000D01*
X142201898Y-105595226D01*
X142390256Y-105517205D01*
X142559774Y-105403937D01*
X142703937Y-105259774D01*
X142817205Y-105090256D01*
X142895226Y-104901898D01*
X142935000Y-104701939D01*
X142935000Y-104498061D01*
X142915111Y-104398071D01*
X148865000Y-104398071D01*
X148865000Y-104601949D01*
X148904774Y-104801908D01*
X148982795Y-104990266D01*
X149096063Y-105159784D01*
X149240226Y-105303947D01*
X149409744Y-105417215D01*
X149598102Y-105495236D01*
X149798061Y-105535010D01*
X150001939Y-105535010D01*
X150201898Y-105495236D01*
X150390256Y-105417215D01*
X150559774Y-105303947D01*
X150703937Y-105159784D01*
X150817205Y-104990266D01*
X150895226Y-104801908D01*
X150935000Y-104601949D01*
X150935000Y-104398071D01*
X150895226Y-104198112D01*
X150817205Y-104009754D01*
X150703937Y-103840236D01*
X150559774Y-103696073D01*
X150390256Y-103582805D01*
X150201898Y-103504784D01*
X150001939Y-103465010D01*
X149798061Y-103465010D01*
X149598102Y-103504784D01*
X149409744Y-103582805D01*
X149240226Y-103696073D01*
X149096063Y-103840236D01*
X148982795Y-104009754D01*
X148904774Y-104198112D01*
X148865000Y-104398071D01*
X142915111Y-104398071D01*
X142895226Y-104298102D01*
X142817205Y-104109744D01*
X142703937Y-103940226D01*
X142559774Y-103796063D01*
X142390256Y-103682795D01*
X142201898Y-103604774D01*
X142001939Y-103565000D01*
X141798061Y-103565000D01*
X141598102Y-103604774D01*
X141409744Y-103682795D01*
X141240226Y-103796063D01*
X141096063Y-103940226D01*
X140982795Y-104109744D01*
X140904774Y-104298102D01*
X140865000Y-104498061D01*
X55660000Y-104498061D01*
X55660000Y-84740475D01*
X55865000Y-84740475D01*
X55865000Y-85259525D01*
X55966261Y-85768601D01*
X56164893Y-86248141D01*
X56453262Y-86679715D01*
X56820285Y-87046738D01*
X57251859Y-87335107D01*
X57731399Y-87533739D01*
X58240475Y-87635000D01*
X58759525Y-87635000D01*
X59268601Y-87533739D01*
X59748141Y-87335107D01*
X60179715Y-87046738D01*
X60546738Y-86679715D01*
X60835107Y-86248141D01*
X61033739Y-85768601D01*
X61135000Y-85259525D01*
X61135000Y-84740475D01*
X61033739Y-84231399D01*
X60835107Y-83751859D01*
X60546738Y-83320285D01*
X60179715Y-82953262D01*
X59748141Y-82664893D01*
X59268601Y-82466261D01*
X58759525Y-82365000D01*
X58240475Y-82365000D01*
X57731399Y-82466261D01*
X57251859Y-82664893D01*
X56820285Y-82953262D01*
X56453262Y-83320285D01*
X56164893Y-83751859D01*
X55966261Y-84231399D01*
X55865000Y-84740475D01*
X55660000Y-84740475D01*
X55660000Y-81627000D01*
X65373000Y-81627000D01*
X65373000Y-101000000D01*
G37*
G04 #@! TD.AperFunction*
G04 #@! TD*
M02*
