G04 #@! TF.GenerationSoftware,KiCad,Pcbnew,(5.1.9)-1*
G04 #@! TF.CreationDate,2021-08-18T12:48:30-04:00*
G04 #@! TF.ProjectId,si-mips-main-board,73692d6d-6970-4732-9d6d-61696e2d626f,rev?*
G04 #@! TF.SameCoordinates,Original*
G04 #@! TF.FileFunction,Soldermask,Top*
G04 #@! TF.FilePolarity,Negative*
%FSLAX46Y46*%
G04 Gerber Fmt 4.6, Leading zero omitted, Abs format (unit mm)*
G04 Created by KiCad (PCBNEW (5.1.9)-1) date 2021-08-18 12:48:30*
%MOMM*%
%LPD*%
G01*
G04 APERTURE LIST*
%ADD10R,3.700000X3.700000*%
%ADD11R,1.000000X0.700000*%
%ADD12R,0.600000X0.700000*%
%ADD13R,0.300000X0.800000*%
%ADD14C,4.000000*%
%ADD15R,0.800000X0.900000*%
%ADD16R,1.100000X1.800000*%
%ADD17C,0.800000*%
%ADD18C,7.000000*%
%ADD19R,1.400000X1.200000*%
%ADD20R,0.550000X1.500000*%
%ADD21R,1.500000X0.550000*%
%ADD22O,1.700000X1.700000*%
%ADD23R,1.700000X1.700000*%
G04 APERTURE END LIST*
G04 #@! TO.C,U6*
G36*
G01*
X202822500Y-94300000D02*
X202697500Y-94300000D01*
G75*
G02*
X202635000Y-94237500I0J62500D01*
G01*
X202635000Y-93537500D01*
G75*
G02*
X202697500Y-93475000I62500J0D01*
G01*
X202822500Y-93475000D01*
G75*
G02*
X202885000Y-93537500I0J-62500D01*
G01*
X202885000Y-94237500D01*
G75*
G02*
X202822500Y-94300000I-62500J0D01*
G01*
G37*
G36*
G01*
X203322500Y-94300000D02*
X203197500Y-94300000D01*
G75*
G02*
X203135000Y-94237500I0J62500D01*
G01*
X203135000Y-93537500D01*
G75*
G02*
X203197500Y-93475000I62500J0D01*
G01*
X203322500Y-93475000D01*
G75*
G02*
X203385000Y-93537500I0J-62500D01*
G01*
X203385000Y-94237500D01*
G75*
G02*
X203322500Y-94300000I-62500J0D01*
G01*
G37*
G36*
G01*
X203822500Y-94300000D02*
X203697500Y-94300000D01*
G75*
G02*
X203635000Y-94237500I0J62500D01*
G01*
X203635000Y-93537500D01*
G75*
G02*
X203697500Y-93475000I62500J0D01*
G01*
X203822500Y-93475000D01*
G75*
G02*
X203885000Y-93537500I0J-62500D01*
G01*
X203885000Y-94237500D01*
G75*
G02*
X203822500Y-94300000I-62500J0D01*
G01*
G37*
G36*
G01*
X204322500Y-94300000D02*
X204197500Y-94300000D01*
G75*
G02*
X204135000Y-94237500I0J62500D01*
G01*
X204135000Y-93537500D01*
G75*
G02*
X204197500Y-93475000I62500J0D01*
G01*
X204322500Y-93475000D01*
G75*
G02*
X204385000Y-93537500I0J-62500D01*
G01*
X204385000Y-94237500D01*
G75*
G02*
X204322500Y-94300000I-62500J0D01*
G01*
G37*
G36*
G01*
X204822500Y-94300000D02*
X204697500Y-94300000D01*
G75*
G02*
X204635000Y-94237500I0J62500D01*
G01*
X204635000Y-93537500D01*
G75*
G02*
X204697500Y-93475000I62500J0D01*
G01*
X204822500Y-93475000D01*
G75*
G02*
X204885000Y-93537500I0J-62500D01*
G01*
X204885000Y-94237500D01*
G75*
G02*
X204822500Y-94300000I-62500J0D01*
G01*
G37*
G36*
G01*
X205322500Y-94300000D02*
X205197500Y-94300000D01*
G75*
G02*
X205135000Y-94237500I0J62500D01*
G01*
X205135000Y-93537500D01*
G75*
G02*
X205197500Y-93475000I62500J0D01*
G01*
X205322500Y-93475000D01*
G75*
G02*
X205385000Y-93537500I0J-62500D01*
G01*
X205385000Y-94237500D01*
G75*
G02*
X205322500Y-94300000I-62500J0D01*
G01*
G37*
G36*
G01*
X205822500Y-94300000D02*
X205697500Y-94300000D01*
G75*
G02*
X205635000Y-94237500I0J62500D01*
G01*
X205635000Y-93537500D01*
G75*
G02*
X205697500Y-93475000I62500J0D01*
G01*
X205822500Y-93475000D01*
G75*
G02*
X205885000Y-93537500I0J-62500D01*
G01*
X205885000Y-94237500D01*
G75*
G02*
X205822500Y-94300000I-62500J0D01*
G01*
G37*
G36*
G01*
X206322500Y-94300000D02*
X206197500Y-94300000D01*
G75*
G02*
X206135000Y-94237500I0J62500D01*
G01*
X206135000Y-93537500D01*
G75*
G02*
X206197500Y-93475000I62500J0D01*
G01*
X206322500Y-93475000D01*
G75*
G02*
X206385000Y-93537500I0J-62500D01*
G01*
X206385000Y-94237500D01*
G75*
G02*
X206322500Y-94300000I-62500J0D01*
G01*
G37*
G36*
G01*
X206822500Y-94300000D02*
X206697500Y-94300000D01*
G75*
G02*
X206635000Y-94237500I0J62500D01*
G01*
X206635000Y-93537500D01*
G75*
G02*
X206697500Y-93475000I62500J0D01*
G01*
X206822500Y-93475000D01*
G75*
G02*
X206885000Y-93537500I0J-62500D01*
G01*
X206885000Y-94237500D01*
G75*
G02*
X206822500Y-94300000I-62500J0D01*
G01*
G37*
G36*
G01*
X208047500Y-93075000D02*
X207347500Y-93075000D01*
G75*
G02*
X207285000Y-93012500I0J62500D01*
G01*
X207285000Y-92887500D01*
G75*
G02*
X207347500Y-92825000I62500J0D01*
G01*
X208047500Y-92825000D01*
G75*
G02*
X208110000Y-92887500I0J-62500D01*
G01*
X208110000Y-93012500D01*
G75*
G02*
X208047500Y-93075000I-62500J0D01*
G01*
G37*
G36*
G01*
X208047500Y-92575000D02*
X207347500Y-92575000D01*
G75*
G02*
X207285000Y-92512500I0J62500D01*
G01*
X207285000Y-92387500D01*
G75*
G02*
X207347500Y-92325000I62500J0D01*
G01*
X208047500Y-92325000D01*
G75*
G02*
X208110000Y-92387500I0J-62500D01*
G01*
X208110000Y-92512500D01*
G75*
G02*
X208047500Y-92575000I-62500J0D01*
G01*
G37*
G36*
G01*
X208047500Y-92075000D02*
X207347500Y-92075000D01*
G75*
G02*
X207285000Y-92012500I0J62500D01*
G01*
X207285000Y-91887500D01*
G75*
G02*
X207347500Y-91825000I62500J0D01*
G01*
X208047500Y-91825000D01*
G75*
G02*
X208110000Y-91887500I0J-62500D01*
G01*
X208110000Y-92012500D01*
G75*
G02*
X208047500Y-92075000I-62500J0D01*
G01*
G37*
G36*
G01*
X208047500Y-91575000D02*
X207347500Y-91575000D01*
G75*
G02*
X207285000Y-91512500I0J62500D01*
G01*
X207285000Y-91387500D01*
G75*
G02*
X207347500Y-91325000I62500J0D01*
G01*
X208047500Y-91325000D01*
G75*
G02*
X208110000Y-91387500I0J-62500D01*
G01*
X208110000Y-91512500D01*
G75*
G02*
X208047500Y-91575000I-62500J0D01*
G01*
G37*
G36*
G01*
X208047500Y-91075000D02*
X207347500Y-91075000D01*
G75*
G02*
X207285000Y-91012500I0J62500D01*
G01*
X207285000Y-90887500D01*
G75*
G02*
X207347500Y-90825000I62500J0D01*
G01*
X208047500Y-90825000D01*
G75*
G02*
X208110000Y-90887500I0J-62500D01*
G01*
X208110000Y-91012500D01*
G75*
G02*
X208047500Y-91075000I-62500J0D01*
G01*
G37*
G36*
G01*
X208047500Y-90575000D02*
X207347500Y-90575000D01*
G75*
G02*
X207285000Y-90512500I0J62500D01*
G01*
X207285000Y-90387500D01*
G75*
G02*
X207347500Y-90325000I62500J0D01*
G01*
X208047500Y-90325000D01*
G75*
G02*
X208110000Y-90387500I0J-62500D01*
G01*
X208110000Y-90512500D01*
G75*
G02*
X208047500Y-90575000I-62500J0D01*
G01*
G37*
G36*
G01*
X208047500Y-90075000D02*
X207347500Y-90075000D01*
G75*
G02*
X207285000Y-90012500I0J62500D01*
G01*
X207285000Y-89887500D01*
G75*
G02*
X207347500Y-89825000I62500J0D01*
G01*
X208047500Y-89825000D01*
G75*
G02*
X208110000Y-89887500I0J-62500D01*
G01*
X208110000Y-90012500D01*
G75*
G02*
X208047500Y-90075000I-62500J0D01*
G01*
G37*
G36*
G01*
X208047500Y-89575000D02*
X207347500Y-89575000D01*
G75*
G02*
X207285000Y-89512500I0J62500D01*
G01*
X207285000Y-89387500D01*
G75*
G02*
X207347500Y-89325000I62500J0D01*
G01*
X208047500Y-89325000D01*
G75*
G02*
X208110000Y-89387500I0J-62500D01*
G01*
X208110000Y-89512500D01*
G75*
G02*
X208047500Y-89575000I-62500J0D01*
G01*
G37*
G36*
G01*
X208047500Y-89075000D02*
X207347500Y-89075000D01*
G75*
G02*
X207285000Y-89012500I0J62500D01*
G01*
X207285000Y-88887500D01*
G75*
G02*
X207347500Y-88825000I62500J0D01*
G01*
X208047500Y-88825000D01*
G75*
G02*
X208110000Y-88887500I0J-62500D01*
G01*
X208110000Y-89012500D01*
G75*
G02*
X208047500Y-89075000I-62500J0D01*
G01*
G37*
G36*
G01*
X206822500Y-88425000D02*
X206697500Y-88425000D01*
G75*
G02*
X206635000Y-88362500I0J62500D01*
G01*
X206635000Y-87662500D01*
G75*
G02*
X206697500Y-87600000I62500J0D01*
G01*
X206822500Y-87600000D01*
G75*
G02*
X206885000Y-87662500I0J-62500D01*
G01*
X206885000Y-88362500D01*
G75*
G02*
X206822500Y-88425000I-62500J0D01*
G01*
G37*
G36*
G01*
X206322500Y-88425000D02*
X206197500Y-88425000D01*
G75*
G02*
X206135000Y-88362500I0J62500D01*
G01*
X206135000Y-87662500D01*
G75*
G02*
X206197500Y-87600000I62500J0D01*
G01*
X206322500Y-87600000D01*
G75*
G02*
X206385000Y-87662500I0J-62500D01*
G01*
X206385000Y-88362500D01*
G75*
G02*
X206322500Y-88425000I-62500J0D01*
G01*
G37*
G36*
G01*
X205822500Y-88425000D02*
X205697500Y-88425000D01*
G75*
G02*
X205635000Y-88362500I0J62500D01*
G01*
X205635000Y-87662500D01*
G75*
G02*
X205697500Y-87600000I62500J0D01*
G01*
X205822500Y-87600000D01*
G75*
G02*
X205885000Y-87662500I0J-62500D01*
G01*
X205885000Y-88362500D01*
G75*
G02*
X205822500Y-88425000I-62500J0D01*
G01*
G37*
G36*
G01*
X205322500Y-88425000D02*
X205197500Y-88425000D01*
G75*
G02*
X205135000Y-88362500I0J62500D01*
G01*
X205135000Y-87662500D01*
G75*
G02*
X205197500Y-87600000I62500J0D01*
G01*
X205322500Y-87600000D01*
G75*
G02*
X205385000Y-87662500I0J-62500D01*
G01*
X205385000Y-88362500D01*
G75*
G02*
X205322500Y-88425000I-62500J0D01*
G01*
G37*
G36*
G01*
X204822500Y-88425000D02*
X204697500Y-88425000D01*
G75*
G02*
X204635000Y-88362500I0J62500D01*
G01*
X204635000Y-87662500D01*
G75*
G02*
X204697500Y-87600000I62500J0D01*
G01*
X204822500Y-87600000D01*
G75*
G02*
X204885000Y-87662500I0J-62500D01*
G01*
X204885000Y-88362500D01*
G75*
G02*
X204822500Y-88425000I-62500J0D01*
G01*
G37*
G36*
G01*
X204322500Y-88425000D02*
X204197500Y-88425000D01*
G75*
G02*
X204135000Y-88362500I0J62500D01*
G01*
X204135000Y-87662500D01*
G75*
G02*
X204197500Y-87600000I62500J0D01*
G01*
X204322500Y-87600000D01*
G75*
G02*
X204385000Y-87662500I0J-62500D01*
G01*
X204385000Y-88362500D01*
G75*
G02*
X204322500Y-88425000I-62500J0D01*
G01*
G37*
G36*
G01*
X203822500Y-88425000D02*
X203697500Y-88425000D01*
G75*
G02*
X203635000Y-88362500I0J62500D01*
G01*
X203635000Y-87662500D01*
G75*
G02*
X203697500Y-87600000I62500J0D01*
G01*
X203822500Y-87600000D01*
G75*
G02*
X203885000Y-87662500I0J-62500D01*
G01*
X203885000Y-88362500D01*
G75*
G02*
X203822500Y-88425000I-62500J0D01*
G01*
G37*
G36*
G01*
X203322500Y-88425000D02*
X203197500Y-88425000D01*
G75*
G02*
X203135000Y-88362500I0J62500D01*
G01*
X203135000Y-87662500D01*
G75*
G02*
X203197500Y-87600000I62500J0D01*
G01*
X203322500Y-87600000D01*
G75*
G02*
X203385000Y-87662500I0J-62500D01*
G01*
X203385000Y-88362500D01*
G75*
G02*
X203322500Y-88425000I-62500J0D01*
G01*
G37*
G36*
G01*
X202822500Y-88425000D02*
X202697500Y-88425000D01*
G75*
G02*
X202635000Y-88362500I0J62500D01*
G01*
X202635000Y-87662500D01*
G75*
G02*
X202697500Y-87600000I62500J0D01*
G01*
X202822500Y-87600000D01*
G75*
G02*
X202885000Y-87662500I0J-62500D01*
G01*
X202885000Y-88362500D01*
G75*
G02*
X202822500Y-88425000I-62500J0D01*
G01*
G37*
G36*
G01*
X202172500Y-89075000D02*
X201472500Y-89075000D01*
G75*
G02*
X201410000Y-89012500I0J62500D01*
G01*
X201410000Y-88887500D01*
G75*
G02*
X201472500Y-88825000I62500J0D01*
G01*
X202172500Y-88825000D01*
G75*
G02*
X202235000Y-88887500I0J-62500D01*
G01*
X202235000Y-89012500D01*
G75*
G02*
X202172500Y-89075000I-62500J0D01*
G01*
G37*
G36*
G01*
X202172500Y-89575000D02*
X201472500Y-89575000D01*
G75*
G02*
X201410000Y-89512500I0J62500D01*
G01*
X201410000Y-89387500D01*
G75*
G02*
X201472500Y-89325000I62500J0D01*
G01*
X202172500Y-89325000D01*
G75*
G02*
X202235000Y-89387500I0J-62500D01*
G01*
X202235000Y-89512500D01*
G75*
G02*
X202172500Y-89575000I-62500J0D01*
G01*
G37*
G36*
G01*
X202172500Y-90075000D02*
X201472500Y-90075000D01*
G75*
G02*
X201410000Y-90012500I0J62500D01*
G01*
X201410000Y-89887500D01*
G75*
G02*
X201472500Y-89825000I62500J0D01*
G01*
X202172500Y-89825000D01*
G75*
G02*
X202235000Y-89887500I0J-62500D01*
G01*
X202235000Y-90012500D01*
G75*
G02*
X202172500Y-90075000I-62500J0D01*
G01*
G37*
G36*
G01*
X202172500Y-90575000D02*
X201472500Y-90575000D01*
G75*
G02*
X201410000Y-90512500I0J62500D01*
G01*
X201410000Y-90387500D01*
G75*
G02*
X201472500Y-90325000I62500J0D01*
G01*
X202172500Y-90325000D01*
G75*
G02*
X202235000Y-90387500I0J-62500D01*
G01*
X202235000Y-90512500D01*
G75*
G02*
X202172500Y-90575000I-62500J0D01*
G01*
G37*
G36*
G01*
X202172500Y-91075000D02*
X201472500Y-91075000D01*
G75*
G02*
X201410000Y-91012500I0J62500D01*
G01*
X201410000Y-90887500D01*
G75*
G02*
X201472500Y-90825000I62500J0D01*
G01*
X202172500Y-90825000D01*
G75*
G02*
X202235000Y-90887500I0J-62500D01*
G01*
X202235000Y-91012500D01*
G75*
G02*
X202172500Y-91075000I-62500J0D01*
G01*
G37*
G36*
G01*
X202172500Y-91575000D02*
X201472500Y-91575000D01*
G75*
G02*
X201410000Y-91512500I0J62500D01*
G01*
X201410000Y-91387500D01*
G75*
G02*
X201472500Y-91325000I62500J0D01*
G01*
X202172500Y-91325000D01*
G75*
G02*
X202235000Y-91387500I0J-62500D01*
G01*
X202235000Y-91512500D01*
G75*
G02*
X202172500Y-91575000I-62500J0D01*
G01*
G37*
G36*
G01*
X202172500Y-92075000D02*
X201472500Y-92075000D01*
G75*
G02*
X201410000Y-92012500I0J62500D01*
G01*
X201410000Y-91887500D01*
G75*
G02*
X201472500Y-91825000I62500J0D01*
G01*
X202172500Y-91825000D01*
G75*
G02*
X202235000Y-91887500I0J-62500D01*
G01*
X202235000Y-92012500D01*
G75*
G02*
X202172500Y-92075000I-62500J0D01*
G01*
G37*
G36*
G01*
X202172500Y-92575000D02*
X201472500Y-92575000D01*
G75*
G02*
X201410000Y-92512500I0J62500D01*
G01*
X201410000Y-92387500D01*
G75*
G02*
X201472500Y-92325000I62500J0D01*
G01*
X202172500Y-92325000D01*
G75*
G02*
X202235000Y-92387500I0J-62500D01*
G01*
X202235000Y-92512500D01*
G75*
G02*
X202172500Y-92575000I-62500J0D01*
G01*
G37*
G36*
G01*
X202172500Y-93075000D02*
X201472500Y-93075000D01*
G75*
G02*
X201410000Y-93012500I0J62500D01*
G01*
X201410000Y-92887500D01*
G75*
G02*
X201472500Y-92825000I62500J0D01*
G01*
X202172500Y-92825000D01*
G75*
G02*
X202235000Y-92887500I0J-62500D01*
G01*
X202235000Y-93012500D01*
G75*
G02*
X202172500Y-93075000I-62500J0D01*
G01*
G37*
D10*
X204760000Y-90950000D03*
G04 #@! TD*
D11*
G04 #@! TO.C,U5*
X69870000Y-96900000D03*
D12*
X68150000Y-96900000D03*
X68150000Y-99100000D03*
X70050000Y-99100000D03*
G04 #@! TD*
D11*
G04 #@! TO.C,U8*
X235630000Y-97100000D03*
D12*
X237350000Y-97100000D03*
X237350000Y-94900000D03*
X235450000Y-94900000D03*
G04 #@! TD*
G04 #@! TO.C,R12*
G36*
G01*
X155525000Y-100725000D02*
X155525000Y-100175000D01*
G75*
G02*
X155725000Y-99975000I200000J0D01*
G01*
X156125000Y-99975000D01*
G75*
G02*
X156325000Y-100175000I0J-200000D01*
G01*
X156325000Y-100725000D01*
G75*
G02*
X156125000Y-100925000I-200000J0D01*
G01*
X155725000Y-100925000D01*
G75*
G02*
X155525000Y-100725000I0J200000D01*
G01*
G37*
G36*
G01*
X153875000Y-100725000D02*
X153875000Y-100175000D01*
G75*
G02*
X154075000Y-99975000I200000J0D01*
G01*
X154475000Y-99975000D01*
G75*
G02*
X154675000Y-100175000I0J-200000D01*
G01*
X154675000Y-100725000D01*
G75*
G02*
X154475000Y-100925000I-200000J0D01*
G01*
X154075000Y-100925000D01*
G75*
G02*
X153875000Y-100725000I0J200000D01*
G01*
G37*
G04 #@! TD*
G04 #@! TO.C,D1*
G36*
G01*
X155450000Y-99156250D02*
X155450000Y-98643750D01*
G75*
G02*
X155668750Y-98425000I218750J0D01*
G01*
X156106250Y-98425000D01*
G75*
G02*
X156325000Y-98643750I0J-218750D01*
G01*
X156325000Y-99156250D01*
G75*
G02*
X156106250Y-99375000I-218750J0D01*
G01*
X155668750Y-99375000D01*
G75*
G02*
X155450000Y-99156250I0J218750D01*
G01*
G37*
G36*
G01*
X153875000Y-99156250D02*
X153875000Y-98643750D01*
G75*
G02*
X154093750Y-98425000I218750J0D01*
G01*
X154531250Y-98425000D01*
G75*
G02*
X154750000Y-98643750I0J-218750D01*
G01*
X154750000Y-99156250D01*
G75*
G02*
X154531250Y-99375000I-218750J0D01*
G01*
X154093750Y-99375000D01*
G75*
G02*
X153875000Y-99156250I0J218750D01*
G01*
G37*
G04 #@! TD*
G04 #@! TO.C,C24*
G36*
G01*
X231375000Y-84350000D02*
X233425000Y-84350000D01*
G75*
G02*
X233675000Y-84600000I0J-250000D01*
G01*
X233675000Y-86175000D01*
G75*
G02*
X233425000Y-86425000I-250000J0D01*
G01*
X231375000Y-86425000D01*
G75*
G02*
X231125000Y-86175000I0J250000D01*
G01*
X231125000Y-84600000D01*
G75*
G02*
X231375000Y-84350000I250000J0D01*
G01*
G37*
G36*
G01*
X231375000Y-90575000D02*
X233425000Y-90575000D01*
G75*
G02*
X233675000Y-90825000I0J-250000D01*
G01*
X233675000Y-92400000D01*
G75*
G02*
X233425000Y-92650000I-250000J0D01*
G01*
X231375000Y-92650000D01*
G75*
G02*
X231125000Y-92400000I0J250000D01*
G01*
X231125000Y-90825000D01*
G75*
G02*
X231375000Y-90575000I250000J0D01*
G01*
G37*
G04 #@! TD*
G04 #@! TO.C,C21*
G36*
G01*
X207300000Y-83375000D02*
X206800000Y-83375000D01*
G75*
G02*
X206575000Y-83150000I0J225000D01*
G01*
X206575000Y-82700000D01*
G75*
G02*
X206800000Y-82475000I225000J0D01*
G01*
X207300000Y-82475000D01*
G75*
G02*
X207525000Y-82700000I0J-225000D01*
G01*
X207525000Y-83150000D01*
G75*
G02*
X207300000Y-83375000I-225000J0D01*
G01*
G37*
G36*
G01*
X207300000Y-84925000D02*
X206800000Y-84925000D01*
G75*
G02*
X206575000Y-84700000I0J225000D01*
G01*
X206575000Y-84250000D01*
G75*
G02*
X206800000Y-84025000I225000J0D01*
G01*
X207300000Y-84025000D01*
G75*
G02*
X207525000Y-84250000I0J-225000D01*
G01*
X207525000Y-84700000D01*
G75*
G02*
X207300000Y-84925000I-225000J0D01*
G01*
G37*
G04 #@! TD*
G04 #@! TO.C,R11*
G36*
G01*
X204225000Y-83275000D02*
X203675000Y-83275000D01*
G75*
G02*
X203475000Y-83075000I0J200000D01*
G01*
X203475000Y-82675000D01*
G75*
G02*
X203675000Y-82475000I200000J0D01*
G01*
X204225000Y-82475000D01*
G75*
G02*
X204425000Y-82675000I0J-200000D01*
G01*
X204425000Y-83075000D01*
G75*
G02*
X204225000Y-83275000I-200000J0D01*
G01*
G37*
G36*
G01*
X204225000Y-84925000D02*
X203675000Y-84925000D01*
G75*
G02*
X203475000Y-84725000I0J200000D01*
G01*
X203475000Y-84325000D01*
G75*
G02*
X203675000Y-84125000I200000J0D01*
G01*
X204225000Y-84125000D01*
G75*
G02*
X204425000Y-84325000I0J-200000D01*
G01*
X204425000Y-84725000D01*
G75*
G02*
X204225000Y-84925000I-200000J0D01*
G01*
G37*
G04 #@! TD*
G04 #@! TO.C,R10*
G36*
G01*
X208325000Y-84125000D02*
X208875000Y-84125000D01*
G75*
G02*
X209075000Y-84325000I0J-200000D01*
G01*
X209075000Y-84725000D01*
G75*
G02*
X208875000Y-84925000I-200000J0D01*
G01*
X208325000Y-84925000D01*
G75*
G02*
X208125000Y-84725000I0J200000D01*
G01*
X208125000Y-84325000D01*
G75*
G02*
X208325000Y-84125000I200000J0D01*
G01*
G37*
G36*
G01*
X208325000Y-82475000D02*
X208875000Y-82475000D01*
G75*
G02*
X209075000Y-82675000I0J-200000D01*
G01*
X209075000Y-83075000D01*
G75*
G02*
X208875000Y-83275000I-200000J0D01*
G01*
X208325000Y-83275000D01*
G75*
G02*
X208125000Y-83075000I0J200000D01*
G01*
X208125000Y-82675000D01*
G75*
G02*
X208325000Y-82475000I200000J0D01*
G01*
G37*
G04 #@! TD*
G04 #@! TO.C,J6*
G36*
G01*
X158734999Y-90450000D02*
X160035001Y-90450000D01*
G75*
G02*
X160285000Y-90699999I0J-249999D01*
G01*
X160285000Y-91400001D01*
G75*
G02*
X160035001Y-91650000I-249999J0D01*
G01*
X158734999Y-91650000D01*
G75*
G02*
X158485000Y-91400001I0J249999D01*
G01*
X158485000Y-90699999D01*
G75*
G02*
X158734999Y-90450000I249999J0D01*
G01*
G37*
G36*
G01*
X158734999Y-82850000D02*
X160035001Y-82850000D01*
G75*
G02*
X160285000Y-83099999I0J-249999D01*
G01*
X160285000Y-83800001D01*
G75*
G02*
X160035001Y-84050000I-249999J0D01*
G01*
X158734999Y-84050000D01*
G75*
G02*
X158485000Y-83800001I0J249999D01*
G01*
X158485000Y-83099999D01*
G75*
G02*
X158734999Y-82850000I249999J0D01*
G01*
G37*
G36*
G01*
X162635000Y-89450000D02*
X163885000Y-89450000D01*
G75*
G02*
X164035000Y-89600000I0J-150000D01*
G01*
X164035000Y-89900000D01*
G75*
G02*
X163885000Y-90050000I-150000J0D01*
G01*
X162635000Y-90050000D01*
G75*
G02*
X162485000Y-89900000I0J150000D01*
G01*
X162485000Y-89600000D01*
G75*
G02*
X162635000Y-89450000I150000J0D01*
G01*
G37*
G36*
G01*
X162635000Y-88450000D02*
X163885000Y-88450000D01*
G75*
G02*
X164035000Y-88600000I0J-150000D01*
G01*
X164035000Y-88900000D01*
G75*
G02*
X163885000Y-89050000I-150000J0D01*
G01*
X162635000Y-89050000D01*
G75*
G02*
X162485000Y-88900000I0J150000D01*
G01*
X162485000Y-88600000D01*
G75*
G02*
X162635000Y-88450000I150000J0D01*
G01*
G37*
G36*
G01*
X162635000Y-87450000D02*
X163885000Y-87450000D01*
G75*
G02*
X164035000Y-87600000I0J-150000D01*
G01*
X164035000Y-87900000D01*
G75*
G02*
X163885000Y-88050000I-150000J0D01*
G01*
X162635000Y-88050000D01*
G75*
G02*
X162485000Y-87900000I0J150000D01*
G01*
X162485000Y-87600000D01*
G75*
G02*
X162635000Y-87450000I150000J0D01*
G01*
G37*
G36*
G01*
X162635000Y-86450000D02*
X163885000Y-86450000D01*
G75*
G02*
X164035000Y-86600000I0J-150000D01*
G01*
X164035000Y-86900000D01*
G75*
G02*
X163885000Y-87050000I-150000J0D01*
G01*
X162635000Y-87050000D01*
G75*
G02*
X162485000Y-86900000I0J150000D01*
G01*
X162485000Y-86600000D01*
G75*
G02*
X162635000Y-86450000I150000J0D01*
G01*
G37*
G36*
G01*
X162635000Y-85450000D02*
X163885000Y-85450000D01*
G75*
G02*
X164035000Y-85600000I0J-150000D01*
G01*
X164035000Y-85900000D01*
G75*
G02*
X163885000Y-86050000I-150000J0D01*
G01*
X162635000Y-86050000D01*
G75*
G02*
X162485000Y-85900000I0J150000D01*
G01*
X162485000Y-85600000D01*
G75*
G02*
X162635000Y-85450000I150000J0D01*
G01*
G37*
G36*
G01*
X162635000Y-84450000D02*
X163885000Y-84450000D01*
G75*
G02*
X164035000Y-84600000I0J-150000D01*
G01*
X164035000Y-84900000D01*
G75*
G02*
X163885000Y-85050000I-150000J0D01*
G01*
X162635000Y-85050000D01*
G75*
G02*
X162485000Y-84900000I0J150000D01*
G01*
X162485000Y-84600000D01*
G75*
G02*
X162635000Y-84450000I150000J0D01*
G01*
G37*
G04 #@! TD*
D13*
G04 #@! TO.C,U9*
X196510000Y-82240000D03*
X196010000Y-82240000D03*
X195510000Y-82240000D03*
X195010000Y-82240000D03*
X195010000Y-79140000D03*
X195510000Y-79140000D03*
X196010000Y-79140000D03*
X196510000Y-79140000D03*
G04 #@! TD*
D14*
G04 #@! TO.C,J5*
X58500000Y-85000000D03*
G04 #@! TD*
G04 #@! TO.C,R15*
G36*
G01*
X247745000Y-86305000D02*
X247195000Y-86305000D01*
G75*
G02*
X246995000Y-86105000I0J200000D01*
G01*
X246995000Y-85705000D01*
G75*
G02*
X247195000Y-85505000I200000J0D01*
G01*
X247745000Y-85505000D01*
G75*
G02*
X247945000Y-85705000I0J-200000D01*
G01*
X247945000Y-86105000D01*
G75*
G02*
X247745000Y-86305000I-200000J0D01*
G01*
G37*
G36*
G01*
X247745000Y-87955000D02*
X247195000Y-87955000D01*
G75*
G02*
X246995000Y-87755000I0J200000D01*
G01*
X246995000Y-87355000D01*
G75*
G02*
X247195000Y-87155000I200000J0D01*
G01*
X247745000Y-87155000D01*
G75*
G02*
X247945000Y-87355000I0J-200000D01*
G01*
X247945000Y-87755000D01*
G75*
G02*
X247745000Y-87955000I-200000J0D01*
G01*
G37*
G04 #@! TD*
G04 #@! TO.C,R14*
G36*
G01*
X65335000Y-83315000D02*
X65335000Y-83865000D01*
G75*
G02*
X65135000Y-84065000I-200000J0D01*
G01*
X64735000Y-84065000D01*
G75*
G02*
X64535000Y-83865000I0J200000D01*
G01*
X64535000Y-83315000D01*
G75*
G02*
X64735000Y-83115000I200000J0D01*
G01*
X65135000Y-83115000D01*
G75*
G02*
X65335000Y-83315000I0J-200000D01*
G01*
G37*
G36*
G01*
X66985000Y-83315000D02*
X66985000Y-83865000D01*
G75*
G02*
X66785000Y-84065000I-200000J0D01*
G01*
X66385000Y-84065000D01*
G75*
G02*
X66185000Y-83865000I0J200000D01*
G01*
X66185000Y-83315000D01*
G75*
G02*
X66385000Y-83115000I200000J0D01*
G01*
X66785000Y-83115000D01*
G75*
G02*
X66985000Y-83315000I0J-200000D01*
G01*
G37*
G04 #@! TD*
G04 #@! TO.C,C29*
G36*
G01*
X246200000Y-86405000D02*
X245700000Y-86405000D01*
G75*
G02*
X245475000Y-86180000I0J225000D01*
G01*
X245475000Y-85730000D01*
G75*
G02*
X245700000Y-85505000I225000J0D01*
G01*
X246200000Y-85505000D01*
G75*
G02*
X246425000Y-85730000I0J-225000D01*
G01*
X246425000Y-86180000D01*
G75*
G02*
X246200000Y-86405000I-225000J0D01*
G01*
G37*
G36*
G01*
X246200000Y-87955000D02*
X245700000Y-87955000D01*
G75*
G02*
X245475000Y-87730000I0J225000D01*
G01*
X245475000Y-87280000D01*
G75*
G02*
X245700000Y-87055000I225000J0D01*
G01*
X246200000Y-87055000D01*
G75*
G02*
X246425000Y-87280000I0J-225000D01*
G01*
X246425000Y-87730000D01*
G75*
G02*
X246200000Y-87955000I-225000J0D01*
G01*
G37*
G04 #@! TD*
G04 #@! TO.C,C28*
G36*
G01*
X65415000Y-86390000D02*
X65415000Y-86890000D01*
G75*
G02*
X65190000Y-87115000I-225000J0D01*
G01*
X64740000Y-87115000D01*
G75*
G02*
X64515000Y-86890000I0J225000D01*
G01*
X64515000Y-86390000D01*
G75*
G02*
X64740000Y-86165000I225000J0D01*
G01*
X65190000Y-86165000D01*
G75*
G02*
X65415000Y-86390000I0J-225000D01*
G01*
G37*
G36*
G01*
X66965000Y-86390000D02*
X66965000Y-86890000D01*
G75*
G02*
X66740000Y-87115000I-225000J0D01*
G01*
X66290000Y-87115000D01*
G75*
G02*
X66065000Y-86890000I0J225000D01*
G01*
X66065000Y-86390000D01*
G75*
G02*
X66290000Y-86165000I225000J0D01*
G01*
X66740000Y-86165000D01*
G75*
G02*
X66965000Y-86390000I0J-225000D01*
G01*
G37*
G04 #@! TD*
G04 #@! TO.C,R5*
G36*
G01*
X202115000Y-83175000D02*
X202665000Y-83175000D01*
G75*
G02*
X202865000Y-83375000I0J-200000D01*
G01*
X202865000Y-83775000D01*
G75*
G02*
X202665000Y-83975000I-200000J0D01*
G01*
X202115000Y-83975000D01*
G75*
G02*
X201915000Y-83775000I0J200000D01*
G01*
X201915000Y-83375000D01*
G75*
G02*
X202115000Y-83175000I200000J0D01*
G01*
G37*
G36*
G01*
X202115000Y-81525000D02*
X202665000Y-81525000D01*
G75*
G02*
X202865000Y-81725000I0J-200000D01*
G01*
X202865000Y-82125000D01*
G75*
G02*
X202665000Y-82325000I-200000J0D01*
G01*
X202115000Y-82325000D01*
G75*
G02*
X201915000Y-82125000I0J200000D01*
G01*
X201915000Y-81725000D01*
G75*
G02*
X202115000Y-81525000I200000J0D01*
G01*
G37*
G04 #@! TD*
G04 #@! TO.C,C22*
G36*
G01*
X211603000Y-91470000D02*
X211603000Y-90970000D01*
G75*
G02*
X211828000Y-90745000I225000J0D01*
G01*
X212278000Y-90745000D01*
G75*
G02*
X212503000Y-90970000I0J-225000D01*
G01*
X212503000Y-91470000D01*
G75*
G02*
X212278000Y-91695000I-225000J0D01*
G01*
X211828000Y-91695000D01*
G75*
G02*
X211603000Y-91470000I0J225000D01*
G01*
G37*
G36*
G01*
X210053000Y-91470000D02*
X210053000Y-90970000D01*
G75*
G02*
X210278000Y-90745000I225000J0D01*
G01*
X210728000Y-90745000D01*
G75*
G02*
X210953000Y-90970000I0J-225000D01*
G01*
X210953000Y-91470000D01*
G75*
G02*
X210728000Y-91695000I-225000J0D01*
G01*
X210278000Y-91695000D01*
G75*
G02*
X210053000Y-91470000I0J225000D01*
G01*
G37*
G04 #@! TD*
G04 #@! TO.C,R6*
G36*
G01*
X199565000Y-82325000D02*
X199015000Y-82325000D01*
G75*
G02*
X198815000Y-82125000I0J200000D01*
G01*
X198815000Y-81725000D01*
G75*
G02*
X199015000Y-81525000I200000J0D01*
G01*
X199565000Y-81525000D01*
G75*
G02*
X199765000Y-81725000I0J-200000D01*
G01*
X199765000Y-82125000D01*
G75*
G02*
X199565000Y-82325000I-200000J0D01*
G01*
G37*
G36*
G01*
X199565000Y-83975000D02*
X199015000Y-83975000D01*
G75*
G02*
X198815000Y-83775000I0J200000D01*
G01*
X198815000Y-83375000D01*
G75*
G02*
X199015000Y-83175000I200000J0D01*
G01*
X199565000Y-83175000D01*
G75*
G02*
X199765000Y-83375000I0J-200000D01*
G01*
X199765000Y-83775000D01*
G75*
G02*
X199565000Y-83975000I-200000J0D01*
G01*
G37*
G04 #@! TD*
G04 #@! TO.C,R9*
G36*
G01*
X205225000Y-84125000D02*
X205775000Y-84125000D01*
G75*
G02*
X205975000Y-84325000I0J-200000D01*
G01*
X205975000Y-84725000D01*
G75*
G02*
X205775000Y-84925000I-200000J0D01*
G01*
X205225000Y-84925000D01*
G75*
G02*
X205025000Y-84725000I0J200000D01*
G01*
X205025000Y-84325000D01*
G75*
G02*
X205225000Y-84125000I200000J0D01*
G01*
G37*
G36*
G01*
X205225000Y-82475000D02*
X205775000Y-82475000D01*
G75*
G02*
X205975000Y-82675000I0J-200000D01*
G01*
X205975000Y-83075000D01*
G75*
G02*
X205775000Y-83275000I-200000J0D01*
G01*
X205225000Y-83275000D01*
G75*
G02*
X205025000Y-83075000I0J200000D01*
G01*
X205025000Y-82675000D01*
G75*
G02*
X205225000Y-82475000I200000J0D01*
G01*
G37*
G04 #@! TD*
G04 #@! TO.C,C14*
G36*
G01*
X191460000Y-96125000D02*
X191960000Y-96125000D01*
G75*
G02*
X192185000Y-96350000I0J-225000D01*
G01*
X192185000Y-96800000D01*
G75*
G02*
X191960000Y-97025000I-225000J0D01*
G01*
X191460000Y-97025000D01*
G75*
G02*
X191235000Y-96800000I0J225000D01*
G01*
X191235000Y-96350000D01*
G75*
G02*
X191460000Y-96125000I225000J0D01*
G01*
G37*
G36*
G01*
X191460000Y-94575000D02*
X191960000Y-94575000D01*
G75*
G02*
X192185000Y-94800000I0J-225000D01*
G01*
X192185000Y-95250000D01*
G75*
G02*
X191960000Y-95475000I-225000J0D01*
G01*
X191460000Y-95475000D01*
G75*
G02*
X191235000Y-95250000I0J225000D01*
G01*
X191235000Y-94800000D01*
G75*
G02*
X191460000Y-94575000I225000J0D01*
G01*
G37*
G04 #@! TD*
G04 #@! TO.C,C15*
G36*
G01*
X196030000Y-97525000D02*
X196530000Y-97525000D01*
G75*
G02*
X196755000Y-97750000I0J-225000D01*
G01*
X196755000Y-98200000D01*
G75*
G02*
X196530000Y-98425000I-225000J0D01*
G01*
X196030000Y-98425000D01*
G75*
G02*
X195805000Y-98200000I0J225000D01*
G01*
X195805000Y-97750000D01*
G75*
G02*
X196030000Y-97525000I225000J0D01*
G01*
G37*
G36*
G01*
X196030000Y-95975000D02*
X196530000Y-95975000D01*
G75*
G02*
X196755000Y-96200000I0J-225000D01*
G01*
X196755000Y-96650000D01*
G75*
G02*
X196530000Y-96875000I-225000J0D01*
G01*
X196030000Y-96875000D01*
G75*
G02*
X195805000Y-96650000I0J225000D01*
G01*
X195805000Y-96200000D01*
G75*
G02*
X196030000Y-95975000I225000J0D01*
G01*
G37*
G04 #@! TD*
G04 #@! TO.C,C18*
G36*
G01*
X199880000Y-95395000D02*
X200380000Y-95395000D01*
G75*
G02*
X200605000Y-95620000I0J-225000D01*
G01*
X200605000Y-96070000D01*
G75*
G02*
X200380000Y-96295000I-225000J0D01*
G01*
X199880000Y-96295000D01*
G75*
G02*
X199655000Y-96070000I0J225000D01*
G01*
X199655000Y-95620000D01*
G75*
G02*
X199880000Y-95395000I225000J0D01*
G01*
G37*
G36*
G01*
X199880000Y-93845000D02*
X200380000Y-93845000D01*
G75*
G02*
X200605000Y-94070000I0J-225000D01*
G01*
X200605000Y-94520000D01*
G75*
G02*
X200380000Y-94745000I-225000J0D01*
G01*
X199880000Y-94745000D01*
G75*
G02*
X199655000Y-94520000I0J225000D01*
G01*
X199655000Y-94070000D01*
G75*
G02*
X199880000Y-93845000I225000J0D01*
G01*
G37*
G04 #@! TD*
G04 #@! TO.C,C20*
G36*
G01*
X211603000Y-93010000D02*
X211603000Y-92510000D01*
G75*
G02*
X211828000Y-92285000I225000J0D01*
G01*
X212278000Y-92285000D01*
G75*
G02*
X212503000Y-92510000I0J-225000D01*
G01*
X212503000Y-93010000D01*
G75*
G02*
X212278000Y-93235000I-225000J0D01*
G01*
X211828000Y-93235000D01*
G75*
G02*
X211603000Y-93010000I0J225000D01*
G01*
G37*
G36*
G01*
X210053000Y-93010000D02*
X210053000Y-92510000D01*
G75*
G02*
X210278000Y-92285000I225000J0D01*
G01*
X210728000Y-92285000D01*
G75*
G02*
X210953000Y-92510000I0J-225000D01*
G01*
X210953000Y-93010000D01*
G75*
G02*
X210728000Y-93235000I-225000J0D01*
G01*
X210278000Y-93235000D01*
G75*
G02*
X210053000Y-93010000I0J225000D01*
G01*
G37*
G04 #@! TD*
G04 #@! TO.C,C27*
G36*
G01*
X211623000Y-94560000D02*
X211623000Y-94060000D01*
G75*
G02*
X211848000Y-93835000I225000J0D01*
G01*
X212298000Y-93835000D01*
G75*
G02*
X212523000Y-94060000I0J-225000D01*
G01*
X212523000Y-94560000D01*
G75*
G02*
X212298000Y-94785000I-225000J0D01*
G01*
X211848000Y-94785000D01*
G75*
G02*
X211623000Y-94560000I0J225000D01*
G01*
G37*
G36*
G01*
X210073000Y-94560000D02*
X210073000Y-94060000D01*
G75*
G02*
X210298000Y-93835000I225000J0D01*
G01*
X210748000Y-93835000D01*
G75*
G02*
X210973000Y-94060000I0J-225000D01*
G01*
X210973000Y-94560000D01*
G75*
G02*
X210748000Y-94785000I-225000J0D01*
G01*
X210298000Y-94785000D01*
G75*
G02*
X210073000Y-94560000I0J225000D01*
G01*
G37*
G04 #@! TD*
G04 #@! TO.C,C19*
G36*
G01*
X199990000Y-86715000D02*
X199490000Y-86715000D01*
G75*
G02*
X199265000Y-86490000I0J225000D01*
G01*
X199265000Y-86040000D01*
G75*
G02*
X199490000Y-85815000I225000J0D01*
G01*
X199990000Y-85815000D01*
G75*
G02*
X200215000Y-86040000I0J-225000D01*
G01*
X200215000Y-86490000D01*
G75*
G02*
X199990000Y-86715000I-225000J0D01*
G01*
G37*
G36*
G01*
X199990000Y-88265000D02*
X199490000Y-88265000D01*
G75*
G02*
X199265000Y-88040000I0J225000D01*
G01*
X199265000Y-87590000D01*
G75*
G02*
X199490000Y-87365000I225000J0D01*
G01*
X199990000Y-87365000D01*
G75*
G02*
X200215000Y-87590000I0J-225000D01*
G01*
X200215000Y-88040000D01*
G75*
G02*
X199990000Y-88265000I-225000J0D01*
G01*
G37*
G04 #@! TD*
G04 #@! TO.C,R7*
G36*
G01*
X201115000Y-82325000D02*
X200565000Y-82325000D01*
G75*
G02*
X200365000Y-82125000I0J200000D01*
G01*
X200365000Y-81725000D01*
G75*
G02*
X200565000Y-81525000I200000J0D01*
G01*
X201115000Y-81525000D01*
G75*
G02*
X201315000Y-81725000I0J-200000D01*
G01*
X201315000Y-82125000D01*
G75*
G02*
X201115000Y-82325000I-200000J0D01*
G01*
G37*
G36*
G01*
X201115000Y-83975000D02*
X200565000Y-83975000D01*
G75*
G02*
X200365000Y-83775000I0J200000D01*
G01*
X200365000Y-83375000D01*
G75*
G02*
X200565000Y-83175000I200000J0D01*
G01*
X201115000Y-83175000D01*
G75*
G02*
X201315000Y-83375000I0J-200000D01*
G01*
X201315000Y-83775000D01*
G75*
G02*
X201115000Y-83975000I-200000J0D01*
G01*
G37*
G04 #@! TD*
G04 #@! TO.C,R8*
G36*
G01*
X198245000Y-96180000D02*
X198795000Y-96180000D01*
G75*
G02*
X198995000Y-96380000I0J-200000D01*
G01*
X198995000Y-96780000D01*
G75*
G02*
X198795000Y-96980000I-200000J0D01*
G01*
X198245000Y-96980000D01*
G75*
G02*
X198045000Y-96780000I0J200000D01*
G01*
X198045000Y-96380000D01*
G75*
G02*
X198245000Y-96180000I200000J0D01*
G01*
G37*
G36*
G01*
X198245000Y-94530000D02*
X198795000Y-94530000D01*
G75*
G02*
X198995000Y-94730000I0J-200000D01*
G01*
X198995000Y-95130000D01*
G75*
G02*
X198795000Y-95330000I-200000J0D01*
G01*
X198245000Y-95330000D01*
G75*
G02*
X198045000Y-95130000I0J200000D01*
G01*
X198045000Y-94730000D01*
G75*
G02*
X198245000Y-94530000I200000J0D01*
G01*
G37*
G04 #@! TD*
D15*
G04 #@! TO.C,Y2*
X194550000Y-95028000D03*
X194550000Y-96428000D03*
X193450000Y-96428000D03*
X193450000Y-95028000D03*
G04 #@! TD*
G04 #@! TO.C,J4*
G36*
G01*
X249250000Y-91400000D02*
X246350000Y-91400000D01*
G75*
G02*
X246100000Y-91150000I0J250000D01*
G01*
X246100000Y-90150000D01*
G75*
G02*
X246350000Y-89900000I250000J0D01*
G01*
X249250000Y-89900000D01*
G75*
G02*
X249500000Y-90150000I0J-250000D01*
G01*
X249500000Y-91150000D01*
G75*
G02*
X249250000Y-91400000I-250000J0D01*
G01*
G37*
G36*
G01*
X249250000Y-104100000D02*
X246350000Y-104100000D01*
G75*
G02*
X246100000Y-103850000I0J250000D01*
G01*
X246100000Y-102850000D01*
G75*
G02*
X246350000Y-102600000I250000J0D01*
G01*
X249250000Y-102600000D01*
G75*
G02*
X249500000Y-102850000I0J-250000D01*
G01*
X249500000Y-103850000D01*
G75*
G02*
X249250000Y-104100000I-250000J0D01*
G01*
G37*
G36*
G01*
X243550000Y-93500000D02*
X240550000Y-93500000D01*
G75*
G02*
X240300000Y-93250000I0J250000D01*
G01*
X240300000Y-92750000D01*
G75*
G02*
X240550000Y-92500000I250000J0D01*
G01*
X243550000Y-92500000D01*
G75*
G02*
X243800000Y-92750000I0J-250000D01*
G01*
X243800000Y-93250000D01*
G75*
G02*
X243550000Y-93500000I-250000J0D01*
G01*
G37*
G36*
G01*
X243550000Y-95500000D02*
X240550000Y-95500000D01*
G75*
G02*
X240300000Y-95250000I0J250000D01*
G01*
X240300000Y-94750000D01*
G75*
G02*
X240550000Y-94500000I250000J0D01*
G01*
X243550000Y-94500000D01*
G75*
G02*
X243800000Y-94750000I0J-250000D01*
G01*
X243800000Y-95250000D01*
G75*
G02*
X243550000Y-95500000I-250000J0D01*
G01*
G37*
G36*
G01*
X243550000Y-97500000D02*
X240550000Y-97500000D01*
G75*
G02*
X240300000Y-97250000I0J250000D01*
G01*
X240300000Y-96750000D01*
G75*
G02*
X240550000Y-96500000I250000J0D01*
G01*
X243550000Y-96500000D01*
G75*
G02*
X243800000Y-96750000I0J-250000D01*
G01*
X243800000Y-97250000D01*
G75*
G02*
X243550000Y-97500000I-250000J0D01*
G01*
G37*
G36*
G01*
X243550000Y-99500000D02*
X240550000Y-99500000D01*
G75*
G02*
X240300000Y-99250000I0J250000D01*
G01*
X240300000Y-98750000D01*
G75*
G02*
X240550000Y-98500000I250000J0D01*
G01*
X243550000Y-98500000D01*
G75*
G02*
X243800000Y-98750000I0J-250000D01*
G01*
X243800000Y-99250000D01*
G75*
G02*
X243550000Y-99500000I-250000J0D01*
G01*
G37*
G36*
G01*
X243550000Y-101500000D02*
X240550000Y-101500000D01*
G75*
G02*
X240300000Y-101250000I0J250000D01*
G01*
X240300000Y-100750000D01*
G75*
G02*
X240550000Y-100500000I250000J0D01*
G01*
X243550000Y-100500000D01*
G75*
G02*
X243800000Y-100750000I0J-250000D01*
G01*
X243800000Y-101250000D01*
G75*
G02*
X243550000Y-101500000I-250000J0D01*
G01*
G37*
G04 #@! TD*
G04 #@! TO.C,J3*
G36*
G01*
X55650000Y-102600000D02*
X58550000Y-102600000D01*
G75*
G02*
X58800000Y-102850000I0J-250000D01*
G01*
X58800000Y-103850000D01*
G75*
G02*
X58550000Y-104100000I-250000J0D01*
G01*
X55650000Y-104100000D01*
G75*
G02*
X55400000Y-103850000I0J250000D01*
G01*
X55400000Y-102850000D01*
G75*
G02*
X55650000Y-102600000I250000J0D01*
G01*
G37*
G36*
G01*
X55650000Y-89900000D02*
X58550000Y-89900000D01*
G75*
G02*
X58800000Y-90150000I0J-250000D01*
G01*
X58800000Y-91150000D01*
G75*
G02*
X58550000Y-91400000I-250000J0D01*
G01*
X55650000Y-91400000D01*
G75*
G02*
X55400000Y-91150000I0J250000D01*
G01*
X55400000Y-90150000D01*
G75*
G02*
X55650000Y-89900000I250000J0D01*
G01*
G37*
G36*
G01*
X61350000Y-100500000D02*
X64350000Y-100500000D01*
G75*
G02*
X64600000Y-100750000I0J-250000D01*
G01*
X64600000Y-101250000D01*
G75*
G02*
X64350000Y-101500000I-250000J0D01*
G01*
X61350000Y-101500000D01*
G75*
G02*
X61100000Y-101250000I0J250000D01*
G01*
X61100000Y-100750000D01*
G75*
G02*
X61350000Y-100500000I250000J0D01*
G01*
G37*
G36*
G01*
X61350000Y-98500000D02*
X64350000Y-98500000D01*
G75*
G02*
X64600000Y-98750000I0J-250000D01*
G01*
X64600000Y-99250000D01*
G75*
G02*
X64350000Y-99500000I-250000J0D01*
G01*
X61350000Y-99500000D01*
G75*
G02*
X61100000Y-99250000I0J250000D01*
G01*
X61100000Y-98750000D01*
G75*
G02*
X61350000Y-98500000I250000J0D01*
G01*
G37*
G36*
G01*
X61350000Y-96500000D02*
X64350000Y-96500000D01*
G75*
G02*
X64600000Y-96750000I0J-250000D01*
G01*
X64600000Y-97250000D01*
G75*
G02*
X64350000Y-97500000I-250000J0D01*
G01*
X61350000Y-97500000D01*
G75*
G02*
X61100000Y-97250000I0J250000D01*
G01*
X61100000Y-96750000D01*
G75*
G02*
X61350000Y-96500000I250000J0D01*
G01*
G37*
G36*
G01*
X61350000Y-94500000D02*
X64350000Y-94500000D01*
G75*
G02*
X64600000Y-94750000I0J-250000D01*
G01*
X64600000Y-95250000D01*
G75*
G02*
X64350000Y-95500000I-250000J0D01*
G01*
X61350000Y-95500000D01*
G75*
G02*
X61100000Y-95250000I0J250000D01*
G01*
X61100000Y-94750000D01*
G75*
G02*
X61350000Y-94500000I250000J0D01*
G01*
G37*
G36*
G01*
X61350000Y-92500000D02*
X64350000Y-92500000D01*
G75*
G02*
X64600000Y-92750000I0J-250000D01*
G01*
X64600000Y-93250000D01*
G75*
G02*
X64350000Y-93500000I-250000J0D01*
G01*
X61350000Y-93500000D01*
G75*
G02*
X61100000Y-93250000I0J250000D01*
G01*
X61100000Y-92750000D01*
G75*
G02*
X61350000Y-92500000I250000J0D01*
G01*
G37*
G04 #@! TD*
D16*
G04 #@! TO.C,S2*
X107350000Y-96700000D03*
X107350000Y-90500000D03*
X111050000Y-96700000D03*
X111050000Y-90500000D03*
G04 #@! TD*
G04 #@! TO.C,S1*
X118950000Y-97300000D03*
X118950000Y-91100000D03*
X122650000Y-97300000D03*
X122650000Y-91100000D03*
G04 #@! TD*
G04 #@! TO.C,C26*
G36*
G01*
X141650000Y-102850000D02*
X142150000Y-102850000D01*
G75*
G02*
X142375000Y-103075000I0J-225000D01*
G01*
X142375000Y-103525000D01*
G75*
G02*
X142150000Y-103750000I-225000J0D01*
G01*
X141650000Y-103750000D01*
G75*
G02*
X141425000Y-103525000I0J225000D01*
G01*
X141425000Y-103075000D01*
G75*
G02*
X141650000Y-102850000I225000J0D01*
G01*
G37*
G36*
G01*
X141650000Y-101300000D02*
X142150000Y-101300000D01*
G75*
G02*
X142375000Y-101525000I0J-225000D01*
G01*
X142375000Y-101975000D01*
G75*
G02*
X142150000Y-102200000I-225000J0D01*
G01*
X141650000Y-102200000D01*
G75*
G02*
X141425000Y-101975000I0J225000D01*
G01*
X141425000Y-101525000D01*
G75*
G02*
X141650000Y-101300000I225000J0D01*
G01*
G37*
G04 #@! TD*
G04 #@! TO.C,C25*
G36*
G01*
X135625000Y-88350000D02*
X135625000Y-88850000D01*
G75*
G02*
X135400000Y-89075000I-225000J0D01*
G01*
X134950000Y-89075000D01*
G75*
G02*
X134725000Y-88850000I0J225000D01*
G01*
X134725000Y-88350000D01*
G75*
G02*
X134950000Y-88125000I225000J0D01*
G01*
X135400000Y-88125000D01*
G75*
G02*
X135625000Y-88350000I0J-225000D01*
G01*
G37*
G36*
G01*
X137175000Y-88350000D02*
X137175000Y-88850000D01*
G75*
G02*
X136950000Y-89075000I-225000J0D01*
G01*
X136500000Y-89075000D01*
G75*
G02*
X136275000Y-88850000I0J225000D01*
G01*
X136275000Y-88350000D01*
G75*
G02*
X136500000Y-88125000I225000J0D01*
G01*
X136950000Y-88125000D01*
G75*
G02*
X137175000Y-88350000I0J-225000D01*
G01*
G37*
G04 #@! TD*
D17*
G04 #@! TO.C,H1*
X154356155Y-61643845D03*
X152500000Y-60875000D03*
X150643845Y-61643845D03*
X149875000Y-63500000D03*
X150643845Y-65356155D03*
X152500000Y-66125000D03*
X154356155Y-65356155D03*
X155125000Y-63500000D03*
D18*
X152500000Y-63500000D03*
G04 #@! TD*
D19*
G04 #@! TO.C,Y1*
X141725000Y-79975000D03*
X143925000Y-79975000D03*
X143925000Y-81675000D03*
X141725000Y-81675000D03*
G04 #@! TD*
G04 #@! TO.C,U7*
G36*
G01*
X221925000Y-84600000D02*
X221925000Y-84900000D01*
G75*
G02*
X221775000Y-85050000I-150000J0D01*
G01*
X220750000Y-85050000D01*
G75*
G02*
X220600000Y-84900000I0J150000D01*
G01*
X220600000Y-84600000D01*
G75*
G02*
X220750000Y-84450000I150000J0D01*
G01*
X221775000Y-84450000D01*
G75*
G02*
X221925000Y-84600000I0J-150000D01*
G01*
G37*
G36*
G01*
X221925000Y-82700000D02*
X221925000Y-83000000D01*
G75*
G02*
X221775000Y-83150000I-150000J0D01*
G01*
X220750000Y-83150000D01*
G75*
G02*
X220600000Y-83000000I0J150000D01*
G01*
X220600000Y-82700000D01*
G75*
G02*
X220750000Y-82550000I150000J0D01*
G01*
X221775000Y-82550000D01*
G75*
G02*
X221925000Y-82700000I0J-150000D01*
G01*
G37*
G36*
G01*
X224200000Y-82700000D02*
X224200000Y-83000000D01*
G75*
G02*
X224050000Y-83150000I-150000J0D01*
G01*
X223025000Y-83150000D01*
G75*
G02*
X222875000Y-83000000I0J150000D01*
G01*
X222875000Y-82700000D01*
G75*
G02*
X223025000Y-82550000I150000J0D01*
G01*
X224050000Y-82550000D01*
G75*
G02*
X224200000Y-82700000I0J-150000D01*
G01*
G37*
G36*
G01*
X224200000Y-83650000D02*
X224200000Y-83950000D01*
G75*
G02*
X224050000Y-84100000I-150000J0D01*
G01*
X223025000Y-84100000D01*
G75*
G02*
X222875000Y-83950000I0J150000D01*
G01*
X222875000Y-83650000D01*
G75*
G02*
X223025000Y-83500000I150000J0D01*
G01*
X224050000Y-83500000D01*
G75*
G02*
X224200000Y-83650000I0J-150000D01*
G01*
G37*
G36*
G01*
X224200000Y-84600000D02*
X224200000Y-84900000D01*
G75*
G02*
X224050000Y-85050000I-150000J0D01*
G01*
X223025000Y-85050000D01*
G75*
G02*
X222875000Y-84900000I0J150000D01*
G01*
X222875000Y-84600000D01*
G75*
G02*
X223025000Y-84450000I150000J0D01*
G01*
X224050000Y-84450000D01*
G75*
G02*
X224200000Y-84600000I0J-150000D01*
G01*
G37*
G04 #@! TD*
D15*
G04 #@! TO.C,U4*
X193000000Y-84350000D03*
X193950000Y-86350000D03*
X192050000Y-86350000D03*
G04 #@! TD*
D20*
G04 #@! TO.C,U3*
X149900000Y-99000000D03*
X149100000Y-99000000D03*
X148300000Y-99000000D03*
X147500000Y-99000000D03*
X146700000Y-99000000D03*
X145900000Y-99000000D03*
X145100000Y-99000000D03*
X144300000Y-99000000D03*
X143500000Y-99000000D03*
X142700000Y-99000000D03*
X141900000Y-99000000D03*
D21*
X140200000Y-97300000D03*
X140200000Y-96500000D03*
X140200000Y-95700000D03*
X140200000Y-94900000D03*
X140200000Y-94100000D03*
X140200000Y-93300000D03*
X140200000Y-92500000D03*
X140200000Y-91700000D03*
X140200000Y-90900000D03*
X140200000Y-90100000D03*
X140200000Y-89300000D03*
D20*
X141900000Y-87600000D03*
X142700000Y-87600000D03*
X143500000Y-87600000D03*
X144300000Y-87600000D03*
X145100000Y-87600000D03*
X145900000Y-87600000D03*
X146700000Y-87600000D03*
X147500000Y-87600000D03*
X148300000Y-87600000D03*
X149100000Y-87600000D03*
X149900000Y-87600000D03*
D21*
X151600000Y-89300000D03*
X151600000Y-90100000D03*
X151600000Y-90900000D03*
X151600000Y-91700000D03*
X151600000Y-92500000D03*
X151600000Y-93300000D03*
X151600000Y-94100000D03*
X151600000Y-94900000D03*
X151600000Y-95700000D03*
X151600000Y-96500000D03*
X151600000Y-97300000D03*
G04 #@! TD*
G04 #@! TO.C,U2*
G36*
G01*
X211495000Y-77900000D02*
X211795000Y-77900000D01*
G75*
G02*
X211945000Y-78050000I0J-150000D01*
G01*
X211945000Y-79500000D01*
G75*
G02*
X211795000Y-79650000I-150000J0D01*
G01*
X211495000Y-79650000D01*
G75*
G02*
X211345000Y-79500000I0J150000D01*
G01*
X211345000Y-78050000D01*
G75*
G02*
X211495000Y-77900000I150000J0D01*
G01*
G37*
G36*
G01*
X210225000Y-77900000D02*
X210525000Y-77900000D01*
G75*
G02*
X210675000Y-78050000I0J-150000D01*
G01*
X210675000Y-79500000D01*
G75*
G02*
X210525000Y-79650000I-150000J0D01*
G01*
X210225000Y-79650000D01*
G75*
G02*
X210075000Y-79500000I0J150000D01*
G01*
X210075000Y-78050000D01*
G75*
G02*
X210225000Y-77900000I150000J0D01*
G01*
G37*
G36*
G01*
X208955000Y-77900000D02*
X209255000Y-77900000D01*
G75*
G02*
X209405000Y-78050000I0J-150000D01*
G01*
X209405000Y-79500000D01*
G75*
G02*
X209255000Y-79650000I-150000J0D01*
G01*
X208955000Y-79650000D01*
G75*
G02*
X208805000Y-79500000I0J150000D01*
G01*
X208805000Y-78050000D01*
G75*
G02*
X208955000Y-77900000I150000J0D01*
G01*
G37*
G36*
G01*
X207685000Y-77900000D02*
X207985000Y-77900000D01*
G75*
G02*
X208135000Y-78050000I0J-150000D01*
G01*
X208135000Y-79500000D01*
G75*
G02*
X207985000Y-79650000I-150000J0D01*
G01*
X207685000Y-79650000D01*
G75*
G02*
X207535000Y-79500000I0J150000D01*
G01*
X207535000Y-78050000D01*
G75*
G02*
X207685000Y-77900000I150000J0D01*
G01*
G37*
G36*
G01*
X206415000Y-77900000D02*
X206715000Y-77900000D01*
G75*
G02*
X206865000Y-78050000I0J-150000D01*
G01*
X206865000Y-79500000D01*
G75*
G02*
X206715000Y-79650000I-150000J0D01*
G01*
X206415000Y-79650000D01*
G75*
G02*
X206265000Y-79500000I0J150000D01*
G01*
X206265000Y-78050000D01*
G75*
G02*
X206415000Y-77900000I150000J0D01*
G01*
G37*
G36*
G01*
X205145000Y-77900000D02*
X205445000Y-77900000D01*
G75*
G02*
X205595000Y-78050000I0J-150000D01*
G01*
X205595000Y-79500000D01*
G75*
G02*
X205445000Y-79650000I-150000J0D01*
G01*
X205145000Y-79650000D01*
G75*
G02*
X204995000Y-79500000I0J150000D01*
G01*
X204995000Y-78050000D01*
G75*
G02*
X205145000Y-77900000I150000J0D01*
G01*
G37*
G36*
G01*
X203875000Y-77900000D02*
X204175000Y-77900000D01*
G75*
G02*
X204325000Y-78050000I0J-150000D01*
G01*
X204325000Y-79500000D01*
G75*
G02*
X204175000Y-79650000I-150000J0D01*
G01*
X203875000Y-79650000D01*
G75*
G02*
X203725000Y-79500000I0J150000D01*
G01*
X203725000Y-78050000D01*
G75*
G02*
X203875000Y-77900000I150000J0D01*
G01*
G37*
G36*
G01*
X202605000Y-77900000D02*
X202905000Y-77900000D01*
G75*
G02*
X203055000Y-78050000I0J-150000D01*
G01*
X203055000Y-79500000D01*
G75*
G02*
X202905000Y-79650000I-150000J0D01*
G01*
X202605000Y-79650000D01*
G75*
G02*
X202455000Y-79500000I0J150000D01*
G01*
X202455000Y-78050000D01*
G75*
G02*
X202605000Y-77900000I150000J0D01*
G01*
G37*
G36*
G01*
X202605000Y-72750000D02*
X202905000Y-72750000D01*
G75*
G02*
X203055000Y-72900000I0J-150000D01*
G01*
X203055000Y-74350000D01*
G75*
G02*
X202905000Y-74500000I-150000J0D01*
G01*
X202605000Y-74500000D01*
G75*
G02*
X202455000Y-74350000I0J150000D01*
G01*
X202455000Y-72900000D01*
G75*
G02*
X202605000Y-72750000I150000J0D01*
G01*
G37*
G36*
G01*
X203875000Y-72750000D02*
X204175000Y-72750000D01*
G75*
G02*
X204325000Y-72900000I0J-150000D01*
G01*
X204325000Y-74350000D01*
G75*
G02*
X204175000Y-74500000I-150000J0D01*
G01*
X203875000Y-74500000D01*
G75*
G02*
X203725000Y-74350000I0J150000D01*
G01*
X203725000Y-72900000D01*
G75*
G02*
X203875000Y-72750000I150000J0D01*
G01*
G37*
G36*
G01*
X205145000Y-72750000D02*
X205445000Y-72750000D01*
G75*
G02*
X205595000Y-72900000I0J-150000D01*
G01*
X205595000Y-74350000D01*
G75*
G02*
X205445000Y-74500000I-150000J0D01*
G01*
X205145000Y-74500000D01*
G75*
G02*
X204995000Y-74350000I0J150000D01*
G01*
X204995000Y-72900000D01*
G75*
G02*
X205145000Y-72750000I150000J0D01*
G01*
G37*
G36*
G01*
X206415000Y-72750000D02*
X206715000Y-72750000D01*
G75*
G02*
X206865000Y-72900000I0J-150000D01*
G01*
X206865000Y-74350000D01*
G75*
G02*
X206715000Y-74500000I-150000J0D01*
G01*
X206415000Y-74500000D01*
G75*
G02*
X206265000Y-74350000I0J150000D01*
G01*
X206265000Y-72900000D01*
G75*
G02*
X206415000Y-72750000I150000J0D01*
G01*
G37*
G36*
G01*
X207685000Y-72750000D02*
X207985000Y-72750000D01*
G75*
G02*
X208135000Y-72900000I0J-150000D01*
G01*
X208135000Y-74350000D01*
G75*
G02*
X207985000Y-74500000I-150000J0D01*
G01*
X207685000Y-74500000D01*
G75*
G02*
X207535000Y-74350000I0J150000D01*
G01*
X207535000Y-72900000D01*
G75*
G02*
X207685000Y-72750000I150000J0D01*
G01*
G37*
G36*
G01*
X208955000Y-72750000D02*
X209255000Y-72750000D01*
G75*
G02*
X209405000Y-72900000I0J-150000D01*
G01*
X209405000Y-74350000D01*
G75*
G02*
X209255000Y-74500000I-150000J0D01*
G01*
X208955000Y-74500000D01*
G75*
G02*
X208805000Y-74350000I0J150000D01*
G01*
X208805000Y-72900000D01*
G75*
G02*
X208955000Y-72750000I150000J0D01*
G01*
G37*
G36*
G01*
X210225000Y-72750000D02*
X210525000Y-72750000D01*
G75*
G02*
X210675000Y-72900000I0J-150000D01*
G01*
X210675000Y-74350000D01*
G75*
G02*
X210525000Y-74500000I-150000J0D01*
G01*
X210225000Y-74500000D01*
G75*
G02*
X210075000Y-74350000I0J150000D01*
G01*
X210075000Y-72900000D01*
G75*
G02*
X210225000Y-72750000I150000J0D01*
G01*
G37*
G36*
G01*
X211495000Y-72750000D02*
X211795000Y-72750000D01*
G75*
G02*
X211945000Y-72900000I0J-150000D01*
G01*
X211945000Y-74350000D01*
G75*
G02*
X211795000Y-74500000I-150000J0D01*
G01*
X211495000Y-74500000D01*
G75*
G02*
X211345000Y-74350000I0J150000D01*
G01*
X211345000Y-72900000D01*
G75*
G02*
X211495000Y-72750000I150000J0D01*
G01*
G37*
G04 #@! TD*
G04 #@! TO.C,U1*
G36*
G01*
X230895000Y-77900000D02*
X231195000Y-77900000D01*
G75*
G02*
X231345000Y-78050000I0J-150000D01*
G01*
X231345000Y-79500000D01*
G75*
G02*
X231195000Y-79650000I-150000J0D01*
G01*
X230895000Y-79650000D01*
G75*
G02*
X230745000Y-79500000I0J150000D01*
G01*
X230745000Y-78050000D01*
G75*
G02*
X230895000Y-77900000I150000J0D01*
G01*
G37*
G36*
G01*
X229625000Y-77900000D02*
X229925000Y-77900000D01*
G75*
G02*
X230075000Y-78050000I0J-150000D01*
G01*
X230075000Y-79500000D01*
G75*
G02*
X229925000Y-79650000I-150000J0D01*
G01*
X229625000Y-79650000D01*
G75*
G02*
X229475000Y-79500000I0J150000D01*
G01*
X229475000Y-78050000D01*
G75*
G02*
X229625000Y-77900000I150000J0D01*
G01*
G37*
G36*
G01*
X228355000Y-77900000D02*
X228655000Y-77900000D01*
G75*
G02*
X228805000Y-78050000I0J-150000D01*
G01*
X228805000Y-79500000D01*
G75*
G02*
X228655000Y-79650000I-150000J0D01*
G01*
X228355000Y-79650000D01*
G75*
G02*
X228205000Y-79500000I0J150000D01*
G01*
X228205000Y-78050000D01*
G75*
G02*
X228355000Y-77900000I150000J0D01*
G01*
G37*
G36*
G01*
X227085000Y-77900000D02*
X227385000Y-77900000D01*
G75*
G02*
X227535000Y-78050000I0J-150000D01*
G01*
X227535000Y-79500000D01*
G75*
G02*
X227385000Y-79650000I-150000J0D01*
G01*
X227085000Y-79650000D01*
G75*
G02*
X226935000Y-79500000I0J150000D01*
G01*
X226935000Y-78050000D01*
G75*
G02*
X227085000Y-77900000I150000J0D01*
G01*
G37*
G36*
G01*
X225815000Y-77900000D02*
X226115000Y-77900000D01*
G75*
G02*
X226265000Y-78050000I0J-150000D01*
G01*
X226265000Y-79500000D01*
G75*
G02*
X226115000Y-79650000I-150000J0D01*
G01*
X225815000Y-79650000D01*
G75*
G02*
X225665000Y-79500000I0J150000D01*
G01*
X225665000Y-78050000D01*
G75*
G02*
X225815000Y-77900000I150000J0D01*
G01*
G37*
G36*
G01*
X224545000Y-77900000D02*
X224845000Y-77900000D01*
G75*
G02*
X224995000Y-78050000I0J-150000D01*
G01*
X224995000Y-79500000D01*
G75*
G02*
X224845000Y-79650000I-150000J0D01*
G01*
X224545000Y-79650000D01*
G75*
G02*
X224395000Y-79500000I0J150000D01*
G01*
X224395000Y-78050000D01*
G75*
G02*
X224545000Y-77900000I150000J0D01*
G01*
G37*
G36*
G01*
X223275000Y-77900000D02*
X223575000Y-77900000D01*
G75*
G02*
X223725000Y-78050000I0J-150000D01*
G01*
X223725000Y-79500000D01*
G75*
G02*
X223575000Y-79650000I-150000J0D01*
G01*
X223275000Y-79650000D01*
G75*
G02*
X223125000Y-79500000I0J150000D01*
G01*
X223125000Y-78050000D01*
G75*
G02*
X223275000Y-77900000I150000J0D01*
G01*
G37*
G36*
G01*
X222005000Y-77900000D02*
X222305000Y-77900000D01*
G75*
G02*
X222455000Y-78050000I0J-150000D01*
G01*
X222455000Y-79500000D01*
G75*
G02*
X222305000Y-79650000I-150000J0D01*
G01*
X222005000Y-79650000D01*
G75*
G02*
X221855000Y-79500000I0J150000D01*
G01*
X221855000Y-78050000D01*
G75*
G02*
X222005000Y-77900000I150000J0D01*
G01*
G37*
G36*
G01*
X222005000Y-72750000D02*
X222305000Y-72750000D01*
G75*
G02*
X222455000Y-72900000I0J-150000D01*
G01*
X222455000Y-74350000D01*
G75*
G02*
X222305000Y-74500000I-150000J0D01*
G01*
X222005000Y-74500000D01*
G75*
G02*
X221855000Y-74350000I0J150000D01*
G01*
X221855000Y-72900000D01*
G75*
G02*
X222005000Y-72750000I150000J0D01*
G01*
G37*
G36*
G01*
X223275000Y-72750000D02*
X223575000Y-72750000D01*
G75*
G02*
X223725000Y-72900000I0J-150000D01*
G01*
X223725000Y-74350000D01*
G75*
G02*
X223575000Y-74500000I-150000J0D01*
G01*
X223275000Y-74500000D01*
G75*
G02*
X223125000Y-74350000I0J150000D01*
G01*
X223125000Y-72900000D01*
G75*
G02*
X223275000Y-72750000I150000J0D01*
G01*
G37*
G36*
G01*
X224545000Y-72750000D02*
X224845000Y-72750000D01*
G75*
G02*
X224995000Y-72900000I0J-150000D01*
G01*
X224995000Y-74350000D01*
G75*
G02*
X224845000Y-74500000I-150000J0D01*
G01*
X224545000Y-74500000D01*
G75*
G02*
X224395000Y-74350000I0J150000D01*
G01*
X224395000Y-72900000D01*
G75*
G02*
X224545000Y-72750000I150000J0D01*
G01*
G37*
G36*
G01*
X225815000Y-72750000D02*
X226115000Y-72750000D01*
G75*
G02*
X226265000Y-72900000I0J-150000D01*
G01*
X226265000Y-74350000D01*
G75*
G02*
X226115000Y-74500000I-150000J0D01*
G01*
X225815000Y-74500000D01*
G75*
G02*
X225665000Y-74350000I0J150000D01*
G01*
X225665000Y-72900000D01*
G75*
G02*
X225815000Y-72750000I150000J0D01*
G01*
G37*
G36*
G01*
X227085000Y-72750000D02*
X227385000Y-72750000D01*
G75*
G02*
X227535000Y-72900000I0J-150000D01*
G01*
X227535000Y-74350000D01*
G75*
G02*
X227385000Y-74500000I-150000J0D01*
G01*
X227085000Y-74500000D01*
G75*
G02*
X226935000Y-74350000I0J150000D01*
G01*
X226935000Y-72900000D01*
G75*
G02*
X227085000Y-72750000I150000J0D01*
G01*
G37*
G36*
G01*
X228355000Y-72750000D02*
X228655000Y-72750000D01*
G75*
G02*
X228805000Y-72900000I0J-150000D01*
G01*
X228805000Y-74350000D01*
G75*
G02*
X228655000Y-74500000I-150000J0D01*
G01*
X228355000Y-74500000D01*
G75*
G02*
X228205000Y-74350000I0J150000D01*
G01*
X228205000Y-72900000D01*
G75*
G02*
X228355000Y-72750000I150000J0D01*
G01*
G37*
G36*
G01*
X229625000Y-72750000D02*
X229925000Y-72750000D01*
G75*
G02*
X230075000Y-72900000I0J-150000D01*
G01*
X230075000Y-74350000D01*
G75*
G02*
X229925000Y-74500000I-150000J0D01*
G01*
X229625000Y-74500000D01*
G75*
G02*
X229475000Y-74350000I0J150000D01*
G01*
X229475000Y-72900000D01*
G75*
G02*
X229625000Y-72750000I150000J0D01*
G01*
G37*
G36*
G01*
X230895000Y-72750000D02*
X231195000Y-72750000D01*
G75*
G02*
X231345000Y-72900000I0J-150000D01*
G01*
X231345000Y-74350000D01*
G75*
G02*
X231195000Y-74500000I-150000J0D01*
G01*
X230895000Y-74500000D01*
G75*
G02*
X230745000Y-74350000I0J150000D01*
G01*
X230745000Y-72900000D01*
G75*
G02*
X230895000Y-72750000I150000J0D01*
G01*
G37*
G04 #@! TD*
G04 #@! TO.C,R4*
G36*
G01*
X161375000Y-95475000D02*
X160825000Y-95475000D01*
G75*
G02*
X160625000Y-95275000I0J200000D01*
G01*
X160625000Y-94875000D01*
G75*
G02*
X160825000Y-94675000I200000J0D01*
G01*
X161375000Y-94675000D01*
G75*
G02*
X161575000Y-94875000I0J-200000D01*
G01*
X161575000Y-95275000D01*
G75*
G02*
X161375000Y-95475000I-200000J0D01*
G01*
G37*
G36*
G01*
X161375000Y-97125000D02*
X160825000Y-97125000D01*
G75*
G02*
X160625000Y-96925000I0J200000D01*
G01*
X160625000Y-96525000D01*
G75*
G02*
X160825000Y-96325000I200000J0D01*
G01*
X161375000Y-96325000D01*
G75*
G02*
X161575000Y-96525000I0J-200000D01*
G01*
X161575000Y-96925000D01*
G75*
G02*
X161375000Y-97125000I-200000J0D01*
G01*
G37*
G04 #@! TD*
G04 #@! TO.C,R3*
G36*
G01*
X162525000Y-95525000D02*
X163075000Y-95525000D01*
G75*
G02*
X163275000Y-95725000I0J-200000D01*
G01*
X163275000Y-96125000D01*
G75*
G02*
X163075000Y-96325000I-200000J0D01*
G01*
X162525000Y-96325000D01*
G75*
G02*
X162325000Y-96125000I0J200000D01*
G01*
X162325000Y-95725000D01*
G75*
G02*
X162525000Y-95525000I200000J0D01*
G01*
G37*
G36*
G01*
X162525000Y-93875000D02*
X163075000Y-93875000D01*
G75*
G02*
X163275000Y-94075000I0J-200000D01*
G01*
X163275000Y-94475000D01*
G75*
G02*
X163075000Y-94675000I-200000J0D01*
G01*
X162525000Y-94675000D01*
G75*
G02*
X162325000Y-94475000I0J200000D01*
G01*
X162325000Y-94075000D01*
G75*
G02*
X162525000Y-93875000I200000J0D01*
G01*
G37*
G04 #@! TD*
G04 #@! TO.C,R2*
G36*
G01*
X110785000Y-87785000D02*
X111335000Y-87785000D01*
G75*
G02*
X111535000Y-87985000I0J-200000D01*
G01*
X111535000Y-88385000D01*
G75*
G02*
X111335000Y-88585000I-200000J0D01*
G01*
X110785000Y-88585000D01*
G75*
G02*
X110585000Y-88385000I0J200000D01*
G01*
X110585000Y-87985000D01*
G75*
G02*
X110785000Y-87785000I200000J0D01*
G01*
G37*
G36*
G01*
X110785000Y-86135000D02*
X111335000Y-86135000D01*
G75*
G02*
X111535000Y-86335000I0J-200000D01*
G01*
X111535000Y-86735000D01*
G75*
G02*
X111335000Y-86935000I-200000J0D01*
G01*
X110785000Y-86935000D01*
G75*
G02*
X110585000Y-86735000I0J200000D01*
G01*
X110585000Y-86335000D01*
G75*
G02*
X110785000Y-86135000I200000J0D01*
G01*
G37*
G04 #@! TD*
G04 #@! TO.C,R1*
G36*
G01*
X122355000Y-88345000D02*
X122905000Y-88345000D01*
G75*
G02*
X123105000Y-88545000I0J-200000D01*
G01*
X123105000Y-88945000D01*
G75*
G02*
X122905000Y-89145000I-200000J0D01*
G01*
X122355000Y-89145000D01*
G75*
G02*
X122155000Y-88945000I0J200000D01*
G01*
X122155000Y-88545000D01*
G75*
G02*
X122355000Y-88345000I200000J0D01*
G01*
G37*
G36*
G01*
X122355000Y-86695000D02*
X122905000Y-86695000D01*
G75*
G02*
X123105000Y-86895000I0J-200000D01*
G01*
X123105000Y-87295000D01*
G75*
G02*
X122905000Y-87495000I-200000J0D01*
G01*
X122355000Y-87495000D01*
G75*
G02*
X122155000Y-87295000I0J200000D01*
G01*
X122155000Y-86895000D01*
G75*
G02*
X122355000Y-86695000I200000J0D01*
G01*
G37*
G04 #@! TD*
G04 #@! TO.C,F1*
G36*
G01*
X84443750Y-97275000D02*
X85356250Y-97275000D01*
G75*
G02*
X85600000Y-97518750I0J-243750D01*
G01*
X85600000Y-98006250D01*
G75*
G02*
X85356250Y-98250000I-243750J0D01*
G01*
X84443750Y-98250000D01*
G75*
G02*
X84200000Y-98006250I0J243750D01*
G01*
X84200000Y-97518750D01*
G75*
G02*
X84443750Y-97275000I243750J0D01*
G01*
G37*
G36*
G01*
X84443750Y-99150000D02*
X85356250Y-99150000D01*
G75*
G02*
X85600000Y-99393750I0J-243750D01*
G01*
X85600000Y-99881250D01*
G75*
G02*
X85356250Y-100125000I-243750J0D01*
G01*
X84443750Y-100125000D01*
G75*
G02*
X84200000Y-99881250I0J243750D01*
G01*
X84200000Y-99393750D01*
G75*
G02*
X84443750Y-99150000I243750J0D01*
G01*
G37*
G04 #@! TD*
G04 #@! TO.C,C30*
G36*
G01*
X223300000Y-87575000D02*
X223800000Y-87575000D01*
G75*
G02*
X224025000Y-87800000I0J-225000D01*
G01*
X224025000Y-88250000D01*
G75*
G02*
X223800000Y-88475000I-225000J0D01*
G01*
X223300000Y-88475000D01*
G75*
G02*
X223075000Y-88250000I0J225000D01*
G01*
X223075000Y-87800000D01*
G75*
G02*
X223300000Y-87575000I225000J0D01*
G01*
G37*
G36*
G01*
X223300000Y-86025000D02*
X223800000Y-86025000D01*
G75*
G02*
X224025000Y-86250000I0J-225000D01*
G01*
X224025000Y-86700000D01*
G75*
G02*
X223800000Y-86925000I-225000J0D01*
G01*
X223300000Y-86925000D01*
G75*
G02*
X223075000Y-86700000I0J225000D01*
G01*
X223075000Y-86250000D01*
G75*
G02*
X223300000Y-86025000I225000J0D01*
G01*
G37*
G04 #@! TD*
G04 #@! TO.C,C23*
G36*
G01*
X226575000Y-90575000D02*
X228625000Y-90575000D01*
G75*
G02*
X228875000Y-90825000I0J-250000D01*
G01*
X228875000Y-92400000D01*
G75*
G02*
X228625000Y-92650000I-250000J0D01*
G01*
X226575000Y-92650000D01*
G75*
G02*
X226325000Y-92400000I0J250000D01*
G01*
X226325000Y-90825000D01*
G75*
G02*
X226575000Y-90575000I250000J0D01*
G01*
G37*
G36*
G01*
X226575000Y-84350000D02*
X228625000Y-84350000D01*
G75*
G02*
X228875000Y-84600000I0J-250000D01*
G01*
X228875000Y-86175000D01*
G75*
G02*
X228625000Y-86425000I-250000J0D01*
G01*
X226575000Y-86425000D01*
G75*
G02*
X226325000Y-86175000I0J250000D01*
G01*
X226325000Y-84600000D01*
G75*
G02*
X226575000Y-84350000I250000J0D01*
G01*
G37*
G04 #@! TD*
G04 #@! TO.C,C17*
G36*
G01*
X215450000Y-87525000D02*
X215950000Y-87525000D01*
G75*
G02*
X216175000Y-87750000I0J-225000D01*
G01*
X216175000Y-88200000D01*
G75*
G02*
X215950000Y-88425000I-225000J0D01*
G01*
X215450000Y-88425000D01*
G75*
G02*
X215225000Y-88200000I0J225000D01*
G01*
X215225000Y-87750000D01*
G75*
G02*
X215450000Y-87525000I225000J0D01*
G01*
G37*
G36*
G01*
X215450000Y-85975000D02*
X215950000Y-85975000D01*
G75*
G02*
X216175000Y-86200000I0J-225000D01*
G01*
X216175000Y-86650000D01*
G75*
G02*
X215950000Y-86875000I-225000J0D01*
G01*
X215450000Y-86875000D01*
G75*
G02*
X215225000Y-86650000I0J225000D01*
G01*
X215225000Y-86200000D01*
G75*
G02*
X215450000Y-85975000I225000J0D01*
G01*
G37*
G04 #@! TD*
G04 #@! TO.C,C16*
G36*
G01*
X218225000Y-85850000D02*
X219175000Y-85850000D01*
G75*
G02*
X219425000Y-86100000I0J-250000D01*
G01*
X219425000Y-86600000D01*
G75*
G02*
X219175000Y-86850000I-250000J0D01*
G01*
X218225000Y-86850000D01*
G75*
G02*
X217975000Y-86600000I0J250000D01*
G01*
X217975000Y-86100000D01*
G75*
G02*
X218225000Y-85850000I250000J0D01*
G01*
G37*
G36*
G01*
X218225000Y-87750000D02*
X219175000Y-87750000D01*
G75*
G02*
X219425000Y-88000000I0J-250000D01*
G01*
X219425000Y-88500000D01*
G75*
G02*
X219175000Y-88750000I-250000J0D01*
G01*
X218225000Y-88750000D01*
G75*
G02*
X217975000Y-88500000I0J250000D01*
G01*
X217975000Y-88000000D01*
G75*
G02*
X218225000Y-87750000I250000J0D01*
G01*
G37*
G04 #@! TD*
G04 #@! TO.C,C13*
G36*
G01*
X198305000Y-86600000D02*
X197355000Y-86600000D01*
G75*
G02*
X197105000Y-86350000I0J250000D01*
G01*
X197105000Y-85850000D01*
G75*
G02*
X197355000Y-85600000I250000J0D01*
G01*
X198305000Y-85600000D01*
G75*
G02*
X198555000Y-85850000I0J-250000D01*
G01*
X198555000Y-86350000D01*
G75*
G02*
X198305000Y-86600000I-250000J0D01*
G01*
G37*
G36*
G01*
X198305000Y-88500000D02*
X197355000Y-88500000D01*
G75*
G02*
X197105000Y-88250000I0J250000D01*
G01*
X197105000Y-87750000D01*
G75*
G02*
X197355000Y-87500000I250000J0D01*
G01*
X198305000Y-87500000D01*
G75*
G02*
X198555000Y-87750000I0J-250000D01*
G01*
X198555000Y-88250000D01*
G75*
G02*
X198305000Y-88500000I-250000J0D01*
G01*
G37*
G04 #@! TD*
G04 #@! TO.C,C12*
G36*
G01*
X81875000Y-98250000D02*
X80925000Y-98250000D01*
G75*
G02*
X80675000Y-98000000I0J250000D01*
G01*
X80675000Y-97500000D01*
G75*
G02*
X80925000Y-97250000I250000J0D01*
G01*
X81875000Y-97250000D01*
G75*
G02*
X82125000Y-97500000I0J-250000D01*
G01*
X82125000Y-98000000D01*
G75*
G02*
X81875000Y-98250000I-250000J0D01*
G01*
G37*
G36*
G01*
X81875000Y-100150000D02*
X80925000Y-100150000D01*
G75*
G02*
X80675000Y-99900000I0J250000D01*
G01*
X80675000Y-99400000D01*
G75*
G02*
X80925000Y-99150000I250000J0D01*
G01*
X81875000Y-99150000D01*
G75*
G02*
X82125000Y-99400000I0J-250000D01*
G01*
X82125000Y-99900000D01*
G75*
G02*
X81875000Y-100150000I-250000J0D01*
G01*
G37*
G04 #@! TD*
G04 #@! TO.C,C11*
G36*
G01*
X189150000Y-85450000D02*
X189650000Y-85450000D01*
G75*
G02*
X189875000Y-85675000I0J-225000D01*
G01*
X189875000Y-86125000D01*
G75*
G02*
X189650000Y-86350000I-225000J0D01*
G01*
X189150000Y-86350000D01*
G75*
G02*
X188925000Y-86125000I0J225000D01*
G01*
X188925000Y-85675000D01*
G75*
G02*
X189150000Y-85450000I225000J0D01*
G01*
G37*
G36*
G01*
X189150000Y-83900000D02*
X189650000Y-83900000D01*
G75*
G02*
X189875000Y-84125000I0J-225000D01*
G01*
X189875000Y-84575000D01*
G75*
G02*
X189650000Y-84800000I-225000J0D01*
G01*
X189150000Y-84800000D01*
G75*
G02*
X188925000Y-84575000I0J225000D01*
G01*
X188925000Y-84125000D01*
G75*
G02*
X189150000Y-83900000I225000J0D01*
G01*
G37*
G04 #@! TD*
G04 #@! TO.C,C10*
G36*
G01*
X149650000Y-102825000D02*
X150150000Y-102825000D01*
G75*
G02*
X150375000Y-103050000I0J-225000D01*
G01*
X150375000Y-103500000D01*
G75*
G02*
X150150000Y-103725000I-225000J0D01*
G01*
X149650000Y-103725000D01*
G75*
G02*
X149425000Y-103500000I0J225000D01*
G01*
X149425000Y-103050000D01*
G75*
G02*
X149650000Y-102825000I225000J0D01*
G01*
G37*
G36*
G01*
X149650000Y-101275000D02*
X150150000Y-101275000D01*
G75*
G02*
X150375000Y-101500000I0J-225000D01*
G01*
X150375000Y-101950000D01*
G75*
G02*
X150150000Y-102175000I-225000J0D01*
G01*
X149650000Y-102175000D01*
G75*
G02*
X149425000Y-101950000I0J225000D01*
G01*
X149425000Y-101500000D01*
G75*
G02*
X149650000Y-101275000I225000J0D01*
G01*
G37*
G04 #@! TD*
G04 #@! TO.C,C9*
G36*
G01*
X155425000Y-97550000D02*
X155425000Y-97050000D01*
G75*
G02*
X155650000Y-96825000I225000J0D01*
G01*
X156100000Y-96825000D01*
G75*
G02*
X156325000Y-97050000I0J-225000D01*
G01*
X156325000Y-97550000D01*
G75*
G02*
X156100000Y-97775000I-225000J0D01*
G01*
X155650000Y-97775000D01*
G75*
G02*
X155425000Y-97550000I0J225000D01*
G01*
G37*
G36*
G01*
X153875000Y-97550000D02*
X153875000Y-97050000D01*
G75*
G02*
X154100000Y-96825000I225000J0D01*
G01*
X154550000Y-96825000D01*
G75*
G02*
X154775000Y-97050000I0J-225000D01*
G01*
X154775000Y-97550000D01*
G75*
G02*
X154550000Y-97775000I-225000J0D01*
G01*
X154100000Y-97775000D01*
G75*
G02*
X153875000Y-97550000I0J225000D01*
G01*
G37*
G04 #@! TD*
G04 #@! TO.C,C8*
G36*
G01*
X148550000Y-83675000D02*
X148050000Y-83675000D01*
G75*
G02*
X147825000Y-83450000I0J225000D01*
G01*
X147825000Y-83000000D01*
G75*
G02*
X148050000Y-82775000I225000J0D01*
G01*
X148550000Y-82775000D01*
G75*
G02*
X148775000Y-83000000I0J-225000D01*
G01*
X148775000Y-83450000D01*
G75*
G02*
X148550000Y-83675000I-225000J0D01*
G01*
G37*
G36*
G01*
X148550000Y-85225000D02*
X148050000Y-85225000D01*
G75*
G02*
X147825000Y-85000000I0J225000D01*
G01*
X147825000Y-84550000D01*
G75*
G02*
X148050000Y-84325000I225000J0D01*
G01*
X148550000Y-84325000D01*
G75*
G02*
X148775000Y-84550000I0J-225000D01*
G01*
X148775000Y-85000000D01*
G75*
G02*
X148550000Y-85225000I-225000J0D01*
G01*
G37*
G04 #@! TD*
G04 #@! TO.C,C7*
G36*
G01*
X155225000Y-93050000D02*
X155225000Y-92550000D01*
G75*
G02*
X155450000Y-92325000I225000J0D01*
G01*
X155900000Y-92325000D01*
G75*
G02*
X156125000Y-92550000I0J-225000D01*
G01*
X156125000Y-93050000D01*
G75*
G02*
X155900000Y-93275000I-225000J0D01*
G01*
X155450000Y-93275000D01*
G75*
G02*
X155225000Y-93050000I0J225000D01*
G01*
G37*
G36*
G01*
X153675000Y-93050000D02*
X153675000Y-92550000D01*
G75*
G02*
X153900000Y-92325000I225000J0D01*
G01*
X154350000Y-92325000D01*
G75*
G02*
X154575000Y-92550000I0J-225000D01*
G01*
X154575000Y-93050000D01*
G75*
G02*
X154350000Y-93275000I-225000J0D01*
G01*
X153900000Y-93275000D01*
G75*
G02*
X153675000Y-93050000I0J225000D01*
G01*
G37*
G04 #@! TD*
G04 #@! TO.C,C6*
G36*
G01*
X146050000Y-78875000D02*
X145550000Y-78875000D01*
G75*
G02*
X145325000Y-78650000I0J225000D01*
G01*
X145325000Y-78200000D01*
G75*
G02*
X145550000Y-77975000I225000J0D01*
G01*
X146050000Y-77975000D01*
G75*
G02*
X146275000Y-78200000I0J-225000D01*
G01*
X146275000Y-78650000D01*
G75*
G02*
X146050000Y-78875000I-225000J0D01*
G01*
G37*
G36*
G01*
X146050000Y-80425000D02*
X145550000Y-80425000D01*
G75*
G02*
X145325000Y-80200000I0J225000D01*
G01*
X145325000Y-79750000D01*
G75*
G02*
X145550000Y-79525000I225000J0D01*
G01*
X146050000Y-79525000D01*
G75*
G02*
X146275000Y-79750000I0J-225000D01*
G01*
X146275000Y-80200000D01*
G75*
G02*
X146050000Y-80425000I-225000J0D01*
G01*
G37*
G04 #@! TD*
G04 #@! TO.C,C5*
G36*
G01*
X139575000Y-82775000D02*
X140075000Y-82775000D01*
G75*
G02*
X140300000Y-83000000I0J-225000D01*
G01*
X140300000Y-83450000D01*
G75*
G02*
X140075000Y-83675000I-225000J0D01*
G01*
X139575000Y-83675000D01*
G75*
G02*
X139350000Y-83450000I0J225000D01*
G01*
X139350000Y-83000000D01*
G75*
G02*
X139575000Y-82775000I225000J0D01*
G01*
G37*
G36*
G01*
X139575000Y-81225000D02*
X140075000Y-81225000D01*
G75*
G02*
X140300000Y-81450000I0J-225000D01*
G01*
X140300000Y-81900000D01*
G75*
G02*
X140075000Y-82125000I-225000J0D01*
G01*
X139575000Y-82125000D01*
G75*
G02*
X139350000Y-81900000I0J225000D01*
G01*
X139350000Y-81450000D01*
G75*
G02*
X139575000Y-81225000I225000J0D01*
G01*
G37*
G04 #@! TD*
G04 #@! TO.C,C4*
G36*
G01*
X108885000Y-99060000D02*
X108885000Y-99560000D01*
G75*
G02*
X108660000Y-99785000I-225000J0D01*
G01*
X108210000Y-99785000D01*
G75*
G02*
X107985000Y-99560000I0J225000D01*
G01*
X107985000Y-99060000D01*
G75*
G02*
X108210000Y-98835000I225000J0D01*
G01*
X108660000Y-98835000D01*
G75*
G02*
X108885000Y-99060000I0J-225000D01*
G01*
G37*
G36*
G01*
X110435000Y-99060000D02*
X110435000Y-99560000D01*
G75*
G02*
X110210000Y-99785000I-225000J0D01*
G01*
X109760000Y-99785000D01*
G75*
G02*
X109535000Y-99560000I0J225000D01*
G01*
X109535000Y-99060000D01*
G75*
G02*
X109760000Y-98835000I225000J0D01*
G01*
X110210000Y-98835000D01*
G75*
G02*
X110435000Y-99060000I0J-225000D01*
G01*
G37*
G04 #@! TD*
G04 #@! TO.C,C3*
G36*
G01*
X120425000Y-99450000D02*
X120425000Y-99950000D01*
G75*
G02*
X120200000Y-100175000I-225000J0D01*
G01*
X119750000Y-100175000D01*
G75*
G02*
X119525000Y-99950000I0J225000D01*
G01*
X119525000Y-99450000D01*
G75*
G02*
X119750000Y-99225000I225000J0D01*
G01*
X120200000Y-99225000D01*
G75*
G02*
X120425000Y-99450000I0J-225000D01*
G01*
G37*
G36*
G01*
X121975000Y-99450000D02*
X121975000Y-99950000D01*
G75*
G02*
X121750000Y-100175000I-225000J0D01*
G01*
X121300000Y-100175000D01*
G75*
G02*
X121075000Y-99950000I0J225000D01*
G01*
X121075000Y-99450000D01*
G75*
G02*
X121300000Y-99225000I225000J0D01*
G01*
X121750000Y-99225000D01*
G75*
G02*
X121975000Y-99450000I0J-225000D01*
G01*
G37*
G04 #@! TD*
G04 #@! TO.C,C2*
G36*
G01*
X215225000Y-79050000D02*
X215225000Y-78550000D01*
G75*
G02*
X215450000Y-78325000I225000J0D01*
G01*
X215900000Y-78325000D01*
G75*
G02*
X216125000Y-78550000I0J-225000D01*
G01*
X216125000Y-79050000D01*
G75*
G02*
X215900000Y-79275000I-225000J0D01*
G01*
X215450000Y-79275000D01*
G75*
G02*
X215225000Y-79050000I0J225000D01*
G01*
G37*
G36*
G01*
X213675000Y-79050000D02*
X213675000Y-78550000D01*
G75*
G02*
X213900000Y-78325000I225000J0D01*
G01*
X214350000Y-78325000D01*
G75*
G02*
X214575000Y-78550000I0J-225000D01*
G01*
X214575000Y-79050000D01*
G75*
G02*
X214350000Y-79275000I-225000J0D01*
G01*
X213900000Y-79275000D01*
G75*
G02*
X213675000Y-79050000I0J225000D01*
G01*
G37*
G04 #@! TD*
G04 #@! TO.C,C1*
G36*
G01*
X234600000Y-79050000D02*
X234600000Y-78550000D01*
G75*
G02*
X234825000Y-78325000I225000J0D01*
G01*
X235275000Y-78325000D01*
G75*
G02*
X235500000Y-78550000I0J-225000D01*
G01*
X235500000Y-79050000D01*
G75*
G02*
X235275000Y-79275000I-225000J0D01*
G01*
X234825000Y-79275000D01*
G75*
G02*
X234600000Y-79050000I0J225000D01*
G01*
G37*
G36*
G01*
X233050000Y-79050000D02*
X233050000Y-78550000D01*
G75*
G02*
X233275000Y-78325000I225000J0D01*
G01*
X233725000Y-78325000D01*
G75*
G02*
X233950000Y-78550000I0J-225000D01*
G01*
X233950000Y-79050000D01*
G75*
G02*
X233725000Y-79275000I-225000J0D01*
G01*
X233275000Y-79275000D01*
G75*
G02*
X233050000Y-79050000I0J225000D01*
G01*
G37*
G04 #@! TD*
D22*
G04 #@! TO.C,J2*
X185030000Y-69000000D03*
X182490000Y-69000000D03*
X179950000Y-69000000D03*
X177410000Y-69000000D03*
X174870000Y-69000000D03*
X172330000Y-69000000D03*
X169790000Y-69000000D03*
D23*
X167250000Y-69000000D03*
G04 #@! TD*
D22*
G04 #@! TO.C,J1*
X247510000Y-69000000D03*
X244970000Y-69000000D03*
X242430000Y-69000000D03*
X239890000Y-69000000D03*
X237350000Y-69000000D03*
X234810000Y-69000000D03*
X232270000Y-69000000D03*
X229730000Y-69000000D03*
X227190000Y-69000000D03*
X224650000Y-69000000D03*
X222110000Y-69000000D03*
X219570000Y-69000000D03*
X217030000Y-69000000D03*
X214490000Y-69000000D03*
X211950000Y-69000000D03*
X209410000Y-69000000D03*
X206870000Y-69000000D03*
X204330000Y-69000000D03*
X201790000Y-69000000D03*
D23*
X199250000Y-69000000D03*
G04 #@! TD*
M02*
