G04 #@! TF.GenerationSoftware,KiCad,Pcbnew,(5.1.9)-1*
G04 #@! TF.CreationDate,2021-08-18T12:48:30-04:00*
G04 #@! TF.ProjectId,si-mips-main-board,73692d6d-6970-4732-9d6d-61696e2d626f,rev?*
G04 #@! TF.SameCoordinates,Original*
G04 #@! TF.FileFunction,Legend,Top*
G04 #@! TF.FilePolarity,Positive*
%FSLAX46Y46*%
G04 Gerber Fmt 4.6, Leading zero omitted, Abs format (unit mm)*
G04 Created by KiCad (PCBNEW (5.1.9)-1) date 2021-08-18 12:48:30*
%MOMM*%
%LPD*%
G01*
G04 APERTURE LIST*
%ADD10C,0.300000*%
%ADD11C,0.010000*%
%ADD12C,0.120000*%
%ADD13C,0.150000*%
G04 APERTURE END LIST*
D10*
X118071428Y-103278571D02*
X118071428Y-101778571D01*
X118642857Y-101778571D01*
X118785714Y-101850000D01*
X118857142Y-101921428D01*
X118928571Y-102064285D01*
X118928571Y-102278571D01*
X118857142Y-102421428D01*
X118785714Y-102492857D01*
X118642857Y-102564285D01*
X118071428Y-102564285D01*
X120428571Y-103278571D02*
X119928571Y-102564285D01*
X119571428Y-103278571D02*
X119571428Y-101778571D01*
X120142857Y-101778571D01*
X120285714Y-101850000D01*
X120357142Y-101921428D01*
X120428571Y-102064285D01*
X120428571Y-102278571D01*
X120357142Y-102421428D01*
X120285714Y-102492857D01*
X120142857Y-102564285D01*
X119571428Y-102564285D01*
X121357142Y-101778571D02*
X121642857Y-101778571D01*
X121785714Y-101850000D01*
X121928571Y-101992857D01*
X122000000Y-102278571D01*
X122000000Y-102778571D01*
X121928571Y-103064285D01*
X121785714Y-103207142D01*
X121642857Y-103278571D01*
X121357142Y-103278571D01*
X121214285Y-103207142D01*
X121071428Y-103064285D01*
X121000000Y-102778571D01*
X121000000Y-102278571D01*
X121071428Y-101992857D01*
X121214285Y-101850000D01*
X121357142Y-101778571D01*
X123428571Y-101850000D02*
X123285714Y-101778571D01*
X123071428Y-101778571D01*
X122857142Y-101850000D01*
X122714285Y-101992857D01*
X122642857Y-102135714D01*
X122571428Y-102421428D01*
X122571428Y-102635714D01*
X122642857Y-102921428D01*
X122714285Y-103064285D01*
X122857142Y-103207142D01*
X123071428Y-103278571D01*
X123214285Y-103278571D01*
X123428571Y-103207142D01*
X123500000Y-103135714D01*
X123500000Y-102635714D01*
X123214285Y-102635714D01*
X106771428Y-103278571D02*
X106271428Y-102564285D01*
X105914285Y-103278571D02*
X105914285Y-101778571D01*
X106485714Y-101778571D01*
X106628571Y-101850000D01*
X106700000Y-101921428D01*
X106771428Y-102064285D01*
X106771428Y-102278571D01*
X106700000Y-102421428D01*
X106628571Y-102492857D01*
X106485714Y-102564285D01*
X105914285Y-102564285D01*
X107414285Y-102492857D02*
X107914285Y-102492857D01*
X108128571Y-103278571D02*
X107414285Y-103278571D01*
X107414285Y-101778571D01*
X108128571Y-101778571D01*
X108700000Y-103207142D02*
X108914285Y-103278571D01*
X109271428Y-103278571D01*
X109414285Y-103207142D01*
X109485714Y-103135714D01*
X109557142Y-102992857D01*
X109557142Y-102850000D01*
X109485714Y-102707142D01*
X109414285Y-102635714D01*
X109271428Y-102564285D01*
X108985714Y-102492857D01*
X108842857Y-102421428D01*
X108771428Y-102350000D01*
X108700000Y-102207142D01*
X108700000Y-102064285D01*
X108771428Y-101921428D01*
X108842857Y-101850000D01*
X108985714Y-101778571D01*
X109342857Y-101778571D01*
X109557142Y-101850000D01*
X110200000Y-102492857D02*
X110700000Y-102492857D01*
X110914285Y-103278571D02*
X110200000Y-103278571D01*
X110200000Y-101778571D01*
X110914285Y-101778571D01*
X111342857Y-101778571D02*
X112200000Y-101778571D01*
X111771428Y-103278571D02*
X111771428Y-101778571D01*
X55792857Y-81187142D02*
X56007142Y-81258571D01*
X56364285Y-81258571D01*
X56507142Y-81187142D01*
X56578571Y-81115714D01*
X56650000Y-80972857D01*
X56650000Y-80830000D01*
X56578571Y-80687142D01*
X56507142Y-80615714D01*
X56364285Y-80544285D01*
X56078571Y-80472857D01*
X55935714Y-80401428D01*
X55864285Y-80330000D01*
X55792857Y-80187142D01*
X55792857Y-80044285D01*
X55864285Y-79901428D01*
X55935714Y-79830000D01*
X56078571Y-79758571D01*
X56435714Y-79758571D01*
X56650000Y-79830000D01*
X57292857Y-81258571D02*
X57292857Y-79758571D01*
X57292857Y-80472857D02*
X58150000Y-80472857D01*
X58150000Y-81258571D02*
X58150000Y-79758571D01*
X58864285Y-81258571D02*
X58864285Y-79758571D01*
X59578571Y-80472857D02*
X60078571Y-80472857D01*
X60292857Y-81258571D02*
X59578571Y-81258571D01*
X59578571Y-79758571D01*
X60292857Y-79758571D01*
X61650000Y-81258571D02*
X60935714Y-81258571D01*
X60935714Y-79758571D01*
X62150000Y-81258571D02*
X62150000Y-79758571D01*
X62507142Y-79758571D01*
X62721428Y-79830000D01*
X62864285Y-79972857D01*
X62935714Y-80115714D01*
X63007142Y-80401428D01*
X63007142Y-80615714D01*
X62935714Y-80901428D01*
X62864285Y-81044285D01*
X62721428Y-81187142D01*
X62507142Y-81258571D01*
X62150000Y-81258571D01*
D11*
G04 #@! TO.C,G\u002A\u002A\u002A*
G36*
X76057624Y-65059321D02*
G01*
X76136331Y-65061285D01*
X76203597Y-65064635D01*
X76253464Y-65069363D01*
X76265286Y-65071262D01*
X76367675Y-65100641D01*
X76458169Y-65146361D01*
X76533883Y-65205892D01*
X76591936Y-65276704D01*
X76629444Y-65356264D01*
X76639846Y-65400096D01*
X76639525Y-65474729D01*
X76616349Y-65547356D01*
X76572851Y-65615312D01*
X76511567Y-65675932D01*
X76435032Y-65726550D01*
X76345782Y-65764502D01*
X76276346Y-65782248D01*
X76239104Y-65786547D01*
X76182000Y-65789774D01*
X76110440Y-65791938D01*
X76029828Y-65793048D01*
X75945569Y-65793110D01*
X75863070Y-65792134D01*
X75787735Y-65790129D01*
X75724969Y-65787102D01*
X75680177Y-65783061D01*
X75669238Y-65781310D01*
X75570758Y-65752451D01*
X75484251Y-65708371D01*
X75412389Y-65651674D01*
X75357845Y-65584961D01*
X75323292Y-65510833D01*
X75311400Y-65432949D01*
X75323602Y-65353551D01*
X75358397Y-65278787D01*
X75413064Y-65211187D01*
X75484881Y-65153284D01*
X75571128Y-65107606D01*
X75669085Y-65076685D01*
X75701026Y-65070554D01*
X75747558Y-65065475D01*
X75812443Y-65061820D01*
X75889721Y-65059581D01*
X75973434Y-65058750D01*
X76057624Y-65059321D01*
G37*
X76057624Y-65059321D02*
X76136331Y-65061285D01*
X76203597Y-65064635D01*
X76253464Y-65069363D01*
X76265286Y-65071262D01*
X76367675Y-65100641D01*
X76458169Y-65146361D01*
X76533883Y-65205892D01*
X76591936Y-65276704D01*
X76629444Y-65356264D01*
X76639846Y-65400096D01*
X76639525Y-65474729D01*
X76616349Y-65547356D01*
X76572851Y-65615312D01*
X76511567Y-65675932D01*
X76435032Y-65726550D01*
X76345782Y-65764502D01*
X76276346Y-65782248D01*
X76239104Y-65786547D01*
X76182000Y-65789774D01*
X76110440Y-65791938D01*
X76029828Y-65793048D01*
X75945569Y-65793110D01*
X75863070Y-65792134D01*
X75787735Y-65790129D01*
X75724969Y-65787102D01*
X75680177Y-65783061D01*
X75669238Y-65781310D01*
X75570758Y-65752451D01*
X75484251Y-65708371D01*
X75412389Y-65651674D01*
X75357845Y-65584961D01*
X75323292Y-65510833D01*
X75311400Y-65432949D01*
X75323602Y-65353551D01*
X75358397Y-65278787D01*
X75413064Y-65211187D01*
X75484881Y-65153284D01*
X75571128Y-65107606D01*
X75669085Y-65076685D01*
X75701026Y-65070554D01*
X75747558Y-65065475D01*
X75812443Y-65061820D01*
X75889721Y-65059581D01*
X75973434Y-65058750D01*
X76057624Y-65059321D01*
G36*
X76810213Y-66502925D02*
G01*
X76809647Y-66566280D01*
X76807943Y-66648143D01*
X76805298Y-66741655D01*
X76801911Y-66839958D01*
X76797978Y-66936196D01*
X76797328Y-66950600D01*
X76784751Y-67253189D01*
X76773754Y-67575942D01*
X76764446Y-67913662D01*
X76756935Y-68261154D01*
X76751332Y-68613224D01*
X76747745Y-68964676D01*
X76746283Y-69310316D01*
X76746256Y-69379475D01*
X76746500Y-70252600D01*
X75997200Y-70252600D01*
X75861860Y-70252491D01*
X75734378Y-70252180D01*
X75616968Y-70251684D01*
X75511843Y-70251024D01*
X75421217Y-70250219D01*
X75347303Y-70249289D01*
X75292315Y-70248252D01*
X75258467Y-70247128D01*
X75247900Y-70246028D01*
X75250379Y-70231527D01*
X75257037Y-70198016D01*
X75266699Y-70151315D01*
X75272850Y-70122203D01*
X75292718Y-70017928D01*
X75312791Y-69892349D01*
X75332677Y-69749557D01*
X75351980Y-69593641D01*
X75370306Y-69428691D01*
X75387260Y-69258796D01*
X75402449Y-69088045D01*
X75415478Y-68920530D01*
X75425952Y-68760338D01*
X75433477Y-68611561D01*
X75437659Y-68478287D01*
X75438400Y-68405647D01*
X75436747Y-68303890D01*
X75432011Y-68180749D01*
X75424528Y-68040012D01*
X75414631Y-67885465D01*
X75402656Y-67720893D01*
X75388937Y-67550083D01*
X75373809Y-67376821D01*
X75357607Y-67204894D01*
X75340666Y-67038088D01*
X75323320Y-66880188D01*
X75305904Y-66734981D01*
X75288753Y-66606253D01*
X75272201Y-66497791D01*
X75267089Y-66468000D01*
X75258416Y-66418093D01*
X75251785Y-66377984D01*
X75248239Y-66354054D01*
X75247917Y-66350525D01*
X75260252Y-66348839D01*
X75295820Y-66347248D01*
X75352451Y-66345779D01*
X75427978Y-66344458D01*
X75520232Y-66343312D01*
X75627046Y-66342366D01*
X75746252Y-66341649D01*
X75875682Y-66341185D01*
X76013167Y-66341001D01*
X76028950Y-66341000D01*
X76810000Y-66341000D01*
X76810213Y-66502925D01*
G37*
X76810213Y-66502925D02*
X76809647Y-66566280D01*
X76807943Y-66648143D01*
X76805298Y-66741655D01*
X76801911Y-66839958D01*
X76797978Y-66936196D01*
X76797328Y-66950600D01*
X76784751Y-67253189D01*
X76773754Y-67575942D01*
X76764446Y-67913662D01*
X76756935Y-68261154D01*
X76751332Y-68613224D01*
X76747745Y-68964676D01*
X76746283Y-69310316D01*
X76746256Y-69379475D01*
X76746500Y-70252600D01*
X75997200Y-70252600D01*
X75861860Y-70252491D01*
X75734378Y-70252180D01*
X75616968Y-70251684D01*
X75511843Y-70251024D01*
X75421217Y-70250219D01*
X75347303Y-70249289D01*
X75292315Y-70248252D01*
X75258467Y-70247128D01*
X75247900Y-70246028D01*
X75250379Y-70231527D01*
X75257037Y-70198016D01*
X75266699Y-70151315D01*
X75272850Y-70122203D01*
X75292718Y-70017928D01*
X75312791Y-69892349D01*
X75332677Y-69749557D01*
X75351980Y-69593641D01*
X75370306Y-69428691D01*
X75387260Y-69258796D01*
X75402449Y-69088045D01*
X75415478Y-68920530D01*
X75425952Y-68760338D01*
X75433477Y-68611561D01*
X75437659Y-68478287D01*
X75438400Y-68405647D01*
X75436747Y-68303890D01*
X75432011Y-68180749D01*
X75424528Y-68040012D01*
X75414631Y-67885465D01*
X75402656Y-67720893D01*
X75388937Y-67550083D01*
X75373809Y-67376821D01*
X75357607Y-67204894D01*
X75340666Y-67038088D01*
X75323320Y-66880188D01*
X75305904Y-66734981D01*
X75288753Y-66606253D01*
X75272201Y-66497791D01*
X75267089Y-66468000D01*
X75258416Y-66418093D01*
X75251785Y-66377984D01*
X75248239Y-66354054D01*
X75247917Y-66350525D01*
X75260252Y-66348839D01*
X75295820Y-66347248D01*
X75352451Y-66345779D01*
X75427978Y-66344458D01*
X75520232Y-66343312D01*
X75627046Y-66342366D01*
X75746252Y-66341649D01*
X75875682Y-66341185D01*
X76013167Y-66341001D01*
X76028950Y-66341000D01*
X76810000Y-66341000D01*
X76810213Y-66502925D01*
G36*
X70972228Y-66336956D02*
G01*
X71033289Y-66341658D01*
X71082300Y-66346351D01*
X71158277Y-66354622D01*
X71216274Y-66363237D01*
X71263675Y-66373864D01*
X71307866Y-66388174D01*
X71356231Y-66407838D01*
X71358491Y-66408817D01*
X71433286Y-66444030D01*
X71501342Y-66482744D01*
X71567978Y-66528725D01*
X71638515Y-66585741D01*
X71718273Y-66657558D01*
X71743876Y-66681680D01*
X71878402Y-66809424D01*
X71921676Y-66773804D01*
X71994299Y-66719533D01*
X72084160Y-66660984D01*
X72185719Y-66601069D01*
X72293433Y-66542696D01*
X72401762Y-66488776D01*
X72505165Y-66442218D01*
X72598100Y-66405933D01*
X72658163Y-66387058D01*
X72747781Y-66368263D01*
X72854377Y-66354274D01*
X72969904Y-66345535D01*
X73086316Y-66342493D01*
X73195568Y-66345592D01*
X73273782Y-66352977D01*
X73467021Y-66388780D01*
X73644915Y-66441727D01*
X73806486Y-66511168D01*
X73950756Y-66596451D01*
X74076745Y-66696928D01*
X74183475Y-66811946D01*
X74269967Y-66940856D01*
X74322490Y-67049988D01*
X74337048Y-67086498D01*
X74350085Y-67121608D01*
X74361741Y-67156957D01*
X74372155Y-67194185D01*
X74381468Y-67234933D01*
X74389819Y-67280841D01*
X74397348Y-67333548D01*
X74404194Y-67394694D01*
X74410498Y-67465920D01*
X74416399Y-67548866D01*
X74422036Y-67645171D01*
X74427550Y-67756475D01*
X74433081Y-67884420D01*
X74438767Y-68030643D01*
X74444750Y-68196787D01*
X74451167Y-68384490D01*
X74458161Y-68595393D01*
X74460654Y-68671450D01*
X74466354Y-68843730D01*
X74471964Y-69009672D01*
X74477415Y-69167399D01*
X74482636Y-69315033D01*
X74487556Y-69450696D01*
X74492106Y-69572512D01*
X74496215Y-69678604D01*
X74499812Y-69767094D01*
X74502829Y-69836104D01*
X74505193Y-69883758D01*
X74506836Y-69908179D01*
X74507013Y-69909700D01*
X74520233Y-69962111D01*
X74545051Y-70024487D01*
X74577298Y-70088750D01*
X74612807Y-70146823D01*
X74647411Y-70190628D01*
X74656419Y-70199279D01*
X74683058Y-70223960D01*
X74699381Y-70241573D01*
X74701800Y-70245861D01*
X74689472Y-70247089D01*
X74653976Y-70248244D01*
X74597546Y-70249307D01*
X74522414Y-70250256D01*
X74430812Y-70251073D01*
X74324973Y-70251735D01*
X74207130Y-70252224D01*
X74079515Y-70252518D01*
X73965200Y-70252600D01*
X73807509Y-70252735D01*
X73673400Y-70252949D01*
X73561056Y-70252953D01*
X73468660Y-70252456D01*
X73394396Y-70251170D01*
X73336447Y-70248806D01*
X73292998Y-70245073D01*
X73262232Y-70239683D01*
X73242333Y-70232346D01*
X73231484Y-70222773D01*
X73227869Y-70210675D01*
X73229672Y-70195762D01*
X73235076Y-70177746D01*
X73242265Y-70156336D01*
X73247623Y-70138300D01*
X73257748Y-70097346D01*
X73266654Y-70053597D01*
X73274404Y-70005308D01*
X73281064Y-69950735D01*
X73286699Y-69888136D01*
X73291376Y-69815767D01*
X73295159Y-69731884D01*
X73298113Y-69634745D01*
X73300305Y-69522604D01*
X73301799Y-69393720D01*
X73302660Y-69246348D01*
X73302955Y-69078746D01*
X73302748Y-68889169D01*
X73302135Y-68684150D01*
X73298450Y-67680850D01*
X73263167Y-67576692D01*
X73221013Y-67478576D01*
X73164189Y-67385093D01*
X73096779Y-67301219D01*
X73022865Y-67231929D01*
X72946530Y-67182198D01*
X72934872Y-67176619D01*
X72861902Y-67151901D01*
X72774941Y-67135635D01*
X72684484Y-67129504D01*
X72646781Y-67130422D01*
X72593913Y-67135735D01*
X72547631Y-67147021D01*
X72497360Y-67167414D01*
X72459804Y-67185879D01*
X72372683Y-67240423D01*
X72298615Y-67309424D01*
X72235518Y-67395623D01*
X72181310Y-67501760D01*
X72142903Y-67602988D01*
X72111000Y-67698028D01*
X72111000Y-68637366D01*
X72111032Y-68815548D01*
X72111160Y-68970264D01*
X72111428Y-69103446D01*
X72111880Y-69217026D01*
X72112561Y-69312938D01*
X72113516Y-69393115D01*
X72114790Y-69459489D01*
X72116426Y-69513993D01*
X72118471Y-69558561D01*
X72120968Y-69595125D01*
X72123963Y-69625618D01*
X72127499Y-69651974D01*
X72131622Y-69676124D01*
X72135459Y-69695576D01*
X72159291Y-69806538D01*
X72181329Y-69896603D01*
X72203212Y-69970041D01*
X72226577Y-70031123D01*
X72253064Y-70084120D01*
X72284310Y-70133302D01*
X72321954Y-70182940D01*
X72322857Y-70184057D01*
X72346574Y-70214817D01*
X72361860Y-70237397D01*
X72365000Y-70244382D01*
X72352665Y-70245855D01*
X72317126Y-70247242D01*
X72260578Y-70248521D01*
X72185214Y-70249669D01*
X72093231Y-70250661D01*
X71986823Y-70251473D01*
X71868185Y-70252083D01*
X71739513Y-70252466D01*
X71603001Y-70252599D01*
X71603000Y-70252600D01*
X71466488Y-70252513D01*
X71337815Y-70252264D01*
X71219177Y-70251869D01*
X71112769Y-70251341D01*
X71020786Y-70250697D01*
X70945422Y-70249952D01*
X70888873Y-70249122D01*
X70853334Y-70248221D01*
X70841000Y-70247266D01*
X70843496Y-70233470D01*
X70850282Y-70199970D01*
X70860302Y-70151893D01*
X70871716Y-70098041D01*
X70886629Y-70024427D01*
X70899708Y-69950837D01*
X70911075Y-69875108D01*
X70920851Y-69795071D01*
X70929160Y-69708563D01*
X70936123Y-69613417D01*
X70941863Y-69507468D01*
X70946501Y-69388550D01*
X70950161Y-69254497D01*
X70952964Y-69103145D01*
X70955032Y-68932326D01*
X70956488Y-68739876D01*
X70957242Y-68582550D01*
X70960592Y-67718950D01*
X70931994Y-67630100D01*
X70885357Y-67513555D01*
X70823562Y-67401705D01*
X70755426Y-67308578D01*
X70718006Y-67266504D01*
X70685155Y-67235902D01*
X70649549Y-67211715D01*
X70603863Y-67188883D01*
X70547883Y-67165235D01*
X70439429Y-67134477D01*
X70326988Y-67128638D01*
X70211234Y-67147665D01*
X70092840Y-67191509D01*
X70072650Y-67201350D01*
X69998434Y-67252563D01*
X69930596Y-67327964D01*
X69883952Y-67400514D01*
X69870857Y-67423530D01*
X69859338Y-67444294D01*
X69849281Y-67464508D01*
X69840575Y-67485878D01*
X69833106Y-67510109D01*
X69826761Y-67538904D01*
X69821427Y-67573968D01*
X69816992Y-67617006D01*
X69813343Y-67669721D01*
X69810366Y-67733820D01*
X69807950Y-67811005D01*
X69805981Y-67902982D01*
X69804346Y-68011455D01*
X69802932Y-68138128D01*
X69801628Y-68284705D01*
X69800319Y-68452893D01*
X69798893Y-68644394D01*
X69798547Y-68690500D01*
X69797289Y-68856462D01*
X69796064Y-69015923D01*
X69794888Y-69166945D01*
X69793776Y-69307591D01*
X69792744Y-69435923D01*
X69791809Y-69550003D01*
X69790985Y-69647893D01*
X69790290Y-69727657D01*
X69789738Y-69787355D01*
X69789346Y-69825051D01*
X69789165Y-69837741D01*
X69799475Y-69914202D01*
X69832961Y-69995399D01*
X69888450Y-70078855D01*
X69922792Y-70119250D01*
X70003862Y-70208150D01*
X69943006Y-70215867D01*
X69917535Y-70217692D01*
X69869637Y-70219751D01*
X69802281Y-70221966D01*
X69718437Y-70224259D01*
X69621074Y-70226553D01*
X69513164Y-70228771D01*
X69397676Y-70230833D01*
X69329700Y-70231908D01*
X69206967Y-70233889D01*
X69086532Y-70236079D01*
X68971989Y-70238395D01*
X68866929Y-70240755D01*
X68774944Y-70243077D01*
X68699628Y-70245277D01*
X68644573Y-70247273D01*
X68628025Y-70248048D01*
X68563877Y-70251026D01*
X68520970Y-70251767D01*
X68495219Y-70249943D01*
X68482536Y-70245226D01*
X68478834Y-70237287D01*
X68478800Y-70236068D01*
X68480246Y-70219562D01*
X68484379Y-70180567D01*
X68490889Y-70121814D01*
X68499463Y-70046036D01*
X68509794Y-69955966D01*
X68521568Y-69854336D01*
X68534478Y-69743880D01*
X68541382Y-69685161D01*
X68563668Y-69491614D01*
X68582270Y-69319099D01*
X68597423Y-69163555D01*
X68609361Y-69020917D01*
X68618320Y-68887124D01*
X68624532Y-68758111D01*
X68628233Y-68629817D01*
X68629656Y-68498177D01*
X68629037Y-68359129D01*
X68626609Y-68208611D01*
X68626595Y-68207900D01*
X68620508Y-67974989D01*
X68612088Y-67762655D01*
X68600906Y-67566145D01*
X68586535Y-67380708D01*
X68568546Y-67201591D01*
X68546512Y-67024043D01*
X68520005Y-66843311D01*
X68488597Y-66654644D01*
X68484807Y-66633100D01*
X68473084Y-66566509D01*
X68462867Y-66507944D01*
X68455020Y-66462387D01*
X68450404Y-66434823D01*
X68449649Y-66429900D01*
X68451477Y-66424374D01*
X68460379Y-66420104D01*
X68478947Y-66416983D01*
X68509775Y-66414907D01*
X68555456Y-66413769D01*
X68618582Y-66413465D01*
X68701747Y-66413888D01*
X68807544Y-66414933D01*
X68815350Y-66415021D01*
X68931350Y-66415610D01*
X69058721Y-66415019D01*
X69189546Y-66413366D01*
X69315908Y-66410772D01*
X69429890Y-66407356D01*
X69493023Y-66404778D01*
X69578880Y-66400951D01*
X69655928Y-66397848D01*
X69720665Y-66395583D01*
X69769591Y-66394270D01*
X69799204Y-66394023D01*
X69806613Y-66394580D01*
X69809269Y-66408085D01*
X69813556Y-66442062D01*
X69818925Y-66491681D01*
X69824824Y-66552106D01*
X69826017Y-66565038D01*
X69841203Y-66731279D01*
X69939968Y-66670023D01*
X70063389Y-66600502D01*
X70202947Y-66533882D01*
X70351399Y-66472939D01*
X70501503Y-66420446D01*
X70646016Y-66379179D01*
X70764800Y-66354016D01*
X70827450Y-66343977D01*
X70877467Y-66337918D01*
X70923006Y-66335644D01*
X70972228Y-66336956D01*
G37*
X70972228Y-66336956D02*
X71033289Y-66341658D01*
X71082300Y-66346351D01*
X71158277Y-66354622D01*
X71216274Y-66363237D01*
X71263675Y-66373864D01*
X71307866Y-66388174D01*
X71356231Y-66407838D01*
X71358491Y-66408817D01*
X71433286Y-66444030D01*
X71501342Y-66482744D01*
X71567978Y-66528725D01*
X71638515Y-66585741D01*
X71718273Y-66657558D01*
X71743876Y-66681680D01*
X71878402Y-66809424D01*
X71921676Y-66773804D01*
X71994299Y-66719533D01*
X72084160Y-66660984D01*
X72185719Y-66601069D01*
X72293433Y-66542696D01*
X72401762Y-66488776D01*
X72505165Y-66442218D01*
X72598100Y-66405933D01*
X72658163Y-66387058D01*
X72747781Y-66368263D01*
X72854377Y-66354274D01*
X72969904Y-66345535D01*
X73086316Y-66342493D01*
X73195568Y-66345592D01*
X73273782Y-66352977D01*
X73467021Y-66388780D01*
X73644915Y-66441727D01*
X73806486Y-66511168D01*
X73950756Y-66596451D01*
X74076745Y-66696928D01*
X74183475Y-66811946D01*
X74269967Y-66940856D01*
X74322490Y-67049988D01*
X74337048Y-67086498D01*
X74350085Y-67121608D01*
X74361741Y-67156957D01*
X74372155Y-67194185D01*
X74381468Y-67234933D01*
X74389819Y-67280841D01*
X74397348Y-67333548D01*
X74404194Y-67394694D01*
X74410498Y-67465920D01*
X74416399Y-67548866D01*
X74422036Y-67645171D01*
X74427550Y-67756475D01*
X74433081Y-67884420D01*
X74438767Y-68030643D01*
X74444750Y-68196787D01*
X74451167Y-68384490D01*
X74458161Y-68595393D01*
X74460654Y-68671450D01*
X74466354Y-68843730D01*
X74471964Y-69009672D01*
X74477415Y-69167399D01*
X74482636Y-69315033D01*
X74487556Y-69450696D01*
X74492106Y-69572512D01*
X74496215Y-69678604D01*
X74499812Y-69767094D01*
X74502829Y-69836104D01*
X74505193Y-69883758D01*
X74506836Y-69908179D01*
X74507013Y-69909700D01*
X74520233Y-69962111D01*
X74545051Y-70024487D01*
X74577298Y-70088750D01*
X74612807Y-70146823D01*
X74647411Y-70190628D01*
X74656419Y-70199279D01*
X74683058Y-70223960D01*
X74699381Y-70241573D01*
X74701800Y-70245861D01*
X74689472Y-70247089D01*
X74653976Y-70248244D01*
X74597546Y-70249307D01*
X74522414Y-70250256D01*
X74430812Y-70251073D01*
X74324973Y-70251735D01*
X74207130Y-70252224D01*
X74079515Y-70252518D01*
X73965200Y-70252600D01*
X73807509Y-70252735D01*
X73673400Y-70252949D01*
X73561056Y-70252953D01*
X73468660Y-70252456D01*
X73394396Y-70251170D01*
X73336447Y-70248806D01*
X73292998Y-70245073D01*
X73262232Y-70239683D01*
X73242333Y-70232346D01*
X73231484Y-70222773D01*
X73227869Y-70210675D01*
X73229672Y-70195762D01*
X73235076Y-70177746D01*
X73242265Y-70156336D01*
X73247623Y-70138300D01*
X73257748Y-70097346D01*
X73266654Y-70053597D01*
X73274404Y-70005308D01*
X73281064Y-69950735D01*
X73286699Y-69888136D01*
X73291376Y-69815767D01*
X73295159Y-69731884D01*
X73298113Y-69634745D01*
X73300305Y-69522604D01*
X73301799Y-69393720D01*
X73302660Y-69246348D01*
X73302955Y-69078746D01*
X73302748Y-68889169D01*
X73302135Y-68684150D01*
X73298450Y-67680850D01*
X73263167Y-67576692D01*
X73221013Y-67478576D01*
X73164189Y-67385093D01*
X73096779Y-67301219D01*
X73022865Y-67231929D01*
X72946530Y-67182198D01*
X72934872Y-67176619D01*
X72861902Y-67151901D01*
X72774941Y-67135635D01*
X72684484Y-67129504D01*
X72646781Y-67130422D01*
X72593913Y-67135735D01*
X72547631Y-67147021D01*
X72497360Y-67167414D01*
X72459804Y-67185879D01*
X72372683Y-67240423D01*
X72298615Y-67309424D01*
X72235518Y-67395623D01*
X72181310Y-67501760D01*
X72142903Y-67602988D01*
X72111000Y-67698028D01*
X72111000Y-68637366D01*
X72111032Y-68815548D01*
X72111160Y-68970264D01*
X72111428Y-69103446D01*
X72111880Y-69217026D01*
X72112561Y-69312938D01*
X72113516Y-69393115D01*
X72114790Y-69459489D01*
X72116426Y-69513993D01*
X72118471Y-69558561D01*
X72120968Y-69595125D01*
X72123963Y-69625618D01*
X72127499Y-69651974D01*
X72131622Y-69676124D01*
X72135459Y-69695576D01*
X72159291Y-69806538D01*
X72181329Y-69896603D01*
X72203212Y-69970041D01*
X72226577Y-70031123D01*
X72253064Y-70084120D01*
X72284310Y-70133302D01*
X72321954Y-70182940D01*
X72322857Y-70184057D01*
X72346574Y-70214817D01*
X72361860Y-70237397D01*
X72365000Y-70244382D01*
X72352665Y-70245855D01*
X72317126Y-70247242D01*
X72260578Y-70248521D01*
X72185214Y-70249669D01*
X72093231Y-70250661D01*
X71986823Y-70251473D01*
X71868185Y-70252083D01*
X71739513Y-70252466D01*
X71603001Y-70252599D01*
X71603000Y-70252600D01*
X71466488Y-70252513D01*
X71337815Y-70252264D01*
X71219177Y-70251869D01*
X71112769Y-70251341D01*
X71020786Y-70250697D01*
X70945422Y-70249952D01*
X70888873Y-70249122D01*
X70853334Y-70248221D01*
X70841000Y-70247266D01*
X70843496Y-70233470D01*
X70850282Y-70199970D01*
X70860302Y-70151893D01*
X70871716Y-70098041D01*
X70886629Y-70024427D01*
X70899708Y-69950837D01*
X70911075Y-69875108D01*
X70920851Y-69795071D01*
X70929160Y-69708563D01*
X70936123Y-69613417D01*
X70941863Y-69507468D01*
X70946501Y-69388550D01*
X70950161Y-69254497D01*
X70952964Y-69103145D01*
X70955032Y-68932326D01*
X70956488Y-68739876D01*
X70957242Y-68582550D01*
X70960592Y-67718950D01*
X70931994Y-67630100D01*
X70885357Y-67513555D01*
X70823562Y-67401705D01*
X70755426Y-67308578D01*
X70718006Y-67266504D01*
X70685155Y-67235902D01*
X70649549Y-67211715D01*
X70603863Y-67188883D01*
X70547883Y-67165235D01*
X70439429Y-67134477D01*
X70326988Y-67128638D01*
X70211234Y-67147665D01*
X70092840Y-67191509D01*
X70072650Y-67201350D01*
X69998434Y-67252563D01*
X69930596Y-67327964D01*
X69883952Y-67400514D01*
X69870857Y-67423530D01*
X69859338Y-67444294D01*
X69849281Y-67464508D01*
X69840575Y-67485878D01*
X69833106Y-67510109D01*
X69826761Y-67538904D01*
X69821427Y-67573968D01*
X69816992Y-67617006D01*
X69813343Y-67669721D01*
X69810366Y-67733820D01*
X69807950Y-67811005D01*
X69805981Y-67902982D01*
X69804346Y-68011455D01*
X69802932Y-68138128D01*
X69801628Y-68284705D01*
X69800319Y-68452893D01*
X69798893Y-68644394D01*
X69798547Y-68690500D01*
X69797289Y-68856462D01*
X69796064Y-69015923D01*
X69794888Y-69166945D01*
X69793776Y-69307591D01*
X69792744Y-69435923D01*
X69791809Y-69550003D01*
X69790985Y-69647893D01*
X69790290Y-69727657D01*
X69789738Y-69787355D01*
X69789346Y-69825051D01*
X69789165Y-69837741D01*
X69799475Y-69914202D01*
X69832961Y-69995399D01*
X69888450Y-70078855D01*
X69922792Y-70119250D01*
X70003862Y-70208150D01*
X69943006Y-70215867D01*
X69917535Y-70217692D01*
X69869637Y-70219751D01*
X69802281Y-70221966D01*
X69718437Y-70224259D01*
X69621074Y-70226553D01*
X69513164Y-70228771D01*
X69397676Y-70230833D01*
X69329700Y-70231908D01*
X69206967Y-70233889D01*
X69086532Y-70236079D01*
X68971989Y-70238395D01*
X68866929Y-70240755D01*
X68774944Y-70243077D01*
X68699628Y-70245277D01*
X68644573Y-70247273D01*
X68628025Y-70248048D01*
X68563877Y-70251026D01*
X68520970Y-70251767D01*
X68495219Y-70249943D01*
X68482536Y-70245226D01*
X68478834Y-70237287D01*
X68478800Y-70236068D01*
X68480246Y-70219562D01*
X68484379Y-70180567D01*
X68490889Y-70121814D01*
X68499463Y-70046036D01*
X68509794Y-69955966D01*
X68521568Y-69854336D01*
X68534478Y-69743880D01*
X68541382Y-69685161D01*
X68563668Y-69491614D01*
X68582270Y-69319099D01*
X68597423Y-69163555D01*
X68609361Y-69020917D01*
X68618320Y-68887124D01*
X68624532Y-68758111D01*
X68628233Y-68629817D01*
X68629656Y-68498177D01*
X68629037Y-68359129D01*
X68626609Y-68208611D01*
X68626595Y-68207900D01*
X68620508Y-67974989D01*
X68612088Y-67762655D01*
X68600906Y-67566145D01*
X68586535Y-67380708D01*
X68568546Y-67201591D01*
X68546512Y-67024043D01*
X68520005Y-66843311D01*
X68488597Y-66654644D01*
X68484807Y-66633100D01*
X68473084Y-66566509D01*
X68462867Y-66507944D01*
X68455020Y-66462387D01*
X68450404Y-66434823D01*
X68449649Y-66429900D01*
X68451477Y-66424374D01*
X68460379Y-66420104D01*
X68478947Y-66416983D01*
X68509775Y-66414907D01*
X68555456Y-66413769D01*
X68618582Y-66413465D01*
X68701747Y-66413888D01*
X68807544Y-66414933D01*
X68815350Y-66415021D01*
X68931350Y-66415610D01*
X69058721Y-66415019D01*
X69189546Y-66413366D01*
X69315908Y-66410772D01*
X69429890Y-66407356D01*
X69493023Y-66404778D01*
X69578880Y-66400951D01*
X69655928Y-66397848D01*
X69720665Y-66395583D01*
X69769591Y-66394270D01*
X69799204Y-66394023D01*
X69806613Y-66394580D01*
X69809269Y-66408085D01*
X69813556Y-66442062D01*
X69818925Y-66491681D01*
X69824824Y-66552106D01*
X69826017Y-66565038D01*
X69841203Y-66731279D01*
X69939968Y-66670023D01*
X70063389Y-66600502D01*
X70202947Y-66533882D01*
X70351399Y-66472939D01*
X70501503Y-66420446D01*
X70646016Y-66379179D01*
X70764800Y-66354016D01*
X70827450Y-66343977D01*
X70877467Y-66337918D01*
X70923006Y-66335644D01*
X70972228Y-66336956D01*
G36*
X84179404Y-66317618D02*
G01*
X84232276Y-66320991D01*
X84284118Y-66326833D01*
X84341014Y-66335460D01*
X84372850Y-66340845D01*
X84481305Y-66360804D01*
X84591112Y-66383257D01*
X84699436Y-66407425D01*
X84803446Y-66432528D01*
X84900309Y-66457790D01*
X84987192Y-66482430D01*
X85061264Y-66505671D01*
X85119691Y-66526734D01*
X85159642Y-66544839D01*
X85178284Y-66559209D01*
X85179300Y-66562533D01*
X85180617Y-66578482D01*
X85184336Y-66616284D01*
X85190103Y-66672542D01*
X85197566Y-66743858D01*
X85206372Y-66826836D01*
X85216169Y-66918077D01*
X85216924Y-66925069D01*
X85226650Y-67016032D01*
X85235249Y-67098305D01*
X85242397Y-67168638D01*
X85247772Y-67223783D01*
X85251050Y-67260494D01*
X85251907Y-67275522D01*
X85251849Y-67275705D01*
X85239925Y-67271748D01*
X85208908Y-67259233D01*
X85162928Y-67239883D01*
X85106117Y-67215424D01*
X85077700Y-67203025D01*
X84925875Y-67141079D01*
X84769889Y-67085895D01*
X84614140Y-67038604D01*
X84463028Y-67000338D01*
X84320953Y-66972227D01*
X84192316Y-66955403D01*
X84096542Y-66950821D01*
X83965632Y-66957211D01*
X83838418Y-66975072D01*
X83719089Y-67003188D01*
X83611836Y-67040340D01*
X83520848Y-67085312D01*
X83450318Y-67136885D01*
X83447711Y-67139324D01*
X83389856Y-67209951D01*
X83354043Y-67289051D01*
X83339663Y-67373598D01*
X83346110Y-67460566D01*
X83372777Y-67546928D01*
X83419056Y-67629660D01*
X83484341Y-67705736D01*
X83568024Y-67772128D01*
X83575664Y-67777037D01*
X83627450Y-67806744D01*
X83685174Y-67833455D01*
X83751931Y-67858063D01*
X83830816Y-67881465D01*
X83924923Y-67904555D01*
X84037347Y-67928229D01*
X84171182Y-67953383D01*
X84207750Y-67959901D01*
X84309793Y-67978268D01*
X84395832Y-67994892D01*
X84470713Y-68011246D01*
X84539278Y-68028803D01*
X84606374Y-68049036D01*
X84676845Y-68073417D01*
X84755536Y-68103419D01*
X84847290Y-68140515D01*
X84956954Y-68186178D01*
X84969750Y-68191548D01*
X85108607Y-68254685D01*
X85225974Y-68319001D01*
X85325727Y-68386931D01*
X85411743Y-68460913D01*
X85434340Y-68483505D01*
X85518661Y-68582537D01*
X85582197Y-68685992D01*
X85629365Y-68801466D01*
X85640685Y-68838539D01*
X85667669Y-68939691D01*
X85685415Y-69024142D01*
X85694837Y-69098475D01*
X85696845Y-69169272D01*
X85694059Y-69223707D01*
X85667773Y-69396645D01*
X85617137Y-69562877D01*
X85542484Y-69721682D01*
X85444147Y-69872340D01*
X85332627Y-70003572D01*
X85227101Y-70098302D01*
X85097713Y-70186522D01*
X84945253Y-70267840D01*
X84770512Y-70341865D01*
X84574280Y-70408203D01*
X84442700Y-70445162D01*
X84376371Y-70462324D01*
X84323036Y-70475236D01*
X84277066Y-70484578D01*
X84232834Y-70491032D01*
X84184713Y-70495279D01*
X84127075Y-70497999D01*
X84054295Y-70499874D01*
X83979150Y-70501263D01*
X83881979Y-70502570D01*
X83805081Y-70502498D01*
X83743356Y-70500797D01*
X83691701Y-70497214D01*
X83645014Y-70491498D01*
X83598196Y-70483397D01*
X83591800Y-70482149D01*
X83480033Y-70457973D01*
X83363436Y-70428917D01*
X83246081Y-70396303D01*
X83132043Y-70361455D01*
X83025395Y-70325693D01*
X82930213Y-70290342D01*
X82850570Y-70256723D01*
X82790541Y-70226158D01*
X82776604Y-70217545D01*
X82729758Y-70186756D01*
X82629091Y-69778353D01*
X82605121Y-69680605D01*
X82583388Y-69591011D01*
X82564577Y-69512476D01*
X82549375Y-69447901D01*
X82538468Y-69400190D01*
X82532540Y-69372246D01*
X82531704Y-69366015D01*
X82543547Y-69370077D01*
X82574251Y-69383812D01*
X82620011Y-69405433D01*
X82677021Y-69433150D01*
X82723667Y-69456261D01*
X82848614Y-69514059D01*
X82987210Y-69570309D01*
X83131867Y-69622378D01*
X83274995Y-69667638D01*
X83409003Y-69703457D01*
X83483850Y-69719706D01*
X83654128Y-69744605D01*
X83835607Y-69756694D01*
X84017268Y-69755474D01*
X84118850Y-69748426D01*
X84269113Y-69729750D01*
X84395945Y-69704268D01*
X84500527Y-69671438D01*
X84584045Y-69630713D01*
X84647681Y-69581549D01*
X84692621Y-69523401D01*
X84714531Y-69474281D01*
X84731029Y-69410455D01*
X84732477Y-69355214D01*
X84718918Y-69296712D01*
X84715205Y-69285821D01*
X84678814Y-69218710D01*
X84621575Y-69159370D01*
X84547800Y-69112081D01*
X84533201Y-69105225D01*
X84485364Y-69088390D01*
X84415627Y-69070172D01*
X84327409Y-69051225D01*
X84224130Y-69032200D01*
X84109208Y-69013750D01*
X83986061Y-68996529D01*
X83922000Y-68988526D01*
X83831872Y-68975904D01*
X83748171Y-68959769D01*
X83666054Y-68938561D01*
X83580679Y-68910722D01*
X83487205Y-68874694D01*
X83380791Y-68828917D01*
X83273387Y-68779701D01*
X83121989Y-68704804D01*
X82991856Y-68631085D01*
X82879129Y-68555985D01*
X82779949Y-68476944D01*
X82695192Y-68396322D01*
X82622264Y-68314745D01*
X82567933Y-68238449D01*
X82528229Y-68161052D01*
X82501784Y-68085399D01*
X82473772Y-67969893D01*
X82457028Y-67853491D01*
X82450747Y-67728237D01*
X82453197Y-67605197D01*
X82468281Y-67416344D01*
X82495362Y-67247132D01*
X82534233Y-67098334D01*
X82584688Y-66970727D01*
X82646518Y-66865084D01*
X82653959Y-66854899D01*
X82737941Y-66759908D01*
X82842982Y-66669654D01*
X82964808Y-66586986D01*
X83099150Y-66514755D01*
X83241734Y-66455809D01*
X83263482Y-66448318D01*
X83378333Y-66410723D01*
X83475656Y-66381455D01*
X83561497Y-66359385D01*
X83641902Y-66343380D01*
X83722915Y-66332310D01*
X83810583Y-66325043D01*
X83910951Y-66320448D01*
X83953750Y-66319166D01*
X84046225Y-66317020D01*
X84119415Y-66316399D01*
X84179404Y-66317618D01*
G37*
X84179404Y-66317618D02*
X84232276Y-66320991D01*
X84284118Y-66326833D01*
X84341014Y-66335460D01*
X84372850Y-66340845D01*
X84481305Y-66360804D01*
X84591112Y-66383257D01*
X84699436Y-66407425D01*
X84803446Y-66432528D01*
X84900309Y-66457790D01*
X84987192Y-66482430D01*
X85061264Y-66505671D01*
X85119691Y-66526734D01*
X85159642Y-66544839D01*
X85178284Y-66559209D01*
X85179300Y-66562533D01*
X85180617Y-66578482D01*
X85184336Y-66616284D01*
X85190103Y-66672542D01*
X85197566Y-66743858D01*
X85206372Y-66826836D01*
X85216169Y-66918077D01*
X85216924Y-66925069D01*
X85226650Y-67016032D01*
X85235249Y-67098305D01*
X85242397Y-67168638D01*
X85247772Y-67223783D01*
X85251050Y-67260494D01*
X85251907Y-67275522D01*
X85251849Y-67275705D01*
X85239925Y-67271748D01*
X85208908Y-67259233D01*
X85162928Y-67239883D01*
X85106117Y-67215424D01*
X85077700Y-67203025D01*
X84925875Y-67141079D01*
X84769889Y-67085895D01*
X84614140Y-67038604D01*
X84463028Y-67000338D01*
X84320953Y-66972227D01*
X84192316Y-66955403D01*
X84096542Y-66950821D01*
X83965632Y-66957211D01*
X83838418Y-66975072D01*
X83719089Y-67003188D01*
X83611836Y-67040340D01*
X83520848Y-67085312D01*
X83450318Y-67136885D01*
X83447711Y-67139324D01*
X83389856Y-67209951D01*
X83354043Y-67289051D01*
X83339663Y-67373598D01*
X83346110Y-67460566D01*
X83372777Y-67546928D01*
X83419056Y-67629660D01*
X83484341Y-67705736D01*
X83568024Y-67772128D01*
X83575664Y-67777037D01*
X83627450Y-67806744D01*
X83685174Y-67833455D01*
X83751931Y-67858063D01*
X83830816Y-67881465D01*
X83924923Y-67904555D01*
X84037347Y-67928229D01*
X84171182Y-67953383D01*
X84207750Y-67959901D01*
X84309793Y-67978268D01*
X84395832Y-67994892D01*
X84470713Y-68011246D01*
X84539278Y-68028803D01*
X84606374Y-68049036D01*
X84676845Y-68073417D01*
X84755536Y-68103419D01*
X84847290Y-68140515D01*
X84956954Y-68186178D01*
X84969750Y-68191548D01*
X85108607Y-68254685D01*
X85225974Y-68319001D01*
X85325727Y-68386931D01*
X85411743Y-68460913D01*
X85434340Y-68483505D01*
X85518661Y-68582537D01*
X85582197Y-68685992D01*
X85629365Y-68801466D01*
X85640685Y-68838539D01*
X85667669Y-68939691D01*
X85685415Y-69024142D01*
X85694837Y-69098475D01*
X85696845Y-69169272D01*
X85694059Y-69223707D01*
X85667773Y-69396645D01*
X85617137Y-69562877D01*
X85542484Y-69721682D01*
X85444147Y-69872340D01*
X85332627Y-70003572D01*
X85227101Y-70098302D01*
X85097713Y-70186522D01*
X84945253Y-70267840D01*
X84770512Y-70341865D01*
X84574280Y-70408203D01*
X84442700Y-70445162D01*
X84376371Y-70462324D01*
X84323036Y-70475236D01*
X84277066Y-70484578D01*
X84232834Y-70491032D01*
X84184713Y-70495279D01*
X84127075Y-70497999D01*
X84054295Y-70499874D01*
X83979150Y-70501263D01*
X83881979Y-70502570D01*
X83805081Y-70502498D01*
X83743356Y-70500797D01*
X83691701Y-70497214D01*
X83645014Y-70491498D01*
X83598196Y-70483397D01*
X83591800Y-70482149D01*
X83480033Y-70457973D01*
X83363436Y-70428917D01*
X83246081Y-70396303D01*
X83132043Y-70361455D01*
X83025395Y-70325693D01*
X82930213Y-70290342D01*
X82850570Y-70256723D01*
X82790541Y-70226158D01*
X82776604Y-70217545D01*
X82729758Y-70186756D01*
X82629091Y-69778353D01*
X82605121Y-69680605D01*
X82583388Y-69591011D01*
X82564577Y-69512476D01*
X82549375Y-69447901D01*
X82538468Y-69400190D01*
X82532540Y-69372246D01*
X82531704Y-69366015D01*
X82543547Y-69370077D01*
X82574251Y-69383812D01*
X82620011Y-69405433D01*
X82677021Y-69433150D01*
X82723667Y-69456261D01*
X82848614Y-69514059D01*
X82987210Y-69570309D01*
X83131867Y-69622378D01*
X83274995Y-69667638D01*
X83409003Y-69703457D01*
X83483850Y-69719706D01*
X83654128Y-69744605D01*
X83835607Y-69756694D01*
X84017268Y-69755474D01*
X84118850Y-69748426D01*
X84269113Y-69729750D01*
X84395945Y-69704268D01*
X84500527Y-69671438D01*
X84584045Y-69630713D01*
X84647681Y-69581549D01*
X84692621Y-69523401D01*
X84714531Y-69474281D01*
X84731029Y-69410455D01*
X84732477Y-69355214D01*
X84718918Y-69296712D01*
X84715205Y-69285821D01*
X84678814Y-69218710D01*
X84621575Y-69159370D01*
X84547800Y-69112081D01*
X84533201Y-69105225D01*
X84485364Y-69088390D01*
X84415627Y-69070172D01*
X84327409Y-69051225D01*
X84224130Y-69032200D01*
X84109208Y-69013750D01*
X83986061Y-68996529D01*
X83922000Y-68988526D01*
X83831872Y-68975904D01*
X83748171Y-68959769D01*
X83666054Y-68938561D01*
X83580679Y-68910722D01*
X83487205Y-68874694D01*
X83380791Y-68828917D01*
X83273387Y-68779701D01*
X83121989Y-68704804D01*
X82991856Y-68631085D01*
X82879129Y-68555985D01*
X82779949Y-68476944D01*
X82695192Y-68396322D01*
X82622264Y-68314745D01*
X82567933Y-68238449D01*
X82528229Y-68161052D01*
X82501784Y-68085399D01*
X82473772Y-67969893D01*
X82457028Y-67853491D01*
X82450747Y-67728237D01*
X82453197Y-67605197D01*
X82468281Y-67416344D01*
X82495362Y-67247132D01*
X82534233Y-67098334D01*
X82584688Y-66970727D01*
X82646518Y-66865084D01*
X82653959Y-66854899D01*
X82737941Y-66759908D01*
X82842982Y-66669654D01*
X82964808Y-66586986D01*
X83099150Y-66514755D01*
X83241734Y-66455809D01*
X83263482Y-66448318D01*
X83378333Y-66410723D01*
X83475656Y-66381455D01*
X83561497Y-66359385D01*
X83641902Y-66343380D01*
X83722915Y-66332310D01*
X83810583Y-66325043D01*
X83910951Y-66320448D01*
X83953750Y-66319166D01*
X84046225Y-66317020D01*
X84119415Y-66316399D01*
X84179404Y-66317618D01*
G36*
X80235535Y-66305697D02*
G01*
X80248059Y-66306026D01*
X80330198Y-66308737D01*
X80393293Y-66312094D01*
X80443701Y-66316958D01*
X80487776Y-66324189D01*
X80531875Y-66334646D01*
X80582353Y-66349190D01*
X80594600Y-66352918D01*
X80727313Y-66402212D01*
X80866727Y-66469618D01*
X81007844Y-66551666D01*
X81145664Y-66644887D01*
X81275191Y-66745814D01*
X81391424Y-66850976D01*
X81489367Y-66956905D01*
X81519218Y-66994601D01*
X81608983Y-67127561D01*
X81687279Y-67273972D01*
X81754944Y-67436067D01*
X81812811Y-67616082D01*
X81861717Y-67816250D01*
X81896997Y-68004700D01*
X81904539Y-68055321D01*
X81909840Y-68104773D01*
X81913071Y-68158061D01*
X81914401Y-68220194D01*
X81913998Y-68296180D01*
X81912032Y-68391024D01*
X81911166Y-68423800D01*
X81902275Y-68614411D01*
X81886048Y-68784931D01*
X81861562Y-68939846D01*
X81827893Y-69083642D01*
X81784115Y-69220805D01*
X81729307Y-69355821D01*
X81710992Y-69395693D01*
X81688704Y-69442424D01*
X81669252Y-69480204D01*
X81649574Y-69512958D01*
X81626608Y-69544612D01*
X81597294Y-69579092D01*
X81558570Y-69620323D01*
X81507376Y-69672233D01*
X81453365Y-69726096D01*
X81348314Y-69827277D01*
X81251003Y-69912999D01*
X81154500Y-69988540D01*
X81051875Y-70059174D01*
X80936197Y-70130180D01*
X80880350Y-70162349D01*
X80787074Y-70210563D01*
X80684856Y-70255441D01*
X80581244Y-70294150D01*
X80483788Y-70323857D01*
X80404100Y-70341110D01*
X80329674Y-70349195D01*
X80242608Y-70353163D01*
X80152428Y-70353021D01*
X80068660Y-70348774D01*
X80003207Y-70340858D01*
X79908535Y-70319059D01*
X79800582Y-70285789D01*
X79687076Y-70243853D01*
X79575746Y-70196056D01*
X79495643Y-70156643D01*
X79342836Y-70076320D01*
X79289599Y-69793712D01*
X79274458Y-69712533D01*
X79261258Y-69640202D01*
X79250624Y-69580277D01*
X79243181Y-69536319D01*
X79239556Y-69511886D01*
X79239391Y-69508075D01*
X79252391Y-69508564D01*
X79284875Y-69512352D01*
X79331239Y-69518740D01*
X79362885Y-69523453D01*
X79551908Y-69545167D01*
X79724149Y-69549683D01*
X79881631Y-69536875D01*
X80026379Y-69506617D01*
X80117520Y-69476413D01*
X80209707Y-69431990D01*
X80305334Y-69370077D01*
X80399026Y-69295443D01*
X80485405Y-69212855D01*
X80559097Y-69127082D01*
X80614725Y-69042892D01*
X80622090Y-69028899D01*
X80688437Y-68881850D01*
X80742678Y-68726036D01*
X80782093Y-68577885D01*
X80795202Y-68519297D01*
X80804553Y-68468757D01*
X80810761Y-68419678D01*
X80814443Y-68365476D01*
X80816214Y-68299562D01*
X80816690Y-68215351D01*
X80816691Y-68207900D01*
X80812338Y-68045270D01*
X80798259Y-67903642D01*
X80772834Y-67779945D01*
X80734447Y-67671110D01*
X80681479Y-67574067D01*
X80612310Y-67485747D01*
X80525324Y-67403079D01*
X80418902Y-67322995D01*
X80315200Y-67256618D01*
X80217207Y-67204405D01*
X80110813Y-67162002D01*
X79990186Y-67127385D01*
X79870700Y-67102312D01*
X79712720Y-67082031D01*
X79569021Y-67082084D01*
X79437828Y-67103121D01*
X79317367Y-67145793D01*
X79205863Y-67210750D01*
X79101542Y-67298644D01*
X79002630Y-67410125D01*
X78991236Y-67424860D01*
X78913666Y-67543747D01*
X78859301Y-67668195D01*
X78826161Y-67803180D01*
X78818680Y-67858650D01*
X78816429Y-67892261D01*
X78814224Y-67950384D01*
X78812075Y-68032129D01*
X78809993Y-68136607D01*
X78807990Y-68262931D01*
X78806078Y-68410210D01*
X78804266Y-68577556D01*
X78802567Y-68764080D01*
X78800992Y-68968894D01*
X78799551Y-69191109D01*
X78798257Y-69429835D01*
X78797923Y-69499414D01*
X78790852Y-71013178D01*
X78841470Y-71239314D01*
X78859717Y-71319344D01*
X78878201Y-71397800D01*
X78895415Y-71468462D01*
X78909851Y-71525114D01*
X78917844Y-71554309D01*
X78930441Y-71599002D01*
X78939619Y-71633908D01*
X78943563Y-71652095D01*
X78943600Y-71652734D01*
X78931265Y-71654448D01*
X78895726Y-71656063D01*
X78839178Y-71657552D01*
X78763814Y-71658888D01*
X78671831Y-71660043D01*
X78565423Y-71660989D01*
X78446786Y-71661699D01*
X78318114Y-71662145D01*
X78181602Y-71662299D01*
X78181600Y-71662300D01*
X78023413Y-71662271D01*
X77888739Y-71662148D01*
X77775692Y-71661873D01*
X77682385Y-71661390D01*
X77606932Y-71660640D01*
X77547445Y-71659566D01*
X77502038Y-71658112D01*
X77468824Y-71656220D01*
X77445917Y-71653833D01*
X77431429Y-71650895D01*
X77423475Y-71647346D01*
X77420168Y-71643132D01*
X77419600Y-71639205D01*
X77423074Y-71613912D01*
X77431912Y-71575501D01*
X77437998Y-71553480D01*
X77449316Y-71508661D01*
X77463229Y-71443726D01*
X77478822Y-71363719D01*
X77495184Y-71273679D01*
X77511403Y-71178650D01*
X77526565Y-71083672D01*
X77539759Y-70993787D01*
X77541267Y-70982850D01*
X77544153Y-70959919D01*
X77546746Y-70934661D01*
X77549054Y-70905762D01*
X77551088Y-70871907D01*
X77552857Y-70831784D01*
X77554369Y-70784078D01*
X77555636Y-70727477D01*
X77556665Y-70660666D01*
X77557466Y-70582332D01*
X77558049Y-70491162D01*
X77558423Y-70385841D01*
X77558597Y-70265056D01*
X77558581Y-70127494D01*
X77558384Y-69971841D01*
X77558016Y-69796783D01*
X77557485Y-69601007D01*
X77556802Y-69383199D01*
X77555975Y-69142045D01*
X77555449Y-68995300D01*
X77548794Y-67160150D01*
X77516765Y-66982350D01*
X77491843Y-66861314D01*
X77462539Y-66748283D01*
X77430329Y-66648044D01*
X77396691Y-66565382D01*
X77375408Y-66524444D01*
X77356944Y-66491599D01*
X77345379Y-66468450D01*
X77343400Y-66462563D01*
X77355576Y-66460722D01*
X77390008Y-66459052D01*
X77443554Y-66457615D01*
X77513070Y-66456473D01*
X77595412Y-66455688D01*
X77687438Y-66455319D01*
X77715001Y-66455299D01*
X77987119Y-66451570D01*
X78255134Y-66440642D01*
X78510868Y-66422907D01*
X78633828Y-66411378D01*
X78698706Y-66404700D01*
X78721258Y-66568936D01*
X78743811Y-66733172D01*
X78910380Y-66649550D01*
X79113748Y-66552972D01*
X79308715Y-66471420D01*
X79493205Y-66405604D01*
X79665138Y-66356230D01*
X79822436Y-66324009D01*
X79892459Y-66314808D01*
X79962311Y-66309539D01*
X80048669Y-66306119D01*
X80142690Y-66304765D01*
X80235535Y-66305697D01*
G37*
X80235535Y-66305697D02*
X80248059Y-66306026D01*
X80330198Y-66308737D01*
X80393293Y-66312094D01*
X80443701Y-66316958D01*
X80487776Y-66324189D01*
X80531875Y-66334646D01*
X80582353Y-66349190D01*
X80594600Y-66352918D01*
X80727313Y-66402212D01*
X80866727Y-66469618D01*
X81007844Y-66551666D01*
X81145664Y-66644887D01*
X81275191Y-66745814D01*
X81391424Y-66850976D01*
X81489367Y-66956905D01*
X81519218Y-66994601D01*
X81608983Y-67127561D01*
X81687279Y-67273972D01*
X81754944Y-67436067D01*
X81812811Y-67616082D01*
X81861717Y-67816250D01*
X81896997Y-68004700D01*
X81904539Y-68055321D01*
X81909840Y-68104773D01*
X81913071Y-68158061D01*
X81914401Y-68220194D01*
X81913998Y-68296180D01*
X81912032Y-68391024D01*
X81911166Y-68423800D01*
X81902275Y-68614411D01*
X81886048Y-68784931D01*
X81861562Y-68939846D01*
X81827893Y-69083642D01*
X81784115Y-69220805D01*
X81729307Y-69355821D01*
X81710992Y-69395693D01*
X81688704Y-69442424D01*
X81669252Y-69480204D01*
X81649574Y-69512958D01*
X81626608Y-69544612D01*
X81597294Y-69579092D01*
X81558570Y-69620323D01*
X81507376Y-69672233D01*
X81453365Y-69726096D01*
X81348314Y-69827277D01*
X81251003Y-69912999D01*
X81154500Y-69988540D01*
X81051875Y-70059174D01*
X80936197Y-70130180D01*
X80880350Y-70162349D01*
X80787074Y-70210563D01*
X80684856Y-70255441D01*
X80581244Y-70294150D01*
X80483788Y-70323857D01*
X80404100Y-70341110D01*
X80329674Y-70349195D01*
X80242608Y-70353163D01*
X80152428Y-70353021D01*
X80068660Y-70348774D01*
X80003207Y-70340858D01*
X79908535Y-70319059D01*
X79800582Y-70285789D01*
X79687076Y-70243853D01*
X79575746Y-70196056D01*
X79495643Y-70156643D01*
X79342836Y-70076320D01*
X79289599Y-69793712D01*
X79274458Y-69712533D01*
X79261258Y-69640202D01*
X79250624Y-69580277D01*
X79243181Y-69536319D01*
X79239556Y-69511886D01*
X79239391Y-69508075D01*
X79252391Y-69508564D01*
X79284875Y-69512352D01*
X79331239Y-69518740D01*
X79362885Y-69523453D01*
X79551908Y-69545167D01*
X79724149Y-69549683D01*
X79881631Y-69536875D01*
X80026379Y-69506617D01*
X80117520Y-69476413D01*
X80209707Y-69431990D01*
X80305334Y-69370077D01*
X80399026Y-69295443D01*
X80485405Y-69212855D01*
X80559097Y-69127082D01*
X80614725Y-69042892D01*
X80622090Y-69028899D01*
X80688437Y-68881850D01*
X80742678Y-68726036D01*
X80782093Y-68577885D01*
X80795202Y-68519297D01*
X80804553Y-68468757D01*
X80810761Y-68419678D01*
X80814443Y-68365476D01*
X80816214Y-68299562D01*
X80816690Y-68215351D01*
X80816691Y-68207900D01*
X80812338Y-68045270D01*
X80798259Y-67903642D01*
X80772834Y-67779945D01*
X80734447Y-67671110D01*
X80681479Y-67574067D01*
X80612310Y-67485747D01*
X80525324Y-67403079D01*
X80418902Y-67322995D01*
X80315200Y-67256618D01*
X80217207Y-67204405D01*
X80110813Y-67162002D01*
X79990186Y-67127385D01*
X79870700Y-67102312D01*
X79712720Y-67082031D01*
X79569021Y-67082084D01*
X79437828Y-67103121D01*
X79317367Y-67145793D01*
X79205863Y-67210750D01*
X79101542Y-67298644D01*
X79002630Y-67410125D01*
X78991236Y-67424860D01*
X78913666Y-67543747D01*
X78859301Y-67668195D01*
X78826161Y-67803180D01*
X78818680Y-67858650D01*
X78816429Y-67892261D01*
X78814224Y-67950384D01*
X78812075Y-68032129D01*
X78809993Y-68136607D01*
X78807990Y-68262931D01*
X78806078Y-68410210D01*
X78804266Y-68577556D01*
X78802567Y-68764080D01*
X78800992Y-68968894D01*
X78799551Y-69191109D01*
X78798257Y-69429835D01*
X78797923Y-69499414D01*
X78790852Y-71013178D01*
X78841470Y-71239314D01*
X78859717Y-71319344D01*
X78878201Y-71397800D01*
X78895415Y-71468462D01*
X78909851Y-71525114D01*
X78917844Y-71554309D01*
X78930441Y-71599002D01*
X78939619Y-71633908D01*
X78943563Y-71652095D01*
X78943600Y-71652734D01*
X78931265Y-71654448D01*
X78895726Y-71656063D01*
X78839178Y-71657552D01*
X78763814Y-71658888D01*
X78671831Y-71660043D01*
X78565423Y-71660989D01*
X78446786Y-71661699D01*
X78318114Y-71662145D01*
X78181602Y-71662299D01*
X78181600Y-71662300D01*
X78023413Y-71662271D01*
X77888739Y-71662148D01*
X77775692Y-71661873D01*
X77682385Y-71661390D01*
X77606932Y-71660640D01*
X77547445Y-71659566D01*
X77502038Y-71658112D01*
X77468824Y-71656220D01*
X77445917Y-71653833D01*
X77431429Y-71650895D01*
X77423475Y-71647346D01*
X77420168Y-71643132D01*
X77419600Y-71639205D01*
X77423074Y-71613912D01*
X77431912Y-71575501D01*
X77437998Y-71553480D01*
X77449316Y-71508661D01*
X77463229Y-71443726D01*
X77478822Y-71363719D01*
X77495184Y-71273679D01*
X77511403Y-71178650D01*
X77526565Y-71083672D01*
X77539759Y-70993787D01*
X77541267Y-70982850D01*
X77544153Y-70959919D01*
X77546746Y-70934661D01*
X77549054Y-70905762D01*
X77551088Y-70871907D01*
X77552857Y-70831784D01*
X77554369Y-70784078D01*
X77555636Y-70727477D01*
X77556665Y-70660666D01*
X77557466Y-70582332D01*
X77558049Y-70491162D01*
X77558423Y-70385841D01*
X77558597Y-70265056D01*
X77558581Y-70127494D01*
X77558384Y-69971841D01*
X77558016Y-69796783D01*
X77557485Y-69601007D01*
X77556802Y-69383199D01*
X77555975Y-69142045D01*
X77555449Y-68995300D01*
X77548794Y-67160150D01*
X77516765Y-66982350D01*
X77491843Y-66861314D01*
X77462539Y-66748283D01*
X77430329Y-66648044D01*
X77396691Y-66565382D01*
X77375408Y-66524444D01*
X77356944Y-66491599D01*
X77345379Y-66468450D01*
X77343400Y-66462563D01*
X77355576Y-66460722D01*
X77390008Y-66459052D01*
X77443554Y-66457615D01*
X77513070Y-66456473D01*
X77595412Y-66455688D01*
X77687438Y-66455319D01*
X77715001Y-66455299D01*
X77987119Y-66451570D01*
X78255134Y-66440642D01*
X78510868Y-66422907D01*
X78633828Y-66411378D01*
X78698706Y-66404700D01*
X78721258Y-66568936D01*
X78743811Y-66733172D01*
X78910380Y-66649550D01*
X79113748Y-66552972D01*
X79308715Y-66471420D01*
X79493205Y-66405604D01*
X79665138Y-66356230D01*
X79822436Y-66324009D01*
X79892459Y-66314808D01*
X79962311Y-66309539D01*
X80048669Y-66306119D01*
X80142690Y-66304765D01*
X80235535Y-66305697D01*
G36*
X63871652Y-65040338D02*
G01*
X64009450Y-65044305D01*
X64136807Y-65051450D01*
X64247788Y-65061774D01*
X64294150Y-65067957D01*
X64515734Y-65110855D01*
X64743983Y-65172784D01*
X64973861Y-65251618D01*
X65200335Y-65345236D01*
X65418372Y-65451512D01*
X65622937Y-65568325D01*
X65808997Y-65693550D01*
X65849845Y-65724240D01*
X66061878Y-65902375D01*
X66262746Y-66101763D01*
X66450593Y-66320020D01*
X66623557Y-66554763D01*
X66779780Y-66803612D01*
X66917404Y-67064182D01*
X66950455Y-67134750D01*
X67011126Y-67282867D01*
X67067418Y-67449575D01*
X67117627Y-67628206D01*
X67160051Y-67812093D01*
X67192989Y-67994567D01*
X67214738Y-68168960D01*
X67214897Y-68170681D01*
X67225996Y-68308460D01*
X67231938Y-68430711D01*
X67232725Y-68546777D01*
X67228359Y-68666001D01*
X67218842Y-68797726D01*
X67215042Y-68840439D01*
X67202659Y-68955991D01*
X67186906Y-69064974D01*
X67166564Y-69172962D01*
X67140410Y-69285531D01*
X67107226Y-69408254D01*
X67065791Y-69546705D01*
X67047994Y-69603444D01*
X66995424Y-69759619D01*
X66941093Y-69899303D01*
X66881063Y-70031121D01*
X66811397Y-70163700D01*
X66728156Y-70305668D01*
X66725320Y-70310306D01*
X66585372Y-70525075D01*
X66439127Y-70721183D01*
X66284106Y-70900794D01*
X66117827Y-71066072D01*
X65937812Y-71219183D01*
X65741578Y-71362292D01*
X65526648Y-71497562D01*
X65290539Y-71627159D01*
X65119650Y-71711709D01*
X65030700Y-71749483D01*
X64921927Y-71788339D01*
X64798784Y-71826857D01*
X64666723Y-71863617D01*
X64531198Y-71897196D01*
X64397660Y-71926176D01*
X64271564Y-71949134D01*
X64158361Y-71964650D01*
X64142719Y-71966258D01*
X64058818Y-71972327D01*
X63958680Y-71976191D01*
X63848715Y-71977900D01*
X63735334Y-71977506D01*
X63624948Y-71975058D01*
X63523966Y-71970609D01*
X63438801Y-71964208D01*
X63405150Y-71960422D01*
X63252805Y-71938080D01*
X63117910Y-71912254D01*
X62992553Y-71880856D01*
X62868820Y-71841798D01*
X62738800Y-71792990D01*
X62680664Y-71769187D01*
X62632807Y-71749191D01*
X62798418Y-71581920D01*
X62824413Y-71555667D01*
X62867297Y-71512358D01*
X62926089Y-71452985D01*
X62999806Y-71378540D01*
X63087466Y-71290017D01*
X63188085Y-71188406D01*
X63300682Y-71074700D01*
X63424274Y-70949891D01*
X63557879Y-70814972D01*
X63700513Y-70670934D01*
X63851195Y-70518770D01*
X64008942Y-70359472D01*
X64172771Y-70194032D01*
X64341700Y-70023442D01*
X64514746Y-69848695D01*
X64667314Y-69694628D01*
X66370600Y-67974607D01*
X66370294Y-67313378D01*
X66369988Y-66652150D01*
X61868450Y-71165588D01*
X61804950Y-71172452D01*
X61754218Y-71173234D01*
X61696421Y-71167471D01*
X61668377Y-71162114D01*
X61619285Y-71146778D01*
X61571340Y-71125497D01*
X61530498Y-71101690D01*
X61502716Y-71078776D01*
X61493800Y-71061914D01*
X61502583Y-71051304D01*
X61528314Y-71023602D01*
X61570062Y-70979759D01*
X61626897Y-70920725D01*
X61697889Y-70847452D01*
X61782107Y-70760890D01*
X61878621Y-70661991D01*
X61986502Y-70551706D01*
X62104819Y-70430985D01*
X62232641Y-70300780D01*
X62369039Y-70162041D01*
X62513083Y-70015719D01*
X62663842Y-69862766D01*
X62820386Y-69704132D01*
X62973350Y-69549302D01*
X64452900Y-68052515D01*
X64452900Y-67396941D01*
X64452899Y-66741367D01*
X64265575Y-66926848D01*
X64235615Y-66956394D01*
X64188601Y-67002599D01*
X64125649Y-67064370D01*
X64047872Y-67140616D01*
X63956385Y-67230247D01*
X63852305Y-67332171D01*
X63736745Y-67445297D01*
X63610821Y-67568533D01*
X63475648Y-67700788D01*
X63332341Y-67840972D01*
X63182015Y-67987992D01*
X63025785Y-68140758D01*
X62864765Y-68298178D01*
X62700072Y-68459160D01*
X62587218Y-68569454D01*
X62384444Y-68767538D01*
X62199068Y-68948451D01*
X62030399Y-69112855D01*
X61877745Y-69261413D01*
X61740417Y-69394784D01*
X61617722Y-69513631D01*
X61508971Y-69618615D01*
X61413472Y-69710398D01*
X61330534Y-69789641D01*
X61259466Y-69857004D01*
X61199578Y-69913151D01*
X61150179Y-69958742D01*
X61110577Y-69994438D01*
X61080082Y-70020901D01*
X61058002Y-70038793D01*
X61043648Y-70048775D01*
X61039940Y-70050689D01*
X60964974Y-70072412D01*
X60892114Y-70071313D01*
X60818809Y-70046837D01*
X60742508Y-69998432D01*
X60721659Y-69981688D01*
X60668834Y-69937554D01*
X61602017Y-68987599D01*
X62535200Y-68037643D01*
X62535200Y-66729145D01*
X62462175Y-66800422D01*
X62443425Y-66818625D01*
X62407661Y-66853251D01*
X62356141Y-66903081D01*
X62290125Y-66966899D01*
X62210874Y-67043487D01*
X62119648Y-67131628D01*
X62017707Y-67230104D01*
X61906310Y-67337699D01*
X61786719Y-67453195D01*
X61660193Y-67575373D01*
X61527993Y-67703018D01*
X61391378Y-67834912D01*
X61354100Y-67870900D01*
X60319050Y-68870099D01*
X60308587Y-68758074D01*
X60302529Y-68655410D01*
X60301211Y-68535175D01*
X60304294Y-68404690D01*
X60311440Y-68271271D01*
X60322311Y-68142236D01*
X60336569Y-68024904D01*
X60344856Y-67972950D01*
X60378765Y-67794553D01*
X60415366Y-67634003D01*
X60456966Y-67483817D01*
X60505878Y-67336512D01*
X60564409Y-67184607D01*
X60634871Y-67020619D01*
X60647548Y-66992446D01*
X60673818Y-66936201D01*
X60700923Y-66882564D01*
X60730914Y-66828213D01*
X60765844Y-66769824D01*
X60807767Y-66704076D01*
X60858736Y-66627646D01*
X60920803Y-66537212D01*
X60990899Y-66436751D01*
X61057790Y-66348419D01*
X61140943Y-66249791D01*
X61235964Y-66145347D01*
X61338455Y-66039569D01*
X61444022Y-65936936D01*
X61548267Y-65841931D01*
X61646796Y-65759033D01*
X61685159Y-65729098D01*
X61863766Y-65604593D01*
X62060767Y-65487238D01*
X62271098Y-65379197D01*
X62489694Y-65282630D01*
X62711491Y-65199698D01*
X62931425Y-65132565D01*
X63144430Y-65083390D01*
X63233700Y-65068144D01*
X63334706Y-65056234D01*
X63454938Y-65047498D01*
X63588462Y-65041936D01*
X63729344Y-65039549D01*
X63871652Y-65040338D01*
G37*
X63871652Y-65040338D02*
X64009450Y-65044305D01*
X64136807Y-65051450D01*
X64247788Y-65061774D01*
X64294150Y-65067957D01*
X64515734Y-65110855D01*
X64743983Y-65172784D01*
X64973861Y-65251618D01*
X65200335Y-65345236D01*
X65418372Y-65451512D01*
X65622937Y-65568325D01*
X65808997Y-65693550D01*
X65849845Y-65724240D01*
X66061878Y-65902375D01*
X66262746Y-66101763D01*
X66450593Y-66320020D01*
X66623557Y-66554763D01*
X66779780Y-66803612D01*
X66917404Y-67064182D01*
X66950455Y-67134750D01*
X67011126Y-67282867D01*
X67067418Y-67449575D01*
X67117627Y-67628206D01*
X67160051Y-67812093D01*
X67192989Y-67994567D01*
X67214738Y-68168960D01*
X67214897Y-68170681D01*
X67225996Y-68308460D01*
X67231938Y-68430711D01*
X67232725Y-68546777D01*
X67228359Y-68666001D01*
X67218842Y-68797726D01*
X67215042Y-68840439D01*
X67202659Y-68955991D01*
X67186906Y-69064974D01*
X67166564Y-69172962D01*
X67140410Y-69285531D01*
X67107226Y-69408254D01*
X67065791Y-69546705D01*
X67047994Y-69603444D01*
X66995424Y-69759619D01*
X66941093Y-69899303D01*
X66881063Y-70031121D01*
X66811397Y-70163700D01*
X66728156Y-70305668D01*
X66725320Y-70310306D01*
X66585372Y-70525075D01*
X66439127Y-70721183D01*
X66284106Y-70900794D01*
X66117827Y-71066072D01*
X65937812Y-71219183D01*
X65741578Y-71362292D01*
X65526648Y-71497562D01*
X65290539Y-71627159D01*
X65119650Y-71711709D01*
X65030700Y-71749483D01*
X64921927Y-71788339D01*
X64798784Y-71826857D01*
X64666723Y-71863617D01*
X64531198Y-71897196D01*
X64397660Y-71926176D01*
X64271564Y-71949134D01*
X64158361Y-71964650D01*
X64142719Y-71966258D01*
X64058818Y-71972327D01*
X63958680Y-71976191D01*
X63848715Y-71977900D01*
X63735334Y-71977506D01*
X63624948Y-71975058D01*
X63523966Y-71970609D01*
X63438801Y-71964208D01*
X63405150Y-71960422D01*
X63252805Y-71938080D01*
X63117910Y-71912254D01*
X62992553Y-71880856D01*
X62868820Y-71841798D01*
X62738800Y-71792990D01*
X62680664Y-71769187D01*
X62632807Y-71749191D01*
X62798418Y-71581920D01*
X62824413Y-71555667D01*
X62867297Y-71512358D01*
X62926089Y-71452985D01*
X62999806Y-71378540D01*
X63087466Y-71290017D01*
X63188085Y-71188406D01*
X63300682Y-71074700D01*
X63424274Y-70949891D01*
X63557879Y-70814972D01*
X63700513Y-70670934D01*
X63851195Y-70518770D01*
X64008942Y-70359472D01*
X64172771Y-70194032D01*
X64341700Y-70023442D01*
X64514746Y-69848695D01*
X64667314Y-69694628D01*
X66370600Y-67974607D01*
X66370294Y-67313378D01*
X66369988Y-66652150D01*
X61868450Y-71165588D01*
X61804950Y-71172452D01*
X61754218Y-71173234D01*
X61696421Y-71167471D01*
X61668377Y-71162114D01*
X61619285Y-71146778D01*
X61571340Y-71125497D01*
X61530498Y-71101690D01*
X61502716Y-71078776D01*
X61493800Y-71061914D01*
X61502583Y-71051304D01*
X61528314Y-71023602D01*
X61570062Y-70979759D01*
X61626897Y-70920725D01*
X61697889Y-70847452D01*
X61782107Y-70760890D01*
X61878621Y-70661991D01*
X61986502Y-70551706D01*
X62104819Y-70430985D01*
X62232641Y-70300780D01*
X62369039Y-70162041D01*
X62513083Y-70015719D01*
X62663842Y-69862766D01*
X62820386Y-69704132D01*
X62973350Y-69549302D01*
X64452900Y-68052515D01*
X64452900Y-67396941D01*
X64452899Y-66741367D01*
X64265575Y-66926848D01*
X64235615Y-66956394D01*
X64188601Y-67002599D01*
X64125649Y-67064370D01*
X64047872Y-67140616D01*
X63956385Y-67230247D01*
X63852305Y-67332171D01*
X63736745Y-67445297D01*
X63610821Y-67568533D01*
X63475648Y-67700788D01*
X63332341Y-67840972D01*
X63182015Y-67987992D01*
X63025785Y-68140758D01*
X62864765Y-68298178D01*
X62700072Y-68459160D01*
X62587218Y-68569454D01*
X62384444Y-68767538D01*
X62199068Y-68948451D01*
X62030399Y-69112855D01*
X61877745Y-69261413D01*
X61740417Y-69394784D01*
X61617722Y-69513631D01*
X61508971Y-69618615D01*
X61413472Y-69710398D01*
X61330534Y-69789641D01*
X61259466Y-69857004D01*
X61199578Y-69913151D01*
X61150179Y-69958742D01*
X61110577Y-69994438D01*
X61080082Y-70020901D01*
X61058002Y-70038793D01*
X61043648Y-70048775D01*
X61039940Y-70050689D01*
X60964974Y-70072412D01*
X60892114Y-70071313D01*
X60818809Y-70046837D01*
X60742508Y-69998432D01*
X60721659Y-69981688D01*
X60668834Y-69937554D01*
X61602017Y-68987599D01*
X62535200Y-68037643D01*
X62535200Y-66729145D01*
X62462175Y-66800422D01*
X62443425Y-66818625D01*
X62407661Y-66853251D01*
X62356141Y-66903081D01*
X62290125Y-66966899D01*
X62210874Y-67043487D01*
X62119648Y-67131628D01*
X62017707Y-67230104D01*
X61906310Y-67337699D01*
X61786719Y-67453195D01*
X61660193Y-67575373D01*
X61527993Y-67703018D01*
X61391378Y-67834912D01*
X61354100Y-67870900D01*
X60319050Y-68870099D01*
X60308587Y-68758074D01*
X60302529Y-68655410D01*
X60301211Y-68535175D01*
X60304294Y-68404690D01*
X60311440Y-68271271D01*
X60322311Y-68142236D01*
X60336569Y-68024904D01*
X60344856Y-67972950D01*
X60378765Y-67794553D01*
X60415366Y-67634003D01*
X60456966Y-67483817D01*
X60505878Y-67336512D01*
X60564409Y-67184607D01*
X60634871Y-67020619D01*
X60647548Y-66992446D01*
X60673818Y-66936201D01*
X60700923Y-66882564D01*
X60730914Y-66828213D01*
X60765844Y-66769824D01*
X60807767Y-66704076D01*
X60858736Y-66627646D01*
X60920803Y-66537212D01*
X60990899Y-66436751D01*
X61057790Y-66348419D01*
X61140943Y-66249791D01*
X61235964Y-66145347D01*
X61338455Y-66039569D01*
X61444022Y-65936936D01*
X61548267Y-65841931D01*
X61646796Y-65759033D01*
X61685159Y-65729098D01*
X61863766Y-65604593D01*
X62060767Y-65487238D01*
X62271098Y-65379197D01*
X62489694Y-65282630D01*
X62711491Y-65199698D01*
X62931425Y-65132565D01*
X63144430Y-65083390D01*
X63233700Y-65068144D01*
X63334706Y-65056234D01*
X63454938Y-65047498D01*
X63588462Y-65041936D01*
X63729344Y-65039549D01*
X63871652Y-65040338D01*
D12*
G04 #@! TO.C,U6*
X201650000Y-88565000D02*
X201650000Y-87840000D01*
X201650000Y-87840000D02*
X202375000Y-87840000D01*
X207870000Y-93335000D02*
X207870000Y-94060000D01*
X207870000Y-94060000D02*
X207145000Y-94060000D01*
X207870000Y-88565000D02*
X207870000Y-87840000D01*
X207870000Y-87840000D02*
X207145000Y-87840000D01*
X201650000Y-93335000D02*
X201650000Y-94060000D01*
G04 #@! TO.C,U5*
X67550000Y-96800000D02*
X67550000Y-99200000D01*
X70650000Y-99200000D02*
X70650000Y-96250000D01*
G04 #@! TO.C,U8*
X237950000Y-97200000D02*
X237950000Y-94800000D01*
X234850000Y-94800000D02*
X234850000Y-97750000D01*
G04 #@! TO.C,R12*
X154862742Y-99927500D02*
X155337258Y-99927500D01*
X154862742Y-100972500D02*
X155337258Y-100972500D01*
G04 #@! TO.C,D1*
X155900000Y-98165000D02*
X153615000Y-98165000D01*
X153615000Y-98165000D02*
X153615000Y-99635000D01*
X153615000Y-99635000D02*
X155900000Y-99635000D01*
G04 #@! TO.C,C24*
X230140000Y-84090000D02*
X230140000Y-92150000D01*
X234660000Y-84090000D02*
X230140000Y-84090000D01*
X234660000Y-92150000D02*
X234660000Y-84090000D01*
G04 #@! TO.C,C21*
X206540000Y-83840580D02*
X206540000Y-83559420D01*
X207560000Y-83840580D02*
X207560000Y-83559420D01*
G04 #@! TO.C,R11*
X203427500Y-83937258D02*
X203427500Y-83462742D01*
X204472500Y-83937258D02*
X204472500Y-83462742D01*
G04 #@! TO.C,R10*
X209122500Y-83462742D02*
X209122500Y-83937258D01*
X208077500Y-83462742D02*
X208077500Y-83937258D01*
G04 #@! TO.C,J6*
X158575000Y-84310000D02*
X158575000Y-90190000D01*
X163045000Y-91360000D02*
X163045000Y-90310000D01*
X160545000Y-91360000D02*
X163045000Y-91360000D01*
X163045000Y-84190000D02*
X164035000Y-84190000D01*
X163045000Y-83140000D02*
X163045000Y-84190000D01*
X160545000Y-83140000D02*
X163045000Y-83140000D01*
G04 #@! TO.C,U9*
X194660000Y-81790000D02*
X194660000Y-79590000D01*
X196860000Y-81790000D02*
X196860000Y-78790000D01*
G04 #@! TO.C,J5*
X60750000Y-85000000D02*
G75*
G03*
X60750000Y-85000000I-2250000J0D01*
G01*
G04 #@! TO.C,R15*
X246947500Y-86967258D02*
X246947500Y-86492742D01*
X247992500Y-86967258D02*
X247992500Y-86492742D01*
G04 #@! TO.C,R14*
X65997258Y-84112500D02*
X65522742Y-84112500D01*
X65997258Y-83067500D02*
X65522742Y-83067500D01*
G04 #@! TO.C,C29*
X245440000Y-86870580D02*
X245440000Y-86589420D01*
X246460000Y-86870580D02*
X246460000Y-86589420D01*
G04 #@! TO.C,C28*
X65880580Y-87150000D02*
X65599420Y-87150000D01*
X65880580Y-86130000D02*
X65599420Y-86130000D01*
G04 #@! TO.C,R5*
X202912500Y-82512742D02*
X202912500Y-82987258D01*
X201867500Y-82512742D02*
X201867500Y-82987258D01*
G04 #@! TO.C,C22*
X211137420Y-90710000D02*
X211418580Y-90710000D01*
X211137420Y-91730000D02*
X211418580Y-91730000D01*
G04 #@! TO.C,R6*
X198767500Y-82987258D02*
X198767500Y-82512742D01*
X199812500Y-82987258D02*
X199812500Y-82512742D01*
G04 #@! TO.C,R9*
X206022500Y-83462742D02*
X206022500Y-83937258D01*
X204977500Y-83462742D02*
X204977500Y-83937258D01*
G04 #@! TO.C,C14*
X192220000Y-95659420D02*
X192220000Y-95940580D01*
X191200000Y-95659420D02*
X191200000Y-95940580D01*
G04 #@! TO.C,C15*
X196790000Y-97059420D02*
X196790000Y-97340580D01*
X195770000Y-97059420D02*
X195770000Y-97340580D01*
G04 #@! TO.C,C18*
X200640000Y-94929420D02*
X200640000Y-95210580D01*
X199620000Y-94929420D02*
X199620000Y-95210580D01*
G04 #@! TO.C,C20*
X211137420Y-92250000D02*
X211418580Y-92250000D01*
X211137420Y-93270000D02*
X211418580Y-93270000D01*
G04 #@! TO.C,C27*
X211157420Y-93800000D02*
X211438580Y-93800000D01*
X211157420Y-94820000D02*
X211438580Y-94820000D01*
G04 #@! TO.C,C19*
X199230000Y-87180580D02*
X199230000Y-86899420D01*
X200250000Y-87180580D02*
X200250000Y-86899420D01*
G04 #@! TO.C,R7*
X200317500Y-82987258D02*
X200317500Y-82512742D01*
X201362500Y-82987258D02*
X201362500Y-82512742D01*
G04 #@! TO.C,R8*
X199042500Y-95517742D02*
X199042500Y-95992258D01*
X197997500Y-95517742D02*
X197997500Y-95992258D01*
G04 #@! TO.C,Y2*
X195150000Y-94378000D02*
X192850000Y-94378000D01*
X192850000Y-94378000D02*
X192850000Y-97078000D01*
G04 #@! TO.C,J4*
X245840000Y-104060000D02*
X241590000Y-104060000D01*
X241590000Y-104060000D02*
X241590000Y-103040000D01*
X241590000Y-103040000D02*
X243190000Y-103040000D01*
X243190000Y-103040000D02*
X243190000Y-101760000D01*
X243190000Y-101760000D02*
X240300000Y-101760000D01*
X245840000Y-89940000D02*
X241590000Y-89940000D01*
X241590000Y-89940000D02*
X241590000Y-90960000D01*
X241590000Y-90960000D02*
X243190000Y-90960000D01*
X243190000Y-90960000D02*
X243190000Y-92240000D01*
X249410000Y-102340000D02*
X249410000Y-91660000D01*
G04 #@! TO.C,J3*
X59060000Y-89940000D02*
X63310000Y-89940000D01*
X63310000Y-89940000D02*
X63310000Y-90960000D01*
X63310000Y-90960000D02*
X61710000Y-90960000D01*
X61710000Y-90960000D02*
X61710000Y-92240000D01*
X61710000Y-92240000D02*
X64600000Y-92240000D01*
X59060000Y-104060000D02*
X63310000Y-104060000D01*
X63310000Y-104060000D02*
X63310000Y-103040000D01*
X63310000Y-103040000D02*
X61710000Y-103040000D01*
X61710000Y-103040000D02*
X61710000Y-101760000D01*
X55490000Y-91660000D02*
X55490000Y-102340000D01*
G04 #@! TO.C,S2*
X108160000Y-90880000D02*
X110240000Y-90880000D01*
X111920000Y-95050000D02*
X111430000Y-95540000D01*
X108160000Y-96320000D02*
X110240000Y-96320000D01*
X111920000Y-92150000D02*
X111430000Y-91660000D01*
X111920000Y-92150000D02*
X111920000Y-95050000D01*
X106480000Y-92150000D02*
X106970000Y-91660000D01*
X106480000Y-92150000D02*
X106480000Y-95050000D01*
X106480000Y-95050000D02*
X106970000Y-95540000D01*
G04 #@! TO.C,S1*
X119760000Y-91480000D02*
X121840000Y-91480000D01*
X123520000Y-95650000D02*
X123030000Y-96140000D01*
X119760000Y-96920000D02*
X121840000Y-96920000D01*
X123520000Y-92750000D02*
X123030000Y-92260000D01*
X123520000Y-92750000D02*
X123520000Y-95650000D01*
X118080000Y-92750000D02*
X118570000Y-92260000D01*
X118080000Y-92750000D02*
X118080000Y-95650000D01*
X118080000Y-95650000D02*
X118570000Y-96140000D01*
G04 #@! TO.C,C26*
X142410000Y-102384420D02*
X142410000Y-102665580D01*
X141390000Y-102384420D02*
X141390000Y-102665580D01*
G04 #@! TO.C,C25*
X136090580Y-89110000D02*
X135809420Y-89110000D01*
X136090580Y-88090000D02*
X135809420Y-88090000D01*
G04 #@! TO.C,Y1*
X140825000Y-79175000D02*
X140825000Y-82475000D01*
X140825000Y-82475000D02*
X144825000Y-82475000D01*
G04 #@! TO.C,U7*
X222400000Y-82240000D02*
X221600000Y-82240000D01*
X222400000Y-82240000D02*
X223200000Y-82240000D01*
X222400000Y-85360000D02*
X221600000Y-85360000D01*
X222400000Y-85360000D02*
X224200000Y-85360000D01*
G04 #@! TO.C,U4*
X194580000Y-84590000D02*
X193650000Y-84590000D01*
X191420000Y-84590000D02*
X192350000Y-84590000D01*
X191420000Y-84590000D02*
X191420000Y-86750000D01*
X194580000Y-84590000D02*
X194580000Y-86050000D01*
D13*
G04 #@! TO.C,U3*
X151075000Y-98475000D02*
X151075000Y-97900000D01*
X140725000Y-98475000D02*
X140725000Y-97800000D01*
X140725000Y-88125000D02*
X140725000Y-88800000D01*
X151075000Y-88125000D02*
X151075000Y-88800000D01*
X151075000Y-98475000D02*
X150400000Y-98475000D01*
X151075000Y-88125000D02*
X150400000Y-88125000D01*
X140725000Y-88125000D02*
X141400000Y-88125000D01*
X140725000Y-98475000D02*
X141400000Y-98475000D01*
X151075000Y-97900000D02*
X152350000Y-97900000D01*
D12*
G04 #@! TO.C,U2*
X202140000Y-76200000D02*
X202140000Y-78150000D01*
X202140000Y-76200000D02*
X202140000Y-74250000D01*
X212260000Y-76200000D02*
X212260000Y-78150000D01*
X212260000Y-76200000D02*
X212260000Y-72750000D01*
G04 #@! TO.C,U1*
X221540000Y-76200000D02*
X221540000Y-78150000D01*
X221540000Y-76200000D02*
X221540000Y-74250000D01*
X231660000Y-76200000D02*
X231660000Y-78150000D01*
X231660000Y-76200000D02*
X231660000Y-72750000D01*
G04 #@! TO.C,R4*
X160577500Y-96137258D02*
X160577500Y-95662742D01*
X161622500Y-96137258D02*
X161622500Y-95662742D01*
G04 #@! TO.C,R3*
X163322500Y-94862742D02*
X163322500Y-95337258D01*
X162277500Y-94862742D02*
X162277500Y-95337258D01*
G04 #@! TO.C,R2*
X111582500Y-87122742D02*
X111582500Y-87597258D01*
X110537500Y-87122742D02*
X110537500Y-87597258D01*
G04 #@! TO.C,R1*
X123152500Y-87682742D02*
X123152500Y-88157258D01*
X122107500Y-87682742D02*
X122107500Y-88157258D01*
G04 #@! TO.C,F1*
X84190000Y-98441422D02*
X84190000Y-98958578D01*
X85610000Y-98441422D02*
X85610000Y-98958578D01*
G04 #@! TO.C,C30*
X224060000Y-87109420D02*
X224060000Y-87390580D01*
X223040000Y-87109420D02*
X223040000Y-87390580D01*
G04 #@! TO.C,C23*
X229860000Y-92150000D02*
X229860000Y-84090000D01*
X229860000Y-84090000D02*
X225340000Y-84090000D01*
X225340000Y-84090000D02*
X225340000Y-92150000D01*
G04 #@! TO.C,C17*
X216210000Y-87059420D02*
X216210000Y-87340580D01*
X215190000Y-87059420D02*
X215190000Y-87340580D01*
G04 #@! TO.C,C16*
X217965000Y-87038748D02*
X217965000Y-87561252D01*
X219435000Y-87038748D02*
X219435000Y-87561252D01*
G04 #@! TO.C,C13*
X197095000Y-87311252D02*
X197095000Y-86788748D01*
X198565000Y-87311252D02*
X198565000Y-86788748D01*
G04 #@! TO.C,C12*
X80665000Y-98961252D02*
X80665000Y-98438748D01*
X82135000Y-98961252D02*
X82135000Y-98438748D01*
G04 #@! TO.C,C11*
X189910000Y-84984420D02*
X189910000Y-85265580D01*
X188890000Y-84984420D02*
X188890000Y-85265580D01*
G04 #@! TO.C,C10*
X150410000Y-102359420D02*
X150410000Y-102640580D01*
X149390000Y-102359420D02*
X149390000Y-102640580D01*
G04 #@! TO.C,C9*
X154959420Y-96790000D02*
X155240580Y-96790000D01*
X154959420Y-97810000D02*
X155240580Y-97810000D01*
G04 #@! TO.C,C8*
X147790000Y-84140580D02*
X147790000Y-83859420D01*
X148810000Y-84140580D02*
X148810000Y-83859420D01*
G04 #@! TO.C,C7*
X154759420Y-92290000D02*
X155040580Y-92290000D01*
X154759420Y-93310000D02*
X155040580Y-93310000D01*
G04 #@! TO.C,C6*
X145290000Y-79340580D02*
X145290000Y-79059420D01*
X146310000Y-79340580D02*
X146310000Y-79059420D01*
G04 #@! TO.C,C5*
X140335000Y-82309420D02*
X140335000Y-82590580D01*
X139315000Y-82309420D02*
X139315000Y-82590580D01*
G04 #@! TO.C,C4*
X109350580Y-99820000D02*
X109069420Y-99820000D01*
X109350580Y-98800000D02*
X109069420Y-98800000D01*
G04 #@! TO.C,C3*
X120890580Y-100210000D02*
X120609420Y-100210000D01*
X120890580Y-99190000D02*
X120609420Y-99190000D01*
G04 #@! TO.C,C2*
X214759420Y-78290000D02*
X215040580Y-78290000D01*
X214759420Y-79310000D02*
X215040580Y-79310000D01*
G04 #@! TO.C,C1*
X234134420Y-78290000D02*
X234415580Y-78290000D01*
X234134420Y-79310000D02*
X234415580Y-79310000D01*
G04 #@! TO.C,J2*
X186360000Y-70330000D02*
X186360000Y-67670000D01*
X168520000Y-70330000D02*
X186360000Y-70330000D01*
X168520000Y-67670000D02*
X186360000Y-67670000D01*
X168520000Y-70330000D02*
X168520000Y-67670000D01*
X167250000Y-70330000D02*
X165920000Y-70330000D01*
X165920000Y-70330000D02*
X165920000Y-69000000D01*
G04 #@! TO.C,J1*
X248840000Y-70330000D02*
X248840000Y-67670000D01*
X200520000Y-70330000D02*
X248840000Y-70330000D01*
X200520000Y-67670000D02*
X248840000Y-67670000D01*
X200520000Y-70330000D02*
X200520000Y-67670000D01*
X199250000Y-70330000D02*
X197920000Y-70330000D01*
X197920000Y-70330000D02*
X197920000Y-69000000D01*
G04 #@! TO.C,U6*
D13*
X206765476Y-94727380D02*
X206765476Y-95536904D01*
X206803571Y-95632142D01*
X206841666Y-95679761D01*
X206917857Y-95727380D01*
X207070238Y-95727380D01*
X207146428Y-95679761D01*
X207184523Y-95632142D01*
X207222619Y-95536904D01*
X207222619Y-94727380D01*
X207946428Y-94727380D02*
X207794047Y-94727380D01*
X207717857Y-94775000D01*
X207679761Y-94822619D01*
X207603571Y-94965476D01*
X207565476Y-95155952D01*
X207565476Y-95536904D01*
X207603571Y-95632142D01*
X207641666Y-95679761D01*
X207717857Y-95727380D01*
X207870238Y-95727380D01*
X207946428Y-95679761D01*
X207984523Y-95632142D01*
X208022619Y-95536904D01*
X208022619Y-95298809D01*
X207984523Y-95203571D01*
X207946428Y-95155952D01*
X207870238Y-95108333D01*
X207717857Y-95108333D01*
X207641666Y-95155952D01*
X207603571Y-95203571D01*
X207565476Y-95298809D01*
G04 #@! TO.C,U5*
X68510476Y-94632380D02*
X68510476Y-95441904D01*
X68548571Y-95537142D01*
X68586666Y-95584761D01*
X68662857Y-95632380D01*
X68815238Y-95632380D01*
X68891428Y-95584761D01*
X68929523Y-95537142D01*
X68967619Y-95441904D01*
X68967619Y-94632380D01*
X69729523Y-94632380D02*
X69348571Y-94632380D01*
X69310476Y-95108571D01*
X69348571Y-95060952D01*
X69424761Y-95013333D01*
X69615238Y-95013333D01*
X69691428Y-95060952D01*
X69729523Y-95108571D01*
X69767619Y-95203809D01*
X69767619Y-95441904D01*
X69729523Y-95537142D01*
X69691428Y-95584761D01*
X69615238Y-95632380D01*
X69424761Y-95632380D01*
X69348571Y-95584761D01*
X69310476Y-95537142D01*
G04 #@! TO.C,U8*
X236470476Y-92622380D02*
X236470476Y-93431904D01*
X236508571Y-93527142D01*
X236546666Y-93574761D01*
X236622857Y-93622380D01*
X236775238Y-93622380D01*
X236851428Y-93574761D01*
X236889523Y-93527142D01*
X236927619Y-93431904D01*
X236927619Y-92622380D01*
X237422857Y-93050952D02*
X237346666Y-93003333D01*
X237308571Y-92955714D01*
X237270476Y-92860476D01*
X237270476Y-92812857D01*
X237308571Y-92717619D01*
X237346666Y-92670000D01*
X237422857Y-92622380D01*
X237575238Y-92622380D01*
X237651428Y-92670000D01*
X237689523Y-92717619D01*
X237727619Y-92812857D01*
X237727619Y-92860476D01*
X237689523Y-92955714D01*
X237651428Y-93003333D01*
X237575238Y-93050952D01*
X237422857Y-93050952D01*
X237346666Y-93098571D01*
X237308571Y-93146190D01*
X237270476Y-93241428D01*
X237270476Y-93431904D01*
X237308571Y-93527142D01*
X237346666Y-93574761D01*
X237422857Y-93622380D01*
X237575238Y-93622380D01*
X237651428Y-93574761D01*
X237689523Y-93527142D01*
X237727619Y-93431904D01*
X237727619Y-93241428D01*
X237689523Y-93146190D01*
X237651428Y-93098571D01*
X237575238Y-93050952D01*
G04 #@! TO.C,R12*
X157485714Y-100902380D02*
X157219047Y-100426190D01*
X157028571Y-100902380D02*
X157028571Y-99902380D01*
X157333333Y-99902380D01*
X157409523Y-99950000D01*
X157447619Y-99997619D01*
X157485714Y-100092857D01*
X157485714Y-100235714D01*
X157447619Y-100330952D01*
X157409523Y-100378571D01*
X157333333Y-100426190D01*
X157028571Y-100426190D01*
X158247619Y-100902380D02*
X157790476Y-100902380D01*
X158019047Y-100902380D02*
X158019047Y-99902380D01*
X157942857Y-100045238D01*
X157866666Y-100140476D01*
X157790476Y-100188095D01*
X158552380Y-99997619D02*
X158590476Y-99950000D01*
X158666666Y-99902380D01*
X158857142Y-99902380D01*
X158933333Y-99950000D01*
X158971428Y-99997619D01*
X159009523Y-100092857D01*
X159009523Y-100188095D01*
X158971428Y-100330952D01*
X158514285Y-100902380D01*
X159009523Y-100902380D01*
G04 #@! TO.C,D1*
X156909523Y-99352380D02*
X156909523Y-98352380D01*
X157100000Y-98352380D01*
X157214285Y-98400000D01*
X157290476Y-98495238D01*
X157328571Y-98590476D01*
X157366666Y-98780952D01*
X157366666Y-98923809D01*
X157328571Y-99114285D01*
X157290476Y-99209523D01*
X157214285Y-99304761D01*
X157100000Y-99352380D01*
X156909523Y-99352380D01*
X158128571Y-99352380D02*
X157671428Y-99352380D01*
X157900000Y-99352380D02*
X157900000Y-98352380D01*
X157823809Y-98495238D01*
X157747619Y-98590476D01*
X157671428Y-98638095D01*
G04 #@! TO.C,C24*
X231785714Y-83557142D02*
X231747619Y-83604761D01*
X231633333Y-83652380D01*
X231557142Y-83652380D01*
X231442857Y-83604761D01*
X231366666Y-83509523D01*
X231328571Y-83414285D01*
X231290476Y-83223809D01*
X231290476Y-83080952D01*
X231328571Y-82890476D01*
X231366666Y-82795238D01*
X231442857Y-82700000D01*
X231557142Y-82652380D01*
X231633333Y-82652380D01*
X231747619Y-82700000D01*
X231785714Y-82747619D01*
X232090476Y-82747619D02*
X232128571Y-82700000D01*
X232204761Y-82652380D01*
X232395238Y-82652380D01*
X232471428Y-82700000D01*
X232509523Y-82747619D01*
X232547619Y-82842857D01*
X232547619Y-82938095D01*
X232509523Y-83080952D01*
X232052380Y-83652380D01*
X232547619Y-83652380D01*
X233233333Y-82985714D02*
X233233333Y-83652380D01*
X233042857Y-82604761D02*
X232852380Y-83319047D01*
X233347619Y-83319047D01*
G04 #@! TO.C,C21*
X207407142Y-81614285D02*
X207454761Y-81652380D01*
X207502380Y-81766666D01*
X207502380Y-81842857D01*
X207454761Y-81957142D01*
X207359523Y-82033333D01*
X207264285Y-82071428D01*
X207073809Y-82109523D01*
X206930952Y-82109523D01*
X206740476Y-82071428D01*
X206645238Y-82033333D01*
X206550000Y-81957142D01*
X206502380Y-81842857D01*
X206502380Y-81766666D01*
X206550000Y-81652380D01*
X206597619Y-81614285D01*
X206597619Y-81309523D02*
X206550000Y-81271428D01*
X206502380Y-81195238D01*
X206502380Y-81004761D01*
X206550000Y-80928571D01*
X206597619Y-80890476D01*
X206692857Y-80852380D01*
X206788095Y-80852380D01*
X206930952Y-80890476D01*
X207502380Y-81347619D01*
X207502380Y-80852380D01*
X207502380Y-80090476D02*
X207502380Y-80547619D01*
X207502380Y-80319047D02*
X206502380Y-80319047D01*
X206645238Y-80395238D01*
X206740476Y-80471428D01*
X206788095Y-80547619D01*
G04 #@! TO.C,R11*
X204502380Y-86714285D02*
X204026190Y-86980952D01*
X204502380Y-87171428D02*
X203502380Y-87171428D01*
X203502380Y-86866666D01*
X203550000Y-86790476D01*
X203597619Y-86752380D01*
X203692857Y-86714285D01*
X203835714Y-86714285D01*
X203930952Y-86752380D01*
X203978571Y-86790476D01*
X204026190Y-86866666D01*
X204026190Y-87171428D01*
X204502380Y-85952380D02*
X204502380Y-86409523D01*
X204502380Y-86180952D02*
X203502380Y-86180952D01*
X203645238Y-86257142D01*
X203740476Y-86333333D01*
X203788095Y-86409523D01*
X204502380Y-85190476D02*
X204502380Y-85647619D01*
X204502380Y-85419047D02*
X203502380Y-85419047D01*
X203645238Y-85495238D01*
X203740476Y-85571428D01*
X203788095Y-85647619D01*
G04 #@! TO.C,R10*
X210482380Y-84214285D02*
X210006190Y-84480952D01*
X210482380Y-84671428D02*
X209482380Y-84671428D01*
X209482380Y-84366666D01*
X209530000Y-84290476D01*
X209577619Y-84252380D01*
X209672857Y-84214285D01*
X209815714Y-84214285D01*
X209910952Y-84252380D01*
X209958571Y-84290476D01*
X210006190Y-84366666D01*
X210006190Y-84671428D01*
X210482380Y-83452380D02*
X210482380Y-83909523D01*
X210482380Y-83680952D02*
X209482380Y-83680952D01*
X209625238Y-83757142D01*
X209720476Y-83833333D01*
X209768095Y-83909523D01*
X209482380Y-82957142D02*
X209482380Y-82880952D01*
X209530000Y-82804761D01*
X209577619Y-82766666D01*
X209672857Y-82728571D01*
X209863333Y-82690476D01*
X210101428Y-82690476D01*
X210291904Y-82728571D01*
X210387142Y-82766666D01*
X210434761Y-82804761D01*
X210482380Y-82880952D01*
X210482380Y-82957142D01*
X210434761Y-83033333D01*
X210387142Y-83071428D01*
X210291904Y-83109523D01*
X210101428Y-83147619D01*
X209863333Y-83147619D01*
X209672857Y-83109523D01*
X209577619Y-83071428D01*
X209530000Y-83033333D01*
X209482380Y-82957142D01*
G04 #@! TO.C,J6*
X164692380Y-87516666D02*
X165406666Y-87516666D01*
X165549523Y-87554761D01*
X165644761Y-87630952D01*
X165692380Y-87745238D01*
X165692380Y-87821428D01*
X164692380Y-86792857D02*
X164692380Y-86945238D01*
X164740000Y-87021428D01*
X164787619Y-87059523D01*
X164930476Y-87135714D01*
X165120952Y-87173809D01*
X165501904Y-87173809D01*
X165597142Y-87135714D01*
X165644761Y-87097619D01*
X165692380Y-87021428D01*
X165692380Y-86869047D01*
X165644761Y-86792857D01*
X165597142Y-86754761D01*
X165501904Y-86716666D01*
X165263809Y-86716666D01*
X165168571Y-86754761D01*
X165120952Y-86792857D01*
X165073333Y-86869047D01*
X165073333Y-87021428D01*
X165120952Y-87097619D01*
X165168571Y-87135714D01*
X165263809Y-87173809D01*
G04 #@! TO.C,U9*
X193302380Y-81159523D02*
X194111904Y-81159523D01*
X194207142Y-81121428D01*
X194254761Y-81083333D01*
X194302380Y-81007142D01*
X194302380Y-80854761D01*
X194254761Y-80778571D01*
X194207142Y-80740476D01*
X194111904Y-80702380D01*
X193302380Y-80702380D01*
X194302380Y-80283333D02*
X194302380Y-80130952D01*
X194254761Y-80054761D01*
X194207142Y-80016666D01*
X194064285Y-79940476D01*
X193873809Y-79902380D01*
X193492857Y-79902380D01*
X193397619Y-79940476D01*
X193350000Y-79978571D01*
X193302380Y-80054761D01*
X193302380Y-80207142D01*
X193350000Y-80283333D01*
X193397619Y-80321428D01*
X193492857Y-80359523D01*
X193730952Y-80359523D01*
X193826190Y-80321428D01*
X193873809Y-80283333D01*
X193921428Y-80207142D01*
X193921428Y-80054761D01*
X193873809Y-79978571D01*
X193826190Y-79940476D01*
X193730952Y-79902380D01*
G04 #@! TO.C,R15*
X247942380Y-83294285D02*
X247466190Y-83560952D01*
X247942380Y-83751428D02*
X246942380Y-83751428D01*
X246942380Y-83446666D01*
X246990000Y-83370476D01*
X247037619Y-83332380D01*
X247132857Y-83294285D01*
X247275714Y-83294285D01*
X247370952Y-83332380D01*
X247418571Y-83370476D01*
X247466190Y-83446666D01*
X247466190Y-83751428D01*
X247942380Y-82532380D02*
X247942380Y-82989523D01*
X247942380Y-82760952D02*
X246942380Y-82760952D01*
X247085238Y-82837142D01*
X247180476Y-82913333D01*
X247228095Y-82989523D01*
X246942380Y-81808571D02*
X246942380Y-82189523D01*
X247418571Y-82227619D01*
X247370952Y-82189523D01*
X247323333Y-82113333D01*
X247323333Y-81922857D01*
X247370952Y-81846666D01*
X247418571Y-81808571D01*
X247513809Y-81770476D01*
X247751904Y-81770476D01*
X247847142Y-81808571D01*
X247894761Y-81846666D01*
X247942380Y-81922857D01*
X247942380Y-82113333D01*
X247894761Y-82189523D01*
X247847142Y-82227619D01*
G04 #@! TO.C,R14*
X65245714Y-85472380D02*
X64979047Y-84996190D01*
X64788571Y-85472380D02*
X64788571Y-84472380D01*
X65093333Y-84472380D01*
X65169523Y-84520000D01*
X65207619Y-84567619D01*
X65245714Y-84662857D01*
X65245714Y-84805714D01*
X65207619Y-84900952D01*
X65169523Y-84948571D01*
X65093333Y-84996190D01*
X64788571Y-84996190D01*
X66007619Y-85472380D02*
X65550476Y-85472380D01*
X65779047Y-85472380D02*
X65779047Y-84472380D01*
X65702857Y-84615238D01*
X65626666Y-84710476D01*
X65550476Y-84758095D01*
X66693333Y-84805714D02*
X66693333Y-85472380D01*
X66502857Y-84424761D02*
X66312380Y-85139047D01*
X66807619Y-85139047D01*
G04 #@! TO.C,C29*
X246317142Y-83304285D02*
X246364761Y-83342380D01*
X246412380Y-83456666D01*
X246412380Y-83532857D01*
X246364761Y-83647142D01*
X246269523Y-83723333D01*
X246174285Y-83761428D01*
X245983809Y-83799523D01*
X245840952Y-83799523D01*
X245650476Y-83761428D01*
X245555238Y-83723333D01*
X245460000Y-83647142D01*
X245412380Y-83532857D01*
X245412380Y-83456666D01*
X245460000Y-83342380D01*
X245507619Y-83304285D01*
X245507619Y-82999523D02*
X245460000Y-82961428D01*
X245412380Y-82885238D01*
X245412380Y-82694761D01*
X245460000Y-82618571D01*
X245507619Y-82580476D01*
X245602857Y-82542380D01*
X245698095Y-82542380D01*
X245840952Y-82580476D01*
X246412380Y-83037619D01*
X246412380Y-82542380D01*
X246412380Y-82161428D02*
X246412380Y-82009047D01*
X246364761Y-81932857D01*
X246317142Y-81894761D01*
X246174285Y-81818571D01*
X245983809Y-81780476D01*
X245602857Y-81780476D01*
X245507619Y-81818571D01*
X245460000Y-81856666D01*
X245412380Y-81932857D01*
X245412380Y-82085238D01*
X245460000Y-82161428D01*
X245507619Y-82199523D01*
X245602857Y-82237619D01*
X245840952Y-82237619D01*
X245936190Y-82199523D01*
X245983809Y-82161428D01*
X246031428Y-82085238D01*
X246031428Y-81932857D01*
X245983809Y-81856666D01*
X245936190Y-81818571D01*
X245840952Y-81780476D01*
G04 #@! TO.C,C28*
X65225714Y-88427142D02*
X65187619Y-88474761D01*
X65073333Y-88522380D01*
X64997142Y-88522380D01*
X64882857Y-88474761D01*
X64806666Y-88379523D01*
X64768571Y-88284285D01*
X64730476Y-88093809D01*
X64730476Y-87950952D01*
X64768571Y-87760476D01*
X64806666Y-87665238D01*
X64882857Y-87570000D01*
X64997142Y-87522380D01*
X65073333Y-87522380D01*
X65187619Y-87570000D01*
X65225714Y-87617619D01*
X65530476Y-87617619D02*
X65568571Y-87570000D01*
X65644761Y-87522380D01*
X65835238Y-87522380D01*
X65911428Y-87570000D01*
X65949523Y-87617619D01*
X65987619Y-87712857D01*
X65987619Y-87808095D01*
X65949523Y-87950952D01*
X65492380Y-88522380D01*
X65987619Y-88522380D01*
X66444761Y-87950952D02*
X66368571Y-87903333D01*
X66330476Y-87855714D01*
X66292380Y-87760476D01*
X66292380Y-87712857D01*
X66330476Y-87617619D01*
X66368571Y-87570000D01*
X66444761Y-87522380D01*
X66597142Y-87522380D01*
X66673333Y-87570000D01*
X66711428Y-87617619D01*
X66749523Y-87712857D01*
X66749523Y-87760476D01*
X66711428Y-87855714D01*
X66673333Y-87903333D01*
X66597142Y-87950952D01*
X66444761Y-87950952D01*
X66368571Y-87998571D01*
X66330476Y-88046190D01*
X66292380Y-88141428D01*
X66292380Y-88331904D01*
X66330476Y-88427142D01*
X66368571Y-88474761D01*
X66444761Y-88522380D01*
X66597142Y-88522380D01*
X66673333Y-88474761D01*
X66711428Y-88427142D01*
X66749523Y-88331904D01*
X66749523Y-88141428D01*
X66711428Y-88046190D01*
X66673333Y-87998571D01*
X66597142Y-87950952D01*
G04 #@! TO.C,R5*
X202852380Y-85463333D02*
X202376190Y-85730000D01*
X202852380Y-85920476D02*
X201852380Y-85920476D01*
X201852380Y-85615714D01*
X201900000Y-85539523D01*
X201947619Y-85501428D01*
X202042857Y-85463333D01*
X202185714Y-85463333D01*
X202280952Y-85501428D01*
X202328571Y-85539523D01*
X202376190Y-85615714D01*
X202376190Y-85920476D01*
X201852380Y-84739523D02*
X201852380Y-85120476D01*
X202328571Y-85158571D01*
X202280952Y-85120476D01*
X202233333Y-85044285D01*
X202233333Y-84853809D01*
X202280952Y-84777619D01*
X202328571Y-84739523D01*
X202423809Y-84701428D01*
X202661904Y-84701428D01*
X202757142Y-84739523D01*
X202804761Y-84777619D01*
X202852380Y-84853809D01*
X202852380Y-85044285D01*
X202804761Y-85120476D01*
X202757142Y-85158571D01*
G04 #@! TO.C,C22*
X213703714Y-91557142D02*
X213665619Y-91604761D01*
X213551333Y-91652380D01*
X213475142Y-91652380D01*
X213360857Y-91604761D01*
X213284666Y-91509523D01*
X213246571Y-91414285D01*
X213208476Y-91223809D01*
X213208476Y-91080952D01*
X213246571Y-90890476D01*
X213284666Y-90795238D01*
X213360857Y-90700000D01*
X213475142Y-90652380D01*
X213551333Y-90652380D01*
X213665619Y-90700000D01*
X213703714Y-90747619D01*
X214008476Y-90747619D02*
X214046571Y-90700000D01*
X214122761Y-90652380D01*
X214313238Y-90652380D01*
X214389428Y-90700000D01*
X214427523Y-90747619D01*
X214465619Y-90842857D01*
X214465619Y-90938095D01*
X214427523Y-91080952D01*
X213970380Y-91652380D01*
X214465619Y-91652380D01*
X214770380Y-90747619D02*
X214808476Y-90700000D01*
X214884666Y-90652380D01*
X215075142Y-90652380D01*
X215151333Y-90700000D01*
X215189428Y-90747619D01*
X215227523Y-90842857D01*
X215227523Y-90938095D01*
X215189428Y-91080952D01*
X214732285Y-91652380D01*
X215227523Y-91652380D01*
G04 #@! TO.C,R6*
X199782380Y-80233333D02*
X199306190Y-80500000D01*
X199782380Y-80690476D02*
X198782380Y-80690476D01*
X198782380Y-80385714D01*
X198830000Y-80309523D01*
X198877619Y-80271428D01*
X198972857Y-80233333D01*
X199115714Y-80233333D01*
X199210952Y-80271428D01*
X199258571Y-80309523D01*
X199306190Y-80385714D01*
X199306190Y-80690476D01*
X198782380Y-79547619D02*
X198782380Y-79700000D01*
X198830000Y-79776190D01*
X198877619Y-79814285D01*
X199020476Y-79890476D01*
X199210952Y-79928571D01*
X199591904Y-79928571D01*
X199687142Y-79890476D01*
X199734761Y-79852380D01*
X199782380Y-79776190D01*
X199782380Y-79623809D01*
X199734761Y-79547619D01*
X199687142Y-79509523D01*
X199591904Y-79471428D01*
X199353809Y-79471428D01*
X199258571Y-79509523D01*
X199210952Y-79547619D01*
X199163333Y-79623809D01*
X199163333Y-79776190D01*
X199210952Y-79852380D01*
X199258571Y-79890476D01*
X199353809Y-79928571D01*
G04 #@! TO.C,R9*
X205902380Y-86733333D02*
X205426190Y-87000000D01*
X205902380Y-87190476D02*
X204902380Y-87190476D01*
X204902380Y-86885714D01*
X204950000Y-86809523D01*
X204997619Y-86771428D01*
X205092857Y-86733333D01*
X205235714Y-86733333D01*
X205330952Y-86771428D01*
X205378571Y-86809523D01*
X205426190Y-86885714D01*
X205426190Y-87190476D01*
X205902380Y-86352380D02*
X205902380Y-86200000D01*
X205854761Y-86123809D01*
X205807142Y-86085714D01*
X205664285Y-86009523D01*
X205473809Y-85971428D01*
X205092857Y-85971428D01*
X204997619Y-86009523D01*
X204950000Y-86047619D01*
X204902380Y-86123809D01*
X204902380Y-86276190D01*
X204950000Y-86352380D01*
X204997619Y-86390476D01*
X205092857Y-86428571D01*
X205330952Y-86428571D01*
X205426190Y-86390476D01*
X205473809Y-86352380D01*
X205521428Y-86276190D01*
X205521428Y-86123809D01*
X205473809Y-86047619D01*
X205426190Y-86009523D01*
X205330952Y-85971428D01*
G04 #@! TO.C,C14*
X192007142Y-100244285D02*
X192054761Y-100282380D01*
X192102380Y-100396666D01*
X192102380Y-100472857D01*
X192054761Y-100587142D01*
X191959523Y-100663333D01*
X191864285Y-100701428D01*
X191673809Y-100739523D01*
X191530952Y-100739523D01*
X191340476Y-100701428D01*
X191245238Y-100663333D01*
X191150000Y-100587142D01*
X191102380Y-100472857D01*
X191102380Y-100396666D01*
X191150000Y-100282380D01*
X191197619Y-100244285D01*
X192102380Y-99482380D02*
X192102380Y-99939523D01*
X192102380Y-99710952D02*
X191102380Y-99710952D01*
X191245238Y-99787142D01*
X191340476Y-99863333D01*
X191388095Y-99939523D01*
X191435714Y-98796666D02*
X192102380Y-98796666D01*
X191054761Y-98987142D02*
X191769047Y-99177619D01*
X191769047Y-98682380D01*
G04 #@! TO.C,C15*
X196587142Y-94784285D02*
X196634761Y-94822380D01*
X196682380Y-94936666D01*
X196682380Y-95012857D01*
X196634761Y-95127142D01*
X196539523Y-95203333D01*
X196444285Y-95241428D01*
X196253809Y-95279523D01*
X196110952Y-95279523D01*
X195920476Y-95241428D01*
X195825238Y-95203333D01*
X195730000Y-95127142D01*
X195682380Y-95012857D01*
X195682380Y-94936666D01*
X195730000Y-94822380D01*
X195777619Y-94784285D01*
X196682380Y-94022380D02*
X196682380Y-94479523D01*
X196682380Y-94250952D02*
X195682380Y-94250952D01*
X195825238Y-94327142D01*
X195920476Y-94403333D01*
X195968095Y-94479523D01*
X195682380Y-93298571D02*
X195682380Y-93679523D01*
X196158571Y-93717619D01*
X196110952Y-93679523D01*
X196063333Y-93603333D01*
X196063333Y-93412857D01*
X196110952Y-93336666D01*
X196158571Y-93298571D01*
X196253809Y-93260476D01*
X196491904Y-93260476D01*
X196587142Y-93298571D01*
X196634761Y-93336666D01*
X196682380Y-93412857D01*
X196682380Y-93603333D01*
X196634761Y-93679523D01*
X196587142Y-93717619D01*
G04 #@! TO.C,C18*
X200507142Y-98554285D02*
X200554761Y-98592380D01*
X200602380Y-98706666D01*
X200602380Y-98782857D01*
X200554761Y-98897142D01*
X200459523Y-98973333D01*
X200364285Y-99011428D01*
X200173809Y-99049523D01*
X200030952Y-99049523D01*
X199840476Y-99011428D01*
X199745238Y-98973333D01*
X199650000Y-98897142D01*
X199602380Y-98782857D01*
X199602380Y-98706666D01*
X199650000Y-98592380D01*
X199697619Y-98554285D01*
X200602380Y-97792380D02*
X200602380Y-98249523D01*
X200602380Y-98020952D02*
X199602380Y-98020952D01*
X199745238Y-98097142D01*
X199840476Y-98173333D01*
X199888095Y-98249523D01*
X200030952Y-97335238D02*
X199983333Y-97411428D01*
X199935714Y-97449523D01*
X199840476Y-97487619D01*
X199792857Y-97487619D01*
X199697619Y-97449523D01*
X199650000Y-97411428D01*
X199602380Y-97335238D01*
X199602380Y-97182857D01*
X199650000Y-97106666D01*
X199697619Y-97068571D01*
X199792857Y-97030476D01*
X199840476Y-97030476D01*
X199935714Y-97068571D01*
X199983333Y-97106666D01*
X200030952Y-97182857D01*
X200030952Y-97335238D01*
X200078571Y-97411428D01*
X200126190Y-97449523D01*
X200221428Y-97487619D01*
X200411904Y-97487619D01*
X200507142Y-97449523D01*
X200554761Y-97411428D01*
X200602380Y-97335238D01*
X200602380Y-97182857D01*
X200554761Y-97106666D01*
X200507142Y-97068571D01*
X200411904Y-97030476D01*
X200221428Y-97030476D01*
X200126190Y-97068571D01*
X200078571Y-97106666D01*
X200030952Y-97182857D01*
G04 #@! TO.C,C20*
X213703714Y-93177142D02*
X213665619Y-93224761D01*
X213551333Y-93272380D01*
X213475142Y-93272380D01*
X213360857Y-93224761D01*
X213284666Y-93129523D01*
X213246571Y-93034285D01*
X213208476Y-92843809D01*
X213208476Y-92700952D01*
X213246571Y-92510476D01*
X213284666Y-92415238D01*
X213360857Y-92320000D01*
X213475142Y-92272380D01*
X213551333Y-92272380D01*
X213665619Y-92320000D01*
X213703714Y-92367619D01*
X214008476Y-92367619D02*
X214046571Y-92320000D01*
X214122761Y-92272380D01*
X214313238Y-92272380D01*
X214389428Y-92320000D01*
X214427523Y-92367619D01*
X214465619Y-92462857D01*
X214465619Y-92558095D01*
X214427523Y-92700952D01*
X213970380Y-93272380D01*
X214465619Y-93272380D01*
X214960857Y-92272380D02*
X215037047Y-92272380D01*
X215113238Y-92320000D01*
X215151333Y-92367619D01*
X215189428Y-92462857D01*
X215227523Y-92653333D01*
X215227523Y-92891428D01*
X215189428Y-93081904D01*
X215151333Y-93177142D01*
X215113238Y-93224761D01*
X215037047Y-93272380D01*
X214960857Y-93272380D01*
X214884666Y-93224761D01*
X214846571Y-93177142D01*
X214808476Y-93081904D01*
X214770380Y-92891428D01*
X214770380Y-92653333D01*
X214808476Y-92462857D01*
X214846571Y-92367619D01*
X214884666Y-92320000D01*
X214960857Y-92272380D01*
G04 #@! TO.C,C27*
X213703714Y-94627142D02*
X213665619Y-94674761D01*
X213551333Y-94722380D01*
X213475142Y-94722380D01*
X213360857Y-94674761D01*
X213284666Y-94579523D01*
X213246571Y-94484285D01*
X213208476Y-94293809D01*
X213208476Y-94150952D01*
X213246571Y-93960476D01*
X213284666Y-93865238D01*
X213360857Y-93770000D01*
X213475142Y-93722380D01*
X213551333Y-93722380D01*
X213665619Y-93770000D01*
X213703714Y-93817619D01*
X214008476Y-93817619D02*
X214046571Y-93770000D01*
X214122761Y-93722380D01*
X214313238Y-93722380D01*
X214389428Y-93770000D01*
X214427523Y-93817619D01*
X214465619Y-93912857D01*
X214465619Y-94008095D01*
X214427523Y-94150952D01*
X213970380Y-94722380D01*
X214465619Y-94722380D01*
X214732285Y-93722380D02*
X215265619Y-93722380D01*
X214922761Y-94722380D01*
G04 #@! TO.C,C19*
X200137142Y-90564285D02*
X200184761Y-90602380D01*
X200232380Y-90716666D01*
X200232380Y-90792857D01*
X200184761Y-90907142D01*
X200089523Y-90983333D01*
X199994285Y-91021428D01*
X199803809Y-91059523D01*
X199660952Y-91059523D01*
X199470476Y-91021428D01*
X199375238Y-90983333D01*
X199280000Y-90907142D01*
X199232380Y-90792857D01*
X199232380Y-90716666D01*
X199280000Y-90602380D01*
X199327619Y-90564285D01*
X200232380Y-89802380D02*
X200232380Y-90259523D01*
X200232380Y-90030952D02*
X199232380Y-90030952D01*
X199375238Y-90107142D01*
X199470476Y-90183333D01*
X199518095Y-90259523D01*
X200232380Y-89421428D02*
X200232380Y-89269047D01*
X200184761Y-89192857D01*
X200137142Y-89154761D01*
X199994285Y-89078571D01*
X199803809Y-89040476D01*
X199422857Y-89040476D01*
X199327619Y-89078571D01*
X199280000Y-89116666D01*
X199232380Y-89192857D01*
X199232380Y-89345238D01*
X199280000Y-89421428D01*
X199327619Y-89459523D01*
X199422857Y-89497619D01*
X199660952Y-89497619D01*
X199756190Y-89459523D01*
X199803809Y-89421428D01*
X199851428Y-89345238D01*
X199851428Y-89192857D01*
X199803809Y-89116666D01*
X199756190Y-89078571D01*
X199660952Y-89040476D01*
G04 #@! TO.C,R7*
X201302380Y-85393333D02*
X200826190Y-85660000D01*
X201302380Y-85850476D02*
X200302380Y-85850476D01*
X200302380Y-85545714D01*
X200350000Y-85469523D01*
X200397619Y-85431428D01*
X200492857Y-85393333D01*
X200635714Y-85393333D01*
X200730952Y-85431428D01*
X200778571Y-85469523D01*
X200826190Y-85545714D01*
X200826190Y-85850476D01*
X200302380Y-85126666D02*
X200302380Y-84593333D01*
X201302380Y-84936190D01*
G04 #@! TO.C,R8*
X199082380Y-98643333D02*
X198606190Y-98910000D01*
X199082380Y-99100476D02*
X198082380Y-99100476D01*
X198082380Y-98795714D01*
X198130000Y-98719523D01*
X198177619Y-98681428D01*
X198272857Y-98643333D01*
X198415714Y-98643333D01*
X198510952Y-98681428D01*
X198558571Y-98719523D01*
X198606190Y-98795714D01*
X198606190Y-99100476D01*
X198510952Y-98186190D02*
X198463333Y-98262380D01*
X198415714Y-98300476D01*
X198320476Y-98338571D01*
X198272857Y-98338571D01*
X198177619Y-98300476D01*
X198130000Y-98262380D01*
X198082380Y-98186190D01*
X198082380Y-98033809D01*
X198130000Y-97957619D01*
X198177619Y-97919523D01*
X198272857Y-97881428D01*
X198320476Y-97881428D01*
X198415714Y-97919523D01*
X198463333Y-97957619D01*
X198510952Y-98033809D01*
X198510952Y-98186190D01*
X198558571Y-98262380D01*
X198606190Y-98300476D01*
X198701428Y-98338571D01*
X198891904Y-98338571D01*
X198987142Y-98300476D01*
X199034761Y-98262380D01*
X199082380Y-98186190D01*
X199082380Y-98033809D01*
X199034761Y-97957619D01*
X198987142Y-97919523D01*
X198891904Y-97881428D01*
X198701428Y-97881428D01*
X198606190Y-97919523D01*
X198558571Y-97957619D01*
X198510952Y-98033809D01*
G04 #@! TO.C,Y2*
X193639047Y-93436190D02*
X193639047Y-93912380D01*
X193372380Y-92912380D02*
X193639047Y-93436190D01*
X193905714Y-92912380D01*
X194134285Y-93007619D02*
X194172380Y-92960000D01*
X194248571Y-92912380D01*
X194439047Y-92912380D01*
X194515238Y-92960000D01*
X194553333Y-93007619D01*
X194591428Y-93102857D01*
X194591428Y-93198095D01*
X194553333Y-93340952D01*
X194096190Y-93912380D01*
X194591428Y-93912380D01*
G04 #@! TO.C,J4*
X238552380Y-97266666D02*
X239266666Y-97266666D01*
X239409523Y-97304761D01*
X239504761Y-97380952D01*
X239552380Y-97495238D01*
X239552380Y-97571428D01*
X238885714Y-96542857D02*
X239552380Y-96542857D01*
X238504761Y-96733333D02*
X239219047Y-96923809D01*
X239219047Y-96428571D01*
G04 #@! TO.C,J3*
X61733333Y-104952380D02*
X61733333Y-105666666D01*
X61695238Y-105809523D01*
X61619047Y-105904761D01*
X61504761Y-105952380D01*
X61428571Y-105952380D01*
X62038095Y-104952380D02*
X62533333Y-104952380D01*
X62266666Y-105333333D01*
X62380952Y-105333333D01*
X62457142Y-105380952D01*
X62495238Y-105428571D01*
X62533333Y-105523809D01*
X62533333Y-105761904D01*
X62495238Y-105857142D01*
X62457142Y-105904761D01*
X62380952Y-105952380D01*
X62152380Y-105952380D01*
X62076190Y-105904761D01*
X62038095Y-105857142D01*
G04 #@! TO.C,S2*
X112590476Y-94004761D02*
X112704761Y-94052380D01*
X112895238Y-94052380D01*
X112971428Y-94004761D01*
X113009523Y-93957142D01*
X113047619Y-93861904D01*
X113047619Y-93766666D01*
X113009523Y-93671428D01*
X112971428Y-93623809D01*
X112895238Y-93576190D01*
X112742857Y-93528571D01*
X112666666Y-93480952D01*
X112628571Y-93433333D01*
X112590476Y-93338095D01*
X112590476Y-93242857D01*
X112628571Y-93147619D01*
X112666666Y-93100000D01*
X112742857Y-93052380D01*
X112933333Y-93052380D01*
X113047619Y-93100000D01*
X113352380Y-93147619D02*
X113390476Y-93100000D01*
X113466666Y-93052380D01*
X113657142Y-93052380D01*
X113733333Y-93100000D01*
X113771428Y-93147619D01*
X113809523Y-93242857D01*
X113809523Y-93338095D01*
X113771428Y-93480952D01*
X113314285Y-94052380D01*
X113809523Y-94052380D01*
G04 #@! TO.C,S1*
X124490476Y-94604761D02*
X124604761Y-94652380D01*
X124795238Y-94652380D01*
X124871428Y-94604761D01*
X124909523Y-94557142D01*
X124947619Y-94461904D01*
X124947619Y-94366666D01*
X124909523Y-94271428D01*
X124871428Y-94223809D01*
X124795238Y-94176190D01*
X124642857Y-94128571D01*
X124566666Y-94080952D01*
X124528571Y-94033333D01*
X124490476Y-93938095D01*
X124490476Y-93842857D01*
X124528571Y-93747619D01*
X124566666Y-93700000D01*
X124642857Y-93652380D01*
X124833333Y-93652380D01*
X124947619Y-93700000D01*
X125709523Y-94652380D02*
X125252380Y-94652380D01*
X125480952Y-94652380D02*
X125480952Y-93652380D01*
X125404761Y-93795238D01*
X125328571Y-93890476D01*
X125252380Y-93938095D01*
G04 #@! TO.C,C26*
X143685714Y-102857142D02*
X143647619Y-102904761D01*
X143533333Y-102952380D01*
X143457142Y-102952380D01*
X143342857Y-102904761D01*
X143266666Y-102809523D01*
X143228571Y-102714285D01*
X143190476Y-102523809D01*
X143190476Y-102380952D01*
X143228571Y-102190476D01*
X143266666Y-102095238D01*
X143342857Y-102000000D01*
X143457142Y-101952380D01*
X143533333Y-101952380D01*
X143647619Y-102000000D01*
X143685714Y-102047619D01*
X143990476Y-102047619D02*
X144028571Y-102000000D01*
X144104761Y-101952380D01*
X144295238Y-101952380D01*
X144371428Y-102000000D01*
X144409523Y-102047619D01*
X144447619Y-102142857D01*
X144447619Y-102238095D01*
X144409523Y-102380952D01*
X143952380Y-102952380D01*
X144447619Y-102952380D01*
X145133333Y-101952380D02*
X144980952Y-101952380D01*
X144904761Y-102000000D01*
X144866666Y-102047619D01*
X144790476Y-102190476D01*
X144752380Y-102380952D01*
X144752380Y-102761904D01*
X144790476Y-102857142D01*
X144828571Y-102904761D01*
X144904761Y-102952380D01*
X145057142Y-102952380D01*
X145133333Y-102904761D01*
X145171428Y-102857142D01*
X145209523Y-102761904D01*
X145209523Y-102523809D01*
X145171428Y-102428571D01*
X145133333Y-102380952D01*
X145057142Y-102333333D01*
X144904761Y-102333333D01*
X144828571Y-102380952D01*
X144790476Y-102428571D01*
X144752380Y-102523809D01*
G04 #@! TO.C,C25*
X135435714Y-90387142D02*
X135397619Y-90434761D01*
X135283333Y-90482380D01*
X135207142Y-90482380D01*
X135092857Y-90434761D01*
X135016666Y-90339523D01*
X134978571Y-90244285D01*
X134940476Y-90053809D01*
X134940476Y-89910952D01*
X134978571Y-89720476D01*
X135016666Y-89625238D01*
X135092857Y-89530000D01*
X135207142Y-89482380D01*
X135283333Y-89482380D01*
X135397619Y-89530000D01*
X135435714Y-89577619D01*
X135740476Y-89577619D02*
X135778571Y-89530000D01*
X135854761Y-89482380D01*
X136045238Y-89482380D01*
X136121428Y-89530000D01*
X136159523Y-89577619D01*
X136197619Y-89672857D01*
X136197619Y-89768095D01*
X136159523Y-89910952D01*
X135702380Y-90482380D01*
X136197619Y-90482380D01*
X136921428Y-89482380D02*
X136540476Y-89482380D01*
X136502380Y-89958571D01*
X136540476Y-89910952D01*
X136616666Y-89863333D01*
X136807142Y-89863333D01*
X136883333Y-89910952D01*
X136921428Y-89958571D01*
X136959523Y-90053809D01*
X136959523Y-90291904D01*
X136921428Y-90387142D01*
X136883333Y-90434761D01*
X136807142Y-90482380D01*
X136616666Y-90482380D01*
X136540476Y-90434761D01*
X136502380Y-90387142D01*
G04 #@! TO.C,Y1*
X142444047Y-78351190D02*
X142444047Y-78827380D01*
X142177380Y-77827380D02*
X142444047Y-78351190D01*
X142710714Y-77827380D01*
X143396428Y-78827380D02*
X142939285Y-78827380D01*
X143167857Y-78827380D02*
X143167857Y-77827380D01*
X143091666Y-77970238D01*
X143015476Y-78065476D01*
X142939285Y-78113095D01*
G04 #@! TO.C,U7*
X221890476Y-80902380D02*
X221890476Y-81711904D01*
X221928571Y-81807142D01*
X221966666Y-81854761D01*
X222042857Y-81902380D01*
X222195238Y-81902380D01*
X222271428Y-81854761D01*
X222309523Y-81807142D01*
X222347619Y-81711904D01*
X222347619Y-80902380D01*
X222652380Y-80902380D02*
X223185714Y-80902380D01*
X222842857Y-81902380D01*
G04 #@! TO.C,U4*
X191352380Y-84109523D02*
X192161904Y-84109523D01*
X192257142Y-84071428D01*
X192304761Y-84033333D01*
X192352380Y-83957142D01*
X192352380Y-83804761D01*
X192304761Y-83728571D01*
X192257142Y-83690476D01*
X192161904Y-83652380D01*
X191352380Y-83652380D01*
X191685714Y-82928571D02*
X192352380Y-82928571D01*
X191304761Y-83119047D02*
X192019047Y-83309523D01*
X192019047Y-82814285D01*
G04 #@! TO.C,U3*
X137390476Y-95952380D02*
X137390476Y-96761904D01*
X137428571Y-96857142D01*
X137466666Y-96904761D01*
X137542857Y-96952380D01*
X137695238Y-96952380D01*
X137771428Y-96904761D01*
X137809523Y-96857142D01*
X137847619Y-96761904D01*
X137847619Y-95952380D01*
X138152380Y-95952380D02*
X138647619Y-95952380D01*
X138380952Y-96333333D01*
X138495238Y-96333333D01*
X138571428Y-96380952D01*
X138609523Y-96428571D01*
X138647619Y-96523809D01*
X138647619Y-96761904D01*
X138609523Y-96857142D01*
X138571428Y-96904761D01*
X138495238Y-96952380D01*
X138266666Y-96952380D01*
X138190476Y-96904761D01*
X138152380Y-96857142D01*
G04 #@! TO.C,U2*
X200290476Y-75652380D02*
X200290476Y-76461904D01*
X200328571Y-76557142D01*
X200366666Y-76604761D01*
X200442857Y-76652380D01*
X200595238Y-76652380D01*
X200671428Y-76604761D01*
X200709523Y-76557142D01*
X200747619Y-76461904D01*
X200747619Y-75652380D01*
X201090476Y-75747619D02*
X201128571Y-75700000D01*
X201204761Y-75652380D01*
X201395238Y-75652380D01*
X201471428Y-75700000D01*
X201509523Y-75747619D01*
X201547619Y-75842857D01*
X201547619Y-75938095D01*
X201509523Y-76080952D01*
X201052380Y-76652380D01*
X201547619Y-76652380D01*
G04 #@! TO.C,U1*
X219490476Y-75752380D02*
X219490476Y-76561904D01*
X219528571Y-76657142D01*
X219566666Y-76704761D01*
X219642857Y-76752380D01*
X219795238Y-76752380D01*
X219871428Y-76704761D01*
X219909523Y-76657142D01*
X219947619Y-76561904D01*
X219947619Y-75752380D01*
X220747619Y-76752380D02*
X220290476Y-76752380D01*
X220519047Y-76752380D02*
X220519047Y-75752380D01*
X220442857Y-75895238D01*
X220366666Y-75990476D01*
X220290476Y-76038095D01*
G04 #@! TO.C,R4*
X159266666Y-96352380D02*
X159000000Y-95876190D01*
X158809523Y-96352380D02*
X158809523Y-95352380D01*
X159114285Y-95352380D01*
X159190476Y-95400000D01*
X159228571Y-95447619D01*
X159266666Y-95542857D01*
X159266666Y-95685714D01*
X159228571Y-95780952D01*
X159190476Y-95828571D01*
X159114285Y-95876190D01*
X158809523Y-95876190D01*
X159952380Y-95685714D02*
X159952380Y-96352380D01*
X159761904Y-95304761D02*
X159571428Y-96019047D01*
X160066666Y-96019047D01*
G04 #@! TO.C,R3*
X164466666Y-95552380D02*
X164200000Y-95076190D01*
X164009523Y-95552380D02*
X164009523Y-94552380D01*
X164314285Y-94552380D01*
X164390476Y-94600000D01*
X164428571Y-94647619D01*
X164466666Y-94742857D01*
X164466666Y-94885714D01*
X164428571Y-94980952D01*
X164390476Y-95028571D01*
X164314285Y-95076190D01*
X164009523Y-95076190D01*
X164733333Y-94552380D02*
X165228571Y-94552380D01*
X164961904Y-94933333D01*
X165076190Y-94933333D01*
X165152380Y-94980952D01*
X165190476Y-95028571D01*
X165228571Y-95123809D01*
X165228571Y-95361904D01*
X165190476Y-95457142D01*
X165152380Y-95504761D01*
X165076190Y-95552380D01*
X164847619Y-95552380D01*
X164771428Y-95504761D01*
X164733333Y-95457142D01*
G04 #@! TO.C,R2*
X112766666Y-87752380D02*
X112500000Y-87276190D01*
X112309523Y-87752380D02*
X112309523Y-86752380D01*
X112614285Y-86752380D01*
X112690476Y-86800000D01*
X112728571Y-86847619D01*
X112766666Y-86942857D01*
X112766666Y-87085714D01*
X112728571Y-87180952D01*
X112690476Y-87228571D01*
X112614285Y-87276190D01*
X112309523Y-87276190D01*
X113071428Y-86847619D02*
X113109523Y-86800000D01*
X113185714Y-86752380D01*
X113376190Y-86752380D01*
X113452380Y-86800000D01*
X113490476Y-86847619D01*
X113528571Y-86942857D01*
X113528571Y-87038095D01*
X113490476Y-87180952D01*
X113033333Y-87752380D01*
X113528571Y-87752380D01*
G04 #@! TO.C,R1*
X124566666Y-88352380D02*
X124300000Y-87876190D01*
X124109523Y-88352380D02*
X124109523Y-87352380D01*
X124414285Y-87352380D01*
X124490476Y-87400000D01*
X124528571Y-87447619D01*
X124566666Y-87542857D01*
X124566666Y-87685714D01*
X124528571Y-87780952D01*
X124490476Y-87828571D01*
X124414285Y-87876190D01*
X124109523Y-87876190D01*
X125328571Y-88352380D02*
X124871428Y-88352380D01*
X125100000Y-88352380D02*
X125100000Y-87352380D01*
X125023809Y-87495238D01*
X124947619Y-87590476D01*
X124871428Y-87638095D01*
G04 #@! TO.C,F1*
X86733333Y-98628571D02*
X86466666Y-98628571D01*
X86466666Y-99152380D02*
X86466666Y-98152380D01*
X86847619Y-98152380D01*
X87571428Y-99152380D02*
X87114285Y-99152380D01*
X87342857Y-99152380D02*
X87342857Y-98152380D01*
X87266666Y-98295238D01*
X87190476Y-98390476D01*
X87114285Y-98438095D01*
G04 #@! TO.C,C30*
X224007142Y-91764285D02*
X224054761Y-91802380D01*
X224102380Y-91916666D01*
X224102380Y-91992857D01*
X224054761Y-92107142D01*
X223959523Y-92183333D01*
X223864285Y-92221428D01*
X223673809Y-92259523D01*
X223530952Y-92259523D01*
X223340476Y-92221428D01*
X223245238Y-92183333D01*
X223150000Y-92107142D01*
X223102380Y-91992857D01*
X223102380Y-91916666D01*
X223150000Y-91802380D01*
X223197619Y-91764285D01*
X223102380Y-91497619D02*
X223102380Y-91002380D01*
X223483333Y-91269047D01*
X223483333Y-91154761D01*
X223530952Y-91078571D01*
X223578571Y-91040476D01*
X223673809Y-91002380D01*
X223911904Y-91002380D01*
X224007142Y-91040476D01*
X224054761Y-91078571D01*
X224102380Y-91154761D01*
X224102380Y-91383333D01*
X224054761Y-91459523D01*
X224007142Y-91497619D01*
X223102380Y-90507142D02*
X223102380Y-90430952D01*
X223150000Y-90354761D01*
X223197619Y-90316666D01*
X223292857Y-90278571D01*
X223483333Y-90240476D01*
X223721428Y-90240476D01*
X223911904Y-90278571D01*
X224007142Y-90316666D01*
X224054761Y-90354761D01*
X224102380Y-90430952D01*
X224102380Y-90507142D01*
X224054761Y-90583333D01*
X224007142Y-90621428D01*
X223911904Y-90659523D01*
X223721428Y-90697619D01*
X223483333Y-90697619D01*
X223292857Y-90659523D01*
X223197619Y-90621428D01*
X223150000Y-90583333D01*
X223102380Y-90507142D01*
G04 #@! TO.C,C23*
X226985714Y-83557142D02*
X226947619Y-83604761D01*
X226833333Y-83652380D01*
X226757142Y-83652380D01*
X226642857Y-83604761D01*
X226566666Y-83509523D01*
X226528571Y-83414285D01*
X226490476Y-83223809D01*
X226490476Y-83080952D01*
X226528571Y-82890476D01*
X226566666Y-82795238D01*
X226642857Y-82700000D01*
X226757142Y-82652380D01*
X226833333Y-82652380D01*
X226947619Y-82700000D01*
X226985714Y-82747619D01*
X227290476Y-82747619D02*
X227328571Y-82700000D01*
X227404761Y-82652380D01*
X227595238Y-82652380D01*
X227671428Y-82700000D01*
X227709523Y-82747619D01*
X227747619Y-82842857D01*
X227747619Y-82938095D01*
X227709523Y-83080952D01*
X227252380Y-83652380D01*
X227747619Y-83652380D01*
X228014285Y-82652380D02*
X228509523Y-82652380D01*
X228242857Y-83033333D01*
X228357142Y-83033333D01*
X228433333Y-83080952D01*
X228471428Y-83128571D01*
X228509523Y-83223809D01*
X228509523Y-83461904D01*
X228471428Y-83557142D01*
X228433333Y-83604761D01*
X228357142Y-83652380D01*
X228128571Y-83652380D01*
X228052380Y-83604761D01*
X228014285Y-83557142D01*
G04 #@! TO.C,C17*
X216087142Y-84754285D02*
X216134761Y-84792380D01*
X216182380Y-84906666D01*
X216182380Y-84982857D01*
X216134761Y-85097142D01*
X216039523Y-85173333D01*
X215944285Y-85211428D01*
X215753809Y-85249523D01*
X215610952Y-85249523D01*
X215420476Y-85211428D01*
X215325238Y-85173333D01*
X215230000Y-85097142D01*
X215182380Y-84982857D01*
X215182380Y-84906666D01*
X215230000Y-84792380D01*
X215277619Y-84754285D01*
X216182380Y-83992380D02*
X216182380Y-84449523D01*
X216182380Y-84220952D02*
X215182380Y-84220952D01*
X215325238Y-84297142D01*
X215420476Y-84373333D01*
X215468095Y-84449523D01*
X215182380Y-83725714D02*
X215182380Y-83192380D01*
X216182380Y-83535238D01*
G04 #@! TO.C,C16*
X219107142Y-84684285D02*
X219154761Y-84722380D01*
X219202380Y-84836666D01*
X219202380Y-84912857D01*
X219154761Y-85027142D01*
X219059523Y-85103333D01*
X218964285Y-85141428D01*
X218773809Y-85179523D01*
X218630952Y-85179523D01*
X218440476Y-85141428D01*
X218345238Y-85103333D01*
X218250000Y-85027142D01*
X218202380Y-84912857D01*
X218202380Y-84836666D01*
X218250000Y-84722380D01*
X218297619Y-84684285D01*
X219202380Y-83922380D02*
X219202380Y-84379523D01*
X219202380Y-84150952D02*
X218202380Y-84150952D01*
X218345238Y-84227142D01*
X218440476Y-84303333D01*
X218488095Y-84379523D01*
X218202380Y-83236666D02*
X218202380Y-83389047D01*
X218250000Y-83465238D01*
X218297619Y-83503333D01*
X218440476Y-83579523D01*
X218630952Y-83617619D01*
X219011904Y-83617619D01*
X219107142Y-83579523D01*
X219154761Y-83541428D01*
X219202380Y-83465238D01*
X219202380Y-83312857D01*
X219154761Y-83236666D01*
X219107142Y-83198571D01*
X219011904Y-83160476D01*
X218773809Y-83160476D01*
X218678571Y-83198571D01*
X218630952Y-83236666D01*
X218583333Y-83312857D01*
X218583333Y-83465238D01*
X218630952Y-83541428D01*
X218678571Y-83579523D01*
X218773809Y-83617619D01*
G04 #@! TO.C,C13*
X198167142Y-90784285D02*
X198214761Y-90822380D01*
X198262380Y-90936666D01*
X198262380Y-91012857D01*
X198214761Y-91127142D01*
X198119523Y-91203333D01*
X198024285Y-91241428D01*
X197833809Y-91279523D01*
X197690952Y-91279523D01*
X197500476Y-91241428D01*
X197405238Y-91203333D01*
X197310000Y-91127142D01*
X197262380Y-91012857D01*
X197262380Y-90936666D01*
X197310000Y-90822380D01*
X197357619Y-90784285D01*
X198262380Y-90022380D02*
X198262380Y-90479523D01*
X198262380Y-90250952D02*
X197262380Y-90250952D01*
X197405238Y-90327142D01*
X197500476Y-90403333D01*
X197548095Y-90479523D01*
X197262380Y-89755714D02*
X197262380Y-89260476D01*
X197643333Y-89527142D01*
X197643333Y-89412857D01*
X197690952Y-89336666D01*
X197738571Y-89298571D01*
X197833809Y-89260476D01*
X198071904Y-89260476D01*
X198167142Y-89298571D01*
X198214761Y-89336666D01*
X198262380Y-89412857D01*
X198262380Y-89641428D01*
X198214761Y-89717619D01*
X198167142Y-89755714D01*
G04 #@! TO.C,C12*
X78185714Y-99057142D02*
X78147619Y-99104761D01*
X78033333Y-99152380D01*
X77957142Y-99152380D01*
X77842857Y-99104761D01*
X77766666Y-99009523D01*
X77728571Y-98914285D01*
X77690476Y-98723809D01*
X77690476Y-98580952D01*
X77728571Y-98390476D01*
X77766666Y-98295238D01*
X77842857Y-98200000D01*
X77957142Y-98152380D01*
X78033333Y-98152380D01*
X78147619Y-98200000D01*
X78185714Y-98247619D01*
X78947619Y-99152380D02*
X78490476Y-99152380D01*
X78719047Y-99152380D02*
X78719047Y-98152380D01*
X78642857Y-98295238D01*
X78566666Y-98390476D01*
X78490476Y-98438095D01*
X79252380Y-98247619D02*
X79290476Y-98200000D01*
X79366666Y-98152380D01*
X79557142Y-98152380D01*
X79633333Y-98200000D01*
X79671428Y-98247619D01*
X79709523Y-98342857D01*
X79709523Y-98438095D01*
X79671428Y-98580952D01*
X79214285Y-99152380D01*
X79709523Y-99152380D01*
G04 #@! TO.C,C11*
X189757142Y-81814285D02*
X189804761Y-81852380D01*
X189852380Y-81966666D01*
X189852380Y-82042857D01*
X189804761Y-82157142D01*
X189709523Y-82233333D01*
X189614285Y-82271428D01*
X189423809Y-82309523D01*
X189280952Y-82309523D01*
X189090476Y-82271428D01*
X188995238Y-82233333D01*
X188900000Y-82157142D01*
X188852380Y-82042857D01*
X188852380Y-81966666D01*
X188900000Y-81852380D01*
X188947619Y-81814285D01*
X189852380Y-81052380D02*
X189852380Y-81509523D01*
X189852380Y-81280952D02*
X188852380Y-81280952D01*
X188995238Y-81357142D01*
X189090476Y-81433333D01*
X189138095Y-81509523D01*
X189852380Y-80290476D02*
X189852380Y-80747619D01*
X189852380Y-80519047D02*
X188852380Y-80519047D01*
X188995238Y-80595238D01*
X189090476Y-80671428D01*
X189138095Y-80747619D01*
G04 #@! TO.C,C10*
X151785714Y-102857142D02*
X151747619Y-102904761D01*
X151633333Y-102952380D01*
X151557142Y-102952380D01*
X151442857Y-102904761D01*
X151366666Y-102809523D01*
X151328571Y-102714285D01*
X151290476Y-102523809D01*
X151290476Y-102380952D01*
X151328571Y-102190476D01*
X151366666Y-102095238D01*
X151442857Y-102000000D01*
X151557142Y-101952380D01*
X151633333Y-101952380D01*
X151747619Y-102000000D01*
X151785714Y-102047619D01*
X152547619Y-102952380D02*
X152090476Y-102952380D01*
X152319047Y-102952380D02*
X152319047Y-101952380D01*
X152242857Y-102095238D01*
X152166666Y-102190476D01*
X152090476Y-102238095D01*
X153042857Y-101952380D02*
X153119047Y-101952380D01*
X153195238Y-102000000D01*
X153233333Y-102047619D01*
X153271428Y-102142857D01*
X153309523Y-102333333D01*
X153309523Y-102571428D01*
X153271428Y-102761904D01*
X153233333Y-102857142D01*
X153195238Y-102904761D01*
X153119047Y-102952380D01*
X153042857Y-102952380D01*
X152966666Y-102904761D01*
X152928571Y-102857142D01*
X152890476Y-102761904D01*
X152852380Y-102571428D01*
X152852380Y-102333333D01*
X152890476Y-102142857D01*
X152928571Y-102047619D01*
X152966666Y-102000000D01*
X153042857Y-101952380D01*
G04 #@! TO.C,C9*
X154966666Y-96227142D02*
X154928571Y-96274761D01*
X154814285Y-96322380D01*
X154738095Y-96322380D01*
X154623809Y-96274761D01*
X154547619Y-96179523D01*
X154509523Y-96084285D01*
X154471428Y-95893809D01*
X154471428Y-95750952D01*
X154509523Y-95560476D01*
X154547619Y-95465238D01*
X154623809Y-95370000D01*
X154738095Y-95322380D01*
X154814285Y-95322380D01*
X154928571Y-95370000D01*
X154966666Y-95417619D01*
X155347619Y-96322380D02*
X155500000Y-96322380D01*
X155576190Y-96274761D01*
X155614285Y-96227142D01*
X155690476Y-96084285D01*
X155728571Y-95893809D01*
X155728571Y-95512857D01*
X155690476Y-95417619D01*
X155652380Y-95370000D01*
X155576190Y-95322380D01*
X155423809Y-95322380D01*
X155347619Y-95370000D01*
X155309523Y-95417619D01*
X155271428Y-95512857D01*
X155271428Y-95750952D01*
X155309523Y-95846190D01*
X155347619Y-95893809D01*
X155423809Y-95941428D01*
X155576190Y-95941428D01*
X155652380Y-95893809D01*
X155690476Y-95846190D01*
X155728571Y-95750952D01*
G04 #@! TO.C,C8*
X149866666Y-84357142D02*
X149828571Y-84404761D01*
X149714285Y-84452380D01*
X149638095Y-84452380D01*
X149523809Y-84404761D01*
X149447619Y-84309523D01*
X149409523Y-84214285D01*
X149371428Y-84023809D01*
X149371428Y-83880952D01*
X149409523Y-83690476D01*
X149447619Y-83595238D01*
X149523809Y-83500000D01*
X149638095Y-83452380D01*
X149714285Y-83452380D01*
X149828571Y-83500000D01*
X149866666Y-83547619D01*
X150323809Y-83880952D02*
X150247619Y-83833333D01*
X150209523Y-83785714D01*
X150171428Y-83690476D01*
X150171428Y-83642857D01*
X150209523Y-83547619D01*
X150247619Y-83500000D01*
X150323809Y-83452380D01*
X150476190Y-83452380D01*
X150552380Y-83500000D01*
X150590476Y-83547619D01*
X150628571Y-83642857D01*
X150628571Y-83690476D01*
X150590476Y-83785714D01*
X150552380Y-83833333D01*
X150476190Y-83880952D01*
X150323809Y-83880952D01*
X150247619Y-83928571D01*
X150209523Y-83976190D01*
X150171428Y-84071428D01*
X150171428Y-84261904D01*
X150209523Y-84357142D01*
X150247619Y-84404761D01*
X150323809Y-84452380D01*
X150476190Y-84452380D01*
X150552380Y-84404761D01*
X150590476Y-84357142D01*
X150628571Y-84261904D01*
X150628571Y-84071428D01*
X150590476Y-83976190D01*
X150552380Y-83928571D01*
X150476190Y-83880952D01*
G04 #@! TO.C,C7*
X154766666Y-91727142D02*
X154728571Y-91774761D01*
X154614285Y-91822380D01*
X154538095Y-91822380D01*
X154423809Y-91774761D01*
X154347619Y-91679523D01*
X154309523Y-91584285D01*
X154271428Y-91393809D01*
X154271428Y-91250952D01*
X154309523Y-91060476D01*
X154347619Y-90965238D01*
X154423809Y-90870000D01*
X154538095Y-90822380D01*
X154614285Y-90822380D01*
X154728571Y-90870000D01*
X154766666Y-90917619D01*
X155033333Y-90822380D02*
X155566666Y-90822380D01*
X155223809Y-91822380D01*
G04 #@! TO.C,C6*
X147566666Y-79557142D02*
X147528571Y-79604761D01*
X147414285Y-79652380D01*
X147338095Y-79652380D01*
X147223809Y-79604761D01*
X147147619Y-79509523D01*
X147109523Y-79414285D01*
X147071428Y-79223809D01*
X147071428Y-79080952D01*
X147109523Y-78890476D01*
X147147619Y-78795238D01*
X147223809Y-78700000D01*
X147338095Y-78652380D01*
X147414285Y-78652380D01*
X147528571Y-78700000D01*
X147566666Y-78747619D01*
X148252380Y-78652380D02*
X148100000Y-78652380D01*
X148023809Y-78700000D01*
X147985714Y-78747619D01*
X147909523Y-78890476D01*
X147871428Y-79080952D01*
X147871428Y-79461904D01*
X147909523Y-79557142D01*
X147947619Y-79604761D01*
X148023809Y-79652380D01*
X148176190Y-79652380D01*
X148252380Y-79604761D01*
X148290476Y-79557142D01*
X148328571Y-79461904D01*
X148328571Y-79223809D01*
X148290476Y-79128571D01*
X148252380Y-79080952D01*
X148176190Y-79033333D01*
X148023809Y-79033333D01*
X147947619Y-79080952D01*
X147909523Y-79128571D01*
X147871428Y-79223809D01*
G04 #@! TO.C,C5*
X137766666Y-82757142D02*
X137728571Y-82804761D01*
X137614285Y-82852380D01*
X137538095Y-82852380D01*
X137423809Y-82804761D01*
X137347619Y-82709523D01*
X137309523Y-82614285D01*
X137271428Y-82423809D01*
X137271428Y-82280952D01*
X137309523Y-82090476D01*
X137347619Y-81995238D01*
X137423809Y-81900000D01*
X137538095Y-81852380D01*
X137614285Y-81852380D01*
X137728571Y-81900000D01*
X137766666Y-81947619D01*
X138490476Y-81852380D02*
X138109523Y-81852380D01*
X138071428Y-82328571D01*
X138109523Y-82280952D01*
X138185714Y-82233333D01*
X138376190Y-82233333D01*
X138452380Y-82280952D01*
X138490476Y-82328571D01*
X138528571Y-82423809D01*
X138528571Y-82661904D01*
X138490476Y-82757142D01*
X138452380Y-82804761D01*
X138376190Y-82852380D01*
X138185714Y-82852380D01*
X138109523Y-82804761D01*
X138071428Y-82757142D01*
G04 #@! TO.C,C4*
X112066666Y-99707142D02*
X112028571Y-99754761D01*
X111914285Y-99802380D01*
X111838095Y-99802380D01*
X111723809Y-99754761D01*
X111647619Y-99659523D01*
X111609523Y-99564285D01*
X111571428Y-99373809D01*
X111571428Y-99230952D01*
X111609523Y-99040476D01*
X111647619Y-98945238D01*
X111723809Y-98850000D01*
X111838095Y-98802380D01*
X111914285Y-98802380D01*
X112028571Y-98850000D01*
X112066666Y-98897619D01*
X112752380Y-99135714D02*
X112752380Y-99802380D01*
X112561904Y-98754761D02*
X112371428Y-99469047D01*
X112866666Y-99469047D01*
G04 #@! TO.C,C3*
X123516666Y-100007142D02*
X123478571Y-100054761D01*
X123364285Y-100102380D01*
X123288095Y-100102380D01*
X123173809Y-100054761D01*
X123097619Y-99959523D01*
X123059523Y-99864285D01*
X123021428Y-99673809D01*
X123021428Y-99530952D01*
X123059523Y-99340476D01*
X123097619Y-99245238D01*
X123173809Y-99150000D01*
X123288095Y-99102380D01*
X123364285Y-99102380D01*
X123478571Y-99150000D01*
X123516666Y-99197619D01*
X123783333Y-99102380D02*
X124278571Y-99102380D01*
X124011904Y-99483333D01*
X124126190Y-99483333D01*
X124202380Y-99530952D01*
X124240476Y-99578571D01*
X124278571Y-99673809D01*
X124278571Y-99911904D01*
X124240476Y-100007142D01*
X124202380Y-100054761D01*
X124126190Y-100102380D01*
X123897619Y-100102380D01*
X123821428Y-100054761D01*
X123783333Y-100007142D01*
G04 #@! TO.C,C2*
X214766666Y-77727142D02*
X214728571Y-77774761D01*
X214614285Y-77822380D01*
X214538095Y-77822380D01*
X214423809Y-77774761D01*
X214347619Y-77679523D01*
X214309523Y-77584285D01*
X214271428Y-77393809D01*
X214271428Y-77250952D01*
X214309523Y-77060476D01*
X214347619Y-76965238D01*
X214423809Y-76870000D01*
X214538095Y-76822380D01*
X214614285Y-76822380D01*
X214728571Y-76870000D01*
X214766666Y-76917619D01*
X215071428Y-76917619D02*
X215109523Y-76870000D01*
X215185714Y-76822380D01*
X215376190Y-76822380D01*
X215452380Y-76870000D01*
X215490476Y-76917619D01*
X215528571Y-77012857D01*
X215528571Y-77108095D01*
X215490476Y-77250952D01*
X215033333Y-77822380D01*
X215528571Y-77822380D01*
G04 #@! TO.C,C1*
X234141666Y-77727142D02*
X234103571Y-77774761D01*
X233989285Y-77822380D01*
X233913095Y-77822380D01*
X233798809Y-77774761D01*
X233722619Y-77679523D01*
X233684523Y-77584285D01*
X233646428Y-77393809D01*
X233646428Y-77250952D01*
X233684523Y-77060476D01*
X233722619Y-76965238D01*
X233798809Y-76870000D01*
X233913095Y-76822380D01*
X233989285Y-76822380D01*
X234103571Y-76870000D01*
X234141666Y-76917619D01*
X234903571Y-77822380D02*
X234446428Y-77822380D01*
X234675000Y-77822380D02*
X234675000Y-76822380D01*
X234598809Y-76965238D01*
X234522619Y-77060476D01*
X234446428Y-77108095D01*
G04 #@! TO.C,J2*
X163933333Y-68452380D02*
X163933333Y-69166666D01*
X163895238Y-69309523D01*
X163819047Y-69404761D01*
X163704761Y-69452380D01*
X163628571Y-69452380D01*
X164276190Y-68547619D02*
X164314285Y-68500000D01*
X164390476Y-68452380D01*
X164580952Y-68452380D01*
X164657142Y-68500000D01*
X164695238Y-68547619D01*
X164733333Y-68642857D01*
X164733333Y-68738095D01*
X164695238Y-68880952D01*
X164238095Y-69452380D01*
X164733333Y-69452380D01*
G04 #@! TO.C,J1*
X196233333Y-68552380D02*
X196233333Y-69266666D01*
X196195238Y-69409523D01*
X196119047Y-69504761D01*
X196004761Y-69552380D01*
X195928571Y-69552380D01*
X197033333Y-69552380D02*
X196576190Y-69552380D01*
X196804761Y-69552380D02*
X196804761Y-68552380D01*
X196728571Y-68695238D01*
X196652380Y-68790476D01*
X196576190Y-68838095D01*
G04 #@! TD*
M02*
